<svg id="Layer_1" data-name="Layer 1" xmlns="http://www.w3.org/2000/svg" viewBox="0 0 671 294"><defs><style>.cls-1{fill:#fff;}</style></defs><path class="cls-1" d="M58.82,187.84c-.83-3-2.31-6.42-6.35-6.42a5,5,0,0,0-5.3,5.11c0,3.3,2.21,4.91,6.13,6.8,4.08,2,8.31,4.2,8.31,9.37s-4.3,9.06-10.84,9.06A15,15,0,0,1,46,211a16.06,16.06,0,0,1-2.37-1,71.61,71.61,0,0,1-1.32-7.48l1.45-.41c.8,3,3.14,7.89,8,7.89,3.5,0,5.55-2.15,5.55-5.52s-2.56-5-6.22-6.94c-3.34-1.67-7.93-4-7.93-9.17,0-4.69,3.79-8.57,10.05-8.57a20.44,20.44,0,0,1,6.22,1.12c.19,1.67.42,3.59.84,6.67"/><path class="cls-1" d="M177.66,126.61a16.37,16.37,0,0,1-.39,3.56c-.43,2.24-.81,3.36-1.12,3.36s-.29-.46-.35-1.39c-.12-2-.19-3.09-.19-3.33q-.74-7.25-3.71-24.4-.85-4.75-2.25-14.23c-.46-.41-.66-.72-.58-.93.19-.56.53-1.39,1-2.51.35-.93.58-1.39.66-1.39s.92,1.48,2.32,4.48c1.54,3.33,2.22,5.07,2,5.22s-.6-.12-1.2-.77c-.18-.2-.62-.66-1.35-1.39q1.34,7.13,3.94,22.77a94.57,94.57,0,0,1,1.24,11"/><path class="cls-1" d="M106,128.75a8,8,0,0,1-1.74,5.49q-1.31,1.39-9.74,6.38c-6.38,3.75-10.5,5.64-12.34,5.64-2.4,0-3.6-1.48-3.6-4.48a21.11,21.11,0,0,1,1.9-8.43c.62-1.43,1-2.17,1.28-2.13s.15.91-.58,2.73a13.48,13.48,0,0,0-1.09,4.89c0,2.13.93,3.21,2.79,3.21s5.57-1.68,11.37-5.07c7-4,10.55-6.26,10.55-6.69,0-.94-1.16-2-3.52-3.32l-5.45-2.71A22.78,22.78,0,0,1,88.28,118c-.12,0-.29-.18-.5-.47,0-.12,0-.81,0-2.09a7,7,0,0,1,.08-2c.31,0,1.27.43,2.94,1.44s2.43,1.58,2.35,1.77-.58.27-1.58.31A29.68,29.68,0,0,0,99,121.71a27.64,27.64,0,0,1,5.42,2.94,5.3,5.3,0,0,1,1.62,4.1"/><path class="cls-1" d="M51.5,119.44c-.5,1.75-1.27,2.63-2.35,2.63a1.51,1.51,0,0,1-1.35-.67,6,6,0,0,1-.94-3.24,18.6,18.6,0,0,1,.43-3.41,34.61,34.61,0,0,1,1.79-6c.33-.82.6-1.22.79-1.22s.11.12.11.27a3.58,3.58,0,0,1-.29,1.17q-.52,1.62-1.55,6.1a6.06,6.06,0,0,0,.22,3.79,1.39,1.39,0,0,0,1.28.9,1.09,1.09,0,0,0,.85-.4c.13-.19.34-.49.61-.9s.25-.49.33-.49c.33,0,.37.49.07,1.5m33.72-9.58a5.26,5.26,0,0,1-.43,2c-.27.69-.5,1.06-.69,1.06s-.43-.37-1-1.1-1-1.11-1.45-1.11c-1.16,0-3,1.18-5.45,3.58s-3.71,4.2-3.71,5.44c0,.57.6,1.18,1.81,1.77a7.71,7.71,0,0,0,3,.93,15.84,15.84,0,0,1,5.53,1.2A2.61,2.61,0,0,1,84.22,126a7.71,7.71,0,0,1-1.55,5q-2.51,3.19-9.83,6.61c-5.29,2.44-9.91,3.68-13.84,3.68-5.06,0-8.55-2.25-10.4-6.73a14.87,14.87,0,0,1-.31-9,26.08,26.08,0,0,1,2.05-5.77c.62-1.23,1-1.81,1.2-1.73s.09.73-.35,2a22.58,22.58,0,0,0-1.59,7A9.72,9.72,0,0,0,52.08,134q2.84,3.13,8.24,3.13a28.59,28.59,0,0,0,10.2-2.2,51.51,51.51,0,0,0,8.36-4.14c2.32-1.39,3.48-2.21,3.48-2.48,0-.71-1-1.2-3.14-1.43q-8.58-1-8.58-4.79c0-3,1.49-6.35,4.49-10,2.88-3.52,5.33-5.3,7.38-5.3a2.42,2.42,0,0,1,1.9,1,3.23,3.23,0,0,1,.81,2.19M73.13,144l-1.93,3.48-4-2.32-1.62,2.9-4-2.36,1.94-3.48,3.94,2.32,1.63-2.9,4,2.36"/><path class="cls-1" d="M113.93,126.65c-1.24-.08-1.86-.39-1.86-.89a.88.88,0,0,1,.49-.66,1.6,1.6,0,0,1,.79-.31,4.28,4.28,0,0,1,2.82,1.82,13.35,13.35,0,0,1-2.24,0M165.75,110q-1.69-9.13-3.25-18.22l1.35,1.36c.66.62,1.05.87,1.2.77a.24.24,0,0,0,.08-.15,36.72,36.72,0,0,0-2-5.07q-2-4.53-2.32-4.53c-.12,0-.35.49-.7,1.43-.43,1.13-.73,2-1,2.56-.11.21.12.5.66.85q1.37,9.51,2.13,14.27,3.56,20.19,3.56,24.4c0,.31-.45.72-1.34,1.18a5.11,5.11,0,0,1-2.28.72,3.43,3.43,0,0,1-.56,0,5,5,0,0,1-2.28-.85,2.9,2.9,0,0,1-1-.95,2.47,2.47,0,0,1-.34-1.41q0-.34,0-.6a2.69,2.69,0,0,0,0-.68c-.28-.11-.7.39-1.28,1.43-.31.7-.66,1.39-1,2a2.73,2.73,0,0,1-2.56,1.12c-1.38,0-2.18-.53-2.38-1.46.1-.69.28-1.37.32-2.07.08-.37.07-.57-.07-.6s-.65.32-1.2,1.12-.94,1.36-1.32,1.83a4.59,4.59,0,0,1-.41.36,7.58,7.58,0,0,1-3.84,1.92.56.56,0,0,0-.56.37h-.07a1.44,1.44,0,0,0-.89-.48l-.28-.05a2.65,2.65,0,0,1-1.63-2.45,9,9,0,0,1,.15-1.5c.06-.37,0-.58-.15-.62s-.49.12-.89.46l-1.45,1.5-.65.67c-.27.24-.54.49-.82.72s-.42.35-.64.51a10.88,10.88,0,0,1-1.15.76,3.14,3.14,0,0,1-.81.33,9.31,9.31,0,0,1-2.29.33,7.61,7.61,0,0,1-1.35-.11,1.89,1.89,0,0,1-1.55-1.67,5.31,5.31,0,0,1,.15-1.6c.19-.78.31-1.58.53-2.35a6.74,6.74,0,0,1,.39-1.06,17.86,17.86,0,0,1,2.41-1.07,32.11,32.11,0,0,0,3-1.22,8.77,8.77,0,0,0,1.92-1.12,2.13,2.13,0,0,0,.41-.56,8.08,8.08,0,0,0,1.07-2.6c-2,.66-3.82,1.7-5.81,2.34a18.57,18.57,0,0,1-2.79.91l-.05,0a6.15,6.15,0,0,1-3.45-.14,9.56,9.56,0,0,1-5.35-4.51c-.14-.23-.28-.47-.41-.71-.3-.69-.8-1.73,0-2.26,2.4-1.49,5.33-1.62,8.07-1.87,1.9-.25,3.69.62,5.57.62a11.62,11.62,0,0,0-6.71-3.18c-2.35-.29-5,0-6.74,1.7a7.2,7.2,0,0,0-2.42,4.89,3.17,3.17,0,0,0,0,.87,11.74,11.74,0,0,0,.65,2.37,9.67,9.67,0,0,0,.64,1.34,9,9,0,0,0,1.6,2.09c.65.55,1.37,1,2,1.59a32.85,32.85,0,0,1-4.21,1.76,14.33,14.33,0,0,0-1-1.69c-1.3-1.9-2.63-2.89-4-3a4,4,0,0,0-3.48,2,6.72,6.72,0,0,0-1.35,3.9q0,3.38,4.18,3.37a14.13,14.13,0,0,0,4.68-.62,2.93,2.93,0,0,1,.5,1.7c0,1.05-1.86,2.94-5.57,5.73-4.08,3-7.54,4.56-10.36,4.56a5.93,5.93,0,0,1-4.74-2,7.41,7.41,0,0,1-1.72-5,15.74,15.74,0,0,1,.43-3.56c.28-1.2.42-1.78.42-1.78s0-.17-.08-.19c-.31-.08-.73.75-1.23,2.47a18.72,18.72,0,0,0-.86,5.5,9.53,9.53,0,0,0,1.78,6,6.66,6.66,0,0,0,5.61,2.51q3.91,0,9.2-3.83a27.45,27.45,0,0,0,7-6.76,10.55,10.55,0,0,0,1.43-5.82,31.67,31.67,0,0,0,8.6-4.21,14.44,14.44,0,0,0-.92,7.17,3.37,3.37,0,0,0,2.08,2.4,7,7,0,0,0,4.62-.54,4.34,4.34,0,0,0,1-.6,9.53,9.53,0,0,0,3.13-3.08c0,2.77,1.27,4.14,3.78,4.14s4.57-1.46,6.27-4.37a2.87,2.87,0,0,0,.64,2.26,2.59,2.59,0,0,0,1.23.87,2.63,2.63,0,0,0,.8.12c2.13,0,3.67-1.37,4.68-4.1.06,0,.19.27.38.76v0a7.07,7.07,0,0,0,.82,1.43,4.28,4.28,0,0,0,3.48,1.73s0,0,0,.5h0c0-.49,0-.5,0-.5,3,0,4.89-1.64,5.73-4.83a21.72,21.72,0,0,0,.78-5.3A101.44,101.44,0,0,0,165.75,110"/><path class="cls-1" d="M100.93,105.78c-.32,1.14-.83,1.72-1.53,1.72a1,1,0,0,1-.88-.44,3.94,3.94,0,0,1-.62-2.12,11.38,11.38,0,0,1,.29-2.23,21.62,21.62,0,0,1,1.17-3.94c.21-.53.39-.8.51-.8s.07.08.07.18a2.48,2.48,0,0,1-.18.76q-.35,1.07-1,4a4,4,0,0,0,.14,2.48.92.92,0,0,0,.84.58.68.68,0,0,0,.55-.26l.41-.58c.08-.22.16-.32.21-.32.21,0,.24.32,0,1"/><path class="cls-1" d="M95.18,145.75c.07.12,0,.37-.14.74a1.69,1.69,0,0,1-.38.6l-7.22,2.68a52.63,52.63,0,0,0-6.63,2.91,1.56,1.56,0,0,1,0-.88,1.16,1.16,0,0,1,.3-.69,135.39,135.39,0,0,1,14.07-5.36"/><path class="cls-1" d="M126.07,94.86a2.13,2.13,0,0,1-.25.65c-.17.32-.26.48-.31.48a6.83,6.83,0,0,1-1.54-.46c-1.07,1.67-3.29,3.45-6.63,5.31-.28.14-1,.42-2.11.86a8.41,8.41,0,0,1-1.8.6,7.48,7.48,0,0,1,1.76-1.13c4.16-2.22,7-4.16,8.4-5.81-1.24-.56-1.88-1.24-1.88-2a2.93,2.93,0,0,1,.8-1.65,2.11,2.11,0,0,1,1.52-1c.6,0,.91.67.91,2a4.61,4.61,0,0,1-.28,1.57q1.41.45,1.41.57m-1.88-.74c.31-1.28.11-1.93-.6-1.93s-1,.27-1,.8.53.76,1.57,1.13"/><path class="cls-1" d="M154.4,101.11a2,2,0,0,1-.24.64c-.17.32-.27.49-.31.49a6.42,6.42,0,0,1-1.54-.47c-1.07,1.68-3.29,3.45-6.63,5.31-.28.14-1,.43-2.11.87a8.68,8.68,0,0,1-1.8.59,7.48,7.48,0,0,1,1.76-1.13c4.16-2.21,7-4.16,8.39-5.81-1.23-.56-1.86-1.24-1.86-2a2.89,2.89,0,0,1,.79-1.66,2.13,2.13,0,0,1,1.52-1c.6,0,.91.68.91,2a4.61,4.61,0,0,1-.28,1.57c.94.3,1.4.5,1.4.58m-1.87-.75c.31-1.28.11-1.93-.61-1.93s-1,.27-1,.81c0,.38.53.75,1.57,1.12"/><path class="cls-1" d="M152.43,140.24c0,1-.37,1.5-1.1,1.5a1.05,1.05,0,0,1-.75-.3c-.11-.09-.22-.07-.32.08a1.69,1.69,0,0,1-1.5.8,1.06,1.06,0,0,1-.65-.18,2.26,2.26,0,0,0-2.17,0,13,13,0,0,0-1.94,1.55L142.45,145a13.12,13.12,0,0,1-3,1.69,7,7,0,0,1-1.9.57c-.08,0-.14,0-.14-.09a1.76,1.76,0,0,1,.49-.26,14.83,14.83,0,0,0,1.81-.8,16.14,16.14,0,0,0,3.71-2.82,9.74,9.74,0,0,1,2.82-2.21,1.72,1.72,0,0,1,1.82-.08,1.19,1.19,0,0,0,.74.26,1.5,1.5,0,0,0,1.51-1.06c.13-.43.31-.66.52-.66.06,0,.08.07,0,.22-.09.32-.11.5,0,.57a.77.77,0,0,0,.89.23c.26-.06.29-.18.08-.36s-.18-.22-.08-.4c.17-.41.28-.61.34-.61.24,0,.36.33.36,1"/><path class="cls-1" d="M72.53,100.07a5.9,5.9,0,0,1-1,3.46,2.57,2.57,0,0,1-2,1.39,1.3,1.3,0,0,1-1-.48,4.32,4.32,0,0,1-2.75,1.6c-1.17,0-1.76-.68-1.76-2.05a7,7,0,0,1,.59-2.28c.39-1,.72-1.55,1-1.55s.31.21.25.64c-.11.93-.17,1.41-.17,1.41,0,.3.23.46.71.46a2.42,2.42,0,0,0,1.91-1.12,5.38,5.38,0,0,0,.8-1.11c.25,0,.42.18.5.56s.19.55.37.55a1.64,1.64,0,0,0,1.48-1.11,4.74,4.74,0,0,1,.64-1.12c.27,0,.41.25.41.75"/><path class="cls-1" d="M154.21,110.82a5.93,5.93,0,0,1-1,3.47,2.53,2.53,0,0,1-2,1.38,1.29,1.29,0,0,1-1-.47,4.4,4.4,0,0,1-2.76,1.59c-1.16,0-1.76-.68-1.76-2.05a6.86,6.86,0,0,1,.6-2.28c.38-1,.71-1.55,1-1.55s.31.21.25.64c-.11.93-.17,1.41-.17,1.41,0,.3.23.46.71.46A2.44,2.44,0,0,0,150,112.3c.58-.73.85-1.12.79-1.12.25,0,.42.19.5.57s.19.55.37.55a1.66,1.66,0,0,0,1.49-1.12,4.58,4.58,0,0,1,.63-1.11c.27,0,.41.25.41.75"/><path class="cls-1" d="M128.7,144.8a5.77,5.77,0,0,1-4.78,2.39c-1.39,0-2.09-.58-2.09-1.64a6,6,0,0,1,.63-2.17,5.66,5.66,0,0,1,1.34-2,2.35,2.35,0,0,1-1.15-1.7,3.32,3.32,0,0,1,.88-1.79c.6-.74,1.14-1.12,1.65-1.12s.63.31.63.94a2.26,2.26,0,0,1-.18.77c-.11.29-.23.46-.34.46a.47.47,0,0,1-.17-.27.47.47,0,0,0-.46-.41,1.22,1.22,0,0,0-.58.28c-.26.17-.41.35-.41.53,0,.58.54.88,1.62.88a2,2,0,0,0,1-.6c.31-.31.55-.46.75-.41s.1.36-.06,1.09a1.42,1.42,0,0,1-.57.54,7,7,0,0,0-2.31,1.83c-1,.95-1.44,1.65-1.44,2.11,0,.66.65,1,2,1a8.39,8.39,0,0,0,3.74-1.08c.23-.08.38-.11.46-.06s0,.23-.16.46"/><path class="cls-1" d="M316,123.35a16.19,16.19,0,0,1-.38,3.55c-.43,2.25-.81,3.37-1.13,3.37s-.29-.47-.34-1.39c-.12-2-.2-3.1-.2-3.33q-.72-7.24-3.71-24.4c-.56-3.18-1.31-7.91-2.24-14.23-.47-.41-.66-.72-.58-.93.19-.56.52-1.4,1-2.52.34-.92.57-1.39.65-1.39s.93,1.49,2.32,4.49q2.32,5,2,5.22c-.19.11-.6-.12-1.19-.78-.18-.19-.62-.65-1.36-1.39q1.33,7.14,3.95,22.78A93.56,93.56,0,0,1,316,123.35"/><path class="cls-1" d="M303.84,129.2a4,4,0,0,1-3-1.9,4.68,4.68,0,0,1,2.32-.08,2.27,2.27,0,0,1,1.12.62,1.49,1.49,0,0,1,.58.93c0,.29-.33.43-1,.43m-1-6.11a9.68,9.68,0,0,0-3.5.87,53.08,53.08,0,0,1-1.85-7.72q-2.06-16.12-2.94-25.8c.7.74,1.13,1.17,1.28,1.32.58.7,1,1,1.2.89v-.23a40.52,40.52,0,0,0-1.7-5c-1.14-3-1.86-4.53-2.13-4.53s-.35.49-.69,1.43c-.31.59-.72,1.4-1.2,2.44-.06.24.15.56.58,1a251,251,0,0,0,3.05,29.16,52.75,52.75,0,0,0,1.83,8.18v0c-3.31,1.53-5.49,2.28-6.57,2.28a1.27,1.27,0,0,0-.28,0,4,4,0,0,1-2.35-1,4.07,4.07,0,0,1-.85-1.28c-.31-.61-.54-.92-.66-.92s-.27.58-.46,1.74a19.56,19.56,0,0,0-.31,2,13.5,13.5,0,0,1,1.39,2.57,10.88,10.88,0,0,1,1.39,4.46c0,.76-2,2.52-6.11,5.26Q276.4,144,272.2,144c-4.39,0-6.58-2.13-6.58-6.35a15.62,15.62,0,0,1,.81-4.52,12.8,12.8,0,0,0,.55-2.2c-.27-.16-.58.07-1,.69a18,18,0,0,0-1.89,8.58c0,5.17,2.43,7.74,7.3,7.74,2.54,0,5.65-1.12,9.32-3.32s6.06-4.3,7.39-6.5a9,9,0,0,0,1-3.31,12.43,12.43,0,0,0,.17-3.57,12.86,12.86,0,0,0,4.79-1.11l3.87-1.86q2.64,4.75,5.61,4.75c2.2,0,3.28-2,3.28-6,0-2.67-1.35-4-4-4"/><path class="cls-1" d="M214.5,113.3l-4-2.36-1.93,3.48,4,2.36Z"/><path class="cls-1" d="M280.54,118.34a10.55,10.55,0,0,0-3.48-2.2c-2.33-.85-6-1-11-.38q-11.13,1.15-16.7,1.89a60.46,60.46,0,0,1-12.92.15c-3.15-.42-4.72-1.12-4.72-2.12s1.59-2.56,4.72-4.76q8.44-5.81,13.15-5.8a1.08,1.08,0,0,1,.89.31,5.18,5.18,0,0,0,.7.81c.23,0,.5-.44.77-1.32a6.88,6.88,0,0,0,.42-2c0-1.07-.42-1.59-1.27-1.59q-5,0-13.23,5.68c-5.61,3.87-8.39,7.55-8.39,11,0,1.85,1.82,3,5.41,3.4s8.53.27,15.13-.46q11.94-1.37,16.47-1.82a22.24,22.24,0,0,1,7.81.31c3.08.91,5,2.36,5.8,4.37q-11,2.14-24.52,3.71A192,192,0,0,1,234,129.14h-.1q-15.87,0-19.72-6.5c-.37-.6-.6-.89-.7-.89s-.31.68-.6,2a9.82,9.82,0,0,0-.37,2.18c2.23,3,3.33,5.34,3.33,7.12a1.5,1.5,0,0,1-.46,1.12,30.54,30.54,0,0,1-6.5,4.76c-4.14,2.38-7.5,3.56-10.13,3.56-4.33,0-6.5-2.13-6.5-6.35a17.7,17.7,0,0,1,.7-4.52,12.65,12.65,0,0,0,.58-2.28c-.3-.12-.58.15-.89.77a17.56,17.56,0,0,0-2,8.59c0,5.16,2.46,7.73,7.35,7.73q4.76,0,11.41-4.41c4-2.67,6.31-4.83,7-6.49a11.53,11.53,0,0,0,1-4.84q4.6,2.21,15.66,2.2h0q8.67,0,27.11-2.43c10.28-1.45,16.34-2.4,18.14-2.86.75-.16,1.46-.31,2.12-.47.16,0,.58-.73,1.28-2.18a13.81,13.81,0,0,0,1-2.5,5.51,5.51,0,0,0-2.16-4.14"/><path class="cls-1" d="M190.91,143.68,189,147.16,185,144.84l-1.62,2.9-4-2.36,1.93-3.48,3.94,2.32,1.63-2.9"/><path class="cls-1" d="M206.89,109a5.39,5.39,0,0,1-.42,2c-.27.7-.51,1.06-.7,1.06s-.42-.36-1-1.1-1-1.1-1.45-1.1c-1.16,0-3,1.18-5.45,3.58s-3.71,4.19-3.71,5.43c0,.58.6,1.18,1.82,1.78a8,8,0,0,0,3,.93,15.78,15.78,0,0,1,5.53,1.2,2.6,2.6,0,0,1,1.36,2.35,7.76,7.76,0,0,1-1.55,5c-1.66,2.12-5,4.33-9.83,6.61-5.29,2.43-9.91,3.67-13.84,3.67-5.06,0-8.55-2.24-10.4-6.73a14.87,14.87,0,0,1-.31-9,25.82,25.82,0,0,1,2-5.76c.62-1.24,1-1.82,1.2-1.74s.1.73-.35,2a22.85,22.85,0,0,0-1.58,7,9.73,9.73,0,0,0,2.47,6.84q2.83,3.13,8.24,3.14A28.72,28.72,0,0,0,192.2,134a50.22,50.22,0,0,0,8.35-4.14c2.32-1.39,3.48-2.2,3.48-2.47,0-.72-1.05-1.2-3.13-1.43-5.73-.64-8.59-2.25-8.59-4.8,0-3,1.49-6.34,4.49-10,2.88-3.51,5.33-5.29,7.38-5.29a2.42,2.42,0,0,1,1.9,1,3.2,3.2,0,0,1,.81,2.18"/><path class="cls-1" d="M284.84,95.84a4.28,4.28,0,0,1-.36,1q-.37.85-.6.93c-6.95,2.33-12.46,4.2-16.53,5.65q-11.6,4-16.58,6.27a2.37,2.37,0,0,1,.43-1.26,2.88,2.88,0,0,1,.79-.89q14.31-6,32.85-11.73"/><path class="cls-1" d="M227.4,138.86c.06.11,0,.37-.15.74a1.61,1.61,0,0,1-.38.59l-7.22,2.69a51.18,51.18,0,0,0-6.62,2.9,1.47,1.47,0,0,1,0-.88,1.28,1.28,0,0,1,.29-.69,135.62,135.62,0,0,1,14.08-5.35"/><path class="cls-1" d="M306.07,138.48c0,1-.19,1.57-.57,1.57a4.08,4.08,0,0,1-2.75-1.05,4,4,0,0,1-.77,1.7q-.74.84-4.71,2.51c-2.18,1-3.47,1.52-3.89,1.65-1.76.38-3.29.65-4.57.82h-.29c-.06,0-.09-.06,0-.1s.08-.11.26-.15c.46-.13,1.67-.59,3.65-1.37q3.36-1.31,4.89-2a17.81,17.81,0,0,0,4.63-2.47,2.79,2.79,0,0,0,.69-1,4.37,4.37,0,0,1,.84-1.51c.41-.54.77-.81,1.07-.81a1.35,1.35,0,0,1,1.06.71,2.42,2.42,0,0,1,.51,1.45m-.9.49c0-.77-.28-1.16-.83-1.16s-.69.16-.69.47c0,.06.18.19.55.37a3.13,3.13,0,0,0,1,.32"/><path class="cls-1" d="M197,93.92a1.81,1.81,0,0,1-.25.65q-.24.48-.3.48a6.83,6.83,0,0,1-1.54-.46c-1.07,1.67-3.29,3.45-6.63,5.31-.28.14-1,.42-2.11.87a8.68,8.68,0,0,1-1.8.59,7.48,7.48,0,0,1,1.76-1.13c4.15-2.22,7-4.16,8.4-5.81-1.24-.56-1.88-1.24-1.88-2a2.93,2.93,0,0,1,.8-1.65,2.1,2.1,0,0,1,1.52-1c.6,0,.9.67.9,2a4.59,4.59,0,0,1-.27,1.57c.93.3,1.4.49,1.4.57m-1.87-.74c.3-1.28.11-1.93-.6-1.93s-1,.27-1,.8.52.76,1.57,1.13"/><path class="cls-1" d="M196.48,101.12a5.92,5.92,0,0,1-1,3.46,2.57,2.57,0,0,1-2,1.39,1.28,1.28,0,0,1-1-.48,4.33,4.33,0,0,1-2.76,1.59c-1.16,0-1.75-.68-1.75-2a6.94,6.94,0,0,1,.59-2.27c.39-1,.72-1.55,1-1.55s.31.2.25.63c-.11.94-.17,1.41-.17,1.41,0,.3.23.46.71.46a2.4,2.4,0,0,0,1.91-1.11,5.22,5.22,0,0,0,.8-1.12c.25,0,.42.18.5.57s.19.55.36.55a1.66,1.66,0,0,0,1.49-1.12,4.74,4.74,0,0,1,.64-1.12c.27,0,.41.25.41.76"/><path class="cls-1" d="M234.56,90.47c.14.16.14.55,0,1.2s-.23,1-.41,1c0,0-.14-.2-.42-.63s-.55-.65-.88-.65c-.63,0-1.08,1.39-1.36,4.22s-.52,4.19-.75,4.14-.55-.61-.88-1.87a7.38,7.38,0,0,0-1.85-3.6,1.06,1.06,0,0,1-.2.31c-.13.06-.5-.1-1.13-.51s-.93-.76-1-1.08c-.13-1.45.09-2.17.68-2.17,1.08,0,2.25,1.31,3.48,4.09a14.23,14.23,0,0,0,.75,2q.19-2,.54-4c.37-2.45.93-3.66,1.7-3.6.58,0,1.15.39,1.71,1.21"/><path class="cls-1" d="M259.22,137.31c.13.16.13.55,0,1.2s-.23,1-.41,1l-.42-.63c-.26-.43-.55-.65-.88-.65-.63,0-1.08,1.4-1.36,4.22s-.52,4.19-.75,4.13-.55-.6-.89-1.86a7.37,7.37,0,0,0-1.84-3.61,1,1,0,0,1-.2.32c-.13.06-.5-.1-1.13-.51s-.93-.77-1-1.08c-.13-1.45.08-2.18.68-2.18,1.08,0,2.25,1.32,3.47,4.1a14.89,14.89,0,0,0,.76,2c.13-1.33.31-2.66.54-4,.37-2.45.93-3.66,1.7-3.6.58,0,1.15.39,1.71,1.21"/><path class="cls-1" d="M291,109.41c0,2.15-.95,3.24-2.88,3.24-1,0-1.45-.58-1.45-1.79A6.86,6.86,0,0,1,288,107c.22-.74.41-1.11.54-1.11s.17.09.07.29a2,2,0,0,0-.2.82q2.61,1.56,2.61,2.46m-.82.69c0-.08-.33-.37-1-.85a10.75,10.75,0,0,0-1.06-.73q-.13,0-.39.69a3.64,3.64,0,0,0-.23,1,.66.66,0,0,0,.75.75,3.9,3.9,0,0,0,1.13-.3c.53-.2.8-.38.8-.52"/><path class="cls-1" d="M410.1,131.93a16.3,16.3,0,0,1-.39,3.56c-.42,2.25-.81,3.37-1.12,3.37s-.29-.46-.35-1.39c-.11-2-.19-3.1-.19-3.33q-.72-7.24-3.71-24.4c-.56-3.17-1.32-7.91-2.25-14.23-.46-.41-.65-.72-.58-.93.2-.56.53-1.39,1-2.52.35-.92.58-1.39.66-1.39s.93,1.49,2.32,4.49q2.32,5,2,5.22c-.19.12-.6-.12-1.2-.77-.17-.2-.62-.66-1.35-1.4q1.33,7.14,3.94,22.78a94.7,94.7,0,0,1,1.24,10.94"/><path class="cls-1" d="M355.63,117.12l-4-2.35-1.94,3.47,4,2.36Z"/><path class="cls-1" d="M381.24,138.55l4,2.36,1.94-3.48-4-2.36Z"/><path class="cls-1" d="M398.07,113.76q-1.17-7-2.44-14.11c.75.75,1.2,1.23,1.35,1.43.58.66,1,.91,1.2.81v-.15a33.69,33.69,0,0,0-2-5.07c-1.31-3-2.09-4.52-2.28-4.52s-.43.63-1,1.89c-.36,1-.6,1.62-.69,2s.13.54.54,1c.85,5.92,1.54,10.21,2.05,12.92q2,11.66,2.4,16.55a2.91,2.91,0,0,1-1.59,2.59,5.79,5.79,0,0,1-3.09,1,.47.47,0,0,0-.17,0,3.67,3.67,0,0,1-2.9-1.2,4,4,0,0,1-.58-3.17c.06-.47-.06-.7-.31-.7a4.5,4.5,0,0,0-1.35.7,30.16,30.16,0,0,1-8.59,3.17,40.45,40.45,0,0,1-9.32,1.2c-5.91,0-9.61-.95-11.1-2.82a3,3,0,0,1-.69-3.06c.13-.35,0-.51-.23-.51-.45,0-1.16.82-2.17,2.44-1.47,2.44-3.09,3.64-4.83,3.64l-.19,0a3.65,3.65,0,0,1-2.77-1.69c-.83-1.31-1.57-4-2.21-7.93q-1.28-8.18-2-12.18Q341,93.21,339.37,87.27c-.5-2-.81-2.94-1-2.94a9.38,9.38,0,0,0-.57,2.11,19.82,19.82,0,0,0-.48,2.49c0-.15,1,5.32,2.86,16.4s2.86,17.56,2.86,19.42a3.49,3.49,0,0,1-1.74,3.09,47.4,47.4,0,0,1-9.35,4.4,35,35,0,0,1-11.8,2.48,10.67,10.67,0,0,1-7.25-2.3,7.57,7.57,0,0,1-2.65-6,17,17,0,0,1,.54-3.4c.35-1.21.39-1.85.16-1.89-.27-.2-.61.21-1,1.16a16.19,16.19,0,0,0-1.51,6.57,9.5,9.5,0,0,0,2.79,7.16q2.89,2.9,8.39,2.9c3,0,6.82-.85,11.48-2.52a43.3,43.3,0,0,0,10.21-5.14,7.13,7.13,0,0,0,2.59-5.07c.84,4.51,2.58,6.92,5.22,7.3a.51.51,0,0,0,.22.06l.26,0h.26a1.49,1.49,0,0,0,.43-.07,5.65,5.65,0,0,0,4.11-2.94,21.22,21.22,0,0,1,1.44-2.24q1.74,5.56,12.52,5.57h0a39.79,39.79,0,0,0,10.87-1.75,29.27,29.27,0,0,0,8.24-3.36c.28,3.4,1.6,5.11,3.94,5.11a2.2,2.2,0,0,0,.37-.05,6.71,6.71,0,0,0,5.56-3.24,12.63,12.63,0,0,0,1.82-7.12,61,61,0,0,0-1.12-9.67"/><path class="cls-1" d="M321,125.24c3.09-.11,5-.38,5.64-.83a10.61,10.61,0,0,0,2.32-2.49,6.79,6.79,0,0,0,1.59-3.71c0-1-.79-1.51-2.38-1.51s-2.38-.16-2.38-.47c0-1.06.82-1.72,2.4-2,.16-.06.42-.54.79-1.47a6,6,0,0,0,.56-1.86c0-.15-.11-.23-.34-.23-.84,0-2,1-3.47,3s-2.22,3.69-2.22,5,1.51,2,4.53,2.09a7.2,7.2,0,0,1-3.1,2.12c-1.31.53-2.67,1.08-4.06,1.66-.43.16-.62.3-.62.39s.25.27.74.23"/><path class="cls-1" d="M334.34,106.34c-.32,1.14-.83,1.72-1.54,1.72a1,1,0,0,1-.88-.43,4,4,0,0,1-.61-2.12,12,12,0,0,1,.28-2.23,23.07,23.07,0,0,1,1.17-3.94c.22-.54.39-.8.52-.8s.07.08.07.18a2.4,2.4,0,0,1-.19.76c-.23.71-.57,2-1,4a4,4,0,0,0,.14,2.48.91.91,0,0,0,.84.59.69.69,0,0,0,.55-.26c.09-.12.22-.32.4-.59s.16-.32.21-.32c.22,0,.25.32,0,1"/><path class="cls-1" d="M378.72,125.49c-.32,1.14-.83,1.72-1.54,1.72a1,1,0,0,1-.88-.43,4,4,0,0,1-.61-2.13,12,12,0,0,1,.28-2.22,22.2,22.2,0,0,1,1.17-3.94c.21-.54.39-.8.52-.8s.07.07.07.17a2.39,2.39,0,0,1-.19.77c-.23.7-.57,2-1,4a4,4,0,0,0,.15,2.48.91.91,0,0,0,.84.59.7.7,0,0,0,.55-.26l.4-.59c.09-.21.16-.32.21-.32.22,0,.24.32.05,1"/><path class="cls-1" d="M393.71,109.25a4.56,4.56,0,0,1-.37,1c-.24.57-.44.89-.6.93q-10.41,3.48-16.53,5.65-11.58,4-16.58,6.27a2.42,2.42,0,0,1,.44-1.26,2.75,2.75,0,0,1,.78-.89q14.31-6,32.86-11.73"/><path class="cls-1" d="M332.89,96.4a1.88,1.88,0,0,1-.25.65q-.24.48-.3.48a6.42,6.42,0,0,1-1.54-.47c-1.07,1.68-3.29,3.46-6.64,5.32-.27.13-1,.42-2.1.86a8.2,8.2,0,0,1-1.81.6,7.34,7.34,0,0,1,1.77-1.13c4.15-2.22,7-4.16,8.39-5.81-1.24-.57-1.87-1.24-1.87-2a2.86,2.86,0,0,1,.8-1.65,2.1,2.1,0,0,1,1.51-1c.61,0,.91.67.91,2a4.51,4.51,0,0,1-.27,1.57c.93.31,1.4.5,1.4.58M331,95.66c.3-1.28.11-1.93-.61-1.93s-1,.26-1,.8c0,.39.52.76,1.57,1.13"/><path class="cls-1" d="M374,93.11c.09.11.09.46,0,1.08-.06.24-.16.25-.31,0a.91.91,0,0,0-.79-.55c-.45,0-.69.32-.69,1-.05,1.19-.11,2.6-.17,4.22.14,0,.44.22.89.67a2.94,2.94,0,0,1,.71.88,1.41,1.41,0,0,1-.11.71q-.15.42-.24.42a6,6,0,0,0-2,.59c-.69.32-1,.64-1,.94q1.69,9.67,1.7,10.55c0,.44,0,.66-.13.66s-.1-.15-.14-.34c-.2-1.44-.56-3.5-1-6.19a30.07,30.07,0,0,1-.74-4.47,3.08,3.08,0,0,1,.69-2,2.32,2.32,0,0,1,1.41-.93,1,1,0,0,0-.67-.21c-.2,0-.35.15-.47.44s-.2.43-.27.43-.05-.07-.05-.26a2.83,2.83,0,0,1,.27-1.13c.2-.5.45-.76.74-.76a5,5,0,0,0-.56-1.4,3.9,3.9,0,0,0-1-1.52c-.06.28-.12.44-.18.44a2.63,2.63,0,0,1-.92-.54c-.49-.35-.73-.6-.73-.75,0-1,.13-1.47.42-1.47a2.32,2.32,0,0,1,1.54.92,8.89,8.89,0,0,1,1.61,2.82v-.06c0-.58,0-1.52,0-2.87s.45-2.05,1-2.05a1.67,1.67,0,0,1,1.18.76"/><path class="cls-1" d="M354.82,103.47q0,3.23-2.89,3.23c-1,0-1.44-.58-1.44-1.79A6.84,6.84,0,0,1,351.8,101c.22-.74.4-1.11.53-1.11s.17.09.07.29a2.17,2.17,0,0,0-.2.82c1.74,1,2.62,1.86,2.62,2.47m-.82.69c0-.09-.34-.37-1-.86a9.49,9.49,0,0,0-1.06-.72c-.08,0-.22.22-.39.69a3.69,3.69,0,0,0-.23,1,.67.67,0,0,0,.75.76,3.9,3.9,0,0,0,1.13-.3c.54-.21.81-.39.81-.52"/><path class="cls-1" d="M260.55,165.74h154v-1.83h-154Z"/><path class="cls-1" d="M42.71,165.74h154v-1.83h-154Z"/><path class="cls-1" d="M208.29,161.78c-.34-1.26-1-2.68-2.65-2.68a2.06,2.06,0,0,0-2.2,2.13c0,1.38.92,2.05,2.55,2.84s3.47,1.75,3.47,3.91-1.79,3.77-4.52,3.77a6.3,6.3,0,0,1-2-.32,5.6,5.6,0,0,1-1-.42,27.73,27.73,0,0,1-.55-3.12l.6-.17c.34,1.25,1.32,3.29,3.36,3.29a2.13,2.13,0,0,0,2.32-2.3c0-1.42-1.07-2.09-2.6-2.89s-3.31-1.67-3.31-3.83c0-2,1.58-3.57,4.19-3.57a8.6,8.6,0,0,1,2.6.47c.08.69.17,1.5.35,2.78"/><path class="cls-1" d="M216.87,161.18h0c-.6,1.51-1.19,3.08-1.75,4.56h3.43Zm1.75,10v-.56c1.19-.18,1.35-.35,1.1-1.13s-.61-1.75-1-2.87h-4.09c-.32.89-.58,1.65-.82,2.42-.41,1.19-.26,1.42,1.19,1.58v.56h-4.56v-.57c1.33-.2,1.62-.33,2.35-2.07l4.32-10.21.71-.17c1.32,3.46,2.65,6.94,4,10.38.66,1.72.95,1.94,2.28,2.07v.57"/><path class="cls-1" d="M235.94,171.21v-.46c1.76-.16,1.85-.3,1.82-2.42l-.07-8.06h-.09l-5.33,10.94h.39l-4.75-10.94H228l-.31,5.72a33.06,33.06,0,0,0,0,3.36c0,1,.53,1.1,1.91,1.24v.62H225v-.36c.93-.11,1.32-.39,1.48-1.16s.23-1.53.39-3.63l.29-3.93c.18-2.55.06-2.65-1.25-2.83v-.86h2.92l4.54,9.9,4.6-9.9h3.44v.86c-1.68.15-1.8.22-1.74,2.16l.19,7.06c.07,2.07,2.46,2.36,2.46,2.36v.33"/><path class="cls-1" d="M249,161.18h0c-.6,1.51-1.19,3.08-1.75,4.56h3.43Zm1.54,10v-.56c1.19-.18,1.35-.35,1.1-1.13s-.61-1.75-1-2.87h-4.09c-.32.89-.58,1.65-.82,2.42-.41,1.19-.25,1.42,1.19,1.58v.56h-4.56v-.57c1.33-.2,1.62-.33,2.35-2.07L249,158.36l.72-.17c1.32,3.46,2.63,6.94,4,10.38.66,1.72.95,1.94,2.28,2.07v.57"/><path class="cls-1" d="M76.43,199.78c-1,.49-2.89,1.38-3.88,1.83-1.86.81-2.89,1.74-2.89,3.47a3.35,3.35,0,0,0,3.27,3.56,5.7,5.7,0,0,0,3.5-1.54Zm3.81,11.78a3.75,3.75,0,0,1-2.44-.93,4.12,4.12,0,0,1-1.16-2c-1.93,1.22-4.17,2.92-5.52,2.92a5.8,5.8,0,0,1-5.91-5.78c0-2.34,1.29-3.75,3.89-4.59,3.05-1,6.35-2.18,7.33-3v-.84c0-3.37-1.49-5.17-3.77-5.17a2.71,2.71,0,0,0-2,.84,7.37,7.37,0,0,0-1.45,3.18,1.49,1.49,0,0,1-1.54,1.15,2.36,2.36,0,0,1-2.18-2.09c0-.7.61-1.28,1.54-1.92A22,22,0,0,1,74.3,190a6.47,6.47,0,0,1,4,1.19c1.76,1.48,2.28,3.44,1.8,5.94v8.44c.48,2.09,1.31,2.79,2.18,2.79a3.75,3.75,0,0,0,1.7-.51l.48,1.25"/><path class="cls-1" d="M108.71,209.89a33.81,33.81,0,0,0-3.75.74c-1.32.36-2.6.68-3.6.93l-.32-.25V208a36.79,36.79,0,0,1-3.26,2.33,7.24,7.24,0,0,1-3.66,1.15c-3.23,0-5.84-1.93-5.84-6.8v-9.16c0-2.43-.36-2.65-1.52-2.92l-1.21-.3V191c1,0,2.32-.2,3.71-.33s2.85-.4,3.71-.53c-.13,1.49-.13,3.81-.13,7v6.45c0,3.56,1.81,4.67,3.74,4.67a6.49,6.49,0,0,0,4.46-1.9V195.57c0-2.56-.42-2.84-2-3.1l-1.69-.29v-1.11a46.73,46.73,0,0,0,4.72-.4,32.24,32.24,0,0,0,3.48-.47v15.49c0,2.44.39,2.76,2.25,2.89l1.28.06"/><path class="cls-1" d="M127.48,194.23a5.89,5.89,0,0,0-4.85-2.44c-2,0-6,1.7-6,8.5,0,5.62,3.56,8.19,6.51,8.19a8.35,8.35,0,0,0,4.34-1.47Zm7.76,15.57a65.29,65.29,0,0,0-7.76,1.76v-3.17L124.69,210a8.44,8.44,0,0,1-3.62,1.33c-3.93,0-9-3.36-9-9.86s5.77-11.44,12.33-11.44a10.61,10.61,0,0,1,3,.51v-6.53c0-3-.32-3.14-3.65-3.36v-1.38a51.92,51.92,0,0,0,8.2-1.71v27.86c0,2.57.36,2.8,2.28,3l1.35.13"/><path class="cls-1" d="M139.94,183.47a2.63,2.63,0,0,1,2.64-2.63,2.52,2.52,0,0,1,2.5,2.63,2.55,2.55,0,0,1-2.57,2.54,2.64,2.64,0,0,1-2.57-2.54m-2.44,27.84v-1.55l2.74-3.85v-9.59c0-2.7-.15-2.91-2.74-3.35v-1.26a36.15,36.15,0,0,0,7.29-1.83v15.88c0,3.5.35,3.78,3.65,4.16v1.39"/><path class="cls-1" d="M186.69,203a48.14,48.14,0,0,1-2.79,7.45,44.91,44.91,0,0,1-9.22,1.35c-12.39,0-17.91-8.19-17.91-15.6,0-9.89,8-16.38,19.13-16.38a41.12,41.12,0,0,1,8.93,1.35c.38,2.67.74,4.69,1,7.35l-1.45.32c-1.31-5.19-4.53-7.25-9.76-7.25-8.18,0-12.55,6.61-12.55,13.61,0,8.86,5.43,14.77,13,14.77,5,0,7.7-2.67,10.24-7.52"/><path class="cls-1" d="M199.44,192.17c-2.06,0-4.11,1.83-4.79,5.75,2.54,0,5.07,0,7.74-.1.83,0,1.12-.29,1.12-.9,0-2.47-1.54-4.75-4-4.75Zm8.28,15c-3.08,3.88-6.52,4.72-8.06,4.72-5.88,0-9.34-4.72-9.34-9.95a11.75,11.75,0,0,1,3.05-8,10.08,10.08,0,0,1,7.19-3.59h0a7.42,7.42,0,0,1,7.32,7.22c0,.9-.26,1.32-1.12,1.51s-6.84.61-12.36.8c.1,6.07,3.66,8.64,7,8.64a8,8,0,0,0,5.53-2.35"/><path class="cls-1" d="M225.91,211.31v-1.55l2.74-4v-7.67c0-3.23-1.3-5.16-4.18-5.16-1.77,0-3.51,1.11-4.94,2.28v11.13c0,3.22.24,3.41,2.74,3.7v1.25H211.33v-1.25c3.37-.39,3.65-.61,3.65-3.76v-9.79c0-2.95-.31-3.13-2.74-3.57v-1.33a29.24,29.24,0,0,0,6.38-1.7v3.71c1-.72,2-1.48,3.29-2.3a7.25,7.25,0,0,1,4-1.41c3.88,0,6.34,2.72,6.34,7.49v8.67l2.74,3.69v1.55"/><path class="cls-1" d="M248,210.92a4.56,4.56,0,0,1-2,.64c-3.17,0-4.94-1.8-5.44-5.58V192.17h-2.74l-.22-.22,1.31-1.6h1.65v-3.22l4-3.27.55.13v6.36h5.42c.48.7.32,1.73-.32,1.82h-5.1v12.17c.09,3.79,1.73,4.43,2.92,4.43a6.76,6.76,0,0,0,2.89-.8l.41,1.28"/><path class="cls-1" d="M263.38,195.06c1.57-2.56,3.53-5.07,5.75-5.07A2.7,2.7,0,0,1,272,192.4a2.81,2.81,0,0,1-1.67,2.54,1.19,1.19,0,0,1-1.28-.13,2.83,2.83,0,0,0-2.09-1c-1.22,0-2.66,1.37-3.69,3.88v8.67c0,3.08.21,3.37,3.65,3.66v1.25H256v-1.55c2.7-.28,3.65-3.66,3.65-3.66v-9.72L256,192.82v-1a32.11,32.11,0,0,0,7.29-2v5.1"/><path class="cls-1" d="M287,199.78c-1,.49-2.89,1.38-3.88,1.83-1.86.81-2.89,1.74-2.89,3.47a3.35,3.35,0,0,0,3.27,3.56,5.7,5.7,0,0,0,3.5-1.54Zm3.36,11.78a3.75,3.75,0,0,1-2.44-.93,4.12,4.12,0,0,1-1.16-2c-1.93,1.22-4.17,2.92-5.52,2.92a5.8,5.8,0,0,1-5.91-5.78c0-2.34,1.29-3.75,3.89-4.59a46,46,0,0,0,7.78-3v-.84c-.4-3.37-1.94-5.17-4.22-5.17a2.71,2.71,0,0,0-2,.84,7.37,7.37,0,0,0-1.45,3.18,1.49,1.49,0,0,1-1.54,1.15,2.36,2.36,0,0,1-2.18-2.09c0-.7.61-1.28,1.54-1.92A22,22,0,0,1,284.4,190a6.47,6.47,0,0,1,4,1.19c1.76,1.48,2.28,3.44,2.25,5.94v8.44c0,2.09.86,2.79,1.73,2.79a3.75,3.75,0,0,0,1.7-.51l.48,1.25"/><path class="cls-1" d="M295.19,211.31V209.9c3.19-.38,3.64-.65,3.64-4V184l-3.64-3.56v-1.17a44.2,44.2,0,0,0,7.29-1.61V206c0,3.28.43,3.58,3.64,3.88v1.48"/><path class="cls-1" d="M323.44,205.16c0,3.5.93,4.39,3.95,4.36,3.76-.06,7.16-2,7.16-6.83s-3.28-6.87-9.12-6.87h-2ZM325.53,194c5.2,0,7.38-2,7.38-5.9,0-3.38-1.89-6-6.26-6a5.2,5.2,0,0,0-2.66.58c-.42.29-.55.83-.55,2.28V194Zm5.77.92c4.91.64,8.67,2.69,8.67,7.41a8,8,0,0,1-4.56,7.13c-2.47,1.32-5.75,1.86-9.57,1.86H314.33V210c4.22-.29,4.55-.61,4.55-4.56V186.29c0-4-.2-4.3-3.64-4.56v-1.41h12.69c3.66,0,5.75.54,7.35,1.64a6.45,6.45,0,0,1,2.7,5.36c0,4.46-3.89,6.29-6.68,7"/><path class="cls-1" d="M355.34,199.78c-1,.49-2.89,1.38-3.88,1.83-1.86.81-2.89,1.74-2.89,3.47a3.35,3.35,0,0,0,3.27,3.56,5.7,5.7,0,0,0,3.5-1.54Zm3.73,11.78a3.75,3.75,0,0,1-2.44-.93,4.29,4.29,0,0,1-1.16-2c-1.92,1.22-4.17,2.92-5.52,2.92a5.79,5.79,0,0,1-5.9-5.78c0-2.34,1.28-3.75,3.88-4.59,3.05-1,6.35-2.18,7.41-3v-.84c0-3.37-1.57-5.17-3.85-5.17a2.71,2.71,0,0,0-2,.84,7.38,7.38,0,0,0-1.44,3.18,1.5,1.5,0,0,1-1.55,1.15,2.36,2.36,0,0,1-2.18-2.09c0-.7.61-1.28,1.54-1.92a22.12,22.12,0,0,1,7.29-3.31,6.45,6.45,0,0,1,4,1.19c1.76,1.48,2.28,3.44,1.88,5.94v8.44c.4,2.09,1.23,2.79,2.1,2.79a3.68,3.68,0,0,0,1.7-.51l.48,1.25"/><path class="cls-1" d="M378.13,211.31v-1.55l2.73-4v-7.67c0-3.23-1.3-5.16-4.17-5.16-1.78,0-3.52,1.11-4.94,2.28v10.84s.61,3.41,3.64,3.69v1.55H364.46v-1.25c3.37-.39,3.64-.61,3.64-3.76v-9.78c0-3-.31-3.14-2.73-3.58v-1.2a33.63,33.63,0,0,0,7.29-2v3.83c.92-.67,1.9-1.38,3.07-2.15a6.82,6.82,0,0,1,3.77-1.31c3.62,0,5.92,2.54,5.92,7v8.92l2.73,3.69v1.55"/><path class="cls-1" d="M407.94,211.11c-2.19-2.37-5.17-6.26-7.67-9.24-.58-.71-1-1-1.38-1a1.84,1.84,0,0,0-.71.06v5.39c0,3.12.44,3.34,3.65,3.7v1.25H390v-1.25c3.31-.36,3.64-.68,3.64-3.7V184l-2.73-3.6v-1.12a41.62,41.62,0,0,0,7.29-1.64v21.91A5.42,5.42,0,0,0,401,198a28.15,28.15,0,0,0,3.1-3.89c.91-1.33.72-1.7-1.34-1.94v-1.49l10-.42v1.39c-3.18.51-4.37,1-6.17,2.68a54.6,54.6,0,0,0-3.93,4.25c1,1.42,5.82,6.93,7.3,8.5s2.93,2.43,4.63,2.52v1.72"/><path class="cls-1" d="M511.2,177.76h-1.69c.06-2.18,1.69-2.08,1.69-2.08Zm3.42-12.32a40.89,40.89,0,0,1-4.82,3.33c.4.46.83.92,1.25,1.38,0,.52,0,1,0,1.58-1.37.52-3,.85-3.83,2.21-1.1,1.85-.71,4.1-.82,6.15,2.74,0,5.48,0,8.22,0,0-4.89-.09-9.76,0-14.65"/><path class="cls-1" d="M554,177.68a1.53,1.53,0,1,1,1.52-1.53,1.52,1.52,0,0,1-1.52,1.53M558.5,175c-.85-1.61-2.17-3.44-4.2-3.4-1.55-.13-2.82,1-3.73,2.11a9.71,9.71,0,0,0-1.15,6.4c1.57.38,3.32,0,5,.19-.58,2.64-3.61,3-5.86,2.73,0,.24.1.71.13.95a15.46,15.46,0,0,0,3.83,1.12c4.79,0,8.29-5.9,6-10.1"/><path class="cls-1" d="M536.72,168.65h-3.54l7.51,8.2H534v-.54a4.73,4.73,0,0,0-.08-.93c0,.08,0,.17,0,.25l0-.33a.16.16,0,0,0,0,.08,2.09,2.09,0,0,1,0-.35,4.24,4.24,0,0,0-4.12-3.64h-8.91c-.47-.43-1-.87-1.42-1.28a43,43,0,0,1-3.41,5l3,0a11.66,11.66,0,0,1,2.55.91h8.81v.91H516.67v3.64h2.58c7.48-.36,17.27-.4,25-.4l1,1.32h3.42l-10.37-12.27a1.93,1.93,0,0,0-1.46-.68"/><path class="cls-1" d="M554,131.28h-2.73v-1.8l.75-.94h1.23l.75.94Zm3.84-2.32a10.43,10.43,0,0,0-1.22-1.88c.41-.92,1.44-1.59,1.31-2.71,0-.57,0-1.14,0-1.7,0-2,0-4,0-6,0-.56,0-1.11,0-1.66l.59-.3.42-.21.09,0,.27-.13a15.57,15.57,0,0,1-1.37-1.19c-.38-.37-.75-.75-1.11-1.13l-.76-.83-.57-.62c-.38-.4-.75-.8-1.14-1.18,0,1.54,0,3.07,0,4.61v2.69c0,1.2,0,2.4,0,3.6,0,.83,0,1.74,0,2.64a6.35,6.35,0,0,1-.36,2h-1.76a6.35,6.35,0,0,1-.36-2c0-.9,0-1.81,0-2.64v-3.6c0-.9,0-1.8,0-2.69,0-1.54,0-3.07,0-4.61-.39.38-.77.78-1.14,1.18l-.57.62-.77.83c-.36.38-.72.76-1.1,1.13a17.17,17.17,0,0,1-1.37,1.19l.26.13.1,0,.41.21.6.3c0,.55,0,1.1,0,1.66,0,2,0,4,0,6,0,.56,0,1.13,0,1.7-.12,1.12.91,1.79,1.31,2.71a11,11,0,0,0-1.21,1.88c-.16,2,0,4-.1,6H558c-.11-2,.06-4-.1-6"/><path class="cls-1" d="M542.41,117.25c-.16-1.23,1-1.93,1.68-2.77a7.82,7.82,0,0,1-3.29-2.67,7,7,0,0,0-2-2.19c0,8.43-.07,16.87.06,25.3h3.56c0-5.89-.06-11.78,0-17.67"/><path class="cls-1" d="M509.51,131a.14.14,0,0,0,0-.06c.19-1.87,1.67-1.78,1.67-1.78v2.08h-1.69c0-.09,0-.16,0-.25h0m26.06,3.53c.13-5.94-.07-12.64,0-18.51-.16-1.11.77-1.77,1.46-2.45-2.1-1-3.1-3.26-5-4.59,0,7.31.05,14.62,0,21.93-5.81,0-11.62,0-17.42.09.07-3.82-.05-7.64,0-11.46a47.22,47.22,0,0,1-4.91,3.29c.46.45.94.9,1.42,1.34,0,.6-.06,1.19-.12,1.79-1.27.58-2.8.9-3.65,2.11-1.19,1.62-.92,4.36-.91,6.46"/><path class="cls-1" d="M547.66,159.53h-2.73v-1.8l.75-.93h1.23l.75.93Zm3.57-2.61a11.12,11.12,0,0,0-1.2-1.86c.39-.91,1.41-1.56,1.29-2.67,0-.56,0-1.12,0-1.69,0-2,0-4,0-6,0-.54,0-1.09,0-1.63l.59-.3.41-.2.1-.05.26-.13a17,17,0,0,1-1.35-1.18c-.38-.36-.74-.74-1.09-1.12s-.51-.54-.76-.82l-.57-.61c-.37-.39-.74-.78-1.12-1.15,0,1.51,0,3,0,4.54a26.07,26.07,0,0,1-.09,2.65v3.56a20.12,20.12,0,0,1,.1,2.6,6.22,6.22,0,0,1-.36,2,.41.41,0,0,0-.38.25h0c-.15-.25-.31-.25-.25-.25h-1.08a6.22,6.22,0,0,1-.36-2c0-.88,0-1.78,0-2.6,0-1.18,0-2.37,0-3.56,0-.88,0-1.77,0-2.65,0-1.51,0-3,0-4.54-.39.37-.76.76-1.13,1.15l-.56.61c-.25.28-.51.55-.76.82s-.72.76-1.09,1.12a17.17,17.17,0,0,1-1.36,1.18,2.1,2.1,0,0,1,.26.13.31.31,0,0,1,.1.05l.41.2.59.3c0,.54,0,1.09,0,1.63,0,2,0,4,0,6,0,.57,0,1.13,0,1.69-.12,1.11.9,1.76,1.29,2.67a11.07,11.07,0,0,0-1.19,1.86c-.16,2,0,3.93-.1,6.26h9.58c-.11-2.33,0-4.3-.1-6.26"/><path class="cls-1" d="M535.83,145.41c-.13-1.07.88-1.64,1.56-2.24l-.12-.61c-2.25-.82-3-3.4-5-4.53,0,8.38.3,16.76.11,25.15h3.55c.05-5.92.06-11.85-.08-17.77"/><path class="cls-1" d="M557.45,145.51c-.17-1.24,1-1.93,1.67-2.77a8,8,0,0,1-3.29-2.67,6.93,6.93,0,0,0-2-2.2c0,8.44-.07,16.88.06,25.31h3.56c0-5.89-.06-11.78,0-17.67"/><path class="cls-1" d="M511.2,159.53h-1.69c.06-2.17,1.69-2.07,1.69-2.07Zm16.38-19.45a9.69,9.69,0,0,0-1.91-2.45,16.47,16.47,0,0,0-.1,2.43c.17,6.59-.1,13.17,0,19.76-1.52,0-3,.05-4.55,0,0-4.94,0-9.88,0-14.82-.16-1.08.83-1.72,1.42-2.45-2-1.19-3.27-3.18-5-4.72.15,7.33.11,14.66,0,22l-2.85,0c0-3.84,0-7.68,0-11.53a38.81,38.81,0,0,1-4.8,3.34,3.21,3.21,0,0,1,1.33,3.18c-1.38.51-3,.88-3.83,2.18-1.17,1.82-.8,4.08-.84,6.13H528.7l.33-.34c-.11-4.56-.27-9.12,0-13.69.09-1.63-.33-3.29.13-4.89a8.37,8.37,0,0,1,1.52-1.74c-1.09-.71-2.4-1.26-3-2.44"/><path class="cls-1" d="M458.09,113.17a80.4,80.4,0,0,1,13.77-21.89,8.46,8.46,0,0,1,2.52,2.06c-1.2,1.73-2.93,3-3.89,5-2.2,2.62-3.72,5.69-5.59,8.54-.9,1.72-1.75,3.48-2.57,5.24,1.07.55,2.9,1.31,3.58-.17a66.17,66.17,0,0,1,8.59-13.59,8.14,8.14,0,0,1,2.32-2.63,19.31,19.31,0,0,0,2,5.32c-1,.13-2.24-.34-3,.43-3.25,3.92-5.51,8.5-7.93,12.94a2.93,2.93,0,0,1-3.41,1.51c-2.39-.18-4.21-1.9-6.38-2.71"/><path class="cls-1" d="M503.23,69.28a53.18,53.18,0,0,1,5-1.86c1.64,2.76-.05,5.72-1.1,8.33,2.58,2.28,6.34,3.48,7.59,7,1.25,3.16-1.56,5.75-2.33,8.62-4.06-3.26-8.48-6-12.69-9.09-.92-.8-1.92.56-2.87.74a9.43,9.43,0,0,1-2.14-1.89l-.52.27c1.79-1.07,3.41-2.47,5.4-3.2,1.92.65,3,2.57,4.82,3.48,2.37,1.32,4.32,3.94,7.26,3.86a6.39,6.39,0,0,0-1.36-3.39A44,44,0,0,0,502.66,77c.54-1.57,1.81-2.85,1.89-4.6-3.38,1.66-7,2.91-10.09,5.07-2.83,1.45-5.24,3.52-7.92,5.2-1.05.74-1.87,1.75-2.91,2.5-2.11,1.45-3.66,3.55-5.74,5-.39-1-1.67-2.2-1.21-3.32a82.09,82.09,0,0,1,18.21-13.55c2.59-1.72,5.59-2.61,8.34-4"/><path class="cls-1" d="M498.83,197.12c1-1.12,1.2-3,2.63-3.61.67,2.29,1,4.68,1.71,7a9.17,9.17,0,0,0-2.69,1c-2.79,4.5-5.66,9-8.4,13.5-1,.29-2-.59-2.83-1s-.19-1.28.14-1.77a69.66,69.66,0,0,0,4.28-7c1.85-2.64,3.14-5.62,5.16-8.14"/><path class="cls-1" d="M459,122.89a2.26,2.26,0,1,1-2.26,2.26,2.26,2.26,0,0,1,2.26-2.26m35.87,65-.59.11c-3.49,5.76-7.37,11.27-10.82,17.06-.81.14-1.35-.52-1.88-1a77.59,77.59,0,0,1-6.81-6.76,77.6,77.6,0,0,1,6.8-5.35c-1.2-.89-2.56-1.53-3.77-2.4-.95,2.37-3.43,3.49-5.21,5.15a41.08,41.08,0,0,1-5.22-7.36c2.46-1.23,4.58-3,7.08-4.16,0-.14,0-.42,0-.55-1-.93-2-1.77-3-2.71-1.39,2.19-3.85,3.25-6.08,4.37-1.52-2.17-2.21-4.78-3.74-6.94l.49-.55c2.65-.93,5.16-2.21,7.72-3.37a14,14,0,0,1-3-3.28c-1.49,2.14-4.19,2.74-6.47,3.7a69.56,69.56,0,0,1-4.71-18.75c3,.53,5.45,2.44,8.23,3.55-.16-1.4-.22-2.81-.48-4.19a58.49,58.49,0,0,0-5.58-2,35.14,35.14,0,0,1,5.37-2.45c0-1.54-.12-3.07-.28-4.6-1.45.71-2.46,2-3.84,2.81l-3.91,2.24a50.44,50.44,0,0,1-.24-8.06c0-4.06,1-8,1.41-12,2.15,0,4.5.05,6.24-1.43,1.22-1.1,2.64-1.92,3.86-3-.65-.09-1.29-.15-1.93-.21-.77-1.68-1.37-3.67-3.08-4.65a5.48,5.48,0,0,0-3.84-1,3.14,3.14,0,0,0-1.65.81c-1.41,1-1.66,2.74-2,4.25l-.24-.1a4.71,4.71,0,0,1-2.56-2c-1-1.78-.28-3.86-.31-5.76-1.87,1.88-3.36,4.75-2.21,7.4.62,2.06,2.51,3.17,4.14,4.36a81,81,0,0,0,31.38,81.4l.39-.62a1.12,1.12,0,0,0,.18-.28l.69-1.09c2.78-4.44,5.67-8.82,8.45-13.26.54-.82,1.64-.82,2.47-1.19-.38-2.11-.87-4.17-1.37-6.25"/><path class="cls-1" d="M604.71,173.9c-1.06,1.43.33,2.93,1.53,3.67.85-.26,1.92-.15,2.58-.86.84-.64.71-1.87.48-2.78a2.59,2.59,0,0,0-4.59,0m-16.32-14.32c1.44-1.49,2.94-2.92,4.41-4.39,1.16.5,2.12,1.59,3.51,1.47,5.72,0,11.4.74,17.12.72a56.69,56.69,0,0,1-3.1,13.15c1,1,2.24,2.07,2.24,3.62a5.69,5.69,0,0,1-2,5.21c-1.15,1.13-2.85,1.13-4.34,1.44a69.6,69.6,0,0,1-3.8,7c1.61,1.45,3.88,2.65,4.22,5,.15,1.87-.66,4.3-2.67,4.81-.07-1.16,0-2.34,0-3.51a21,21,0,0,0-6.45-4.23,7.35,7.35,0,0,0-3.53-.57,31.46,31.46,0,0,0-.26-5.74c1.81.9,3.44,2.16,5.37,2.82a40.2,40.2,0,0,0,4-6.8c-1.85-2.14-2.75-5.6-.74-7.94,1-1.78,3.09-2.24,4.93-2.63a67.37,67.37,0,0,0,2.18-8.14,91.61,91.61,0,0,0-10.46-1,79.16,79.16,0,0,0-10.67-.31"/><path class="cls-1" d="M507.33,204.06c1.36-2.8,4.84-2.7,7.18-4.23a42.35,42.35,0,0,0,1.36,5.92c1.08,3.22,1.53,6.62,2.58,9.85.72.24,1.89-.17,2.36.63a19.62,19.62,0,0,1,.64,3c-2.05-.23-4.06-.74-6.1-1.06-1-4.42-1.44-9-3.35-13.17l-1.09-.08c-1.41,2.53-.49,5.38.22,8,.41,1.48.8,3,1.3,4.42a19.62,19.62,0,0,0-4,1.33l0,.76c4.84,1.86,10,2.63,15.11,3.37a81.61,81.61,0,0,0,16.39.19c-.25,1.18-.58,2.34-.94,3.49a80.79,80.79,0,0,1-18.45-.73c-6.41-.65-12.46-2.92-18.52-5,.52-3.14,3.7-4.35,6.06-5.87-.57-3.52-2.37-7.25-.81-10.75"/><path class="cls-1" d="M589.41,152.49c2-1.59,3.49-3.72,5.66-5.08.89.51,1.52,1.56,2.59,1.7,5.5.23,11,.11,16.51.67,0,1.1-.1,2.2-.16,3.29-8.2-.1-16.4-.42-24.6-.58"/><path class="cls-1" d="M587.89,192.55a4.4,4.4,0,0,1,5,.59,10.64,10.64,0,0,1,3.36,3.35c-2.49,3.48-5.73,6.35-8.73,9.37a88.62,88.62,0,0,1-16.94,11.74c-3.57,1.58-7,3.48-10.8,4.54-3.41.93-6.69,2.36-10.23,2.79.14,1.9.82,4.07-.37,5.78a4.64,4.64,0,0,1-4.07,1,7.63,7.63,0,0,0,1.42-1.82c.36-2.1-.41-4.17-.78-6.22a9,9,0,0,0-2.44-4,20.65,20.65,0,0,0,4-3.85c.54,1.95,1.14,3.9,1.52,5.89,4.7-.9,9.15-2.65,13.68-4.18A79.94,79.94,0,0,0,589,199.63a21.67,21.67,0,0,1,3.23-3.12c-.83-.69-1.84-1.75-3-1.19a21.75,21.75,0,0,0-2.65,2.34,75.57,75.57,0,0,1-17.21,13.17c-1.94.94-3.88,1.91-5.8,2.88-2.41,1.19-5.07,1.69-7.47,2.86a11.26,11.26,0,0,1-2,.46c1.69-2.21,2.69-4.82,4.18-7.15,1.06-1.79,1.77-3.77,2.9-5.51,0,2.75-1.36,5.22-2.12,7.8a70,70,0,0,0,23.44-14.9c1.93-1.42,3-3.8,5.34-4.72"/><path class="cls-1" d="M545.41,210.44a2,2,0,1,0-2,2,2,2,0,0,0,2-2"/><path class="cls-1" d="M557.24,67.46c1.19.32,2.36.72,3.53,1.08-1.24,4.73-3,9.27-4.27,14-.71,3.07-2.22,5.87-2.88,8.95-1.19-2.16-2.33-4.37-3.45-6.57.84-.69,1.92-1.19,2.35-2.27.78-1.79,1.09-3.76,1.76-5.6a80.48,80.48,0,0,0,3-9.59"/><path class="cls-1" d="M564.61,70.24a34.66,34.66,0,0,1,6.75,3.1,80.88,80.88,0,0,1,28.94,26c1.91,2.31,3,5.13,4.7,7.6,2.18,4.6,4.45,9.2,5.76,14.15a71.64,71.64,0,0,1,3.5,21.55c-1.61,0-3.2.12-4.8.14a6.59,6.59,0,0,0,1.09-3.56,62.77,62.77,0,0,0-2.27-15c-1-2.57-1.69-5.25-2.69-7.83a82.35,82.35,0,0,0-10.54-18.69l-.55-.23a15.57,15.57,0,0,0-1.39,2.13c0,1.12.85,2,1.46,2.79a72,72,0,0,1,9.29,18.43c2.3,5.67,3,11.8,3.76,17.82-2-1.36-3.58-3.28-5.5-4.77-1.46-1.11-2.84-2.34-4.37-3.37a13.84,13.84,0,0,1-1.11-1.19,24.83,24.83,0,0,1,7.29,3.91c-1.14-4.7-1.86-9.58-4-14a65.25,65.25,0,0,0-4.75-10.08c-1.43-2.64-3.49-4.92-4.74-7.65-1.06-2.41.43-5,2.44-6.36a33.43,33.43,0,0,0-5-5.43c-1.38,2.19-4.53,3.5-4.16,6.52a26,26,0,0,0-4.92-1.48c2.12-2.59,4.46-5,6.58-7.57-2.62-2-5-4.4-7.89-6.09-1.59,2.13-3.84,4.23-3.55,7.14a15.34,15.34,0,0,0-4.59-1.34c1.56-2.75,3.63-5.16,5.33-7.82-2.66-1.38-5.06-3.24-7.9-4.25-.81,3.76-2.3,7.33-3.22,11.06C562.92,89,561.72,92,561,95l-.69,0c-.64-2-2.3-3.57-2.89-5.61.58-.16,1.16-.35,1.73-.57,1.11-1.82,1.13-4,1.82-6,1.48-4.13,2.5-8.4,3.63-12.62"/><path class="cls-1" d="M583.11,73.77a2,2,0,1,0-2,2,2,2,0,0,0,2-2"/><path class="cls-1" d="M579.78,100.16a2,2,0,1,0-2,2,2,2,0,0,0,2-2"/><path class="cls-1" d="M532.81,240.2A93.2,93.2,0,0,1,520.92,54.56a12,12,0,0,0,6.43,9.11,12,12,0,0,0,0,21.33,12,12,0,0,0-6.53,10.67v.09a52.62,52.62,0,1,0,24,0v-.09A12,12,0,0,0,538.27,85a12,12,0,0,0,0-21.33,12,12,0,0,0,6.43-9.11A93.2,93.2,0,0,1,532.81,240.2m-9.3-165.86a9.3,9.3,0,1,1,9.3,9.3,9.31,9.31,0,0,1-9.3-9.3m9.3,20a52.51,52.51,0,0,0-9.28.83,9.29,9.29,0,0,1,18.56,0,52.59,52.59,0,0,0-9.28-.83m-9,3.56a49.32,49.32,0,0,1,18,0c.89.16,1.76.35,2.63.55a49.89,49.89,0,1,1-23.28,0c.87-.2,1.74-.39,2.63-.55m9-44.14c3.11,0,6.18.16,9.21.46a9.29,9.29,0,0,1-18.42,0c3-.3,6.1-.46,9.21-.46m11.93-2q-1.38-.18-2.76-.3-4.53-.43-9.17-.44t-9.17.44q-1.38.12-2.76.3a95.93,95.93,0,1,0,23.86,0"/></svg>