<svg id="Layer_1" data-name="Layer 1" xmlns="http://www.w3.org/2000/svg" viewBox="0 0 344.23 247.44"><defs><style>.cls-1{fill:#50c7ed;}</style></defs><path class="cls-1" d="M271.11,164.24c-3.8,5.82-3.33,16.2-2.51,21.61s3.4,17.27,11.3,15.22c-1.24-5.58-2.26-11.22-3.16-16.88C274.92,177.52,273.09,170.85,271.11,164.24Z" transform="translate(0)"/><path class="cls-1" d="M252.29,112.27c-4,2.19-9,4.6-12,8.11-3.33,3.92-1.94,9.15,3.45,10a15.65,15.65,0,0,0,5.28-.28,8.64,8.64,0,0,0,.92-.1,19.49,19.49,0,0,0,6.36-2.5,41.58,41.58,0,0,0,3.75-2.16c-1.31-5.07-2.58-10.15-3.77-15.25C254.89,110.81,253.55,111.59,252.29,112.27Z" transform="translate(0)"/><path class="cls-1" d="M152.52,229.16c1.69-6.17,1.9-13.49,2-19.83.08-4.12-.55-7.77-3-10.76a7,7,0,0,0-2.07-2.46c2.45-6,4.9-11.93,7.46-17.83a27,27,0,0,0,3.71,4.65c2,2.2,4,4.39,6.07,6.54a2.52,2.52,0,0,0-.3.8c0,.15,0,.31,0,.46a5.32,5.32,0,0,0-.5,2.45,7.54,7.54,0,0,0,.28,1.51c.2,5.18,2.3,10.07,5.16,14.55,3.36,5.25,7.84,11.75,14,14,4.06,1.47,8.29,1,9.88-3.42,2.11-5.92-2.48-14-5.41-18.84-3.12-5.1-7.76-12.08-14-13.64a9.72,9.72,0,0,0-7.44,1.16,2,2,0,0,0-.93.28q-1.87-2.19-3.79-4.35c-2.11-2.35-4.7-4.72-6-7.64q2.74-6.27,5.8-12.41c2.36,2.16,6.41,3.87,9.48,3.59a18,18,0,0,0,13.78,8.25c7.1.74,17.49,1.88,24.07-1.68,3.83-2.07,6-6.08,4.52-10.34-2-5.79-7.62-6.9-13.1-6.94-4.72,0-27.51,1.11-28.48,8.78a1.48,1.48,0,0,0-.75.45c-1.65-.49-3.37-.68-5-1.33a29.13,29.13,0,0,1-3.85-2.08c1.3-2.58,2.59-5.17,4-7.7,7-12.57,16.26-24,21.15-37.65A.55.55,0,0,0,189,117c21-9,41.7-18.68,62.89-27.25-.16-.8-.32-1.59-.47-2.38q-7.23,2.94-14.37,6a141.33,141.33,0,0,1-20.65-19,14.15,14.15,0,0,0,2.23-1.9,23.43,23.43,0,0,0,1.76-1.83,9.8,9.8,0,0,0,3.67.81,7.62,7.62,0,0,0,3.93-.91,22.84,22.84,0,0,0,3.36-2.93c4.52-4.24,9.65-7.8,13.92-12.23q-1.1-4.19-2.2-8.37l-2.58-9.76c-3.81,1.91-7.14,5.9-9.87,8.42-3.93,3.63-8.36,6.47-12.39,9.89-1.87,1.59-3.24,3.23-3.59,5.76a8.84,8.84,0,0,0,4.77,8.81c-.47.58-.95,1.16-1.47,1.71s-1.38,1.29-2,2a101.87,101.87,0,0,1-12.33-17.57c2.41-1.32,4.9-3.84,5.56-6.65a6.83,6.83,0,0,0,5,.28C220,48,223.8,40.75,226.84,35.91c3.55-5.66,6.71-13.16,3.61-19.76-2.49-5.31-9.43-5.08-13.92-2.53-6.31,3.58-8.28,10.62-9.82,17.22-1.05,4.55-5.28,15.52.87,18.22.18.08.36.12.54.18a16.58,16.58,0,0,1-1.45,3.15,19.47,19.47,0,0,1-3.19,3.68,110.6,110.6,0,0,1-6.36-13.73c1.38-.62,2.45-2.06,2.86-4.7.81-5.27-2.51-11.91-4.29-16.69-1.94-5.2-3.36-11.32-6.91-15.74C185.5,1.13,177.64-2.92,174,3.07c-1.46,2.43-.85,5.14-.32,7.75a68,68,0,0,0,4.52,13.81c.28.69.56,1.35.81,1.95A33.69,33.69,0,0,0,187.46,39c2.5,2.21,5.87,4,8.51,3.64a89.65,89.65,0,0,0,6,14.42,38.2,38.2,0,0,1-10.2-1.4c.67-3.12-1.1-6.94-4.52-8.83-5.18-2.88-11.48-4.1-16.88-6.77-3.64-1.81-7.29-3.68-11.5-3.37-6.43.48-12.37,7.17-8,13.3,4.65,6.46,38.5,18.16,40.3,7.11a4.94,4.94,0,0,0,.35-.64,23.15,23.15,0,0,0,11,1.76,95.68,95.68,0,0,0,11.69,17c-3.4,2.75-8,3.84-12.32,5-1.14-3.39-5.4-6-8.86-6.5-4.33-.65-9,.62-13.24,1.52-5.34,1.15-11.86,2.14-16.66,4.9-6,3.48-6,11.54-.49,15.6,7.4,5.45,17.81.62,25.23-2.18,4-1.5,8.82-3.35,11.47-6.53A6.93,6.93,0,0,0,201,85.57a5.69,5.69,0,0,0,1.12-4.46,62.81,62.81,0,0,0,8.79-2.55,9.65,9.65,0,0,0,4-2.49,76.41,76.41,0,0,0,21.76,17.52c-22.42,9.69-44.46,20.23-67,29.54C151.06,123,131.47,109.61,117.93,98a134.42,134.42,0,0,1-10.58-10.19c2.44-1.66,5-4,6.3-6.72-.16.34,2.26,1,2.5,1.12a8.65,8.65,0,0,0,4.4-.16,19,19,0,0,0,8.13-4,22.67,22.67,0,0,0,4.9-6.89c1.41-2.91,2.51-6,3.73-8.94,2-4.86,4.26-12.64-1-16.34-5.56-3.9-11.8,1.21-14.8,5.86-2,3.13-3.48,6.57-5.51,9.69-1.85,2.85-4.38,5.49-5.42,8.79a10.17,10.17,0,0,0,2.14,10.1c-1.89,2.39-3.37,4.73-5.9,6.63a.46.46,0,0,0-.1.18c-8.08-8.7-15.09-18.19-22.07-28a.52.52,0,0,0-.54-.22,1.18,1.18,0,0,0,.08-.31c2.76-2.35.94-6.82-.16-9.76C80.7,40,77.8,29.18,71.73,21.88c-8-9.65-18.89-3.19-14.09,8.37C60.9,38.09,71,64.7,83.34,59.54a1.41,1.41,0,0,0,.27-.18.5.5,0,0,0,0,.29,110.68,110.68,0,0,0,9,14.07c-1.42.15-2.84.4-4.27.48-1.59.09-3.18,0-4.77,0a1.6,1.6,0,0,0,0-.21,3.44,3.44,0,0,0-1-3.82c-8.36-6.67-22.09-9.08-32.59-8.31-6.81.49-16.85,3.86-10,11.83,6.43,7.53,20.56,8.34,29.64,7.73,3.41-.23,14.87-1.79,14.17-6.93a20.63,20.63,0,0,0,9.44-.19,140.06,140.06,0,0,0,11.76,13.58c-.06,0-.11,0-.16,0a31,31,0,0,1-9.31,4.69C93.13,82.08,72,87.17,65,88.57c-4.44.9-11.69,3.3-12.82,8.53-.91,4.17,2.28,6.53,5.94,7.34s7.95.39,11.65.52c4.1.16,8.64.74,12.72.19a12.8,12.8,0,0,0,2.33-.54l.36,0c5.06-.45,9.7-3.13,10.35-8.57a10.54,10.54,0,0,0,0-1.77,26.46,26.46,0,0,0,10-4.89.84.84,0,0,0,.23-.42,164.1,164.1,0,0,0,16.42,14.51c12.06,9.27,29.64,20.21,45.71,20.38-3.67,1.5-7.35,3-11.07,4.42-23.12,8.88-46.78,15.71-70.5,22.43a27.1,27.1,0,0,0-4.15-2.93,4.14,4.14,0,0,0,1-1.31c2.76-5.67-5.76-15.73-9-19.43C70.38,122.64,62.8,114.07,56,115.07A5.16,5.16,0,0,0,52.41,117a5.08,5.08,0,0,0-.6,3.7,17,17,0,0,0,1.75,4.92A45.46,45.46,0,0,0,57,131.13c1.36,1.93,2.83,3.79,4.35,5.6s3,3.43,4.62,5.05,3,2.91,4.57,4.32a10.17,10.17,0,0,0,2.85,1.82,9.42,9.42,0,0,0,1.8.57,13.32,13.32,0,0,0,4.41.06,12.68,12.68,0,0,1,2.25-.09A29.52,29.52,0,0,0,85.23,151c-7.82,2.22-15.64,4.42-23.45,6.69A13.13,13.13,0,0,0,59,155.24a2.75,2.75,0,0,0,1.88-2.62c-.34-7.39-22.63-40.26-31.52-28.19-4.94,6.71,4.72,14,8.57,18.33s12.42,14.54,19,12.79a3.82,3.82,0,0,0,1.06-.06A18.84,18.84,0,0,1,60.76,158c-5.91,1.72-11.81,3.47-17.69,5.29a.08.08,0,0,0,0,.15c6-1.31,12.06-2.71,18.09-4.16,0,.05,0,.08,0,.14-.05,1.45-.75,2.82-.89,4.26a.11.11,0,0,0,.19.08,6.77,6.77,0,0,0,1.08-2.4A13,13,0,0,0,62.2,159q11.86-2.87,23.7-6.1a6.81,6.81,0,0,0-1.17,3.89c-3.48-.41-8.34,2.92-9.87,5.61-2.6,4.57-2.55,10.14-2.83,15.24s-1.65,12.61,1.14,17.41c1.82,3.13,5.38,3.9,8.62,2.26,3.9-2,5.37-6.7,5.88-10.68.34-2.69.19-5.4.69-8.07s1.47-5.43,1.75-8.27c.39-4,.59-9.41-2.87-12.17a3.52,3.52,0,0,0-2.07-1.23c.39-.76.59-1.59.94-2.38a16.29,16.29,0,0,1,1.07-2c23.76-6.52,47.31-14.09,70.2-22.65,10.23-3.82,20.32-8,30.34-12.3-5.41,15-16,27.66-23.41,41.63-.54,1-1.05,2.08-1.58,3.11a38.28,38.28,0,0,1-6.75,1,42.36,42.36,0,0,1-4.37-.27c.39-3.54-2.6-7.36-5.61-8.87-2.77-1.39-6-1.62-8.95-2.4-3.82-1-7.47-2.56-11.44-3s-10.54.33-11.2,5.44,5.11,8.46,9.06,10.07a38.24,38.24,0,0,0,10.17,3c3.76.38,7.55.64,11.33.76a7,7,0,0,0,3-.34A6.14,6.14,0,0,0,150.4,166a5.29,5.29,0,0,0,1-1.9,20.23,20.23,0,0,0,10.45,0c-2.21,4.34-4.34,8.74-6.26,13.24a.69.69,0,0,0-.25,0,38.68,38.68,0,0,1-7.81,1.81c-1.42.13-2.85.22-4.26.42a8.49,8.49,0,0,0-6.35-7.15c-7.82-2.28-20-2.39-27.34,1.44-5.14,2.69-11.43,8.54-5.1,13.54,4.62,3.65,11.77,4.47,18,3.76,6.38,0,13.82-1.62,18.14-5.42a7.52,7.52,0,0,0,2.58-4.6,38.65,38.65,0,0,0,6.48-.37,12.24,12.24,0,0,0,5.18-1.57,161.82,161.82,0,0,0-6,16.61c-2.13-1.17-5-1-8.77,1.45-9.74,6.34-12.84,17.65-14.61,28.43-1.21,7.4-2.2,18.55,7.08,21.36C142.31,250,150.39,237,152.52,229.16Z" transform="translate(0)"/><path class="cls-1" d="M237.53,156.5c-4.23,4.72-6.69,13.67,0,17.67,7.19,4.29,15.15-3.49,19.45-8.44a58.52,58.52,0,0,0,5.16-6.88,43.12,43.12,0,0,0,4.87-6.94c.09-.18.17-.36.25-.55q-1.5-5.09-2.93-10.21a7,7,0,0,0-4.23.12c-4.46,1.36-8.75,5.15-12.65,7.63C244,151.12,240.33,153.38,237.53,156.5Z" transform="translate(0)"/><path class="cls-1" d="M2.37,168C1,169.61-.34,171.58.08,173.3c.34,1.46,2,2.32,3.4,2.79,5.68,1.94,15.21-1,21.09-2.2,5.3-1.12,15.71-2.23,18.6-7.59.78-1.44,1.52-3.31.82-4.84-2.4-5.35-9.83-5-15-4.54-6.77.54-12.9,1.42-18.92,4.89A29.74,29.74,0,0,0,2.37,168Z" transform="translate(0)"/><path class="cls-1" d="M49.78,175.7c-2.08,5.16-5.06,11.43-3.86,17.15.87,4.12,4.06,7.47,8.42,6,4.58-1.6,6.63-6.75,7.83-11,1.14-4.06,5.18-20.93-.76-23.62a3.78,3.78,0,0,0-2.68-1.32C53.39,162.47,51.23,172.11,49.78,175.7Z" transform="translate(0)"/><path class="cls-1" d="M100.36,31.21a49.51,49.51,0,0,0-7.64,21.56C92.15,57.47,91.29,65,96.78,67h0a8.32,8.32,0,0,0-2.66,4.5.21.21,0,0,0,.39.14,17.34,17.34,0,0,1,2.86-3.94.43.43,0,0,0,.07-.42c9.61,4.71,16.88-14.85,19.16-21s4.08-14.51-2-19C109.3,23.32,103.65,26.35,100.36,31.21Z" transform="translate(0)"/><path class="cls-1" d="M287.4,142.59c-.08.34-.17.61-.26,1a20.88,20.88,0,0,0-.25,2.88,10.52,10.52,0,0,0,.77,3.23c2.34,5.63,6.85,10.24,11.35,14.19,4.1,3.6,12.63,9.32,17.76,4.33,4.48-4.36.72-11.43-2.57-15.26s-7.82-7.21-12.05-10.24c-2.35-1.69-4.72-3.41-7.67-3.76C290.77,138.5,288.43,140.15,287.4,142.59Z" transform="translate(0)"/><path class="cls-1" d="M195.3,219.76c2.11-5.92-2.48-14-5.41-18.84-.51-.83-1-1.71-1.64-2.6.66,3.22,1.29,6.44,1.86,9.68a127.13,127.13,0,0,1,1.57,15.56A5.83,5.83,0,0,0,195.3,219.76Z" transform="translate(0)"/><path class="cls-1" d="M186.79,176.15c7.1.74,17.49,1.89,24.07-1.68,3.83-2.07,6-6.08,4.52-10.34-2-5.79-7.62-6.9-13.1-6.94-3.39,0-16.08.56-23.34,3.73q2,7.2,3.92,14.45A20.72,20.72,0,0,0,186.79,176.15Z" transform="translate(0)"/><path class="cls-1" d="M174.14,3c-1.46,2.42-.85,5.13-.32,7.74a68,68,0,0,0,4.52,13.81c.28.69.56,1.35.81,1.95A33.69,33.69,0,0,0,187.57,39c2.5,2.21,5.87,4,8.51,3.64a89.65,89.65,0,0,0,6,14.42,37.86,37.86,0,0,1-10.2-1.4c.67-3.11-1.1-6.94-4.52-8.83-5.18-2.88-11.48-4.09-16.88-6.77-3.64-1.81-7.29-3.67-11.5-3.36-6.43.47-12.37,7.17-8,13.29,4.65,6.46,38.5,18.16,40.3,7.12a5.84,5.84,0,0,0,.35-.65,23.15,23.15,0,0,0,11,1.76,95.32,95.32,0,0,0,11.69,17c-3.4,2.75-8,3.84-12.32,5-1.14-3.38-5.4-6-8.86-6.5-4.33-.65-9,.62-13.24,1.52-5.34,1.15-11.86,2.14-16.66,4.91-6,3.47-6,11.53-.49,15.59,7.4,5.46,17.81.63,25.23-2.18,4-1.5,8.82-3.35,11.47-6.53a6.93,6.93,0,0,0,1.63-1.56,5.65,5.65,0,0,0,1.12-4.46A61.48,61.48,0,0,0,211,78.52a9.55,9.55,0,0,0,4-2.49,76.41,76.41,0,0,0,21.76,17.52c-22.42,9.7-44.46,20.24-67.05,29.55-.64,0-1.29-.07-1.94-.11l.78,2.55q9.66-3.86,19.2-8c-3.33,9.2-8.61,17.55-13.91,25.87.14.49.29,1,.43,1.46l.06.19c5.6-8.83,11.41-17.54,15-27.42a.56.56,0,0,0-.22-.67c26.8-11.55,53.19-24.1,80.67-34.13q14-5.11,28.22-9.7c-5.28,10.28-11.09,20.44-15.3,31.21a.46.46,0,0,0-.21.31.41.41,0,0,0-.34-.24c-3.38,0-8.24,1.34-10.84,3.74-.76-1.74-2.59-2.84-5.39-2.23-4.55,1-9.52,4.07-13.55,6.29s-9,4.6-12,8.1c-3.33,3.92-1.94,9.16,3.45,9.95a15.9,15.9,0,0,0,5.28-.27c.32,0,.63-.06.92-.11a19.49,19.49,0,0,0,6.36-2.5,38.29,38.29,0,0,0,9.66-6.84c2.47-2.49,8.13-8.22,5.7-11.86,1.66-.45,3.23-1.33,4.87-1.87,1.86-.63,3.79-.91,5.67-1.46-.77,2-1.5,4.09-2.14,6.17a98.23,98.23,0,0,0-3.75,21.25,47.54,47.54,0,0,0-.09,4.78,21.35,21.35,0,0,0-9.6,5c-1.35-1.55-3.5-2.31-6.52-1.39-4.46,1.36-8.75,5.15-12.65,7.63-3.51,2.23-7.13,4.48-9.93,7.6-4.23,4.72-6.68,13.67,0,17.67,7.19,4.3,15.15-3.49,19.45-8.44a58.52,58.52,0,0,0,5.16-6.88,42.68,42.68,0,0,0,4.87-6.94,9.12,9.12,0,0,0,.42-8.12,29.18,29.18,0,0,1,2.89-2,39.76,39.76,0,0,1,5.94-2.63c.31,7.16,1.62,14.45.93,21.3a5.07,5.07,0,0,0-2.58.52c-7.52,3.84-7,18.18-6,24.88.83,5.42,3.54,17.93,12,15s8.08-15.65,7.38-22.46c-.6-5.88-1-19.12-10.05-17.93h-.07c1.09-6.17-1-12.31-1-18.57,0-1,.07-2.06.11-3.09.05,0,0-.09.07-.13,1.9.78,3.9,1.31,5.76,2.21,1.62.78,3,2,4.58,2.86a7.37,7.37,0,0,0,.25-.87.49.49,0,0,1,.31-.39,18.22,18.22,0,0,0-4.54-2.73,16.1,16.1,0,0,0-6.18-1.69.71.71,0,0,0-.21-.41,103.06,103.06,0,0,1,3.2-22.55c.87-3.24,1.94-6.42,3.13-9.56,1.84.45,3.39,1.63,5.1,2.4-1.69,5.44,3.22,10.93,7.19,14,4.28,3.25,9.91,7.76,15.47,8,4.59.22,9.91-1.59,9.58-7.09-.35-6-7.84-9.88-12.24-12.75-4.23-2.76-10.59-7.55-16-5.28a6.15,6.15,0,0,0-2.44,1.74,1.65,1.65,0,0,0-.71.17,10.89,10.89,0,0,0-5.52-2.45C288.14,93.32,294,82.9,299.56,72.68q22.14-7.09,44.67-12.88a3.87,3.87,0,0,1-.39-2.55,791.06,791.06,0,0,0-76.6,24C257.09,85,247.1,89.12,237.19,93.41a141.94,141.94,0,0,1-20.65-19,14.64,14.64,0,0,0,2.23-1.89,25.34,25.34,0,0,0,1.76-1.83,9.79,9.79,0,0,0,3.67.8,7.62,7.62,0,0,0,3.93-.91,22.27,22.27,0,0,0,3.36-2.93c6.31-5.92,13.82-10.5,18.52-18,2.74-4.38,3.59-10.42-2.12-12.82C241,34,235.11,41.7,230.76,45.73c-3.93,3.62-8.36,6.46-12.39,9.88-1.87,1.59-3.24,3.23-3.59,5.77a8.82,8.82,0,0,0,4.78,8.8c-.48.58-1,1.16-1.48,1.71s-1.38,1.29-2,2a101.87,101.87,0,0,1-12.33-17.57c2.41-1.32,4.9-3.84,5.56-6.65a6.78,6.78,0,0,0,5,.28c5.83-1.93,9.65-9.21,12.69-14.05,3.55-5.65,6.71-13.16,3.61-19.76-2.49-5.3-9.43-5.08-13.92-2.53-6.31,3.58-8.28,10.62-9.82,17.23-1,4.54-5.28,15.51.87,18.21.18.08.36.12.54.18a16.58,16.58,0,0,1-1.45,3.15A19.47,19.47,0,0,1,203.6,56a109.19,109.19,0,0,1-6.37-13.73c1.39-.62,2.45-2.06,2.86-4.7.81-5.27-2.51-11.91-4.29-16.68-1.94-5.21-3.36-11.33-6.91-15.75C185.61,1.1,177.75-3,174.14,3Z" transform="translate(0)"/></svg>