<svg id="Layer_1" data-name="Layer 1" xmlns="http://www.w3.org/2000/svg" viewBox="0 0 344.19 124.92"><defs><style>.cls-1{font-size:18.12px;font-family:FrutigerLTArabic-65Bold, "FrutigerLTArabic 65Bold";font-weight:700;}.cls-1,.cls-2{fill:#fff;}.cls-3{fill:#146394;}</style></defs><text class="cls-1" transform="translate(141.53 13.27)">
 :مصرح من قبل </text><path class="cls-2" d="M287.92,124.92a56.33,56.33,0,1,1,56.27-56.45A56.38,56.38,0,0,1,287.92,124.92Zm3.25-105.26c2.94,2,4.17,4.72,3.41,8.12-.43,1.9-3,3.15-2.87,4.44s2.57,2.61,2.84,4.51c.22,1.56,1,2,2.34,2.37,20.83,6.7,28.7,31.18,15.26,48.41-7.85,10.06-18.55,14-31.14,11.11-12.44-2.82-20.42-10.76-23.28-23.09-3.79-16.3,5.2-31.31,21.31-36.59.68-.22,1.66-.07,1.77-1.25.21-2.37,1.74-4,3.43-5.45-4.76-4.65-4.72-8.61.07-12.56-.79-.84-2-1.56-2.28-2.55-1.07-3.41-3.34-2.88-5.82-2.1-.77.24-1.55.42-2.33.61-21.72,5.36-38.74,25.1-40.77,47.3-2.09,22.83,9.07,43.42,29.45,54.3,28.33,15.13,65.25,1.21,76.47-28.83,8.19-22,2.59-45.07-14.87-60.81a53.56,53.56,0,0,0-27.1-13c-.81-.14-2-.92-2.47.6A9.87,9.87,0,0,1,291.17,19.66ZM287.71,98a29.38,29.38,0,1,0,.14-58.76A29.38,29.38,0,1,0,287.71,98Zm.07-77.51a5.44,5.44,0,1,0,5.44,5.36A5.42,5.42,0,0,0,287.78,20.45Zm0-6.72c-1.23.08-2.47.24-3.7.21-2,0-1.69.93-1,2.12a5.53,5.53,0,0,0,9,.65c.5-.62,1.13-1.29.93-2.1-.27-1.08-1.33-.55-2-.66C289.91,13.79,288.84,13.8,287.78,13.73Zm3.68,24.32c1.76.05,2.06-.34,1.32-1.81a5.46,5.46,0,0,0-10.06.23c-.55,1.27-.32,1.81,1.17,1.59A25.61,25.61,0,0,1,291.46,38.05Z"/><path class="cls-2" d="M109.87,49.87c5.4,1.39,10.78.43,16.15-.2a101.62,101.62,0,0,1,11.15-1,8.32,8.32,0,0,1,5.91,2,3.54,3.54,0,0,1,1.07,3.85c-.38,1.48-1.51,1.74-2.85,1.87-1.94.19-3.86.56-5.79.86a.39.39,0,0,0-.43,0c-4.93.61-9.85,1.26-14.79,1.81-5.12.57-10.26,1.19-15.33-.3-1.16-.33-1.09.35-1.3,1C102,65,97.85,67.23,93.05,68.42,90.58,69,89,67.1,88.6,63.75h.9c1.1,2.11,2.78,2.48,5,1.78a20.4,20.4,0,0,0,7.42-4.61c1.44-1.32.48-2.83-.15-4.16s-1.22-2.52.08-4.15c1.91,4.35,5.69,4.49,9.5,4.52,9.14.09,18.07-1.83,27.11-2.72,1.31-.13,2.61-.31,4.21-.5-1.4-2.5-3.56-2.71-5.75-2.69-5.9.06-11.7,1.13-17.57,1.6a39.43,39.43,0,0,1-8.27.1c-1.74-.24-3.17-.91-2.44-3.14Z"/><path class="cls-2" d="M17.79,63.73c2.6,2.3,4.58-.13,6.32-1.23a73,73,0,0,0,6.49-4.1l.9.07c-.23,2.19-2.18,2.88-3.56,4.07-.39.34-1.08.52-1,1.14a1.65,1.65,0,0,0,1.36,1.14,5.91,5.91,0,0,0,4.18-.35,21.37,21.37,0,0,0,6.61-4.9c.41-.45,1-.91.71-1.6s-1.08-.31-1.64-.36c-1.15-.08-2.43.09-3.05-1.18a3.32,3.32,0,0,1,.48-3.29c1.15-1.84,2.94-2.09,4.07-.24,1.35,2.21,2.59,1.92,4.35.48-1.76-1.62-3.35-3.41-3.27-6a4.73,4.73,0,0,1,1.5-3.32c2.33-2.29,6.3-2.07,9.54.67a18.4,18.4,0,0,0-7.49.26c-2.57.75-2.83,1.53-1.18,3.71,2.08,2.75,4.19,3.39,7.5,2.22,1.47-.52,2.92-1.11,4.56-1.73-.27,2.25-1.89,2.66-3.28,3.38-1.13.58-2.72.48-3.21,2L48,54.53c-2.19.22-3.92,1.65-6,2.27-.59.18-.73.66-.89,1.2-1.19,4.17-4.48,6.51-7.91,8.62a5.84,5.84,0,0,1-7.48-.77l0,0c.11-.53.08-1.34-.44-1.24-1,.17-2.2.33-2.3,1.75l0,0c-1.16-.49-1.78.08-2.18,1.09l0,0c-2.18-.33-4.46-.53-4.17-3.65Z"/><path class="cls-2" d="M163.44,58.36c5.57,1.72,10.1-.61,14.36-3.77a4.62,4.62,0,0,0,1.69-4,99.62,99.62,0,0,0-1.2-13.8,7.7,7.7,0,0,1,.43-3.91,27.48,27.48,0,0,1,1.77,9.1c.27,3.72.31,7.46.52,11.19.09,1.56-.07,3.48,1.83,4.06s3.14-.75,4.1-2.27c.37-.6.84-1.13,1.45-1.94,1,3.63,3.66,4.43,6.73,4.55a23.9,23.9,0,0,0,11.21-2c.87-.4,1.73-1.26,2.17.75.36,1.62,2.32,1.31,4.25-.59l.86.08A5.25,5.25,0,0,1,212,59.08c-1.15,1-2.9,1.4-3.6.34-1.52-2.28-2.93-1-4.56-.54-3.23,1-6.48,1.94-9.94,1.24-2.51-.51-4.88-1.22-6-4.15-1.65,1.89-2.44,4.75-5.57,3.87-2.27-.64-2.12-2.78-2.65-4.88a20.33,20.33,0,0,1-7.77,5.51c-4,1.84-7.7,1.44-10.07-1C162.65,59.5,163.4,59.44,163.44,58.36Z"/><path class="cls-2" d="M171.4,94.47c2.27,1,4,2.52,3.32,5.31s-2.86,4-5.48,4.33-5.33.14-8,.17c-.43,0-1,0-1-.54s.41-.76.85-.82c1.47-.19,1.51-1.23,1.51-2.35,0-3.29,0-6.57,0-9.86,0-1.49.31-3.15-1.9-3.44a.77.77,0,0,1-.45-.54c0-.42.3-.62.69-.61,3.28.09,6.64-.54,9.84.37C174.43,87.55,174.65,90.82,171.4,94.47Zm-5.88,3.8c0,4.16.19,4.53,2.24,4.52A3.5,3.5,0,0,0,171.53,99c-.06-2.33-1.83-3.75-4.6-3.65S166.12,97.47,165.52,98.27Zm-.06-7.42c.62.9-1.12,3,1.56,3,2,0,3.47-.74,3.48-3.08,0-2.1-1.1-3.08-3.12-3.2C164.67,87.41,165.78,89.47,165.46,90.85Z"/><path class="cls-2" d="M48.22,57.37c1.2,2.54,3.11,1.5,4.7.72a19.21,19.21,0,0,0,3.3-2.64c1.07,3.91,3,4,7.23.42,1.45,3,3,2.73,6.1-1-.06,1.93.77,2.79,2.53,2.54s2-1.48,1.9-2.94q-.54-8.91-1.06-17.81c0-.92-.68-2.32.47-2.58s1.08,1.34,1.52,2.13a5.92,5.92,0,0,1,.38,1.53c-.08.23-.15.46-.23.69-1,1-.33,2.18-.29,3.25.14,3.63.46,7.24.62,10.87a9.28,9.28,0,0,1-1.47,6.08c-1,1.35-2.55,2.3-3.83,1-1.5-1.53-2-.82-3.1.31a1.93,1.93,0,0,1-3.22-.19c-1-1.86-1.68-.65-2.5,0-2.69,2.12-4.41,1.73-5.78-1.42-1.94,1.62-3.65,4-6.62,2.79-1.59-.64-1.56-2.19-1.35-3.65Z"/><path class="cls-2" d="M48.2,85.53c1.47-.36,2.71-.73,4-1,1.51-.26,1,1,1,1.59,0,4.53,0,9.07,0,13.6a10.45,10.45,0,0,0,.23,2.09c.18.83,2.69.23,1.41,1.54-.8.81-2.89,1.62-4.28.47a.88.88,0,0,0-1.26-.1c-2.67,1.47-4.8.71-6.54-1.56a6.63,6.63,0,0,1,0-7.51,7.64,7.64,0,0,1,5.37-3.14c.79-.11,2.35.76,2.26-.87s1.28-3.73-1.48-4.43C48.69,86.21,48.56,85.93,48.2,85.53Zm2.25,12.26c0-.53,0-1.06,0-1.59.08-1.39,0-2.7-1.73-3a3,3,0,0,0-3.62,1.92,5.78,5.78,0,0,0,.65,6,3,3,0,0,0,3.52,1.12c1.52-.36,1.12-1.56,1.17-2.57C50.48,99,50.45,98.41,50.45,97.79Z"/><path class="cls-2" d="M211.2,103.75a19.3,19.3,0,0,1-7.19.35c3.67-2.7,2.08-6.24,2.07-9.32s1.49-6.49-1.44-9.11c0-.09.05-.22.1-.24C209,84.09,209,84.09,209,88.6v8c2.45-.65,2.78-1.17,2.55-4,0-.39.08-.73.52-.74,1.79-.05,3.6-.54,5.91.22a12.63,12.63,0,0,0-5.52,3.76c-.6.8-.66,1.29,0,2,1.9,2,3.34,4.52,6,5.86-2,.46-3.82,1.33-5.36-.88a24.58,24.58,0,0,0-3.91-4.28C209.3,100.5,207.87,102.76,211.2,103.75Z"/><path class="cls-2" d="M78.38,85.67c.68.07,1.48.13,2.27.24,2.59.36,3.7,2,3.17,4.51a.77.77,0,0,1-.63.72c-.45.09-.55-.3-.76-.58-2.35-3.28-4.1-4-7.19-3-2.66.84-4.21,3.18-4.39,6.64a11.63,11.63,0,0,0,.69,4.72,6.42,6.42,0,0,0,5.33,4.29,5.07,5.07,0,0,0,5.39-2.64c.33-.55.67-1.52,1.56-1,.69.41,0,1.11-.08,1.68-.34,2.1-1.43,3.09-3.72,3.28-4.29.35-8.28.1-11-3.77a8.93,8.93,0,0,1-.46-10C70.68,86.93,74.21,85.78,78.38,85.67Z"/><path class="cls-2" d="M7.22,85.72c.93.54,2.89-.53,3.18,1.63.13,1,.9,2.48-.05,2.94-1.21.58-1.16-1.15-1.7-1.83-1.07-1.35-3.42-1.83-4.48-.69A2.75,2.75,0,0,0,4.31,92a18.36,18.36,0,0,0,3.36,2.12c3.56,2,4.72,5,3,7.87-1.55,2.55-6.79,3.69-9.39,1.88-1.49-1-1.3-2.85-1.1-4.35.12-.91.91-.51,1.23.18a5.91,5.91,0,0,0,2.17,2.93c1.6.93,3.18,1,4.31-.48a2.94,2.94,0,0,0-.69-4.44,32,32,0,0,0-3.16-2C1.13,94,0,91.93.64,89.5S3.87,85.58,7.22,85.72Z"/><path class="cls-2" d="M107.08,104.29c2.07-2,2.82-7.9,1.76-9.64a1.92,1.92,0,0,0-2.29-.9c-.92.24-2,.44-2.06,1.72,0,2.12,0,4.25,0,6.38a2.46,2.46,0,0,1,0,.26c-.12,1,2.51,1.19,1.23,1.86-1.46.77-3.63.34-5.47.17-.76-.06-.37-.67,0-1.11,1.48-1.51,1.87-7.69.38-9.18-1.06-1.07-.57-1.52.39-1.45,1.18.09,2.79-2.19,3.59.49l1.6-.74c3-1.43,5.38-.17,5.68,3.14.16,1.76,0,3.55.08,5.32,0,.68-.2,1.43.39,2,.41.39,1.42.38,1.11,1.21s-1.24.4-1.89.44C110.35,104.34,109.05,104.29,107.08,104.29Z"/><path class="cls-2" d="M189.14,103c.84.07,2-.09,2-.91-.15-3.08,1.38-6.45-1.58-9.44,1.79.16,3.1-2.37,4.89,0,.42.54,1.07-.33,1.61-.55,3.15-1.32,5.31-.1,5.61,3.29a28.54,28.54,0,0,1,0,4.53c-.11,1.6.14,2.94,1.91,3.65-1.81.87-3.32,1-6.38.38,2.88-2.46,1.46-5.62,1.56-8.52,0-1.12-.87-1.74-2-1.73s-2.57.37-2.54,1.46c.09,2.91-1.42,6.14,2,9.13-2.49,0-4.29,0-6.09,0-.87,0-.84-.75-1-1.32Z"/><path class="cls-2" d="M37.81,97.35c.74,1.48-1.51,4.19,1.7,5.35.44.15.17,1-.29,1-1.42-.13-2.87,1.7-4.28-.06-.64-.79-1.07.15-1.54.35-3.47,1.5-5.84.09-6-3.64-.05-1.6,0-3.2,0-4.79A5.44,5.44,0,0,0,27.25,94c-.21-.69-2.07-.71-1.22-1.49s2.38-.75,3.54-.57.53,1.45.56,2.22c.09,1.77,0,3.55,0,5.32,0,1.55.48,2.89,2.36,2.89s2.69-1,2.52-2.88c-.13-1.41,0-2.83,0-4.25,0-.51.08-1.06-.39-1.47s-2.14-.38-1.3-1.27c.67-.7,2.32-.51,3.54-.63s.92.81.94,1.46C37.83,94.52,37.81,95.76,37.81,97.35Z"/><path class="cls-2" d="M148.44,102.82c-1.49.91-2.79,2.88-4.79.7-.63-.68-1.09.21-1.59.44-2.33,1.05-4.2.47-5.11-1.64-.84-1.95,0-3.45,2.56-4.38.92-.34,1.84-.67,2.75-1s1-1.12.85-2a1.91,1.91,0,0,0-1.5-1.67c-1-.21-1.5.34-1.82,1.18a5.27,5.27,0,0,1-.52,1.22c-.53.74-1.21.64-1.85.13s-.83-1.24-.12-1.79c1.84-1.39,3.69-3,6.25-2.14,2.37.83,2.61,2.9,2.55,5a12.2,12.2,0,0,1,0,1.6c-.29,2,.08,3.7,2.32,4.4ZM143.21,98c-1.7.65-3.53.78-3.36,3a1.49,1.49,0,0,0,2.15,1.32C144.28,101.48,142.83,99.61,143.21,98Z"/><path class="cls-2" d="M89.5,63.76h-.9c-1.15-1.44-2.26,0-3.36.12-2.38.26-4.73.44-6.38-1.63C77.07,60,77,57.43,78,54.43a5.51,5.51,0,0,1,.36,1.08c0,2.42.47,4.65,3.13,5.59a7.59,7.59,0,0,0,8-2.29c.12-.14.22-.61.35-.35,1.14,2.26,2.07,0,2.94-.22a14.37,14.37,0,0,0,3.06-1.94c-1.3-1.27-2.81-1.12-4.09-1.46-2.42-.64-3.59-1.87-2.65-4.43H90c.59,2,2.44,1.73,3.89,2.2,1.22.39,2.8.33,3.13,2a4.11,4.11,0,0,1-1.69,4.22c-1.35,1-2.8,1.88-4.24,2.77C90.25,62.14,89.22,62.46,89.5,63.76Z"/><path class="cls-2" d="M12.88,49.85c-.56,1.17-.39,2.06,1,2.47l.77.22c6,1.76,6.09,1.91,3.15,7.47h-.54c-.41-.07-.61.1-.58.52l0-.06c-2.56,1-4.78,2.64-7.49,3.38C2.44,65.71-.74,63,.17,56c.26,0,.51-.06.57.3.87,4.8,2.86,6.24,7.58,5.24a25.13,25.13,0,0,0,9.93-4.86c-2.27-2.3-9-.16-6.27-6.79Z"/><path class="cls-2" d="M189.14,103l0-.08c-1.54,1-3,2.45-4.92.54-.51-.51-1.22.44-1.85.69a3.25,3.25,0,0,1-4.56-1.91c-.71-2,0-3.45,2.07-4.19,1-.37,2-.71,3-1.11.79-.32,1.39-.77,1.16-1.81a2.16,2.16,0,0,0-1.6-1.92c-1.05-.22-1.66.39-2,1.34-.26.73-.38,1.67-1.49,1.55a1.28,1.28,0,0,1-1.13-1c-.26-1,.5-1.42,1.17-1.86,1.73-1.13,3.45-2.36,5.67-1.33s2.17,3,2.16,5c0,.36,0,.72,0,1.07C186.73,100.12,186.56,102.2,189.14,103Zm-4.93-5.11c-1.78.66-3.72.73-3.61,3,.05,1.2,1.07,1.63,2.13,1.35C185.28,101.63,183.81,99.64,184.21,97.93Z"/><path class="cls-2" d="M17.46,104.53c-2.17-.1-3.23-1-3.58-2.72A2.84,2.84,0,0,1,15.8,98.2c1.08-.41,2.18-.78,3.25-1.21.76-.31,1.47-.67,1.23-1.75a2.3,2.3,0,0,0-1.85-2c-.95-.16-1.47.46-1.75,1.3s-.39,1.64-1.45,1.62A1.25,1.25,0,0,1,14,95.22c-.34-1.14.57-1.6,1.29-2.06,1.74-1.11,3.51-2.28,5.7-1.12,2,1.06,2,2.95,2,4.87,0,1.24,0,2.49,0,3.73,0,.5-.08,1.07.46,1.43s1.81-.26,1.45.92a2.25,2.25,0,0,1-2.37,1.37C20.63,103.57,18.87,103.45,17.46,104.53ZM20.41,98c-1.78.6-3.71.68-3.67,3,0,1.17,1,1.68,2.11,1.42C21.48,101.69,20,99.62,20.41,98Z"/><path class="cls-2" d="M148,57.87c-.63-1.62-1.79-3.14-.9-5.09,1.16-.16,1.4,1.39,2.65,1.31,2.8-.16,3.92-1.41,3.31-4.34-1-5-.36-10.06-1.43-15a1.06,1.06,0,0,1,.72-1.26c.22-.07.84.46.9.79.27,1.52,2.25,2.94.27,4.66-.34.3-.29,1.19-.23,1.79.33,3.5.68,7,1.11,10.48.16,1.25,1.06.48,1.66.41,2.4-.27,3.54.67,3.61,3,0,1.09,0,2.22-1.16,2.78a2.38,2.38,0,0,1-3.09-.86c-1.09-1.69-2.16-1.47-3.43-.44-.95.78-2.85-.23-3.18,1.69Z"/><path class="cls-2" d="M96.58,101.06a4.92,4.92,0,0,1-7.87,2.37,6.24,6.24,0,0,1-2-6.54c.67-2.54,2.08-4.52,4.81-5.2a4.25,4.25,0,0,1,4.39,1.25,3.53,3.53,0,0,1,1,3.43c-.42,1.36-1.77.84-2.76,1a14.33,14.33,0,0,0-1.87.12c-1,.26-2.64-.77-2.76,1A3.42,3.42,0,0,0,92,102C93.68,102.61,95.1,101.81,96.58,101.06ZM91.93,96c.73-.37,2.18.57,2.15-1A1.86,1.86,0,0,0,92,93.05a2.09,2.09,0,0,0-2,2C89.91,96.58,91.24,95.63,91.93,96Z"/><path class="cls-2" d="M116.58,98c-.82-1.35,1.56-3.88-1.61-4.67-.34-.09-.33-.78,0-.87,1.58-.48,1.38-2,2-3,.44-.68,1-1.72,2-1.43s.38,1.25.35,1.88c-.07,1.38.2,2.26,1.86,2,.52-.07,1.15,0,1.13.73a.86.86,0,0,1-1.1.85c-1.89-.27-2,.87-1.89,2.25s0,2.66,0,4c0,1.59,0,3.23,2.42,2.6.4-.1.79.1.8.46a1.11,1.11,0,0,1-.52.8,4.34,4.34,0,0,1-3.78.79c-1.48-.48-1.6-1.78-1.69-3C116.52,100.28,116.58,99.21,116.58,98Z"/><path class="cls-2" d="M148.44,102.82l0,.07c1.53.35,2.11-.35,2.1-1.82,0-4.26-.08-8.53,0-12.79,0-1.4-.95-1.74-1.86-2.41,1-1.17,2.47-.94,3.66-1.26,1.47-.41.87,1,.88,1.58.06,4.8,0,9.6.05,14.4,0,.68-.25,1.42.33,2s1.74.25,1.36,1.24-1.5.55-2.14.38C151.34,103.84,149.1,105.67,148.44,102.82Z"/><path class="cls-2" d="M127.34,98.18c-.58-1.49,1-3.58-1.38-4.63-.52-.23-.27-1,.12-1,1.36.27,2.87-2.41,4.09.24.32.67.71,0,1-.21a3.55,3.55,0,0,1,1.81-1,1.72,1.72,0,0,1,1.86.76,1.66,1.66,0,0,1-.21,2,1.16,1.16,0,0,1-1.78.36c-1.9-1.14-2.46.49-2.65,1.69a33.43,33.43,0,0,0-.09,5.3c0,.74.42,1.08,1.11,1.26.48.11,1.19.22.94,1s-.89.39-1.38.41a21.46,21.46,0,0,1-2.66,0c-.85-.06-2,.47-2.47-.36-.57-1.09,1.1-.8,1.39-1.5C127.58,101.05,127.07,99.62,127.34,98.18Z"/><ellipse class="cls-2" cx="173.1" cy="77.38" rx="63.46" ry="0.26"/><path class="cls-2" d="M.24,77.14H89.9v.39H.26Z"/><path class="cls-2" d="M62.4,103.84a17.83,17.83,0,0,1-7,.2c3.78-2.43,1.9-5.83,2.32-8.76a1.14,1.14,0,0,0-.29-1c-3.13-2.19,0-1.79.93-2.25,1.85-.89,2.27-.08,2.16,1.67s0,3.73,0,5.59S60.16,102.87,62.4,103.84Z"/><path class="cls-2" d="M217,33.37c.52,1.47,1.76,3.13,1.44,4.4-1.8,7.26,1.9,14.7-.86,21.87,0-8.74-1.8-17.4-1.5-26.15Z"/><path class="cls-2" d="M81.65,59c.19-7.63-.69-15.21-1.27-22.8-.08-1.11-.21-2.1.65-3,1.68,2.52,1.41,2.69,1.14,5.87-.22,2.7.4,5.46.59,8.2.26,3.87,1.08,7.76-.34,11.58Z"/><path class="cls-2" d="M148,57.87l.81-.06c0,5-6.23,10.65-11.18,10.24-2.64-.21-4.16-2.78-2.79-5,.94,2.49,2.92,3.13,5,2.11C143.17,63.51,147.33,62.57,148,57.87Z"/><path class="cls-2" d="M213.61,55.82l-.86-.08c-.33-7.43-1.37-14.84-.82-22.34.91,1.84,2.83,3.26,1.41,5.81-.55,1,.09,2.59.13,3.92C213.61,47.36,214.53,51.58,213.61,55.82Z"/><path class="cls-2" d="M163.74,33a8.25,8.25,0,0,1,1.49,6.49c-.57,3.6.25,7.4.43,11.12a9.75,9.75,0,0,1-1.17,5.72C164.68,48.54,162.94,40.83,163.74,33Z"/><path class="cls-2" d="M109.87,49.87l-1.28-.08c2-5.79,6.92-8.41,12.08-10.67a1.71,1.71,0,0,1,2.19.39c.43.58.12,1.18-.12,1.76-.45,1-1.1.34-1.74.27a3.85,3.85,0,0,0-1.75.44,27.69,27.69,0,0,0-8.41,5.92C110.32,48.42,109.46,48.86,109.87,49.87Z"/><path class="cls-2" d="M31.5,58.47l-.9-.07c.66-2-1.25-2.12-2.22-2.62A20.42,20.42,0,0,1,21.76,51a2.93,2.93,0,0,1-.62-3.09c1.25.86,3.22.25,3.38,2.88.05.86,2.53,1.68,4,2.32C31,54.14,32.29,55.69,31.5,58.47Z"/><path class="cls-2" d="M142.24,35.71c-5.93,3.62-12.32,6.48-18.52,9.69C129.25,41,135.62,38.18,142.24,35.71Z"/><path class="cls-2" d="M90,50.4h-.85a12.13,12.13,0,0,1,4.89-7c.77-.57,1.64-.87,2.4-.13a2.4,2.4,0,0,1,.45,2.49c-.08.27-.59.69-.64.65-3.36-2.24-3.78,1.46-5.4,2.67A4.6,4.6,0,0,0,90,50.4Z"/><path class="cls-2" d="M12.88,49.85l-.9,0a11,11,0,0,1,4.48-6.08c.69-.48,1.41-.87,2.21-.31a2.26,2.26,0,0,1,.71,2.41c-.06.44-.31,1-.8.74-2.77-1.7-3.46,1-4.86,2.2A7.6,7.6,0,0,0,12.88,49.85Z"/><path class="cls-2" d="M12.44,66.4c-.26.59-.59,1.8-1.21,1.27-1.37-1.18-3.72,1.42-4.45-1.32a.34.34,0,0,1,.06-.25c.35-.55.65-1.65,1.46-1C9.56,66.16,11.83,63.56,12.44,66.4Z"/><path class="cls-2" d="M84.92,67c-.68.4-1.27,1.39-2.34.43-.63-.56-.87-1-.49-1.77s.75-1,1.44-.49a1.18,1.18,0,0,0,1.78-.07c.79-.69,1.43.23,2,.69s.19,1-.07,1.44c-.53.9-1.14.51-1.74.07A6,6,0,0,0,84.92,67Z"/><path class="cls-2" d="M169.8,49.33a.89.89,0,0,0,.49.85c.72.37,2.3-.31,2,1.4s-1.69,2.36-3.09,3c-.13.06-.45-.19-.62-.36-.38-.38-.11-.53.26-.69s.92-.48,1.63-.86c-2.06-.51-2.81-1.51-1.56-3.28Z"/><path class="cls-2" d="M59,89.38a1.73,1.73,0,0,1-1.82-1.62A1.62,1.62,0,0,1,59,85.88a1.53,1.53,0,0,1,1.64,1.7A1.67,1.67,0,0,1,59,89.38Z"/><path class="cls-2" d="M.41,48.34c1.34,0-.39,3,2,1.54,0,0,.25.26.22.35-.35,1.14-1,3.3-1.38,3.09-1.36-.78-1.43-2.46-1.15-4A9,9,0,0,1,.41,48.34Z"/><path class="cls-2" d="M11.8,38.55c.43,3-1.39,4.84-3.45,4.42-.85-.17-.82-.82-.76-1.43.07-.81.67-.26.89-.35C9.69,40.72,11.42,41,11.8,38.55Z"/><path class="cls-2" d="M126.87,67c-.89-1.2-.71-2.93-2.37-3.37-.31-.09-.36-.72-.06-.9a1.39,1.39,0,0,1,1.13-.08C127.47,63.44,128.83,64.52,126.87,67Z"/><path class="cls-2" d="M43.83,33.69c.15,1,0,2,.4,2.3,1.2.92.74,1.32-.29,1.7-.47.18-1.09,0-1.4.55a.05.05,0,0,1,0,0,.88.88,0,0,0,.18-1.38C41.58,35.43,42.3,34.62,43.83,33.69Z"/><path class="cls-2" d="M101.91,67c1.48-2.2,4.09-2.52,6.15-3.78C107.35,64.89,106.19,65.62,101.91,67Z"/><path class="cls-2" d="M66.38,41.29a1.91,1.91,0,0,1-1.6-1.9c0-.85.53-1.77,1.36-1.68,1.61.17.58,1.93,1.36,2.8C68,41,67.11,41.25,66.38,41.29Z"/><path class="cls-2" d="M91.73,35.79c0,.78-.21,1.06-.82,1-1.12-.17-2.12-.57-2.11-1.85,0-.89.57-1.8,1.63-1.63C92.06,33.55,90.26,35.59,91.73,35.79Z"/><path class="cls-2" d="M102.89,49c-.75-.37-1.77-.54-1.8-1.6,0-.55.34-1.38,1.06-1.3s1.78.45,1.81,1.54A1.34,1.34,0,0,1,102.89,49Z"/><path class="cls-2" d="M186.5,40.24c.37.74-2.13,1.63.3,2.08.26,0-.5.88-.8,1.3s-.72,0-1-.36C184,41.58,184.9,40.77,186.5,40.24Z"/><path class="cls-2" d="M155.3,63.76c.54-1.13.87-2.5,2.35-2,.75.24.77,1.13.52,1.82C157.39,65.63,156.25,62.86,155.3,63.76Z"/><path class="cls-2" d="M203.65,62.16c.35-.55.38-1.55,1.38-1.18.7.26,1.66.59,1.51,1.55-.09.56-.41,1.54-1.36,1.17C204.52,63.45,203.6,63.22,203.65,62.16Z"/><path class="cls-2" d="M199.71,51.3l-5.56,3.09C194.84,52.62,196.67,51.44,199.71,51.3Z"/><path class="cls-2" d="M208.68,46.39c-1.65,1.21-3.19,2.7-5.85,2.38C204.86,47.55,206.6,46.56,208.68,46.39Z"/><path class="cls-2" d="M163.44,58.36c0,1.08-.79,1.14-1.61,1.11-1.61-1.26-1.07-2.93-.79-4.64C161,56.63,162.5,57.29,163.44,58.36Z"/><path class="cls-2" d="M111.78,38.34c-.77-.57-.66-2-1.94-2.22a.75.75,0,0,1-.56-1,1.18,1.18,0,0,1,.65-.7c.59-.17,1,.26,1.25.72A5.93,5.93,0,0,1,111.78,38.34Z"/><path class="cls-2" d="M169.8,49.33l-.91,0a17.91,17.91,0,0,1,1.3-2c.38-.46.92-1,1.6-.61.22.12.34.59.33.9,0,.67-.27,1.17-1.11,1.2A4.07,4.07,0,0,0,169.8,49.33Z"/><path class="cls-2" d="M63.72,48.23c.84-.62,2.15-2.21,2.62,0,.2,1-1.72.82-2.65,1.18-.75.3-1-.44-1-1.15C62.8,47.15,63.19,47.59,63.72,48.23Z"/><path class="cls-2" d="M187.59,50.38c-.29.5-.4,1.32-1.17,1.13s-1.63-.48-1.61-1.43c0-.65.34-1.51,1.26-1.25C186.77,49,187.56,49.39,187.59,50.38Z"/><path class="cls-2" d="M90,42.58c-1.16.12-2,1.39-3.28.47a1.1,1.1,0,0,1-.18-1.46c.19-.35.47-.92.87-.19C88,42.43,89.38,41.26,90,42.58Z"/><path class="cls-2" d="M135.08,57.32a.39.39,0,0,1,.43,0c.17,1.67-.57,3.14-1,4.69C133.58,60.3,134.71,58.85,135.08,57.32Z"/><path class="cls-2" d="M17.23,60h.54l0,3.72-1,.07c0-1.11-.09-2.22-.14-3.33l0,.06C17.13,60.67,17.12,60.28,17.23,60Z"/><path class="cls-2" d="M48.22,57.37l-.7.08A5.88,5.88,0,0,1,48,54.53l.69.09Z"/><path class="cls-2" d="M81.65,59l.77-.1c0,.45-.19.86-.6.84S81.49,59.29,81.65,59Z"/><path class="cls-2" d="M75.06,38.44c.08-.23.15-.46.23-.69.06.22.12.45.17.67Z"/><path class="cls-3" d="M287.71,98a29.38,29.38,0,1,1,29.45-29.29A29.55,29.55,0,0,1,287.71,98Zm-9.1-13,0,1.19c-.26,1.42.38,1.83,1.76,1.8,4-.07,8,.12,12-.12,1.47-.09,2.75,1.33,4.29.43-4-5.94-5.15-7-7.38-6.67.69,1.65,2.48,2.54,3,4.46-1.2-.06-3,.2-3.18-.23-1.54-3.53-4.68-1.94-7.13-2.63C279.9,82.65,279.39,83.78,278.61,85ZM277,69.32A14.46,14.46,0,0,0,274.79,71c1,2-1,2.24-1.78,3.17a3.22,3.22,0,0,0-.65,3c.33,1.18,1.49.67,2.3.69,3,0,6,0,9.08,0,1.4,0,1.85-.47,1.8-1.85-.09-2.74-.41-5.57.1-8.22.41-2.19-.25-3.28-2.12-4.52,0,3.91,0,7.52,0,11.12,0,.9-.11,1.55-1.28,1.52-1,0-1.47-.3-1.45-1.36,0-2.4-.43-4.91.16-7.15s-.5-2.72-2-4c0,3.91,0,7.34,0,10.77,0,.74.24,1.76-1.05,1.71-1.12,0-.81-1-.83-1.61C277,72.82,277,71.33,277,69.32Zm-.27-16.39a12.41,12.41,0,0,0-1.93,1.31c.94,2.11-1.17,2.32-1.94,3.36a3.15,3.15,0,0,0-.46,3c.36.9,1.42.44,2.17.45,4.28,0,8.56,0,12.84.08,1.53,0,2-.45,2-2a44,44,0,0,1,.07-8.51c.32-2-.11-2.85-2-3.78,0,2.68,0,5,0,7.43,0,4.77,0,4.77-4.72,4.81-5.51,0-5.51,0-5.77-5.31A5.25,5.25,0,0,0,276.76,52.93Zm22.11-5.87A4,4,0,0,0,297,51c.16,2.64.81,5.32.18,8-.45,2,.43,2.45,2.43,2.56,2.7.14,3-1.14,2.63-3.16-.18-1,0-2.1-.09-3-.4-2.77,2.09-6.15-1.64-8.44-.5,2.87.37,5.76-.85,8.43C298.61,52.76,299.35,50,298.87,47.06Zm-3.6,16.84c-1,.74-2.34.89-2.21,2.4.26,3.17.79,6.33.34,9.54-.1.74-.45,1.75,1,2,3.84.77,4.86-.13,3.9-3.86-.18-.69.16-1.17.12-1.67-.27-2.93,1.9-6.3-1.7-9v6.92c0,.61.1,1.52-.64,1.54-1,0-.78-1-.79-1.62C295.25,68.08,295.27,66,295.27,63.9Zm2.14,26.24c3.33,1.45,6.25-.52,5.84-3.84-.21-1.67-.94-3.29-2.89-3.18s-2.43,1.7-2.69,3.41c-.35,2.32,1.94,1.07,2.61,2C299.86,89.86,298.55,89.57,297.41,90.14Zm2.77-26.78V76.23c0,.81-.1,1.71,1.12,1.68s.94-1.07.95-1.78c0-2.67-.38-5.42.14-8C302.84,65.91,302.26,64.67,300.18,63.36Zm-12.55.14c0,4.43,0,8.59,0,12.76,0,.65-.28,1.53.82,1.63s1.24-.71,1.23-1.58c0-2.75-.38-5.55.05-8.23A3.83,3.83,0,0,0,287.63,63.5Zm3.82-16.87c0,4.46,0,8.52,0,12.57,0,.77-.43,2,1.08,1.9s.94-1.27,1-2c.05-2.57-.36-5.22.1-7.71C294,49.29,293.45,48.08,291.45,46.63ZM277,80.1l-.76-.24c-1.36,1.62-2,3.75-3.6,5.25a1.92,1.92,0,0,0-.12,2.46c1.06.92,2.56.43,3.83.27s.59-1.3.62-2C277.07,83.94,277,82,277,80.1Z"/><path class="cls-3" d="M287.78,20.45a5.44,5.44,0,1,1-5.43,5.38A5.4,5.4,0,0,1,287.78,20.45Z"/><path class="cls-3" d="M287.78,13.73c1.06.07,2.13.06,3.18.22.69.11,1.75-.42,2,.66.2.81-.43,1.48-.93,2.1a5.53,5.53,0,0,1-9-.65c-.66-1.19-1-2.15,1-2.12C285.31,14,286.55,13.81,287.78,13.73Z"/><path class="cls-3" d="M291.46,38.05a25.61,25.61,0,0,0-7.57,0c-1.49.22-1.72-.32-1.17-1.59a5.46,5.46,0,0,1,10.06-.23C293.52,37.71,293.22,38.1,291.46,38.05Z"/><path class="cls-2" d="M25.83,65.89c-1-.43-1.72.93-2.74.51.1-1.42,1.34-1.58,2.3-1.75C25.91,64.55,25.94,65.36,25.83,65.89Z"/><path class="cls-2" d="M23.12,66.38a1.84,1.84,0,0,1-2.18,1.09C21.34,66.46,22,65.89,23.12,66.38Z"/><path class="cls-3" d="M165.52,98.27c.6-.8-1.22-2.88,1.41-3s4.54,1.32,4.6,3.65a3.5,3.5,0,0,1-3.77,3.84C165.71,102.8,165.52,102.43,165.52,98.27Z"/><path class="cls-3" d="M165.46,90.85c.32-1.38-.79-3.44,1.92-3.28,2,.12,3.12,1.1,3.12,3.2,0,2.34-1.44,3.07-3.48,3.08C164.34,93.87,166.08,91.75,165.46,90.85Z"/><path class="cls-3" d="M50.45,97.79c0,.62,0,1.24,0,1.85-.05,1,.35,2.21-1.17,2.57a3,3,0,0,1-3.52-1.12,5.78,5.78,0,0,1-.65-6,3,3,0,0,1,3.62-1.92c1.77.34,1.81,1.65,1.73,3C50.43,96.73,50.45,97.26,50.45,97.79Z"/><path class="cls-3" d="M143.21,98c-.38,1.63,1.07,3.5-1.21,4.31a1.49,1.49,0,0,1-2.15-1.32C139.68,98.76,141.51,98.63,143.21,98Z"/><path class="cls-2" d="M17.23,60c-.11.27-.1.66-.58.52C16.62,60.11,16.82,59.94,17.23,60Z"/><path class="cls-3" d="M184.21,97.93c-.4,1.71,1.07,3.7-1.48,4.38-1.06.28-2.08-.15-2.13-1.35C180.49,98.66,182.43,98.59,184.21,97.93Z"/><path class="cls-3" d="M20.41,98c-.44,1.67,1.07,3.74-1.56,4.38-1.11.26-2.09-.25-2.11-1.42C16.7,98.63,18.63,98.55,20.41,98Z"/><path class="cls-3" d="M91.93,96c-.69-.34-2,.61-2-.88a2.09,2.09,0,0,1,2-2,1.86,1.86,0,0,1,2.11,1.88C94.11,96.54,92.66,95.6,91.93,96Z"/><path class="cls-2" d="M265.11,92.64c1,2,.91,3.15-.52,4.68a36.56,36.56,0,0,0-4.55,6.87c-.79,1.36-1.35,1.44-2.55.41q-20-17.07-17.18-43.13c.21-1.9.42-3.42-1.44-4.86-1.56-1.21-1.37-3.09.28-5,.09,1,.14,1.62.21,2.25a1.67,1.67,0,0,0,1.25,1.57c.91.21.81-.7,1.08-1.19A2.47,2.47,0,0,1,244.87,53c1.82.49,1.93,2.44,3.08,3.49-1,1-2.06,2.16-3.52,2.2-1.72,0-2,1-2.17,2.3-.27,2.39-.54,4.76-.59,7.17,0,2.22.67,2.5,2.36,1.27.64-.47,1.3-.91,2-1.37.75,2.06.75,2.06-1.9,3.51.8,1.21,3.79.78,2.64,3.43-1.51-.14-2.58-1.55-4.37-1.5a29.63,29.63,0,0,0,2.24,9.7c.81,2,2,.44,2.79.07,1-.46,2-1.11,2.51.31.42,1.2-1,1.07-1.64,1.53s-2.31.31-2.17,1.5a6,6,0,0,0,1.65,3.28c1,1,2-.26,2.67-.85,1.26-1.19,1.94-.73,2.71.44-.27.85-1.15,1.1-1.79,1.37-2.4,1-1.93,2.1-.65,3.88s2.13,1.79,3.45.33c.87-1,1.78-1.86,2.89-.21,0,.1,0,.3-.1.4-1,1-3.22,1.72-2.93,3,.39,1.71,2.4,2.74,3.79,4,.94.84,1.19-.16,1.54-.69,1-1.49,1.9-3,2.87-4.49S264,94.28,265.11,92.64ZM244.44,56.9a1.1,1.1,0,0,0,1-1.19,1.12,1.12,0,0,0-2.23,0C243.13,56.41,243.55,56.8,244.44,56.9Z"/><path class="cls-2" d="M304.24,38c-1.37-1.65-1.81-2.69-.7-4.6,1.33-2.31,1.74-5.19,2.35-7.87.42-1.81,1.1-2,2.71-1.21A48.16,48.16,0,0,1,330.66,46a44.38,44.38,0,0,1,4.91,17.85c.05.88.57,2-1.13,2.1-2.13.07-.79-1.27-.82-2a43.23,43.23,0,0,0-5.8-19.21,44,44,0,0,0-2.64-4c-.31-.45-.58-1.36-1.35-.86a1.28,1.28,0,0,0-.16,1.91,46.13,46.13,0,0,1,4.05,6.88,39.9,39.9,0,0,1,3.89,14.32c-2.44-.74-2.28-2.3-2.51-4.31-.57-5.07-2.86-9.65-5.59-14-1.24-2-3.13-3.69-.85-6.37.82-1-1.06-2-1.85-2.8-1-1-1.33.27-1.83.67-1.11.87-1.49,3.3-3.73,1.53.11-.91.9-1.49,1.53-2,2.15-1.75,1.63-2.9-.45-4.32-2.41-1.65-2.92-1.82-4,.94-.78,2-1.6,1.24-2.85.59.63-.92,1.18-1.83,1.85-2.64.91-1.09,1.1-1.73-.45-2.56-3-1.64-3-1.77-4,1.52C306,32.09,305.18,34.9,304.24,38Z"/><path class="cls-2" d="M301,109.06c.34-2.42,2.12-2.47,4.08-3.09,4.17-1.32,7.71-4,11-6.92,1-.89,1.88-1.88,2.85-2.79a3.17,3.17,0,0,1,3.89-.77c2.23,1.13,2.43,2.13.77,4A47.8,47.8,0,0,1,300,113.8c-1.38.37-2.57.56-2.23,2.49a1.45,1.45,0,0,1-1.44,1.85c-1.35-.14-.24-1.27-.45-1.92-.33-1-.17-2.25-.71-3.08-1.07-1.64-.7-2.65,1.09-3.6.57,4.12,3,2.51,5.33,1.8A44.81,44.81,0,0,0,321.23,99c.44-.47,1.72-.87.9-1.79s-1.62,0-2.23.58a43.09,43.09,0,0,1-18.62,11.51A3.83,3.83,0,0,0,301,109.06Z"/><path class="cls-2" d="M329.92,98.36c-.08-3-2-3.93-3.9-4.46s-2.53-1.5-2.15-3.33c1.23-.36,2.22,1.89,3.29.59s2.38-3,1.2-5.26A2.7,2.7,0,0,1,330.14,82c2.47-.73,2.08-2.8,2.54-4.48.32-1.15-.73-.94-1.36-1A67.57,67.57,0,0,0,320.86,76c1.17-1.68,1.9-2.44,4.08-1.8,2.49.73,5.3.5,8,.44,2.07-.06,2.41.81,1.91,2.53-.33,1.1-.57,2.23-.89,3.34a3.36,3.36,0,0,0,.26,3,2.92,2.92,0,0,1-1.81,4.62c-1.8.43-1.91,1.91-2.79,2.91-1.39,1.59.18,2.2,1,3.18C331.52,95.42,331.35,96.72,329.92,98.36Zm1.49-14.83c-.89.12-1.5.57-1.47,1.52a1.36,1.36,0,0,0,1.56,1.4,1.31,1.31,0,0,0,1.34-1.35A1.43,1.43,0,0,0,331.41,83.53Z"/><path class="cls-2" d="M272.82,110.9a47,47,0,0,0,16.54,2.51c.7,0,2-.83,2.09.68.08,1.24-1.05,1.22-1.95,1.24a49.52,49.52,0,0,1-18.59-3c-2-.74-1.17-1.9-.15-2.38,2.36-1.12,2.33-2.71,1.61-4.76a3.93,3.93,0,0,1,.3-3.1,4,4,0,0,1,3.58-2c1.24-.08.71,1.51,1.13,2.29,1.24,2.31.31,5.54,3.16,7.22.45.27.28,1.25-.71,1.13-1.31-.14-2.68-.12-2.86-2a27.23,27.23,0,0,0-1-4.41c-.16-.61-.18-1.66-1.12-1.44s-.62,1.18-.57,1.86a8.1,8.1,0,0,0,.42,2.07C275.3,108.5,275.82,110.15,272.82,110.9Z"/><path class="cls-2" d="M270.35,25.13A42.64,42.64,0,0,0,257,33.72c-.48.45-1,1.69-1.86.88s-.15-1.67.61-2.37a48.31,48.31,0,0,1,15.52-9.65c.63-.24,1.34-.88,2-.26a1.9,1.9,0,0,1,.18,2.25c-.59,1.26-1,2.25.63,3.32,3.78,2.52,3.89,3.49,1.52,7.74-2-1.35-3.93-2.71-5.91-4a6.6,6.6,0,0,0-1.84-1c-.68-.17-1.63.66-2.07-.43-.25-.64.47-.87.87-1.15.83-.59,1.66-1,2.64-.14s2.12,1.61,3.2,2.39a3.44,3.44,0,0,0,2.67,1c-.28-2.2-2.1-3-3.59-3.79s-1.44-1.68-.71-2.88c0-.21,0-.43,0-.64Z"/><path class="cls-2" d="M254.48,38.62c1.17,1.7,1.09,2.52-.56,3.68s-2.56,3.56-3.63,5.51c-1.58,2.89-3.14,3.22-5.69,1.33-.61-.45-.79-.75-.44-1.49a50.83,50.83,0,0,1,6.78-10.8c.38-.45.7-1.13,1.49-.53s.55,1.13,0,1.77a40.06,40.06,0,0,0-5.51,8.46c-.26.53-1.11,1.25,0,1.73.82.35,1.31-.19,1.65-.91A42.14,42.14,0,0,1,254.48,38.62Z"/><path class="cls-2" d="M269,95.88c.9,2.29,1.25,3.64-.6,5.31s-2.86,4.23-4.2,6.42c-.43.72-.81,1.1-1.66.54s-.61-.91-.22-1.53C264.49,103.19,266.62,99.74,269,95.88Z"/><path class="cls-2" d="M321.33,72.14c1.57-2.35,2.54-3.22,4.91-2.45s4.93.31,7.41.45c.78,0,2-.38,1.88,1.12-.08,1.27-1.11.87-1.83.87C329.79,72.15,325.89,72.14,321.33,72.14Z"/><path class="cls-2" d="M299.86,35.43c-1.21-1.67-1.94-2.87-.56-4.92s1.62-4.63,2.39-7c.23-.71.27-1.72,1.48-1.35s.77,1.25.51,1.95C302.31,27.83,301.68,31.77,299.86,35.43Z"/><path class="cls-2" d="M316.22,26.73c-.68-.09-1.23-.4-1.21-1.15a1.1,1.1,0,0,1,1.24-1.11,1.08,1.08,0,0,1,1.06,1C317.38,26.21,316.89,26.57,316.22,26.73Z"/><path class="cls-2" d="M301.28,109.34l-.59,0,.3-.3A3.83,3.83,0,0,1,301.28,109.34Z"/><path class="cls-2" d="M277,69.32c0,2,0,3.5,0,5,0,.64-.29,1.57.83,1.61,1.29,0,1-1,1.05-1.71,0-3.43,0-6.86,0-10.77,1.52,1.31,2.57,1.9,2,4s-.11,4.75-.16,7.15c0,1.06.46,1.34,1.45,1.36,1.17,0,1.29-.62,1.28-1.52,0-3.6,0-7.21,0-11.12,1.87,1.24,2.53,2.33,2.12,4.52-.51,2.65-.19,5.48-.1,8.22,0,1.38-.4,1.89-1.8,1.85-3-.08-6.05,0-9.08,0-.81,0-2,.49-2.3-.69a3.22,3.22,0,0,1,.65-3c.83-.93,2.74-1.16,1.78-3.17A14.46,14.46,0,0,1,277,69.32Z"/><path class="cls-2" d="M276.76,52.93a5.25,5.25,0,0,1,.24.93c.26,5.35.26,5.35,5.77,5.31,4.72,0,4.72,0,4.72-4.81,0-2.38,0-4.75,0-7.43,1.87.93,2.3,1.83,2,3.78a44,44,0,0,0-.07,8.51c.06,1.51-.43,2-2,2-4.28-.1-8.56,0-12.84-.08-.75,0-1.81.45-2.17-.45a3.15,3.15,0,0,1,.46-3c.77-1,2.88-1.25,1.94-3.36A12.41,12.41,0,0,1,276.76,52.93Z"/><path class="cls-2" d="M278.61,85c.78-1.22,1.29-2.35,3.37-1.77,2.45.69,5.59-.9,7.13,2.63.19.43,2,.17,3.18.23-.54-1.92-2.33-2.81-3-4.46,2.23-.31,3.36.73,7.38,6.67-1.54.9-2.82-.52-4.29-.43-4,.24-8,0-12,.12-1.38,0-2-.38-1.76-1.8h7.78l0-.75C283.81,84.74,281.15,85.6,278.61,85Z"/><path class="cls-2" d="M298.87,47.06c.48,2.94-.26,5.7.83,8.32,1.22-2.67.35-5.56.85-8.43,3.73,2.29,1.24,5.67,1.64,8.44.13.91-.09,2,.09,3,.36,2,.07,3.3-2.63,3.16-2-.11-2.88-.61-2.43-2.56.63-2.7,0-5.38-.18-8A4,4,0,0,1,298.87,47.06Z"/><path class="cls-2" d="M295.27,63.9c0,2.09,0,4.18,0,6.26,0,.65-.21,1.66.79,1.62.74,0,.63-.93.64-1.54V63.32c3.6,2.73,1.43,6.1,1.7,9,0,.5-.3,1-.12,1.67,1,3.73-.06,4.63-3.9,3.86-1.44-.29-1.09-1.3-1-2,.45-3.21-.08-6.37-.34-9.54C292.93,64.79,294.26,64.64,295.27,63.9Z"/><path class="cls-2" d="M297.41,90.14c1.14-.57,2.45-.28,2.87-1.66-.67-.88-3,.37-2.61-2,.26-1.71.8-3.31,2.69-3.41s2.68,1.51,2.89,3.18C303.66,89.62,300.74,91.59,297.41,90.14Z"/><path class="cls-2" d="M300.18,63.36c2.08,1.31,2.66,2.55,2.21,4.79-.52,2.56-.1,5.31-.14,8,0,.71.37,1.74-.95,1.78s-1.12-.87-1.12-1.68Z"/><path class="cls-2" d="M287.63,63.5a3.83,3.83,0,0,1,2.11,4.58c-.43,2.68-.08,5.48-.05,8.23,0,.87-.07,1.67-1.23,1.58s-.82-1-.82-1.63C287.62,72.09,287.63,67.93,287.63,63.5Z"/><path class="cls-2" d="M291.45,46.63c2,1.45,2.54,2.66,2.16,4.72-.46,2.49-.05,5.14-.1,7.71,0,.77.5,2-1,2s-1.07-1.13-1.08-1.9C291.43,55.15,291.45,51.09,291.45,46.63Z"/><path class="cls-2" d="M277,80.1c0,1.92.05,3.84,0,5.75,0,.69.54,1.84-.62,2s-2.77.65-3.83-.27a1.92,1.92,0,0,1,.12-2.46c1.56-1.5,2.24-3.63,3.6-5.25Z"/><path class="cls-3" d="M278.61,85c2.54.6,5.2-.26,7.73.44l0,.75h-7.78Z"/><path class="cls-3" d="M244.44,56.9c-.89-.1-1.31-.49-1.25-1.23a1.12,1.12,0,0,1,2.23,0A1.1,1.1,0,0,1,244.44,56.9Z"/><path class="cls-3" d="M331.41,83.53a1.43,1.43,0,0,1,1.43,1.57,1.31,1.31,0,0,1-1.34,1.35,1.36,1.36,0,0,1-1.56-1.4C329.91,84.1,330.52,83.65,331.41,83.53Z"/><path class="cls-2" d="M270.35,25.13l.42-.21c0,.21,0,.43,0,.64Z"/><path class="cls-2" d="M96.92,74c-.22-.8-.61-1.71-1.69-1.71a1.32,1.32,0,0,0-1.4,1.36c0,.88.58,1.3,1.63,1.81s2.2,1.11,2.2,2.49-1.14,2.4-2.88,2.4a4,4,0,0,1-1.28-.2,3.94,3.94,0,0,1-.63-.27c-.08-.24-.27-1.38-.35-2l.39-.11c.21.79.83,2.09,2.14,2.09a1.35,1.35,0,0,0,1.47-1.46c0-.91-.68-1.33-1.65-1.85s-2.11-1.06-2.11-2.44a2.39,2.39,0,0,1,2.67-2.27,5.16,5.16,0,0,1,1.65.3c.06.44.12,1,.23,1.77Z"/><path class="cls-2" d="M103.65,80.19v-.36c.79-.11.9-.22.73-.73l-.68-1.83H101c-.21.57-.38,1.06-.55,1.55-.27.76-.17.91.8,1v.36H98.39v-.36c.83-.13,1-.21,1.46-1.32L102.53,72l.44-.11c.82,2.21,1.64,4.42,2.48,6.62.41,1.1.59,1.23,1.42,1.32v.36Zm-1.26-6.59h0c-.41,1-.81,2.1-1.2,3.11h2.34Z"/><path class="cls-2" d="M114.79,80.19v-.36c1-.1,1.08-.19,1.07-1.5l0-5h0l-3.12,6.79h-.26l-2.87-6.62h0L109.29,77c-.05,1-.05,1.56,0,2s.33.68,1.17.76v.38h-3v-.38c.73-.07,1-.25,1.08-.74s.14-1,.25-2.31l.18-2.51c.12-1.62,0-1.69-1.1-1.8v-.37H110l2.89,6.13,2.94-6.13h2.23v.37c-1.12.09-1.19.14-1.15,1.37l.12,4.51c0,1.31.08,1.4,1.19,1.5v.36Z"/><path class="cls-2" d="M124.12,80.19v-.36c.8-.11.91-.22.74-.73s-.41-1.11-.69-1.83h-2.73c-.22.57-.39,1.06-.55,1.55-.27.76-.17.91.79,1v.36h-2.81v-.36c.83-.13,1-.21,1.46-1.32L123,72l.44-.11c.82,2.21,1.64,4.42,2.48,6.62.41,1.1.59,1.23,1.42,1.32v.36Zm-1.25-6.59h0c-.41,1-.81,2.1-1.19,3.11H124Z"/><polyline class="cls-2" points="300.69 109.36 303.26 100.33 303.26 108.53"/></svg>