<svg id="Layer_1" data-name="Layer 1" xmlns="http://www.w3.org/2000/svg" viewBox="0 0 27.64 27.64"><defs><style>.cls-1{fill:#fff;}</style></defs><path class="cls-1" d="M11,18.61,14.8,7.16a.82.82,0,0,0-.51-1,.81.81,0,0,0-1,.52L9.45,18.1a.81.81,0,0,0,.51,1,.78.78,0,0,0,.26,0A.81.81,0,0,0,11,18.61Z" transform="translate(0)"/><path class="cls-1" d="M16.71,15.06a2.43,2.43,0,1,0-2.43-2.43A2.43,2.43,0,0,0,16.71,15.06Zm0-3.24a.81.81,0,1,1-.81.81A.81.81,0,0,1,16.71,11.82Z" transform="translate(0)"/><path class="cls-1" d="M7.55,10.2A2.43,2.43,0,1,0,10,12.63,2.43,2.43,0,0,0,7.55,10.2Zm0,3.24a.81.81,0,1,1,.81-.81A.81.81,0,0,1,7.55,13.44Z" transform="translate(0)"/><path class="cls-1" d="M27.48,10,24.65,6.28l.11-.78a.79.79,0,0,0-.23-.68L22.82,3.1l1.71-1.72a.8.8,0,0,0,0-1.14.8.8,0,0,0-1.14,0L21.67,2,20,.24A.79.79,0,0,0,19.27,0l-8,1.14a.91.91,0,0,0-.46.23L.87,11.31a3,3,0,0,0,0,4.19l8.4,8.4a3.22,3.22,0,0,0,.55.44v.33a3,3,0,0,0,3,3H24.67a3,3,0,0,0,3-3V10.53a.84.84,0,0,0-.16-.49ZM2,14.35a1.35,1.35,0,0,1,0-1.91L11.74,2.7l7.35-1.05,1.43,1.44L19.38,4.23l-.57-.57a.81.81,0,0,0-1.15,0,.8.8,0,0,0,0,1.14L20,7.09A.81.81,0,0,0,21.1,6l-.58-.57,1.15-1.15L23.1,5.66,22.05,13l-9.73,9.73a1.35,1.35,0,0,1-1,.4,1.31,1.31,0,0,1-.95-.4ZM26,24.67A1.36,1.36,0,0,1,24.67,26H12.79a1.34,1.34,0,0,1-1.34-1.25,2.93,2.93,0,0,0,2-.87L23.39,14a.91.91,0,0,0,.23-.46l.71-5L26,10.8Z" transform="translate(0)"/></svg>