<svg id="Layer_1" data-name="Layer 1" xmlns="http://www.w3.org/2000/svg" viewBox="0 0 30.27 30.25"><defs><style>.cls-1{fill:#fff;}</style></defs><path class="cls-1" d="M28.65,4.61A3.09,3.09,0,0,0,29,3.15,3.15,3.15,0,1,0,25.86,6.3,3.09,3.09,0,0,0,27.32,6l1.33,1.33a.94.94,0,0,0,.67.28A.92.92,0,0,0,30,7.28.94.94,0,0,0,30,6Zm-4-1.46a1.26,1.26,0,1,1,1.26,1.26A1.26,1.26,0,0,1,24.6,3.15Z"/><path class="cls-1" d="M2.26,7.58H18a2.19,2.19,0,0,0,2.2-2.2V2.23A2.2,2.2,0,0,0,18,0H2.26A2.21,2.21,0,0,0,.06,2.23V5.38A2.2,2.2,0,0,0,2.26,7.58Z"/><circle class="cls-1" cx="3.8" cy="26.47" r="3.78"/><path class="cls-1" d="M29.32,23.3H11.07a.95.95,0,1,0,0,1.89H29.3a1,1,0,0,0,1-.84A.94.94,0,0,0,29.32,23.3Z"/><path class="cls-1" d="M29.32,27.08H11.07a.95.95,0,1,0,0,1.89H29.3a1,1,0,0,0,1-.84A.94.94,0,0,0,29.32,27.08Z"/><path class="cls-1" d="M28,11.36H2.21A2.21,2.21,0,0,0,0,13.57v3.15a2.2,2.2,0,0,0,2.21,2.2H28a2.2,2.2,0,0,0,2.21-2.2V13.57A2.21,2.21,0,0,0,28,11.36Z"/></svg>