<svg id="Layer_1" data-name="Layer 1" xmlns="http://www.w3.org/2000/svg" viewBox="0 0 33.56 33.56"><defs><style>.cls-1{fill:#fff;}</style></defs><g id="steering_wheel"><path class="cls-1" d="M16.78,0A16.78,16.78,0,1,0,33.56,16.78,16.78,16.78,0,0,0,16.78,0Zm0,4.19a12.57,12.57,0,0,1,11.81,8.39H5A12.59,12.59,0,0,1,16.78,4.19Zm0,14.69a2.1,2.1,0,1,1,2.1-2.1A2.1,2.1,0,0,1,16.78,18.88ZM4.19,16.78c5.74,0,10.38,5.52,10.47,12.37A12.59,12.59,0,0,1,4.19,16.78Zm14.7,12.37c.1-6.85,4.74-12.37,10.47-12.37A12.59,12.59,0,0,1,18.89,29.15Z"/></g></svg>