<svg xmlns="http://www.w3.org/2000/svg" viewBox="0 0 132.11 60.53"><defs><style>.cls-1{fill:none;}.cls-2{fill:#85b840;}.cls-3{fill:#289bd7;}.cls-4{fill:#282a2d;}</style></defs><title>Asset 4</title><g id="Layer_2" data-name="Layer 2"><g id="Layer_34" data-name="Layer 34"><rect class="cls-1" width="132.11" height="60.53" rx="8.75"/><rect class="cls-2" x="13.41" y="33.59" width="44.36" height="14.78"/><rect class="cls-3" x="13.41" y="13.43" width="44.36" height="14.79"/><path class="cls-4" d="M102.13,45.37l-.19,0a6.6,6.6,0,0,1-1.44.18C99.34,45.59,98,45,98,42.21c0-1.44.24-3.35,2.4-3.35h0a7,7,0,0,1,1.58.3l.17.06v6.15Zm.36-13.92-.36.06v5.16l-.31-.09-.09,0a7.14,7.14,0,0,0-2-.35c-4.32,0-5.23,3.27-5.23,6,0,3.75,2.11,5.91,5.79,5.91a11.54,11.54,0,0,0,3.86-.54,1.7,1.7,0,0,0,1.44-1.87V30.91l-3.13.54"/><path class="cls-4" d="M115,45.46l-.19,0-.66.17a6.75,6.75,0,0,1-1.59.25c-1,0-1.62-.5-1.62-1.35,0-.56.25-1.49,1.91-1.49H115Zm-1.52-9.31a14.79,14.79,0,0,0-4.4.76l-1.1.33.36,2.5,1.08-.35a12.76,12.76,0,0,1,3.6-.61c.48,0,1.92,0,1.92,1.57V41h-2c-3.68,0-5.38,1.18-5.38,3.69,0,2.15,1.57,3.44,4.21,3.44a14,14,0,0,0,2.92-.39l0,0,.06,0,.33,0,3.13.56V40.17c0-2.67-1.61-4-4.77-4"/><path class="cls-4" d="M89.38,45.46l-.18,0-.66.17a6.68,6.68,0,0,1-1.59.25c-1,0-1.62-.5-1.62-1.35,0-.56.25-1.49,1.89-1.49h2.15v2.37Zm-1.5-9.31a14.74,14.74,0,0,0-4.4.76l-1.1.33.36,2.5,1.08-.35a12.76,12.76,0,0,1,3.6-.61c.48,0,1.92,0,1.92,1.57V41h-2c-3.68,0-5.39,1.18-5.39,3.69,0,2.15,1.57,3.44,4.22,3.44a14,14,0,0,0,2.92-.39l0,0,.06,0,.31,0c1,.18,2.1.37,3.14.58V40.18c0-2.69-1.6-4-4.76-4"/><path class="cls-4" d="M75.51,36.17a9.06,9.06,0,0,0-3.57.79l-.13.07-.12-.09a5.35,5.35,0,0,0-3.2-.78,13.24,13.24,0,0,0-3.78.57c-1.12.34-1.55.88-1.55,1.89V48h3.5V39.34l.17-.06A4.61,4.61,0,0,1,68.37,39,1.38,1.38,0,0,1,69.9,40.6V48h3.45V40.46a2.81,2.81,0,0,0-.1-.77l-.12-.22.24-.11A4.06,4.06,0,0,1,75.08,39a1.39,1.39,0,0,1,1.53,1.59V48H80V40.26c0-2.76-1.47-4.09-4.53-4.09"/><path class="cls-4" d="M112.39,23.07a11.29,11.29,0,0,1-2-.19l-.19,0V17.77a2.1,2.1,0,0,0-.1-.72l-.1-.21.22-.09.17-.07,0,0,.24-.08.09,0a7.87,7.87,0,0,1,1.81-.21h0c2.15,0,2.4,1.91,2.4,3.34,0,2.8-1.4,3.39-2.55,3.39m0-9.64h-.09c-2,0-4.08.55-4.82,1.63a3.26,3.26,0,0,0-.63,2h0v5.23a1.56,1.56,0,0,1-.11.66l-.12.22h-6.36V19.5h0c-.08-3.83-2.35-5.94-5.63-5.94h-3.2c-.13.93-.24,1.59-.37,2.53h3.19c1.67,0,2.56,1.42,2.56,3.61v3.66l-.23-.12a2.41,2.41,0,0,0-.75-.11h-5.5c-.11.7-.24,1.61-.39,2.52h16.93c.58-.12,1.25-.22,1.83-.32a9.38,9.38,0,0,0,3.54.65c3.68,0,6.06-2.46,6.06-6.26s-2.32-6.21-5.9-6.29"/><path class="cls-4" d="M82.71,27.19h.15c3.68,0,5.39-1.21,5.39-4.2,0-2.15-1.57-3.86-4.2-3.86H80.66A1.46,1.46,0,0,1,79,17.58c0-.66.25-1.48,1.91-1.48h7.41c.15-1,.23-1.57.38-2.53H81.05c-3.59,0-5.39,1.5-5.39,4s1.57,3.76,4.2,3.76h3.39A1.61,1.61,0,0,1,84.87,23a1.66,1.66,0,0,1-1.9,1.7H82.4l-10.84,0h-2c-1.68,0-2.85-.95-2.85-3.15V20c0-2.29.91-3.72,2.85-3.72H72.8c.14-1,.24-1.59.37-2.51H68.78c-3.28,0-5.54,2.2-5.62,6h0v1.71c.08,3.84,2.34,5.67,5.62,5.67H82.71Z"/></g></g></svg>