<svg xmlns="http://www.w3.org/2000/svg" viewBox="0 0 118.79 37"><defs><style>.cls-1{fill:#184893;}.cls-2,.cls-7{fill:#fff;}.cls-2,.cls-9{fill-rule:evenodd;}.cls-3{fill:#363667;}.cls-4{fill:#e3b837;}.cls-5{fill:none;stroke:#e3b837;stroke-width:0.94px;}.cls-6{fill:#bf2032;}.cls-8,.cls-9{fill:#010101;}</style></defs><title>Asset 9</title><g id="Layer_2" data-name="Layer 2"><g id="payment_logo" data-name="payment logo"><rect class="cls-1" width="58.92" height="37" rx="3.14"/><path class="cls-2" d="M21.86,26.26l2.62-15.38h4.19L26.05,26.26Zm19.33-15a10.84,10.84,0,0,0-3.76-.65c-4.14,0-7.06,2.09-7.08,5.08,0,2.21,2.08,3.44,3.67,4.18s2.18,1.23,2.17,1.9c0,1-1.3,1.51-2.5,1.51a8.87,8.87,0,0,1-3.95-.81l-.54-.25-.59,3.45a13.28,13.28,0,0,0,4.67.82c4.41,0,7.27-2.06,7.3-5.26,0-1.75-1.1-3.08-3.52-4.17-1.46-.72-2.36-1.19-2.35-1.91s.76-1.32,2.4-1.32a7.49,7.49,0,0,1,3.14.59l.37.17.57-3.33M52,10.88H48.74a2.08,2.08,0,0,0-2.2,1.27l-6.22,14.1h4.4s.72-1.9.88-2.31H51l.51,2.31h3.89L52,10.88Zm-5.14,9.93c.34-.89,1.67-4.3,1.67-4.3s.34-.89.55-1.47l.29,1.33,1,4.44ZM18.3,10.88,14.19,21.37l-.43-2.14A12.09,12.09,0,0,0,8,12.78L11.7,26.23h4.44l6.6-15.35H18.3"/><g id="layer1"><g id="g63359"><path id="path58300" class="cls-3" d="M118.79,37V0H64.07V37Z"/><path id="path58344" class="cls-4" d="M91.59,28.44a13.09,13.09,0,1,0-4.31-9.71,13,13,0,0,0,4.31,9.71"/><path id="path58346" class="cls-4" d="M112.1,26h.1s0,0,0-.05a0,0,0,0,0,0,0h-.1Zm0,.21H112v-.37h.17a.15.15,0,0,1,.09,0,.1.1,0,0,1,0,.09.09.09,0,0,1-.06.1l.07.16h-.1l0-.14h-.07Zm.06.14a.32.32,0,0,0,.32-.32.32.32,0,1,0-.64,0,.32.32,0,0,0,.32.32m-.42-.32a.42.42,0,0,1,.84,0,.42.42,0,1,1-.84,0"/><path id="path58348" class="cls-4" d="M91.59,28.44A13.09,13.09,0,0,1,91.59,9"/><path id="path58350" class="cls-5" d="M91.59,28.44A13.09,13.09,0,0,1,91.59,9"/><path id="path58352" class="cls-6" d="M95.82,17.34A13,13,0,0,0,95.6,16h-8A12.77,12.77,0,0,1,88,14.57h7.26a11.21,11.21,0,0,0-.56-1.39H88.52a14.29,14.29,0,0,1,.75-1.39h4.64a12.44,12.44,0,0,0-1-1.38H90.27A11.55,11.55,0,0,1,91.59,9a13.1,13.1,0,1,0,0,19.42,13.32,13.32,0,0,0,1.32-1.39H90.27a12.56,12.56,0,0,1-1-1.39h4.64a12.28,12.28,0,0,0,.75-1.38H88.52A13.91,13.91,0,0,1,88,22.89h7.26a13.62,13.62,0,0,0,.38-1.39,12.22,12.22,0,0,0,.22-1.39,12.48,12.48,0,0,0,.08-1.38,12.81,12.81,0,0,0-.08-1.39"/><path id="path58354" class="cls-7" d="M112.1,21.74h.05s0,0,0,0a.06.06,0,0,0,0,0s0,0,0,0,0,0,0,0h-.05Zm0,.21H112v-.37h.17a.15.15,0,0,1,.09,0,.11.11,0,0,1,0,.09.1.1,0,0,1-.06.1l.07.16h-.1l0-.15h-.07Zm.06.14a.33.33,0,1,0-.32-.32.32.32,0,0,0,.32.32m-.42-.32a.42.42,0,1,1,.42.42.42.42,0,0,1-.42-.42"/><path id="path58356" class="cls-8" d="M87.14,22.51a4,4,0,0,1-1.07.18A1,1,0,0,1,85,21.5,2.74,2.74,0,0,1,85,21l.09-.53.06-.43.62-3.69h1.37l-.16.8h.85l-.2,1.36H86.8l-.37,2.21c0,.1,0,.18,0,.23,0,.27.14.39.48.39a1.91,1.91,0,0,0,.43,0Z"/><path id="path58358" class="cls-8" d="M90.68,19.25c0-.12,0-.21,0-.28a.62.62,0,0,0-.67-.7c-.45,0-.77.35-.9,1Zm.85,3.21a5.22,5.22,0,0,1-1.46.22,2.18,2.18,0,0,1-2.41-2.42c0-1.86,1-3.22,2.48-3.22a1.8,1.8,0,0,1,1.91,2,5.89,5.89,0,0,1-.17,1.33H89.05a1.31,1.31,0,0,0,0,.17c0,.63.43.95,1.25.95a3.29,3.29,0,0,0,1.47-.34Z"/><path id="path58360" class="cls-8" d="M76.29,22.58H74.86l.82-5.11-1.82,5.11h-1l-.12-5.08-.86,5.08H70.54l1.11-6.65h2l.06,4.12,1.38-4.12h2.24Z"/><path id="path58362" class="cls-8" d="M80.82,22.58H79.6l0-.56a1.67,1.67,0,0,1-1.49.65,1.36,1.36,0,0,1-1.27-1.48,2.57,2.57,0,0,1,.11-.7c.22-.83,1.07-1.36,2.36-1.38.16,0,.41,0,.62,0a1.14,1.14,0,0,0,.06-.35c0-.35-.29-.47-1-.47a4.18,4.18,0,0,0-1.17.17l-.21.05-.08,0,.2-1.21a5.42,5.42,0,0,1,1.65-.29c1.23,0,1.87.55,1.87,1.59a4.64,4.64,0,0,1-.07,1.07L81,21.62l-.06.35,0,.27,0,.19ZM79.7,20.17l-.28,0c-.81,0-1.21.31-1.21.82a.49.49,0,0,0,.51.55c.68,0,1-.55,1-1.35"/><path id="path58364" class="cls-8" d="M98.36,17.22a2.69,2.69,0,0,1,1.28.36l.23-1.44L99.52,16l-.58-.15a2.88,2.88,0,0,0-.63-.07,2.65,2.65,0,0,0-1.55.28,4,4,0,0,0-.85.7l-.17-.05-1.45,1,.07-.58h-1.5L92,22.58h1.43l.51-2.91s.21-.4.3-.52A.76.76,0,0,1,95,18.8h.1a8.2,8.2,0,0,0-.07,1c0,1.77,1,2.86,2.54,2.86a4.42,4.42,0,0,0,1.25-.18L99.09,21a2.76,2.76,0,0,1-1.21.34c-.82,0-1.32-.61-1.32-1.62,0-1.46.74-2.49,1.8-2.49"/><path id="path58366" class="cls-8" d="M108.65,21.31c-.48,0-.73-.36-.73-1.07,0-1.07.46-1.82,1.1-1.82s.76.37.76,1.06c0,1.07-.47,1.83-1.13,1.83m1.73-5.38-.31,1.9a1.48,1.48,0,0,0-1.3-.76,2.13,2.13,0,0,0-1.87,1.23h0l-.9-.54.07-.58h-1.5l-.87,5.41h1.42l.47-2.91s.37-.41.45-.53a.84.84,0,0,1,.64-.34,4.61,4.61,0,0,0-.26,1.61c0,1.34.7,2.24,1.74,2.24a1.69,1.69,0,0,0,1.32-.6l-.08.53h1.35l1.08-6.65Z"/><path id="path58368" class="cls-8" d="M103.22,22.58H102l0-.56a1.67,1.67,0,0,1-1.49.65,1.39,1.39,0,0,1-1.31-1.48c0-1.29,1-2.08,2.51-2.08.16,0,.41,0,.62,0a1.14,1.14,0,0,0,.06-.35c0-.35-.29-.47-1-.47a4.18,4.18,0,0,0-1.17.17l-.2.05-.09,0,.21-1.21a5.36,5.36,0,0,1,1.64-.29c1.23,0,1.87.55,1.87,1.59a4.64,4.64,0,0,1-.07,1.07l-.29,1.91,0,.35,0,.27,0,.19Zm-1.12-2.41-.28,0c-.8,0-1.21.31-1.21.82a.49.49,0,0,0,.51.55c.68,0,1-.55,1-1.35"/><path id="path58370" class="cls-9" d="M83.79,18.33a7.7,7.7,0,0,1,1.07.08l.19-1.25a12.43,12.43,0,0,0-1.26-.1c-1.59,0-2.12.84-2.12,1.84a1.57,1.57,0,0,0,1.06,1.48c.58.27.68.32.68.56s-.29.53-.85.53a4.23,4.23,0,0,1-1.28-.21l-.16,1.24h0l.26,0a2.2,2.2,0,0,0,.37.05,7.14,7.14,0,0,0,.81.05c1.58,0,2.23-.61,2.23-1.8a1.52,1.52,0,0,0-1.06-1.5c-.6-.28-.67-.32-.67-.57s.26-.46.7-.46"/><path id="path58372" class="cls-7" d="M100.25,15.72,100,17.16a2.78,2.78,0,0,0-1.28-.35c-1.06,0-1.81,1-1.81,2.49,0,1,.51,1.61,1.33,1.61a2.79,2.79,0,0,0,1.21-.34l-.25,1.52a4.53,4.53,0,0,1-1.26.19c-1.53,0-2.48-1.1-2.48-2.87,0-2.38,1.32-4,3.2-4a3,3,0,0,1,.64.06l.58.15.34.13"/><path id="path58374" class="cls-7" d="M95.69,16.71h-.14c-.47,0-.73.24-1.17.88l.12-.82H93.22l-.87,5.4h1.42c.51-3.3.65-3.88,1.33-3.88h.1a5.64,5.64,0,0,1,.54-1.57Z"/><path id="path58376" class="cls-7" d="M87.49,22.09a2.93,2.93,0,0,1-1,.17,1,1,0,0,1-1.13-1.18,4.4,4.4,0,0,1,0-.49l.09-.52.07-.43L86.16,16h1.42l-.17.81h.73L88,18.07h-.73l-.37,2.26a1.14,1.14,0,0,0,0,.21c0,.29.15.41.48.41a1.07,1.07,0,0,0,.39-.06Z"/><path id="path58378" class="cls-7" d="M82,18.46A1.59,1.59,0,0,0,83.12,20c.57.27.66.35.66.59s-.25.5-.81.5a3.86,3.86,0,0,1-1.27-.22l-.2,1.25h.06l.27,0,.36.05c.34,0,.6.05.79.05,1.5,0,2.19-.58,2.19-1.81a1.47,1.47,0,0,0-1-1.5c-.6-.28-.67-.33-.67-.59s.24-.44.69-.44a8,8,0,0,1,1,.08l.2-1.25a9.39,9.39,0,0,0-1.25-.1c-1.59,0-2.14.83-2.13,1.82"/><path id="path58380" class="cls-7" d="M109,20.89c.67,0,1.13-.75,1.13-1.82,0-.69-.26-1.06-.75-1.06-.64,0-1.11.75-1.11,1.81,0,.71.25,1.07.73,1.07m2.1,1.27h-1.34l.07-.53a1.69,1.69,0,0,1-1.32.6c-1,0-1.71-.89-1.71-2.24,0-1.8,1-3.31,2.31-3.31a1.61,1.61,0,0,1,1.36.73l.31-1.89h1.4Z"/><path id="path58382" class="cls-7" d="M91.05,18.83c0-.12,0-.21,0-.28a.63.63,0,0,0-.68-.69c-.45,0-.77.34-.91,1Zm.79,3.22a5.1,5.1,0,0,1-1.46.21A2.15,2.15,0,0,1,88,19.84c0-1.85,1-3.22,2.49-3.22a1.81,1.81,0,0,1,1.91,2,6,6,0,0,1-.17,1.34H89.37a1.49,1.49,0,0,0,0,.17c0,.63.42.94,1.25.94a3.33,3.33,0,0,0,1.48-.34Z"/><path id="path58384" class="cls-7" d="M76.64,22.16H75.22L76,17.05l-1.81,5.11h-1l-.12-5.08-.86,5.08H70.94l1.11-6.64h2l.05,4.11,1.39-4.11h2.21Z"/><path id="path58386" class="cls-7" d="M81.18,22.16H80l0-.56a1.77,1.77,0,0,1-1.49.66,1.34,1.34,0,0,1-1.3-1.48c0-1.32.92-2.08,2.49-2.08a4.27,4.27,0,0,1,.59,0,1.49,1.49,0,0,0,.05-.35c0-.37-.25-.5-.91-.5a4.26,4.26,0,0,0-1.18.16l-.19.05-.13,0,.19-1.22a6,6,0,0,1,1.7-.28c1.22,0,1.87.54,1.87,1.58a6.64,6.64,0,0,1-.11,1.07l-.3,1.92,0,.34,0,.28,0,.18Zm-1-2.41a2,2,0,0,0-.32,0c-.8,0-1.22.28-1.22.82a.5.5,0,0,0,.51.55c.59,0,1-.55,1-1.35"/><path id="path58388" class="cls-7" d="M103.59,22.16H102.4l0-.56a1.8,1.8,0,0,1-1.5.66,1.34,1.34,0,0,1-1.3-1.48c0-1.32.92-2.08,2.5-2.08a4.14,4.14,0,0,1,.58,0,1.19,1.19,0,0,0,.06-.35c0-.37-.26-.5-.91-.5a4.34,4.34,0,0,0-1.19.16l-.19.05-.13,0,.19-1.22a6,6,0,0,1,1.71-.28c1.22,0,1.86.54,1.86,1.58a5.62,5.62,0,0,1-.11,1.07l-.3,1.92,0,.34,0,.28,0,.18Zm-1-2.41a2,2,0,0,0-.32,0c-.8,0-1.21.28-1.21.82a.49.49,0,0,0,.51.55c.58,0,1-.55,1-1.35"/><path id="path58390" class="cls-7" d="M107.4,16.71h-.15c-.46,0-.73.24-1.17.88l.13-.82h-1.28l-.87,5.4h1.42c.51-3.3.65-3.88,1.33-3.88h.09a5.06,5.06,0,0,1,.55-1.57Z"/></g></g></g></g></svg>