<svg id="Layer_1" data-name="Layer 1" xmlns="http://www.w3.org/2000/svg" viewBox="0 0 18.02 20"><defs><style>.cls-1{fill:#4d4e56;}</style></defs><path class="cls-1" d="M4.58,13.49H2a.47.47,0,0,0-.47.47V15.7a.48.48,0,0,0,.47.48H4.58a.48.48,0,0,0,.47-.48V14A.47.47,0,0,0,4.58,13.49Zm-.47,1.74H2.51v-.8h1.6Z" transform="translate(0 0)"/><path class="cls-1" d="M14.06,13.49H11.52A.48.48,0,0,0,11,14V15.7a.49.49,0,0,0,.48.48h2.54a.49.49,0,0,0,.48-.48V14A.48.48,0,0,0,14.06,13.49Zm-.47,1.74H12v-.8h1.6Z" transform="translate(0 0)"/><path class="cls-1" d="M9.7,15.19H6.42a.47.47,0,1,0,0,.94H9.7a.47.47,0,1,0,0-.94Z" transform="translate(0 0)"/><path class="cls-1" d="M9.7,13.87H6.42a.47.47,0,0,0,0,.94H9.7a.47.47,0,1,0,0-.94Z" transform="translate(0 0)"/><path class="cls-1" d="M17.79,2.29,13.6.06a.45.45,0,0,0-.45,0L9.07,2.29a.48.48,0,0,0-.25.42V5.87A6.24,6.24,0,0,0,9.2,8H3.8a1.58,1.58,0,0,0-1.45,1L1.19,11.64l-.47.45A2.1,2.1,0,0,0,0,13.68v4.77A1.53,1.53,0,0,0,1.52,20h.91A1.53,1.53,0,0,0,4,18.45v-.57h8.16v.57A1.58,1.58,0,0,0,13.69,20h.89a1.56,1.56,0,0,0,1.55-1.55v-4.9A2.1,2.1,0,0,0,15.49,12l-.33-.35-.22-.47A6.29,6.29,0,0,0,18,5.81V2.71A.44.44,0,0,0,17.79,2.29ZM3.22,9.3a.66.66,0,0,1,.58-.39H9.64c.14.25.29.48.45.71a2.47,2.47,0,0,0-1.53,1.84H2.3Zm7.57,1.12a6.74,6.74,0,0,0,1.45,1H9.53A1.5,1.5,0,0,1,10.79,10.42ZM3,18.45a.59.59,0,0,1-.59.6h-.9a.58.58,0,0,1-.58-.6v-.68a1.46,1.46,0,0,0,.58.11H3Zm12.18,0a.61.61,0,0,1-.61.6h-.9a.62.62,0,0,1-.62-.6v-.57h1.52a1.61,1.61,0,0,0,.61-.11Zm0-4.91v2.81a.59.59,0,0,1-.61.58H1.53A.57.57,0,0,1,1,16.37v-2.7a1.13,1.13,0,0,1,.39-.87h0l.42-.39H14.53l.28.3,0,0A1.17,1.17,0,0,1,15.2,13.54ZM17.08,5.8a5.32,5.32,0,0,1-3.27,4.93l-.44.2L13,10.76a5.36,5.36,0,0,1-3.21-4.9V3l3.6-2,3.71,2Z" transform="translate(0 0)"/><path class="cls-1" d="M15.72,4.76a.46.46,0,0,0-.66-.06L12.85,6.5l-.8-.94a.47.47,0,0,0-.72.61l1.1,1.29h0a0,0,0,0,0,0,0l0,0h0l0,0h0l0,0h.49l0,0h0l2.57-2.08A.48.48,0,0,0,15.72,4.76Z" transform="translate(0 0)"/></svg>