<svg id="Layer_1" data-name="Layer 1" xmlns="http://www.w3.org/2000/svg" viewBox="0 0 105.03 111.79"><defs><style>.cls-1{fill:#fff;}</style></defs><path class="cls-1" d="M44.38,105.42a39.32,39.32,0,0,0,3.19-8.66,7.23,7.23,0,0,0-.1-5.17,3.16,3.16,0,0,0-.64-1.34c1.78-2.4,3.56-4.79,5.39-7.14a13,13,0,0,0,1.13,2.51c.65,1.21,1.29,2.43,2,3.63a1.39,1.39,0,0,0-.23.32c0,.07,0,.14-.07.2a2.48,2.48,0,0,0-.51,1,4.17,4.17,0,0,0,0,.71,13.59,13.59,0,0,0,.64,7.12c.91,2.74,2.17,6.17,4.66,7.87,1.66,1.13,3.6,1.42,4.83-.4,1.63-2.41.5-6.58-.27-9.07-.81-2.65-2.09-6.31-4.72-7.73A4.48,4.48,0,0,0,56.14,89a.86.86,0,0,0-.45,0c-.39-.8-.79-1.6-1.2-2.39a14.36,14.36,0,0,1-1.81-4.11c1.3-1.66,2.65-3.3,4-4.9a6.49,6.49,0,0,0,3.84,2.7,8.32,8.32,0,0,0,5.24,5.28c3.09,1.14,7.62,2.85,11,2A3.93,3.93,0,0,0,80,83.47c-.24-2.83-2.63-4-5.08-4.62-2.12-.55-12.47-2.66-13.78.67a.65.65,0,0,0-.39.12,22.76,22.76,0,0,1-2.09-1.18,12.87,12.87,0,0,1-1.49-1.37c.88-1,1.75-2,2.68-3,4.6-4.83,10-8.9,13.81-14.46a.27.27,0,0,0,0-.33c10.44-1.65,20.84-3.59,31.33-5l.06-1.12q-3.57.49-7.13,1.07A65.45,65.45,0,0,1,90.8,43.36,6.88,6.88,0,0,0,92,42.77c.34-.19.68-.4,1-.62a4.67,4.67,0,0,0,1.56.78,3.46,3.46,0,0,0,1.86,0A10.34,10.34,0,0,0,98.29,42c2.51-1.38,4.31-2.09,6.73-3.58,0-1.34,0-3,0-4.3,0-1.56,0-2.27,0-3.82a15.43,15.43,0,0,0-4.55,1.78c-2.17,1.18-4.49,1.94-6.69,3a4.14,4.14,0,0,0-2.27,2.18,4.09,4.09,0,0,0,1.13,4.49,10.17,10.17,0,0,1-.86.6c-.36.23-.76.42-1.13.65a46.85,46.85,0,0,1-3.51-9.29,5.22,5.22,0,0,0,3.25-2.35,3.12,3.12,0,0,0,2.2.7c2.84-.2,5.39-3,7.31-4.85,2.24-2.13,4.52-5.13,3.88-8.45-.51-2.66-3.65-3.36-6-2.73-3.24.88-4.93,3.81-6.38,6.6-1,1.92-4.15,6.35-1.7,8.27a1.35,1.35,0,0,0,.22.14,7.57,7.57,0,0,1-1,1.25,8.84,8.84,0,0,1-1.85,1.28,49.66,49.66,0,0,1-1.28-6.88c.69-.12,1.33-.64,1.82-1.78,1-2.28.24-5.63,0-8-.27-2.56-.21-5.46-1.29-7.85-1-2.21-4.07-4.93-6.37-2.65-.94.92-1,2.2-1,3.43a30.38,30.38,0,0,0,.44,6.71c0,.35.09.68.13,1a15.84,15.84,0,0,0,2.35,6.56c.87,1.28,2.17,2.47,3.4,2.61a40.82,40.82,0,0,0,1,7.16,18.25,18.25,0,0,1-4.42-1.8,4,4,0,0,0-1-4.48c-2-1.89-4.68-3.16-6.79-5-1.43-1.23-2.85-2.48-4.78-2.83-2.94-.52-6.37,1.8-5.1,5.05,1.35,3.44,15.19,12.57,17.27,7.82.07-.08.16-.16.23-.25a10.79,10.79,0,0,0,4.74,2.06,44,44,0,0,0,3.28,9c-1.84.85-4,.8-6.1.86-.12-1.65-1.74-3.31-3.23-3.94a17.71,17.71,0,0,0-6.11-.83c-2.53-.1-5.56-.4-8,.29a4.25,4.25,0,0,0-2,6.93c2.7,3.3,7.92,2.33,11.57,1.92,2-.21,4.34-.49,5.89-1.61a3.41,3.41,0,0,0,.92-.51,2.68,2.68,0,0,0,1-1.88,28.57,28.57,0,0,0,4.24-.13A4.4,4.4,0,0,0,90,43.91a35.52,35.52,0,0,0,7.75,10.36c-11.17,1.78-22.26,4-33.46,5.56-8.33-2.22-15.59-10.45-20.33-17.22a61.36,61.36,0,0,1-3.57-5.79,8.15,8.15,0,0,0,3.59-2.29c-.11.14.89.73,1,.79a3.89,3.89,0,0,0,2,.43A8.85,8.85,0,0,0,51,34.88a10.35,10.35,0,0,0,3-2.53c1-1.14,1.81-2.38,2.7-3.58,1.47-1.95,3.36-5.18,1.42-7.45s-5.44-.81-7.31.93c-1.27,1.17-2.32,2.55-3.59,3.72s-2.59,2-3.44,3.32a4.72,4.72,0,0,0-.2,4.77,15,15,0,0,1-3.4,2.3s-.05,0-.07.07a125.66,125.66,0,0,1-6.68-15.11.24.24,0,0,0-.22-.16l.08-.13c1.5-.74,1.2-3,1-4.4-.47-4.3-.53-9.49-2.42-13.46-2.49-5.25-8.11-3.6-7.28,2.14.56,3.89,2,17,8.17,16.09l.14,0a.27.27,0,0,0,0,.13,51.2,51.2,0,0,0,2.41,7.34c-.65-.09-1.32-.14-2-.27S32,28.17,31.24,28v-.1a1.56,1.56,0,0,0,0-1.83c-3-4-8.86-6.61-13.66-7.47-3.11-.56-8-.2-5.86,4.15,2,4.11,8.26,6.1,12.4,6.87,1.56.29,6.88.9,7.16-1.49a9.48,9.48,0,0,0,4.25,1,63.87,63.87,0,0,0,3.72,7.45s-.05,0-.08,0a14.33,14.33,0,0,1-4.71,1c.2-5-9.87-5.15-13.16-5.31-2.09-.11-5.62.13-6.73,2.35-.88,1.77.28,3.19,1.83,4a32.39,32.39,0,0,0,5.16,1.57,36.54,36.54,0,0,0,5.69,1.54,5.82,5.82,0,0,0,1.1,0l.17,0c2.32.37,4.71-.29,5.62-2.66a5.24,5.24,0,0,0,.22-.79,12.14,12.14,0,0,0,5-1c.08,0,.11-.1.15-.16a75.33,75.33,0,0,0,5.7,8.39C49.57,51.1,56.2,58,63.39,59.94c-1.82.25-3.65.5-5.47.72-11.4,1.32-22.79,1.67-34.2,2a12.76,12.76,0,0,0-1.53-1.78,2,2,0,0,0,.6-.48c1.89-2.23-.78-7.72-1.81-9.75-1.21-2.4-3.63-7.11-6.78-7.44a2.47,2.47,0,0,0-1.85.43,2.41,2.41,0,0,0-.69,1.59,8.12,8.12,0,0,0,.22,2.41,20.83,20.83,0,0,0,.89,2.88c.38,1,.83,2,1.31,3s.95,1.88,1.48,2.8,1,1.65,1.56,2.46a4.64,4.64,0,0,0,1.07,1.14,4.41,4.41,0,0,0,.74.47,6.39,6.39,0,0,0,2,.53,6.08,6.08,0,0,1,1,.21,14.25,14.25,0,0,0,1.25,1.54c-3.76.1-7.52.19-11.29.31a6.25,6.25,0,0,0-.94-1.42,1.27,1.27,0,0,0,1.14-1c.7-3.36-5.53-20.66-10.9-16.27-3,2.45.5,6.84,1.74,9.21s3.9,7.95,7.06,7.92a1.86,1.86,0,0,0,.48.09A7.79,7.79,0,0,1,11.39,63c-2.84.1-5.69.2-8.54.34-.05,0,0,.08,0,.08,2.86.1,5.72.16,8.59.2,0,0,0,.05,0,.07-.19.65-.67,1.18-.89,1.81,0,0,0,.09.08.06a3.16,3.16,0,0,0,.75-1,6.34,6.34,0,0,0,.53-1q5.65.07,11.33,0a3.18,3.18,0,0,0-1,1.61c-1.52-.58-4.07.35-5.07,1.39-1.69,1.75-2.31,4.25-3,6.51S12,78.55,12.7,81a2.9,2.9,0,0,0,3.61,2c2-.43,3.18-2.39,3.86-4.11.46-1.17.71-2.41,1.24-3.55s1.28-2.26,1.73-3.51c.63-1.72,1.35-4.15.11-5.78a1.66,1.66,0,0,0-.78-.79c.26-.3.45-.65.69-1a7.25,7.25,0,0,1,.7-.76c11.41-.2,22.84-.89,34.09-2.11,5-.54,10-1.25,15-2C68.83,65.51,62.64,70,57.7,75.41c-.36.39-.71.81-1.07,1.21a18.38,18.38,0,0,1-3.14-.33c-.66-.16-1.29-.41-1.93-.63.58-1.54-.32-3.6-1.5-4.62a21.06,21.06,0,0,0-3.73-2.11,35,35,0,0,0-4.8-2.64c-1.77-.66-4.76-1.06-5.64,1.16S37.21,71.83,38.8,73A17.44,17.44,0,0,0,43,75.51c1.65.61,3.31,1.16,5,1.65a3.19,3.19,0,0,0,1.37.18,2.86,2.86,0,0,0,1.31-.51,2.42,2.42,0,0,0,.66-.74A9.36,9.36,0,0,0,56,77.29c-1.49,1.7-2.95,3.43-4.33,5.23a.21.21,0,0,0-.11,0,18.41,18.41,0,0,1-3.71-.08c-.65-.11-1.3-.23-2-.3a3.93,3.93,0,0,0-2-3.94c-3.25-1.92-8.69-3.37-12.43-2.49-2.61.61-6.1,2.52-3.84,5.49,1.65,2.16,4.77,3.35,7.64,3.75,2.86.75,6.39.86,8.76-.35a3.47,3.47,0,0,0,1.69-1.77,17.09,17.09,0,0,0,3,.58,5.68,5.68,0,0,0,2.5-.11A73,73,0,0,0,46.6,90c-.83-.77-2.15-1-4.1-.36-5.1,1.73-7.79,6.45-9.82,11.08-1.39,3.18-3.11,8.07.72,10.39C37.42,113.57,42.53,108.67,44.38,105.42Z"/></svg>