<svg id="Layer_1" data-name="Layer 1" xmlns="http://www.w3.org/2000/svg" viewBox="0 0 52.84 22.17"><defs><style>.cls-1{fill:#fff;}</style></defs><path class="cls-1" d="M4.06,5.08a4.62,4.62,0,0,0,0-.91,4.15,4.15,0,0,0,.79,0l0-.28a4.51,4.51,0,0,1-.9,0l-.17,0L3.8,4a3.79,3.79,0,0,1-.08,1.26c.1-.06.21-.14.34-.21"/><path class="cls-1" d="M4.94,6c-.31,0-.47-.09-.48-.14s.18-.15.51-.16h.12a.36.36,0,0,0,0-.11H5c-.31,0-.62.1-.61.27s.3.25.58.25H5l.18,0a.36.36,0,0,1,0-.1L5,6Z"/><path class="cls-1" d="M5.07,5.51l0-.19A1.86,1.86,0,0,1,4.83,5l-.11,0A1.48,1.48,0,0,0,5,5.45l.06.06"/><path class="cls-1" d="M7.14,3.62a1.16,1.16,0,0,0,0-.18l.17.11.16,0,0,0a.91.91,0,0,1-.29-.19L7.08,3.2v.13A1.28,1.28,0,0,1,7,3.66Z"/><path class="cls-1" d="M4.47,4.54a3.42,3.42,0,0,0,.45,0s0-.07,0-.11a4.19,4.19,0,0,1-.5,0H4.35v.06a3.15,3.15,0,0,1,0,.44l.13-.07c0-.13,0-.25,0-.31"/><path class="cls-1" d="M6.43,10.46q-.13-.3-.24-.6a.63.63,0,0,0,.24.6"/><path class="cls-1" d="M7.2,12.82a.77.77,0,0,0,.38-.17l-.12-.19a.72.72,0,0,1-.21.12,1.49,1.49,0,0,1,.14-.24l-.13-.2a1,1,0,0,0-.25.49.19.19,0,0,0,.17.19Z"/><path class="cls-1" d="M6.57,13.21v0h.56a8.25,8.25,0,0,0,.86,0,1,1,0,0,0-.08-.11,10.1,10.1,0,0,1-1.23,0,6.85,6.85,0,0,1,.14-1.83,1,1,0,0,1-.07-.15,6.59,6.59,0,0,0-.18,2.05"/><path class="cls-1" d="M12.43,17a13.53,13.53,0,0,1-2.72.89,11.73,11.73,0,0,0,2.15-1.23,18.52,18.52,0,0,1-3-2.47C6.39,11.72,5.4,7.87,5,5c-1,.32-1.74.62-1.74.62a14.54,14.54,0,0,1,1.68-1,29.93,29.93,0,0,1-.22-3.13A10,10,0,0,0,15.19,18.37,18.66,18.66,0,0,1,12.43,17"/><path class="cls-1" d="M9.88,0A9.84,9.84,0,0,0,6.74.51a28.12,28.12,0,0,0-.17,3.31c1.74-.67,3.85-1,5.57,0,2.72,1.61-.68,5.5-.68,5.5s3.4-.58,4.64,1.38c1,1.57.22,4.42-3.33,6.18a14.56,14.56,0,0,0,2.48,1.49A10,10,0,0,0,9.88,0Z"/><path class="cls-1" d="M11,5c-.79-1-2.67-.81-4.38-.43.31,6.14,3.07,9.78,5.59,11.85,1.8-1.42,2.93-3.28,2-4.85-.84-1.37-3.42-1.58-5.53-.77,2-1.56,3.82-4,2.35-5.8"/><path class="cls-1" d="M25.45,22.17l-1.14-2c.46-.2,11.36-4.67,28.53-2.9l-.32,2.19c-16.4-1.69-27,2.65-27.07,2.69"/><path class="cls-1" d="M31.22,11.76,31.07,14a13.36,13.36,0,0,1-4.2,1c-4.44,0-6.22-3-6.22-5.83C20.65,5.56,23.43,3,27.34,3a15,15,0,0,1,3.22.42h.36V6.11l-.66.09c-.48-1.88-1.47-2.46-3.4-2.46-2.7,0-4.2,2.36-4.2,5,0,3.31,1.74,5.46,4.37,5.46,1.91,0,2.74-.93,3.5-2.73Z"/><path class="cls-1" d="M36.33,13.16V10.69l-1.42.46a1.46,1.46,0,0,0-1.13,1.26A1.3,1.3,0,0,0,35,13.72a3.3,3.3,0,0,0,1.29-.56m1.45,1.66a1.46,1.46,0,0,1-1.4-1,4,4,0,0,1-2,1,2.24,2.24,0,0,1-2.41-2,2.34,2.34,0,0,1,1.69-2L36.33,10V9.49c0-1.19-.26-2-1.16-2-1.14,0-2.09,1.71-2.09,1.71L32.27,8a4.79,4.79,0,0,1,3.3-1.24c1.64,0,2.34,1.12,2.34,2.6v3.27c0,.77.25,1.1.5,1.1s.25,0,.53-.22l.2.52Z"/><path class="cls-1" d="M42.59,7.88a2.86,2.86,0,0,1,2-1.16,2.12,2.12,0,0,1,1.26.6l-.6,1.14A3.69,3.69,0,0,0,44,7.93,1.85,1.85,0,0,0,42.59,9v3.71c0,1.13.28,1.23,2,1.35v.51H39.67v-.49C40.74,14,41,13.89,41,12.74V8.84c0-1.11-.1-1.21-1.21-1.28V7.09l2.82-.37Z"/><path class="cls-1" d="M47.73,9.66H50.8c.3,0,.3-.12.3-.4,0-1-.53-1.83-1.54-1.83-.77,0-1.63.77-1.83,2.23m5.09,3.43a4.29,4.29,0,0,1-3.17,1.73,3.58,3.58,0,0,1-3.6-3.73A4.23,4.23,0,0,1,50,6.74a2.92,2.92,0,0,1,2.87,2.88c0,.37,0,.72-.51.77H47.66c0,2.32,1.4,3.2,2.57,3.2a3.4,3.4,0,0,0,2.23-1Z"/><path class="cls-1" d="M9.88,2.61c-.15,0-.23.26-.26.55h.12c0-.28.1-.43.14-.43s.11.15.14.44h.11c0-.3-.1-.57-.25-.57"/><path class="cls-1" d="M10.74,3.08a.56.56,0,0,0-.31.12l.16,0,.15,0h0a.08.08,0,0,1,0,.07l.1,0a.17.17,0,0,0,0-.17.12.12,0,0,0-.11,0"/><path class="cls-1" d="M8.9,3.12a.16.16,0,0,0,0,.09h.19l.22,0A.62.62,0,0,0,9,3.08a.13.13,0,0,0-.12,0"/><path class="cls-1" d="M15.32,14.93c0,.15,0,.3,0,.44l-.42,0-.15.14a4.46,4.46,0,0,1,.63,0h.06v-.06a3.91,3.91,0,0,1,.06-.68,1.19,1.19,0,0,1-.15.18"/><path class="cls-1" d="M10.73,2.76a2.65,2.65,0,0,1-.81-.59l0,0-.05,0A2.65,2.65,0,0,1,9,2.76a1.5,1.5,0,0,0-.64.53l.17,0a1.42,1.42,0,0,1,.51-.4,2.86,2.86,0,0,0,.82-.56,2.65,2.65,0,0,0,.81.56,1.59,1.59,0,0,1,.63.55l.16,0a1.55,1.55,0,0,0-.75-.7"/><path class="cls-1" d="M13.05,18.15a.66.66,0,0,0,.09-.31.62.62,0,0,0,.29.15l-.38.16ZM7,18c-.07-.05-.07-.32,0-.52L7,16.83l-.37.54c-.12.17-.31.36-.4.34s0,0-.07-.09a2,2,0,0,0-.11-.26,1.64,1.64,0,0,1-.2-1.16A2.09,2.09,0,0,0,6.79,16l.1-.06a1.06,1.06,0,0,0,.09.25l0,.09a1,1,0,0,1,.07.34v.14l.09-.1a1.45,1.45,0,0,1,.29-.19l.09,0,.24-.11a.2.2,0,0,0,0,.11,2.08,2.08,0,0,0,.48.81c-.14.33-.54.5-1,.67L7.07,18C7,18,7,18,7,18Zm-.62,0a.64.64,0,0,0,.28-.15.67.67,0,0,0,.1.31L6.33,18ZM2,13.85l.11.06.25.1a2.69,2.69,0,0,0,1,.28.86.86,0,0,0,.28,0,1.36,1.36,0,0,0,.07.35,3.63,3.63,0,0,1,.08,1.28l0,.17L4,16a3.68,3.68,0,0,1,1.27.09,1.45,1.45,0,0,0,.35.07,2.13,2.13,0,0,0,.24,1.28c0,.08.07.16.11.25a.37.37,0,0,0,.05.11,8.74,8.74,0,0,1-4-4Zm-.16-.34c-.06-.13-.11-.26-.16-.39a.57.57,0,0,0,.31.1.62.62,0,0,0-.15.29m-.29-.74a8.75,8.75,0,0,1,0-5.63.56.56,0,0,0,0,.12,1.86,1.86,0,0,1,.1.25,2,2,0,0,0,.74,1.07,1.21,1.21,0,0,0-.2.3,3.45,3.45,0,0,1-.85,1L1.26,10l.13.11a3.72,3.72,0,0,1,.85,1,1.74,1.74,0,0,0,.2.3A2,2,0,0,0,1.7,12.4l-.1.25a.56.56,0,0,0,0,.12ZM1.85,6.4A.62.62,0,0,0,2,6.69a.66.66,0,0,0-.31.09c.05-.12.1-.25.16-.38ZM2.36,7,3,7.1l-.53-.37c-.17-.12-.36-.31-.35-.4s0,0,.1-.07l.26-.1A1.59,1.59,0,0,1,3.64,6a2.19,2.19,0,0,0,.23.91l.06.1a2.5,2.5,0,0,0-.25.09l-.09,0a1,1,0,0,1-.34.06H3.12l.09.09a1.37,1.37,0,0,1,.2.29l0,.09a1.34,1.34,0,0,0,.12.24l-.11,0a2.08,2.08,0,0,0-.81.48c-.33-.14-.5-.54-.68-1a2.72,2.72,0,0,0-.11-.25c0-.06,0-.11,0-.13a.82.82,0,0,1,.52,0Zm2,.37c-.08.17-.15.34-.22.51a1.13,1.13,0,0,0-.45,0,1.26,1.26,0,0,1-.13-.26l0-.09a1.76,1.76,0,0,0-.14-.23l.27-.07.09,0A.66.66,0,0,1,4,7.07a1,1,0,0,0,.34.29ZM4.13,12c.07.18.14.35.22.52a.92.92,0,0,0-.35.3,1.52,1.52,0,0,1-.28-.09l-.09,0a1.07,1.07,0,0,0-.27-.06,1.58,1.58,0,0,0,.15-.24.36.36,0,0,1,0-.09.91.91,0,0,1,.13-.26h.16a.92.92,0,0,0,.29,0Zm-.6-3.74a1.54,1.54,0,0,0-.85.81,2.68,2.68,0,0,1-.58.81l0,0,0,0a3,3,0,0,1,.58.82,1.51,1.51,0,0,0,.86.8.65.65,0,0,0,.19,0A.59.59,0,0,0,4,11.58c0,.07,0,.13,0,.19a1,1,0,0,1-.51,0,1.93,1.93,0,0,1-1-.85,3.38,3.38,0,0,0-.79-1A3.38,3.38,0,0,0,2.49,9a1.87,1.87,0,0,1,1-.84.81.81,0,0,1,.51,0c0,.06,0,.12,0,.18a.61.61,0,0,0-.46,0Zm.13,1a.9.9,0,0,0-.51-.3A.14.14,0,0,0,3,9.07v0a.87.87,0,0,0,.29.51.52.52,0,0,0,.11.1H3.25c-.34,0-.71.08-.71.26a.21.21,0,0,0,0,.11,1.14,1.14,0,0,0,.67.16H3.4a.52.52,0,0,0-.11.1.87.87,0,0,0-.29.51.16.16,0,0,0,0,.11.13.13,0,0,0,.1,0,.9.9,0,0,0,.51-.3.8.8,0,0,0,.13-.19,6.61,6.61,0,0,0,.17,1,.48.48,0,0,1-.39,0,1.42,1.42,0,0,1-.78-.74A2.48,2.48,0,0,0,2.22,10a2.67,2.67,0,0,0,.57-.82,1.45,1.45,0,0,1,.78-.74.48.48,0,0,1,.39,0,6.83,6.83,0,0,0-.17,1,.75.75,0,0,0-.13-.18Zm.11.52a1,1,0,0,1-.41-.23.87.87,0,0,1-.25-.44,0,0,0,0,1,0,0h0a.76.76,0,0,1,.43.27.84.84,0,0,1,.19.36v.08m0,.39v.08a.84.84,0,0,1-.19.36.76.76,0,0,1-.43.27h0a0,0,0,0,1,0,0,.87.87,0,0,1,.25-.44,1,1,0,0,1,.41-.23m0-.13a1.5,1.5,0,0,1-.52.09A1,1,0,0,1,2.67,10l0,0c0-.05.21-.15.6-.15a1.17,1.17,0,0,1,.52.09V10Zm-1.41,2.9a.82.82,0,0,1-.52,0s0-.07,0-.13A2.72,2.72,0,0,0,2,12.51c.18-.43.35-.84.68-1a2.29,2.29,0,0,0,.81.48l.11,0a1.33,1.33,0,0,0-.11.24l0,.08a1,1,0,0,1-.19.29l-.1.1h.14a1,1,0,0,1,.34.06l.08,0a1.25,1.25,0,0,0,.25.09l-.05.1a2.13,2.13,0,0,0-.24.92,1.59,1.59,0,0,1-1.16-.21l-.26-.1c-.06,0-.1-.05-.1-.08s.18-.28.35-.4L3,12.8Zm2.2.05a.59.59,0,0,0-.34.3,1.49,1.49,0,0,0,0,1.17,3.12,3.12,0,0,1,.16,1v.06h.06a2.9,2.9,0,0,1,1,.16,1.3,1.3,0,0,0,.56.1,1.29,1.29,0,0,0,.61-.13.61.61,0,0,0,.3-.35l.17.1a.92.92,0,0,1-.38.35,1.93,1.93,0,0,1-1.33.14,3.51,3.51,0,0,0-1.24-.12A3.44,3.44,0,0,0,4,14.51a1.93,1.93,0,0,1,.14-1.33.92.92,0,0,1,.35-.38l.09.17m.65.92-.23,0h0c-.28,0-.58.08-.58.25a.15.15,0,0,0,0,.11.93.93,0,0,0,.56.16h.15l-.11.1c-.24.24-.45.56-.32.69a.15.15,0,0,0,.11,0,1.06,1.06,0,0,0,.58-.36l.1-.11a.76.76,0,0,0,0,.15c0,.3.1.61.27.61s.13,0,.19-.2A1.52,1.52,0,0,0,6,14.86a1,1,0,0,0,0-.24,5.86,5.86,0,0,0,.82.59.44.44,0,0,1-.25.3,1.37,1.37,0,0,1-1.07,0,2.74,2.74,0,0,0-1-.17,2.74,2.74,0,0,0-.17-1,1.42,1.42,0,0,1,0-1.07.5.5,0,0,1,.3-.25,6.1,6.1,0,0,0,.59.82m.22.24a.9.9,0,0,1-.44.13H5a.75.75,0,0,1-.49-.13s0,0,0,0,.16-.14.47-.14H5a.82.82,0,0,1,.4.13l0,0Zm.18.19a1.48,1.48,0,0,1-.31.43,1,1,0,0,1-.51.32h0s0-.25.32-.53a1.48,1.48,0,0,1,.43-.31Zm.14.14a.72.72,0,0,1,.12.4,1.2,1.2,0,0,1,0,.38c0,.09-.07.13-.09.13s-.16-.18-.17-.5a1.06,1.06,0,0,1,.13-.46l0,.05Zm1.54,1a5.49,5.49,0,0,0,.51.21,1.19,1.19,0,0,0,0,.46,1.26,1.26,0,0,1-.26.13l-.09,0-.23.14a1.34,1.34,0,0,0-.07-.27.36.36,0,0,0,0-.09A.83.83,0,0,1,7,15.83a1.05,1.05,0,0,0,.29-.34Zm2.39.57a.8.8,0,0,1-.23.42.82.82,0,0,1-.43.25H9s0-.24.27-.46a.86.86,0,0,1,.36-.2Zm.14,0H10a1.29,1.29,0,0,1,.08.52c0,.39-.1.59-.15.6s-.14-.21-.14-.6a1.29,1.29,0,0,1,.08-.52Zm.33,0a.89.89,0,0,1,.37.2c.23.22.29.42.26.46h0a.82.82,0,0,1-.43-.25,1,1,0,0,1-.23-.42h.07m3.71,1.72-.09,0a.25.25,0,0,0,0-.07l-.25-.13c0,.05-.05.08-.06.08s-.27-.15-.39-.32l-.32-.17.05.25c0,.21,0,.48,0,.53s-.06,0-.12,0l-.25-.11a2,2,0,0,1-.88-.52l-.27.1a2.07,2.07,0,0,0,1,.68l.25.11.12,0a8.89,8.89,0,0,1-5.63,0l.12,0,.25-.11a2,2,0,0,0,1.08-.73,1.21,1.21,0,0,0,.3.2,4.05,4.05,0,0,1,1,.84l.11.14.11-.14a3.65,3.65,0,0,1,1-.84.6.6,0,0,0,.15-.09c-.27.09-.56.17-.85.25-.13.12-.25.25-.37.38a3.38,3.38,0,0,0-1-.79,1.87,1.87,0,0,1-.84-1,.92.92,0,0,1,0-.52l.19.05a.61.61,0,0,0,0,.46,1.45,1.45,0,0,0,.81.85,3,3,0,0,1,.81.59l0,0,0,0a2.83,2.83,0,0,1,.81-.59,1.54,1.54,0,0,0,.77-.74l-.1-.07a1.37,1.37,0,0,1-.71.71,2.73,2.73,0,0,0-.81.57,2.73,2.73,0,0,0-.81-.57,1.42,1.42,0,0,1-.74-.78.48.48,0,0,1,0-.39,6.4,6.4,0,0,0,1,.17.8.8,0,0,0-.19.13c-.22.21-.38.49-.26.61a.13.13,0,0,0,.11.05.9.9,0,0,0,.51-.28.94.94,0,0,0,.09-.12v.15c0,.34.08.71.26.71s.26-.37.26-.71v-.15l.09.12a.9.9,0,0,0,.51.28.13.13,0,0,0,.11-.05c.12-.12,0-.4-.26-.61a.8.8,0,0,0-.19-.13l.5-.07-.34-.25a5.07,5.07,0,0,1-.68,0A5.8,5.8,0,0,1,5.24,6.46c0-.13,0-.26-.08-.38a6.93,6.93,0,0,0-.54.76.5.5,0,0,1-.3-.25,1.42,1.42,0,0,1,0-1.07,1.39,1.39,0,0,0,.1-.33l-.12,0a2.25,2.25,0,0,1-.08.24,1.49,1.49,0,0,0,0,1.17.55.55,0,0,0,.35.3l-.1.17a.92.92,0,0,1-.35-.38A1.93,1.93,0,0,1,4,5.4s0-.05,0-.07l-.32.11a1.92,1.92,0,0,0,0,.22,2,2,0,0,0-1.28.24L2.12,6,2,6.06A8.94,8.94,0,0,1,4.76,2.81c0-.12,0-.23,0-.34a9.08,9.08,0,0,0,9.45,15.47l-.33-.16"/><path class="cls-1" d="M11.6,16.48a1.9,1.9,0,0,1-.49.67c.24-.15.48-.3.71-.47l0,0-.24-.16"/><path class="cls-1" d="M16.5,12.76h.13l-.09-.1a.27.27,0,0,1-.07-.08l0,.18h.06"/><path class="cls-1" d="M9.88,1.17a8.9,8.9,0,0,1,2.81.46l-.12,0-.25.11a2,2,0,0,0-1.07.73,1.21,1.21,0,0,0-.3-.2,3.65,3.65,0,0,1-1-.84l-.11-.14-.11.14a4,4,0,0,1-1,.84,1.74,1.74,0,0,0-.3.2,2,2,0,0,0-1.07-.73l-.25-.11-.12,0a8.73,8.73,0,0,1,2.82-.46m2.93.74a.84.84,0,0,1,0,.53l-.11.64.37-.54c.11-.17.31-.36.39-.34s0,0,.08.1l.1.25a1.6,1.6,0,0,1,.21,1.16A2.36,2.36,0,0,0,13,4L12.86,4a1.83,1.83,0,0,0-.08-.25l0-.09a1,1,0,0,1-.06-.34V3.19l-.09.1a1.32,1.32,0,0,1-.29.19l-.09,0a1.34,1.34,0,0,0-.24.12l0-.12a2.15,2.15,0,0,0-.48-.81c.14-.33.54-.5,1-.68l.26-.1c.05,0,.1,0,.12,0m.62,0a.62.62,0,0,0-.29.15.57.57,0,0,0-.1-.31l.39.16m4.32,4.14L17.64,6l-.26-.1a2,2,0,0,0-1.27-.24A1.53,1.53,0,0,0,16,5.3,3.67,3.67,0,0,1,16,4l0-.18-.17,0a3.73,3.73,0,0,1-1.28-.09,1.36,1.36,0,0,0-.35-.07,2,2,0,0,0-.24-1.27c0-.09-.07-.17-.1-.26l-.06-.11a8.81,8.81,0,0,1,4,4m.16.34.16.39a.6.6,0,0,0-.31-.1.73.73,0,0,0,.15-.29Zm.29.74a8.89,8.89,0,0,1,0,5.63s0-.08,0-.12-.07-.17-.11-.25a2,2,0,0,0-.73-1.07,1.21,1.21,0,0,0,.2-.3,3.76,3.76,0,0,1,.84-1l.14-.1-.14-.11a3.84,3.84,0,0,1-.84-1,1.21,1.21,0,0,0-.2-.3,2,2,0,0,0,.73-1.08c0-.08.07-.17.11-.25s0-.08,0-.12Zm-.29,6.37a.73.73,0,0,0-.15-.29.69.69,0,0,0,.31-.09c-.05.13-.11.25-.16.38Zm-.79-5.14a2.29,2.29,0,0,0-.81-.48l-.12,0a1,1,0,0,0,.12-.23.36.36,0,0,1,0-.09.81.81,0,0,1,.19-.29l.09-.09H16.5a1.28,1.28,0,0,1-.34-.07l-.09,0A1.06,1.06,0,0,0,15.82,7l.06-.1A2.27,2.27,0,0,0,16.11,6a1.67,1.67,0,0,1,1.17.21l.25.11c.06,0,.1.05.1.07s-.17.28-.34.4l-.54.37L17.39,7c.21,0,.47,0,.53,0a.15.15,0,0,1,0,.12c0,.08-.07.17-.11.26-.17.42-.34.83-.67,1Zm-1.5-.49a4.71,4.71,0,0,0-.21-.52,1.05,1.05,0,0,0,.34-.29.9.9,0,0,1,.28.08l.09,0,.27.06a1.49,1.49,0,0,0-.14.24l0,.09a.94.94,0,0,1-.14.26,1.14,1.14,0,0,0-.45,0ZM16,10.15a.88.88,0,0,1,.41.23.84.84,0,0,1,.26.44s0,0,0,0h0a.75.75,0,0,1-.42-.27.86.86,0,0,1-.2-.36v-.08Zm.2-.83a.72.72,0,0,1,.42-.27h0v0a.84.84,0,0,1-.26.44.88.88,0,0,1-.41.23V9.69a.83.83,0,0,1,.2-.37Zm.32.49a.94.94,0,0,1,.59.13s0,0,0,0v0a1,1,0,0,1-.58.13h0A1.48,1.48,0,0,1,16,10V9.89a1.27,1.27,0,0,1,.51-.08m-2.17-4a.87.87,0,0,1,.44-.13h0a.72.72,0,0,1,.48.13s0,0,0,0-.17.14-.48.14h0a.9.9,0,0,1-.41-.13s0,0,0,0Zm-.18-.18a1.22,1.22,0,0,1,.31-.43,1,1,0,0,1,.5-.33h0v0a1,1,0,0,1-.32.5,1.31,1.31,0,0,1-.43.31l-.09-.09ZM14,5.46a.86.86,0,0,1-.13-.41A.81.81,0,0,1,14,4.56l0,0c.05,0,.16.18.16.51a.9.9,0,0,1-.13.45ZM6.63,1.8l.08,0a.67.67,0,0,0-.1.31h0c0,.13,0,.26,0,.39l.07.08L7,3.08l-.12-.64c0-.21,0-.47,0-.53a.15.15,0,0,1,.12,0L7.33,2c.42.18.83.34,1,.67a2.4,2.4,0,0,0-.43.7l.34-.08a2,2,0,0,1,.72-.77,3.24,3.24,0,0,0,.95-.79,3.43,3.43,0,0,0,1,.79,1.93,1.93,0,0,1,.81,1,2.93,2.93,0,0,1,.4.19l.21-.11.09,0a1.49,1.49,0,0,0,.24-.14,1.31,1.31,0,0,0,.06.27.36.36,0,0,0,0,.09.9.9,0,0,1,.08.28l-.11.1a1.24,1.24,0,0,1,.18.22,1.05,1.05,0,0,1,.27-.2,1.93,1.93,0,0,1,1.33-.14,3.44,3.44,0,0,0,1.23.11,3.24,3.24,0,0,0,.12,1.23,1.91,1.91,0,0,1-.15,1.34.85.85,0,0,1-.35.38L15.19,7a.61.61,0,0,0,.35-.3,1.56,1.56,0,0,0,0-1.18,2.84,2.84,0,0,1-.16-1V4.42h-.06a2.84,2.84,0,0,1-1-.16,1.53,1.53,0,0,0-1.17,0,.65.65,0,0,0-.26.26s.05.08.07.13a.45.45,0,0,1,.24-.28,1.4,1.4,0,0,1,1.08,0,2.69,2.69,0,0,0,1,.17,3,3,0,0,0,.17,1,1.42,1.42,0,0,1,0,1.07.49.49,0,0,1-.31.25A6.74,6.74,0,0,0,14.55,6l.23,0h0c.28,0,.59-.08.59-.25a.16.16,0,0,0-.05-.11.93.93,0,0,0-.56-.16h-.15l.11-.1a1.09,1.09,0,0,0,.36-.58A.14.14,0,0,0,15,4.72h0a1.09,1.09,0,0,0-.58.36l-.1.11a.76.76,0,0,0,0-.15c0-.3-.1-.61-.27-.61a.16.16,0,0,0-.11.05.87.87,0,0,0-.13.57.67.67,0,0,0,0,.24,5.54,5.54,0,0,0-.8-.57,1.64,1.64,0,0,1,.13.43A5.82,5.82,0,0,1,15.69,10v.2a2,2,0,0,1,.41.5l0,0a.84.84,0,0,0,.48.28.14.14,0,0,0,.15-.15.8.8,0,0,0-.28-.51.52.52,0,0,0-.11-.1h.15a1.13,1.13,0,0,0,.66-.16.13.13,0,0,0,0-.19v0a1.14,1.14,0,0,0-.67-.16h-.14l.11-.1a.9.9,0,0,0,.28-.51.13.13,0,0,0-.13-.15h0a1,1,0,0,0-.64.49,5.54,5.54,0,0,0-.17-1,.49.49,0,0,1,.39,0,1.39,1.39,0,0,1,.78.74,3.15,3.15,0,0,0,.57.81,3.15,3.15,0,0,0-.57.81,1.44,1.44,0,0,1-.54.63.5.5,0,0,1,0,.12,1.53,1.53,0,0,0,.63-.7,3.18,3.18,0,0,1,.58-.82l0,0,0,0a2.88,2.88,0,0,1-.58-.81,1.54,1.54,0,0,0-.85-.81.61.61,0,0,0-.46,0,1.21,1.21,0,0,0,0-.18.81.81,0,0,1,.51,0A1.93,1.93,0,0,1,17.27,9a3.24,3.24,0,0,0,.79.95,3.53,3.53,0,0,0-.79,1,1.87,1.87,0,0,1-.8.74l0,.3a2.73,2.73,0,0,0,.62-.4c.33.13.49.54.67,1,0,.09.07.18.11.26s0,.1,0,.12-.32.08-.53,0l-.64-.12.54.37c.17.12.35.32.34.4s0,0-.1.07l-.25.11a1.65,1.65,0,0,1-1.16.21,1.11,1.11,0,0,0,0-.19,4.53,4.53,0,0,1-.27.48,2,2,0,0,1-.05.26,3.47,3.47,0,0,0-.12,1.23,3.47,3.47,0,0,0-1.23.12l-.13,0c-.13.1-.27.21-.42.31a1.6,1.6,0,0,1-.21,1.16l0,.08.24.15,0-.12a2,2,0,0,0,.24-1.28,1.53,1.53,0,0,0,.36-.07A3.34,3.34,0,0,1,15.8,16H16v-.17A3.63,3.63,0,0,1,16,14.6a1.36,1.36,0,0,0,.07-.35.84.84,0,0,0,.27,0,2.79,2.79,0,0,0,1-.28l.25-.1.11-.06A8.8,8.8,0,0,1,14,17.68l.3.18A9.08,9.08,0,0,0,6.65,1.47c0,.11,0,.22,0,.33"/><path class="cls-1" d="M11.69,15.79a.69.69,0,0,1,0,.2l.45.38,0,0,.09-.08,0,0a1.26,1.26,0,0,1-.26-.13,1.19,1.19,0,0,0,0-.46,5.49,5.49,0,0,0,.51-.21,1.12,1.12,0,0,0,.3.35s0,.05,0,.08l.27-.25a.86.86,0,0,1-.3-.3l.17-.1a.61.61,0,0,0,.22.3l.08-.09a.43.43,0,0,1-.2-.27,5.89,5.89,0,0,0,.83-.58.28.28,0,0,0,0,.13,4.17,4.17,0,0,0,.56-1.09,5.79,5.79,0,0,1-3,1.93l.25.24.14-.05"/><path class="cls-1" d="M7.31,4.41h0L7,4.47l0,.08-.17.09a.54.54,0,0,0-.07-.13l-.12,0a.35.35,0,0,1,.08.16l-.15.1c0,.11,0,.22,0,.33a5.91,5.91,0,0,1,2.05-.87,10.44,10.44,0,0,0-1.37.15"/><path class="cls-1" d="M9.45,15.35A5.08,5.08,0,0,1,8,15a1.73,1.73,0,0,0,.39-.6,2.53,2.53,0,0,0,.12-.36,3.23,3.23,0,0,0,.56.48l0,0c.17.13.5.42.64.54a.45.45,0,0,0-.18.07.27.27,0,0,0-.13.15M7.82,15h0s0-.06,0-.2a1.59,1.59,0,0,1,.13-.52,1.26,1.26,0,0,1,.4-.57.62.62,0,0,0,.07.23,2,2,0,0,1-.13.48c-.16.38-.36.58-.43.58Zm-.2-.08a5,5,0,0,1-1.25-.8.27.27,0,0,0,0-.2.56.56,0,0,0-.09-.17l.6,0a9.34,9.34,0,0,0,1.18-.07,1.76,1.76,0,0,0-.31.53,1.86,1.86,0,0,0-.15.56v.14ZM5.84,13.56a.34.34,0,0,1,.3.13.57.57,0,0,1,.13.21.14.14,0,0,1,0,.09,5.81,5.81,0,0,1-.43-.43Zm-.08-.1A5.66,5.66,0,0,1,5,12.21H5a1.71,1.71,0,0,0,.63-.15,1.76,1.76,0,0,0,.53-.31,10.59,10.59,0,0,0-.05,1.78.4.4,0,0,0-.38-.07ZM4.88,12s0-.07.12-.16a1.47,1.47,0,0,1,.47-.27A1.63,1.63,0,0,1,6,11.46a.62.62,0,0,0,.23.07,1.23,1.23,0,0,1-.57.39,1.7,1.7,0,0,1-.58.14c-.11,0-.14,0-.15,0Zm-.08-.18a5.62,5.62,0,0,1-.32-1.45.26.26,0,0,0,.11-.07.47.47,0,0,0,.11-.25c.13.14.41.47.54.64l0,0a3.78,3.78,0,0,0,.49.56,2.15,2.15,0,0,0-.87.42l-.1.1M4.46,10c0-.11,0-.21,0-.31l.07.07a.39.39,0,0,1,0,.24.37.37,0,0,1-.09.28l0,0c0-.1,0-.2,0-.3m5.82,5.55-.18-.14H9.57s0,0,.06-.06a.53.53,0,0,1,.24-.06H10c-.39-.33-.77-.68-1.15-1.07a7.91,7.91,0,0,1-.71-.81,10.87,10.87,0,0,1-1.71.07A7,7,0,0,1,6.64,11c0-.1-.09-.2-.13-.31h0a1.5,1.5,0,0,0-.16.34h0c-.23.07-.55-.34-.69-.52l0,0L5.16,10c.09-.1.34-.36.45-.49l0-.05.27-.31,0-.12a2.17,2.17,0,0,0-.32.36l0,0c-.13.17-.48.53-.48.53A.07.07,0,0,0,5,10v0s.35.37.48.53l0,0c.15.19.45.57.73.57h0a1.29,1.29,0,0,0,0,.21.37.37,0,0,0-.23,0H6a3,3,0,0,1-.57-.62l0-.06c-.14-.18-.45-.54-.56-.67.11-.13.42-.48.56-.66l0-.06a3.72,3.72,0,0,1,.41-.48,1.42,1.42,0,0,1,0-.16,3.57,3.57,0,0,0-.48.55l0,.06c-.13.17-.41.5-.54.64a.48.48,0,0,0-.06-.18.25.25,0,0,0-.16-.14A5.62,5.62,0,0,1,4.8,8.07l.1.1a1.71,1.71,0,0,0,.5.3l.36.11a1.54,1.54,0,0,1,0-.17,1.84,1.84,0,0,1-.25-.09A1.54,1.54,0,0,1,5,8.05c-.1-.09-.13-.15-.12-.16s0,0,.15,0A1.83,1.83,0,0,1,5.59,8c0-.06,0-.12,0-.18A1.79,1.79,0,0,0,5,7.69H5A8.06,8.06,0,0,1,5.34,7c0-.07,0-.14,0-.21a5.57,5.57,0,0,0,4.57,8.75l.41,0"/><path class="cls-1" d="M12.07,8.46c-.07.11-.14.22-.21.31a2.28,2.28,0,0,1,.2.45l.36,0a2.64,2.64,0,0,0-.35-.74"/><path class="cls-1" d="M13.91,6.35a.27.27,0,0,1-.09,0A.53.53,0,0,1,13.49,6a.28.28,0,0,1,0-.09,4.36,4.36,0,0,1,.43.43M14.8,7.7h-.08a2,2,0,0,0-.63.15,2.29,2.29,0,0,0-.5.3l0,0a11.77,11.77,0,0,0,0-1.78.53.53,0,0,0,.17.08l.09,0,.12,0a5.66,5.66,0,0,1,.8,1.25m-.51.62a2,2,0,0,1-.48.14.48.48,0,0,0-.23-.07.47.47,0,0,1,.11-.13A1.54,1.54,0,0,1,14.15,8a1.65,1.65,0,0,1,.57-.14c.11,0,.15,0,.15,0s-.16.26-.58.43m-1.1-2.64.19.15a.26.26,0,0,0,0,.21.38.38,0,0,0,.08.17h-.33l-.06.27h.3A6.16,6.16,0,0,1,13,9.09a.83.83,0,0,1-.08.12l.31,0a2,2,0,0,0,.15-.33h0c.2-.06.48.26.64.46l.18,0v0l0,0c-.16-.19-.47-.59-.76-.56a1.6,1.6,0,0,0,.05-.21.59.59,0,0,0,.23,0h.06a2.69,2.69,0,0,1,.57.61l0,.06a1.42,1.42,0,0,0,.17.21l.3.12a5.16,5.16,0,0,1-.35-.42l0-.06A3.21,3.21,0,0,0,14,8.59a2.29,2.29,0,0,0,.37-.12,1.61,1.61,0,0,0,.6-.4,5.61,5.61,0,0,1,.32,1.46.29.29,0,0,0-.19.2l.1.06a.26.26,0,0,1,.11-.14v.2a.91.91,0,0,1,.16.11h0a5.57,5.57,0,0,0-2.26-4.48v.2"/><path class="cls-1" d="M13.18,6.7v0H13l0,.12h.1a5.05,5.05,0,0,1-.27,2.15l-.21.28h.15A1.39,1.39,0,0,0,12.89,9a5.19,5.19,0,0,0,.29-2.28"/><path class="cls-1" d="M13.48,14a.35.35,0,0,1,.13-.29.42.42,0,0,1,.27-.14h0a4.36,4.36,0,0,1-.43.43Zm-.1.09a5.66,5.66,0,0,1-1.25.8.33.33,0,0,0,0-.14,1.85,1.85,0,0,0-.15-.57,1.71,1.71,0,0,0-.31-.52,9.39,9.39,0,0,0,1.19.06h.59a.4.4,0,0,0-.07.38ZM11.94,15h0c-.08,0-.28-.2-.43-.58a1.63,1.63,0,0,1-.13-.48.62.62,0,0,0,.07-.23,1.15,1.15,0,0,1,.39.57,1.91,1.91,0,0,1,.14.52c0,.14,0,.2,0,.2Zm-1.77-1.86a.25.25,0,0,1-.08.18.32.32,0,0,1-.21.08.28.28,0,0,1-.3-.26.14.14,0,0,0,0-.06,1.72,1.72,0,0,0,.32-.34,1.43,1.43,0,0,0,.31.34.13.13,0,0,0,0,.06Zm-.59-.84a2.28,2.28,0,0,1-1.14-.48h0a1.14,1.14,0,0,0,.1-.19A2.1,2.1,0,0,0,9.62,12a.43.43,0,0,0,0,.19s0,0,0,0Zm.23-.2h.13l0,0a.19.19,0,0,1,0,.14v0H9.74a.09.09,0,0,1,0,0A.25.25,0,0,1,9.81,12Zm1.4-.48a.66.66,0,0,0,.09.19h0a2.28,2.28,0,0,1-1.13.48v0a.45.45,0,0,0,0-.19,2.14,2.14,0,0,0,1.08-.46Zm.33,0,0,0,0,0a1.34,1.34,0,0,1-.06-.12l.12.06Zm.22.28.06-.07L12,12a2.17,2.17,0,0,1,.46.61,2.1,2.1,0,0,1-.61-.46,1.9,1.9,0,0,1-.2-.22Zm.79.87v0Zm-.09-2.14a2.72,2.72,0,0,1,.34.42,5.08,5.08,0,0,1,.27,2.16,5.26,5.26,0,0,1-2.16-.27,2.25,2.25,0,0,1-.41-.34,2.61,2.61,0,0,0,1-.49,2.19,2.19,0,0,0,.21.23c.25.25.61.54.82.54a.24.24,0,0,0,.14-.05c.13-.13,0-.36-.07-.44a2.66,2.66,0,0,0-.42-.52A2.29,2.29,0,0,0,12,11.6a2.73,2.73,0,0,0,.49-1M7.61,9.66h0a2.28,2.28,0,0,1,.48-1.14.75.75,0,0,0,.2.1A2,2,0,0,0,7.81,9.7a.34.34,0,0,0-.2,0M7.71,8a2.31,2.31,0,0,1-.46-.62,2.23,2.23,0,0,1,.62.46l.2.22L8,8.07a.46.46,0,0,0-.07.07C7.86,8.09,7.79,8,7.71,8m.53.37,0,0a.34.34,0,0,1,.06.12l-.11-.06Zm.14.1h0v0Zm1.2-.76v0a.41.41,0,0,0,.05.19,2,2,0,0,0-1.08.47,1.36,1.36,0,0,0-.1-.21,2.33,2.33,0,0,1,1.13-.48Zm0-.77a.14.14,0,0,0,0-.07.27.27,0,0,1,.3-.25.35.35,0,0,1,.23.09.24.24,0,0,1,.07.16.17.17,0,0,0,0,.07,1.62,1.62,0,0,0-.31.33,1.67,1.67,0,0,0-.32-.33m-.27-.22-.13-.08a1.06,1.06,0,0,0-.34-.16v0c-.06-.22.34-.55.52-.69l0,0c.14-.11.4-.35.5-.45.1.1.36.34.5.45l0,0c.17.14.58.46.52.69v0a1.33,1.33,0,0,0-.34.16l-.13.09a.63.63,0,0,0-.14-.24.63.63,0,0,0-.45-.18.59.59,0,0,0-.59.41m-.8-.34a.52.52,0,0,0,0-.28,2.69,2.69,0,0,1,.61-.57l.06,0c.19-.14.54-.45.67-.56.13.11.48.42.67.56l0,0a3,3,0,0,1,.62.57.48.48,0,0,0,0,.24.05.05,0,0,0,0,0l-.21.06c0-.29-.37-.6-.57-.76l0,0c-.16-.13-.53-.48-.53-.48a.06.06,0,0,0-.07,0l0,0c-.05,0-.37.35-.52.47l0,0c-.2.16-.59.47-.57.76l-.21-.06M8,4.88a5.62,5.62,0,0,1,1.45-.32l.06.1a.48.48,0,0,0,.26.12c-.14.12-.47.41-.64.54l0,0a2.63,2.63,0,0,0-.56.49,2.29,2.29,0,0,0-.12-.37,1.61,1.61,0,0,0-.4-.6m.32,1.37a1.21,1.21,0,0,1-.4-.57C7.74,5.26,7.76,5,7.82,5s.27.21.43.58A2.09,2.09,0,0,1,8.38,6a.44.44,0,0,0-.07.22M9.88,4.54h.31a.39.39,0,0,1-.31.12.48.48,0,0,1-.29-.09l0,0Zm.06,3.33H9.82a.23.23,0,0,1-.09-.18.06.06,0,0,1,0,0H10v0a.19.19,0,0,1-.08.18m4.55,5.2c0-.1,0-.21,0-.32a6,6,0,0,1-.52.72.2.2,0,0,0-.11,0,.45.45,0,0,0-.26.09,10.6,10.6,0,0,0-.06-1.78,1.92,1.92,0,0,0,.53.32l.34.11L14.37,12l-.22-.08a1.17,1.17,0,0,1-.57-.39.49.49,0,0,0,.23-.08,1.89,1.89,0,0,1,.34.09,1.13,1.13,0,0,0-.15-.21h0l-.1-.1-.1.08h-.07a.36.36,0,0,0-.22,0,1.6,1.6,0,0,0-.05-.21h0a.68.68,0,0,0,.24-.08l-.1-.08a.24.24,0,0,1-.2,0h0c0-.07-.06-.15-.1-.23a4.68,4.68,0,0,0-.45-.2l.17.24a6.18,6.18,0,0,1,.34,2.62,6.14,6.14,0,0,1-2.62-.33,2.52,2.52,0,0,1-.6-.51.83.83,0,0,0,.22,0,2.43,2.43,0,0,0,.49.41,4,4,0,0,0,1.77.3,3.48,3.48,0,0,0,.5,0h.06v0a5.34,5.34,0,0,0-.29-2.28,2.54,2.54,0,0,0-.36-.45l-.39-.08a2.38,2.38,0,0,1-.45,1,.78.78,0,0,0-.2-.11,2.13,2.13,0,0,0,.42-.93h-.15a1.9,1.9,0,0,1-.49.94l0,0,0,0a1.89,1.89,0,0,1-1.23.53.23.23,0,0,0-.2,0,1.89,1.89,0,0,1-1.23-.53l0,0,0,0A1.94,1.94,0,0,1,8,10.05.29.29,0,0,0,8,10a.3.3,0,0,0,0-.1,1.94,1.94,0,0,1,.53-1.24l0,0,0,0A1.94,1.94,0,0,1,9.78,8,.26.26,0,0,0,10,8a1.93,1.93,0,0,1,.93.3L11,8.18a2.16,2.16,0,0,0-.86-.3.41.41,0,0,0,0-.19v0a2.13,2.13,0,0,1,.91.33,2.3,2.3,0,0,0,.15-.32,2.5,2.5,0,0,0-.74-.3A2.72,2.72,0,0,1,10.92,7a1.55,1.55,0,0,1,.56-.19.5.5,0,0,0,0-.12,1.6,1.6,0,0,0-.65.22,2.32,2.32,0,0,0-.48.4l-.22,0a2.43,2.43,0,0,1,.59-.5,2.23,2.23,0,0,1,.77-.26,1.93,1.93,0,0,0,0-.34l-.06,0A.48.48,0,0,0,11.38,6c0-.07,0-.15,0-.23l-.09-.23-.09.28a3.16,3.16,0,0,0-.55-.48l-.06-.05c-.17-.12-.5-.41-.64-.53a.38.38,0,0,0,.32-.22l.15,0a2.18,2.18,0,0,0-.5-.2H9.88a5.5,5.5,0,0,0-3.21,1c0,.06,0,.12,0,.18A5.55,5.55,0,0,1,7.62,5a1.68,1.68,0,0,0,.15.71,1.89,1.89,0,0,0,.31.53A8.47,8.47,0,0,0,6.75,6.2l0,.27A5,5,0,0,1,9,6.81a2.59,2.59,0,0,1,.6.5l-.22,0a2.32,2.32,0,0,0-.48-.4,4.56,4.56,0,0,0-2.1-.29s0,.07,0,.11a4.63,4.63,0,0,1,2,.28,2.65,2.65,0,0,1,.42.33,2.63,2.63,0,0,0-1,.5A1.81,1.81,0,0,0,8,7.64c-.25-.25-.62-.55-.83-.55a.16.16,0,0,0-.13.06c-.23.22.37.84.49,1a2.4,2.4,0,0,0,.23.21,2.71,2.71,0,0,0-.43.78l.24.72h0a.18.18,0,0,1,.18.08V10a.18.18,0,0,1-.09.06.88.88,0,0,0,0,.15l.06,0a2.05,2.05,0,0,0,.07.34c.06.16.13.31.2.46a1.73,1.73,0,0,0,.19.28l0,0,.09.2h0v0c.15.3.3.58.45.85a2.84,2.84,0,0,0,.49.17,2.75,2.75,0,0,1-.26.22l.07.1a2.21,2.21,0,0,0,.32-.29l.22,0a2.15,2.15,0,0,1-.45.4c.12.19.25.37.37.55a.65.65,0,0,0,.77-.06.59.59,0,0,0,.17-.25l.12.08a1.54,1.54,0,0,0,.34.17h0c.07.23-.34.55-.51.69l-.05,0-.19.17.07.09.2-.17,0,0c.19-.16.59-.47.57-.76l.21.06a.39.39,0,0,0,0,.28,3,3,0,0,1-.62.57l0,0-.19.15.1.11.17-.14.06,0a3.64,3.64,0,0,0,.56-.48,2.47,2.47,0,0,0,.11.36,1.61,1.61,0,0,0,.4.6,5.39,5.39,0,0,1-.81.23l.13.13a5.57,5.57,0,0,0,3.41-2.33"/><path class="cls-1" d="M12.74,7.31c-.07.15-.14.29-.22.43l.11-.16a.81.81,0,0,0,.11-.27"/><path class="cls-1" d="M11.71,9l-.1.13c0,.05.05.1.07.16l.15,0A1.59,1.59,0,0,0,11.71,9"/><path class="cls-1" d="M11.56,9.26h0l0-.07-.07.09.1,0"/><path class="cls-1" d="M10.71,11.13a.41.41,0,0,1-.21.33c-.14.06-.33,0-.5-.2a1.69,1.69,0,0,0,.17-.29.35.35,0,0,0,.23-.09,1.68,1.68,0,0,0,.32.09,1,1,0,0,1,0,.17Zm-.65-.51.08,0,.08,0,.12,0a.09.09,0,0,1,0,.05.18.18,0,0,1-.19.17.22.22,0,0,1-.11-.05l0,0,.06-.11Zm-.18.49a1.62,1.62,0,0,1-.1-.18l.1-.07.06,0,0,0a1.62,1.62,0,0,1-.1.18Zm-.35-.33a.19.19,0,0,1-.11-.15v0l.12,0,.16.07.06.11a.24.24,0,0,1-.23.06Zm.1.6a.38.38,0,0,1-.38.08A.48.48,0,0,1,9,11a1.68,1.68,0,0,0,.32-.09l.1.07a.61.61,0,0,0,.13,0,1.64,1.64,0,0,0,.16.29l-.12.11Zm.88-.71s0-.05,0-.07a.35.35,0,0,0,.11,0,.76.76,0,0,1,.06.2l-.2-.06s0,0,0,0ZM8.38,9.58a.36.36,0,0,1,0-.25.39.39,0,0,1,.33-.2.43.43,0,0,1,.16,0A1.92,1.92,0,0,0,9,9.44a.36.36,0,0,0-.07.1.59.59,0,0,0,0,.13,1.35,1.35,0,0,0-.29.16.79.79,0,0,1-.19-.25Zm.55.44s0,0,0,0A.76.76,0,0,1,8.73,10a1,1,0,0,1,.17-.1A.61.61,0,0,0,9,10a.21.21,0,0,0,0,.06Zm.12-.41A.19.19,0,0,1,9.2,9.5h.05l0,.12s0,.05,0,.08l0,.09a.27.27,0,0,0-.1.06.22.22,0,0,1-.06-.23Zm.21-.41s0,0,0,0a.22.22,0,0,0,0,.08H9.12l-.06-.2a.66.66,0,0,1,.2.06Zm0-.75a.38.38,0,0,1,.38.08,1.31,1.31,0,0,1,.12.11,1.73,1.73,0,0,0-.16.3.3.3,0,0,0-.13,0L9.36,9A1.68,1.68,0,0,0,9,8.94a.48.48,0,0,1,.21-.49m.45.84-.08,0-.08,0-.12,0a.09.09,0,0,1,0-.05.17.17,0,0,1,.19-.17.16.16,0,0,1,.1.05l0,0-.06.11m.18-.49A1.62,1.62,0,0,1,10,9l0,0-.07.05s0,0-.06-.05l0,0a1.62,1.62,0,0,1,.1-.18m1.5,1.78a.3.3,0,0,1-.18.17.8.8,0,0,1-.31,0,1.92,1.92,0,0,0-.09-.32.23.23,0,0,0,.07-.1.11.11,0,0,0,0,0h-.19a.24.24,0,0,1-.18.09.25.25,0,0,1,0-.07l-.34,0-.08,0a.58.58,0,0,1-.19,0l-.1,0-.57.14h0s0,.05,0,.07,0,0,0,0a.7.7,0,0,1-.19.06.83.83,0,0,1,0-.15l-.22.07a.44.44,0,0,0,0,.1,1,1,0,0,1-.17,0l0,0h0a.38.38,0,0,1-.27-.19.49.49,0,0,1,.2-.5,1.64,1.64,0,0,0,.29.16.31.31,0,0,0,0,.13.23.23,0,0,0,.07.1l0,.07.19-.16a.18.18,0,0,1-.07-.08.21.21,0,0,1,0-.19l0,0a.27.27,0,0,0,.1.06l0,.09,0,0,.14-.13a.51.51,0,0,1,.28-.64.5.5,0,0,1,.36,0l.12-.14-.1,0L10,9.18l0,0a.22.22,0,0,1,.19,0s0,0,.07.06A1.83,1.83,0,0,0,10.42,9h0a.23.23,0,0,0-.1-.07.28.28,0,0,0-.13,0A1.18,1.18,0,0,0,10,8.64a.72.72,0,0,1,.25-.18.36.36,0,0,1,.25,0,.38.38,0,0,1,.18.23l.12-.19a.47.47,0,0,0-.23-.21.48.48,0,0,0-.39,0,.81.81,0,0,0-.3.21l-.14-.12a.57.57,0,0,0-.56-.1.66.66,0,0,0-.34.65H8.66a.58.58,0,0,0-.47.32.55.55,0,0,0,0,.4.93.93,0,0,0,.22.3.65.65,0,0,0-.23.7.56.56,0,0,0,.47.32h.18a.67.67,0,0,0,.34.66.47.47,0,0,0,.17,0,.62.62,0,0,0,.39-.14l.13-.12a.75.75,0,0,0,.53.26.47.47,0,0,0,.17,0,.56.56,0,0,0,.32-.48.55.55,0,0,0,0-.18h0a.83.83,0,0,0,.35-.06.51.51,0,0,0,.29-.27.53.53,0,0,0,0-.33h-.21a.29.29,0,0,1,0,.27"/></svg>