<svg id="AICC-_ENG" data-name="AICC- ENG" xmlns="http://www.w3.org/2000/svg" xmlns:xlink="http://www.w3.org/1999/xlink" viewBox="0 0 193 70.55"><defs><style>.cls-1{fill:#7d7d7d;}.cls-2{fill:#005385;}.cls-3{fill:#3a6895;}.cls-4{fill:url(#linear-gradient);}.cls-5{fill:#c7c8c9;}.cls-6{fill:url(#linear-gradient-2);}</style><linearGradient id="linear-gradient" x1="29.54" y1="71.36" x2="52.67" y2="71.36" gradientUnits="userSpaceOnUse"><stop offset="0" stop-color="#cececf"/><stop offset="0" stop-color="#cececf"/><stop offset="0.68" stop-color="#949494"/><stop offset="1" stop-color="#7e7e7d"/></linearGradient><linearGradient id="linear-gradient-2" x1="29.54" y1="71.36" x2="51.51" y2="71.36" xlink:href="#linear-gradient"/></defs><path class="cls-1" d="M60.26,85.72l-.24.1a2.48,2.48,0,0,1-.9.11l-.89-.09-.19,0,.1,4.42v3.15c0,.21,0,.52,0,1s0,.74,0,1l-.2,4.49.18,0c.46,0,.81-.06,1-.06s.55,0,1,.06l.18,0L60,95.36c0-.13,0-.34,0-.62s0-.47,0-.6c0-.82,0-2.08.07-3.73Z" transform="translate(-6 -42.04)"/><path class="cls-1" d="M79.19,85.87a8.45,8.45,0,0,1-.86-.06l-.22,0,0,.22.09,1.71v6.39c0,.74,0,1.34,0,1.8L68.47,85.5H67.9v6.83L67.77,97c0,.58-.07,1.45-.15,2.62l0,.23.22-.07a3.14,3.14,0,0,1,.64,0,3.26,3.26,0,0,1,.65,0l.22.07-.14-2.13,0-6.91,0-1.47,5.27,5.63,3.27,3.61L78.94,100l0,.05h.52l-.07-2.4.06-4.46.28-6.68s0-.14,0-.25a1.69,1.69,0,0,1,0-.21l0-.24-.24,0a3.33,3.33,0,0,1-.46.06" transform="translate(-6 -42.04)"/><path class="cls-1" d="M92.59,92.23,92.16,92l-.49-.2-.39-.16-.54-.22a4.29,4.29,0,0,1-.76-.34,3.53,3.53,0,0,1-.75-.47,2.13,2.13,0,0,1-.78-1.72,2.07,2.07,0,0,1,.68-1.59,2.39,2.39,0,0,1,1.68-.64,2.32,2.32,0,0,1,1.42.46,2.65,2.65,0,0,1,.89,1.24l0,.11h.42l0-.12a11.75,11.75,0,0,1,.55-1.63l0-.11-.09-.08a4.37,4.37,0,0,0-3-1,5.18,5.18,0,0,0-3.26,1,3.54,3.54,0,0,0-1.32,3A3.24,3.24,0,0,0,88,92.4a6,6,0,0,0,.85.49c.3.14.63.29,1,.44s.71.3,1,.44c1.28.56,1.9,1.34,1.9,2.36a2.71,2.71,0,0,1-.74,1.92,2.44,2.44,0,0,1-1.87.79,3,3,0,0,1-1.75-.48,4.92,4.92,0,0,1-1.32-1.47l-.05-.08h-.46V97a6.79,6.79,0,0,1-.36,1.7l0,.1.07.07a3.31,3.31,0,0,0,1.51.87,6.12,6.12,0,0,0,1.85.31,5.9,5.9,0,0,0,2.57-.55,4.37,4.37,0,0,0,1.86-1.62,4.47,4.47,0,0,0,.69-2.48,3.59,3.59,0,0,0-.88-2.23,5.21,5.21,0,0,0-1.28-.9" transform="translate(-6 -42.04)"/><path class="cls-1" d="M112.68,85.87c-.39,0-.66-.06-.83-.06h-.17l.07,2c0,1,.06,1.68.06,2.14,0,.27,0,.65,0,1.16s0,.89,0,1.14c0,1.08-.06,2-.12,2.61a5.42,5.42,0,0,1-.4,1.73,3.75,3.75,0,0,1-1.34,1.61,3.47,3.47,0,0,1-1.07.45,4.94,4.94,0,0,1-1.23.18,4.66,4.66,0,0,1-2.76-.78,3.41,3.41,0,0,1-1.35-2.36,10.59,10.59,0,0,1-.16-2c0-.18,0-.45,0-.8s0-.62,0-.79l.1-4.24.06-1.34a2.51,2.51,0,0,1,0-.47l0-.21h-.21l-.29,0-.33,0a1.69,1.69,0,0,1-.55,0l-.43,0-.31,0h-.2l.08.71.06,3.11v2.15L101.34,94a11.53,11.53,0,0,0,.27,2.66,3.7,3.7,0,0,0,1.16,1.95,4.72,4.72,0,0,0,.93.68,7.61,7.61,0,0,0,3.51.76,5.92,5.92,0,0,0,4.35-1.6,4.44,4.44,0,0,0,1.16-2,8.89,8.89,0,0,0,.36-2.48l.19-5.51c0-.28,0-.68.07-1.21s.07-.95.08-1.23v-.23l-.23.07a2,2,0,0,1-.52.05" transform="translate(-6 -42.04)"/><path class="cls-1" d="M125.9,92.94a6.36,6.36,0,0,0,2.71-1.22A3.26,3.26,0,0,0,129.84,89a3.13,3.13,0,0,0-.42-1.6,2.53,2.53,0,0,0-1.63-1.35,9.33,9.33,0,0,0-2.53-.3l-2.64.06-1.73-.07L121,90.3l-.09,7-.06,1.18q0,.62,0,1.14v.18l.18,0c.4,0,.72-.06.95-.06a8.77,8.77,0,0,1,.88.06l.18,0L123,95.45V93.16h.5L125,95,127.37,98l.7,1,.51.72,0,.08h.1l.58-.05a4.38,4.38,0,0,1,.53,0,4.66,4.66,0,0,1,.56,0l.61.05.37,0-1.54-1.85Zm-2.91-6c.35,0,.85,0,1.49,0s1,0,1.21,0a2.52,2.52,0,0,1,1.45.71,2.25,2.25,0,0,1,.6,1.66,2.52,2.52,0,0,1-.65,1.76,3.28,3.28,0,0,1-1.76.94,10.78,10.78,0,0,1-1.63.12h-.77Z" transform="translate(-6 -42.04)"/><path class="cls-1" d="M141.89,85.53,135.5,99.79l.28,0a6.68,6.68,0,0,1,.73-.06,3.07,3.07,0,0,1,.64,0l.15,0,0-.15c.33-1,1-2.79,1.92-5.22l2.57-.06,2.29.06.93,2.27.9,2.35.22.73.15,0a6.49,6.49,0,0,1,1.06-.06c.21,0,.54,0,1,.06l.29,0-6.15-14.26Zm1.79,7.73h-3.89l1.93-4.53Z" transform="translate(-6 -42.04)"/><path class="cls-1" d="M166.12,85.87a8.29,8.29,0,0,1-.85-.06l-.22,0,0,.22.09,1.71v6.39c0,.74,0,1.34,0,1.8L155.41,85.5h-.58v6.83L154.71,97c0,.58-.08,1.45-.16,2.62v.23l.22-.07a3.07,3.07,0,0,1,.64,0,3.14,3.14,0,0,1,.64,0l.23.07-.14-2.13,0-6.91,0-1.47,5.27,5.63,3.27,3.61,1.22,1.41.05.05h.51l-.06-2.4.06-4.46.28-6.68s0-.14,0-.25a1.69,1.69,0,0,1,0-.21l.05-.24-.24,0a3.41,3.41,0,0,1-.47.06" transform="translate(-6 -42.04)"/><path class="cls-1" d="M180.75,85.56a8,8,0,0,0-5.35,1.79,6.32,6.32,0,0,0-1.73,2.42,7.6,7.6,0,0,0-.64,3,8.27,8.27,0,0,0,.86,3.87,6,6,0,0,0,2.51,2.54,9.05,9.05,0,0,0,8.33-.26l.06,0,.23-1.47h-.2a.57.57,0,0,0-.4.18A6.51,6.51,0,0,1,180.53,99a5.19,5.19,0,0,1-2.2-.48,4.56,4.56,0,0,1-1.73-1.36,5.23,5.23,0,0,1-1-1.84,12.33,12.33,0,0,1-.34-2.46,7.74,7.74,0,0,1,.62-3.11,5.16,5.16,0,0,1,1.81-2.25,5.1,5.1,0,0,1,2.93-.83,4.93,4.93,0,0,1,3.5,1.47.27.27,0,0,1,.08.07l.16.19.35-.07,0-.11a8.36,8.36,0,0,1,.4-1.5l.05-.15-.14-.06a10.66,10.66,0,0,0-4.33-.92" transform="translate(-6 -42.04)"/><path class="cls-1" d="M199,99.58c0-.26,0-.66,0-1.17v-.19l-.19,0a11.55,11.55,0,0,1-1.8.16c-1.12,0-2.27.08-3.42.09,0-.39,0-.92,0-1.58V93l2.92,0a17.36,17.36,0,0,1,1.76.12l.22,0,0-.21c-.06-.36-.08-.55-.09-.56s0-.23.09-.58l0-.2-3,.16h-1.86l.09-4.68h1.3l2,.06,1,.06c.34,0,.62.06.82.07h.23l-.07-.23a2.09,2.09,0,0,1,0-.54,1.78,1.78,0,0,1,0-.29,2.44,2.44,0,0,0,0-.3v-.18h-.17c-.91,0-1.6.06-2.05.06h-2.87l-2.33-.06V86c.07,1.46.1,2.32.1,2.56l0,1.73,0,6.82-.14,2.67h1c.36,0,.63,0,.8,0h.88c.39,0,.68,0,.87,0,.55,0,1.38,0,2.45.06l1.56,0Z" transform="translate(-6 -42.04)"/><path class="cls-2" d="M90.08,80.36a20.7,20.7,0,0,1-2.13-4C85.28,70.45,80.64,56.06,79.08,51a9,9,0,0,0-7.83-6.49.58.58,0,0,0-.58.38L63.84,63.65,57,80.8a.61.61,0,0,0,0,.46c.06.13.44.82,1.87.82a5.87,5.87,0,0,0,.89-.08c3-.46,3.58-2.19,6.53-11.75l.11-.35c2-.08,4.36-.13,6.8-.13,1.56,0,3.16,0,4.61,0,1.19,3.63,2.11,6.66,2.68,8.78S83.11,82,86.06,82a18.79,18.79,0,0,0,3.87-.5.56.56,0,0,0,.41-.35.59.59,0,0,0,0-.53c-.07-.09-.13-.19-.21-.3M72.13,66c-1.63,0-3.19,0-4.59,0,1.33-4.18,2.73-8.42,4.27-12.88C73.43,57.34,75.13,62,76.5,66c-1.42,0-2.92,0-4.37,0" transform="translate(-6 -42.04)"/><path class="cls-2" d="M107.92,60.85a6.63,6.63,0,0,0,.72-2.88,2.93,2.93,0,0,0-3-3.25,9.53,9.53,0,0,0-6.88,3.47c-.2-2.09-2-3.47-4.64-3.47a7.5,7.5,0,0,0-2.8.54.62.62,0,0,0-.18.74s1.08,3.67,1.19,12.84c0,1.94-.06,4-.14,6.09,0,.87-.08,1.75-.11,2.66,0,3,1.19,4.45,3.76,4.45A12.8,12.8,0,0,0,99,81.59a1,1,0,0,0,.67-.48.85.85,0,0,0,0-.72c-.22-.59-.93-3.15-.93-11.2,0-6.45.74-9.33,5.1-9.33A3.8,3.8,0,0,1,107,61a.58.58,0,0,0,.51.21.59.59,0,0,0,.45-.32" transform="translate(-6 -42.04)"/><path class="cls-2" d="M132,77.67a.58.58,0,0,0-.62.07,3.59,3.59,0,0,1-2,1c-.44,0-1.43-.58-1.43-6,0-1.38,0-3,.1-4.46s.1-3,.1-4.34c0-4.3-1-9.23-9.14-9.23-4.56,0-9.26,2.25-9.43,6.54a.59.59,0,0,0,1,.41,9,9,0,0,1,6.29-3c3.29,0,4.75,2,4.75,6.36v.14c-6.91.25-14.08,3-14.08,9.87,0,4.41,2.71,7.27,6.92,7.27a10.65,10.65,0,0,0,7.32-3.06,3.46,3.46,0,0,0,.7,1.29,5.26,5.26,0,0,0,4,1.57c3.23,0,5.87-1.75,5.87-3.9a.6.6,0,0,0-.34-.53m-10.55-1.36A11,11,0,0,1,117,77.46a3.19,3.19,0,0,1-3.24-3.39c0-4.38,5.22-5.45,7.81-5.89-.09,2.38-.21,6-.18,8.13" transform="translate(-6 -42.04)"/><path class="cls-2" d="M148.64,54.88c-2.68,0-6.14.59-8.54,3.16,0-.09,0-.2,0-.3.2-2,.36-4.88.36-6.75,0-6.52-.35-8.77-7.09-8.83a.69.69,0,0,0-.59.33.79.79,0,0,0-.05.76c.58,1.21.88,6.17.88,14.73,0,1.86,0,3.77,0,5.68s0,3.82,0,5.69c0,1.22,0,2.43-.05,3.72s-.06,2.7-.06,4.12c0,3.35,4.39,4.86,8.73,4.86,9.5,0,15.17-6,15.17-16,0-5.41-2.31-11.19-8.83-11.19M143,78.72a2.47,2.47,0,0,1-2.54-2.16,67.78,67.78,0,0,1-.4-9,37.25,37.25,0,0,1,.38-5.66c1.13-1.55,3.75-3.31,5.58-3.31,3,0,4.59,4.68,4.59,9.07,0,5.52-2.35,11.09-7.61,11.09" transform="translate(-6 -42.04)"/><path class="cls-2" d="M164.14,50.11a3.42,3.42,0,1,0-3.39-3.39,3.46,3.46,0,0,0,3.39,3.39" transform="translate(-6 -42.04)"/><path class="cls-2" d="M171.54,77.64a.58.58,0,0,0-.62.07,3.71,3.71,0,0,1-2,1c-1.43,0-1.63-3.06-1.63-6.36,0-1.76.05-3.84.12-6,.06-2.54.13-5.17.13-7.74,0-2.2-2-3.8-4.85-3.8a8.22,8.22,0,0,0-2.43.42c-.27.07-.57.3-.46,1q0,.16.12.48a21.82,21.82,0,0,1,.72,4.57c.1,2.29.2,5,.2,7.62,0,1.39-.05,2.84-.09,4.24s-.11,2.91-.11,4.36c0,3,2,4.65,5.36,4.65,3.24,0,5.87-1.75,5.87-3.9a.59.59,0,0,0-.33-.52" transform="translate(-6 -42.04)"/><path class="cls-2" d="M198.17,77.61a.61.61,0,0,0-.62.07,3.61,3.61,0,0,1-2,1c-.42,0-1.42-.58-1.42-6,0-1.39.05-2.95.1-4.46s.1-3,.1-4.34c0-4.3-1-9.24-9.13-9.24-4.57,0-9.27,2.25-9.44,6.55a.57.57,0,0,0,.37.56.57.57,0,0,0,.65-.16,9,9,0,0,1,6.3-3c3.29,0,4.75,2,4.75,6.35v.14c-6.91.26-14.08,3-14.08,9.87,0,4.42,2.71,7.27,6.92,7.27a10.64,10.64,0,0,0,7.32-3,3.42,3.42,0,0,0,.7,1.28A5.22,5.22,0,0,0,192.64,82c3.23,0,5.86-1.75,5.86-3.9a.59.59,0,0,0-.33-.53m-10.55-1.35a11.13,11.13,0,0,1-4.39,1.15A3.19,3.19,0,0,1,180,74c0-4.37,5.22-5.44,7.81-5.89-.09,2.39-.2,6-.18,8.14" transform="translate(-6 -42.04)"/><path class="cls-3" d="M29.54,100.68C-2.29,82.19,7.81,47,8.37,42c12.8,6.21,21.17,5.46,21.17,5.46Z" transform="translate(-6 -42.04)"/><path class="cls-4" d="M29.54,100.68C61.38,82.19,51.27,47,50.71,42,37.92,48.25,29.54,47.5,29.54,47.5Z" transform="translate(-6 -42.04)"/><path class="cls-5" d="M29.54,100.68C61.38,82.19,51.27,47,50.71,42,37.92,48.25,29.54,47.5,29.54,47.5Z" transform="translate(-6 -42.04)"/><path class="cls-6" d="M29.54,100.68C56.67,80.68,51.27,47,50.71,42,37.92,48.25,29.54,47.5,29.54,47.5Z" transform="translate(-6 -42.04)"/><path class="cls-1" d="M15.36,110.69l-.71,0c-.23,0-.46,0-.69,0-.16-.61-.36-1.25-.56-1.85-.34,0-.68,0-1,0s-.57,0-.85,0a18.85,18.85,0,0,0-.56,1.85c-.12,0-.24,0-.37,0l-.4,0c.4-1,1.61-4.28,2.3-6.37a1.64,1.64,0,0,0,.32.05,1.71,1.71,0,0,0,.3-.05c.69,2.09,1.63,4.87,2.25,6.37m-2.14-2.41c-.24-.73-.46-1.45-.73-2.18-.27.73-.53,1.45-.76,2.18Z" transform="translate(-6 -42.04)"/><path class="cls-1" d="M22.46,106.91c0-1,0-1.72-.06-2.54a3.82,3.82,0,0,0,.66.06,3.63,3.63,0,0,0,.66-.06c0,.82,0,1.5,0,2.54v1.24c0,1,0,1.74,0,2.54-.16,0-.39,0-.66,0s-.48,0-.66,0c.05-.8.06-1.52.06-2.54Z" transform="translate(-6 -42.04)"/><path class="cls-1" d="M36.53,109.51a3.81,3.81,0,0,0-.19.81,3.32,3.32,0,0,1-1.64.37,2.86,2.86,0,0,1-3-3c0-2.52,1.52-3.51,3.22-3.51a3.19,3.19,0,0,1,1.65.46,3.66,3.66,0,0,0-.18.92h-.12a1.61,1.61,0,0,0-1.4-.81c-.86,0-1.83.86-1.83,2.81s1,2.63,1.92,2.63a2,2,0,0,0,1.46-.7Z" transform="translate(-6 -42.04)"/><path class="cls-1" d="M49.22,109.51a3.29,3.29,0,0,0-.19.81,3.32,3.32,0,0,1-1.64.37,2.86,2.86,0,0,1-3-3c0-2.52,1.52-3.51,3.22-3.51a3.14,3.14,0,0,1,1.65.46,3.66,3.66,0,0,0-.18.92H49a1.6,1.6,0,0,0-1.39-.81c-.87,0-1.84.86-1.84,2.81s1,2.63,1.92,2.63a2.05,2.05,0,0,0,1.46-.7Z" transform="translate(-6 -42.04)"/><path class="cls-1" d="M53.18,112.59H6V102.32H53.18ZM6.4,112.2H52.79v-9.49H6.4Z" transform="translate(-6 -42.04)"/><path class="cls-1" d="M83.67,106.92c0-.83,0-1.4-.06-2,.15,0,.32,0,.53,0s.39,0,.53,0c0,.64,0,1.21,0,2v1c0,.82,0,1.4,0,2l-.53,0-.53,0c0-.64.06-1.22.06-2Z" transform="translate(-6 -42.04)"/><path class="cls-1" d="M85.83,104.88a1.55,1.55,0,0,0,.29,0,1.27,1.27,0,0,0,.29,0c.94,1.18,1.88,2.33,2.84,3.51,0-1.18,0-3.18-.06-3.51a1.65,1.65,0,0,0,.3,0,1.35,1.35,0,0,0,.29,0c-.11,2.14-.11,3.12-.11,5.08a1,1,0,0,0-.25,0,1.1,1.1,0,0,0-.26,0c-.89-1.2-1.85-2.38-2.84-3.58,0,.55,0,1.17,0,1.72,0,1.17,0,1.59,0,1.86a1.56,1.56,0,0,0-.31,0,1.51,1.51,0,0,0-.3,0c0-.21.14-2.11.14-3.61,0-.68,0-1.13,0-1.47" transform="translate(-6 -42.04)"/><path class="cls-1" d="M92.79,105.87a.77.77,0,0,0-.78-.63.66.66,0,0,0-.68.65c0,1.1,2,.82,2,2.51a1.75,1.75,0,0,1-2.77,1.34c.08-.33.13-.6.18-.93h.13a.88.88,0,0,0,.9.79.7.7,0,0,0,.76-.75c0-1.11-2-.82-2-2.49A1.46,1.46,0,0,1,92,104.78a1.54,1.54,0,0,1,1.06.36c-.08.24-.12.41-.2.73Z" transform="translate(-6 -42.04)"/><path class="cls-1" d="M94.15,108.12c0-.79,0-1.2,0-1.73,0-.77,0-1.28,0-1.51l.53,0a4.58,4.58,0,0,0,.53,0c-.08,1-.08,1.73-.08,2.57,0,1.81.44,2.1,1.3,2.1,1,0,1.11-1.28,1.11-2.65,0-.67,0-1.34,0-2a1.69,1.69,0,0,0,.33,0,1.82,1.82,0,0,0,.32,0c0,.43-.08,1.48-.08,2.75,0,1.72-.67,2.44-1.92,2.44a1.78,1.78,0,0,1-2-1.95" transform="translate(-6 -42.04)"/><path class="cls-1" d="M100.23,107.62h-.06v.3c0,.82,0,1.4.06,2l-.55,0-.51,0c0-.64,0-1.22,0-2v-1c0-.83,0-1.4,0-2,.12,0,.31,0,.51,0s.52,0,1,0c.65,0,.9.06,1.11.24a1.17,1.17,0,0,1,.44,1,1.31,1.31,0,0,1-1,1.36c.42.84.91,1.68,1.39,2.51l-.58,0-.6,0Zm0-2.32c0,.67,0,1.33,0,2l.15,0c.57,0,.89-.36.89-1.06,0-.87-.31-1-1-1" transform="translate(-6 -42.04)"/><path class="cls-1" d="M106.87,110l-.59,0-.55,0c-.13-.5-.28-1-.44-1.5l-.83,0-.69,0c-.18.5-.31,1-.44,1.5l-.3,0-.33,0c.33-.81,1.31-3.44,1.86-5.12a2,2,0,0,0,.24,0,2.17,2.17,0,0,0,.25,0c.56,1.68,1.32,3.92,1.82,5.12M105.13,108c-.18-.59-.37-1.18-.57-1.76-.22.58-.42,1.17-.62,1.76Z" transform="translate(-6 -42.04)"/><path class="cls-1" d="M107.55,104.94a1.36,1.36,0,0,0,.29,0,1.33,1.33,0,0,0,.28,0l2.84,3.52c0-1.19,0-3.19-.06-3.52a1.63,1.63,0,0,0,.31,0l.29,0c-.12,2.13-.12,3.13-.12,5.1a.76.76,0,0,0-.25-.06.66.66,0,0,0-.26.06c-.89-1.21-1.85-2.41-2.86-3.6v1.72c0,1.19,0,1.6,0,1.88a.81.81,0,0,0-.61,0c0-.23.12-2.12.12-3.63,0-.67,0-1.11,0-1.47" transform="translate(-6 -42.04)"/><path class="cls-1" d="M116.11,109.18a3.5,3.5,0,0,0-.15.62,2.45,2.45,0,0,1-1.32.33,2.31,2.31,0,0,1-2.41-2.47,2.59,2.59,0,0,1,3.91-2.45,3.32,3.32,0,0,0-.14.74h-.09a1.29,1.29,0,0,0-1.13-.65c-.69,0-1.47.69-1.47,2.25s.79,2.11,1.53,2.11a1.67,1.67,0,0,0,1.19-.54Z" transform="translate(-6 -42.04)"/><path class="cls-1" d="M116.88,107c0-.83,0-1.4-.06-2,.38,0,.77,0,1.16,0,.64,0,1.19,0,1.36,0a2.16,2.16,0,0,0,0,.31,2.5,2.5,0,0,0,0,.33c-.5,0-1.27-.08-1.47-.08,0,.54,0,1.06,0,1.6.56,0,1,0,1.46-.06a2.67,2.67,0,0,0,0,.32c0,.09,0,.16,0,.32a11.88,11.88,0,0,0-1.46-.06c0,.3,0,.61,0,.93s0,.63,0,.93a9.48,9.48,0,0,0,1.48-.11,2.68,2.68,0,0,0,0,.34,2.34,2.34,0,0,0,0,.33c-.23,0-.54-.06-1.14-.06a7,7,0,0,0-1.38.06c0-.67.06-1.23.06-2.05Z" transform="translate(-6 -42.04)"/><path class="cls-1" d="M125.7,109.18a2.8,2.8,0,0,0-.15.62,2.5,2.5,0,0,1-1.32.33,2.32,2.32,0,0,1-2.42-2.47,2.48,2.48,0,0,1,2.59-2.82,2.57,2.57,0,0,1,1.34.37,2.48,2.48,0,0,0-.14.74h-.11a1.3,1.3,0,0,0-1.12-.65c-.68,0-1.48.69-1.48,2.25s.8,2.11,1.54,2.11a1.62,1.62,0,0,0,1.18-.54Z" transform="translate(-6 -42.04)"/><path class="cls-1" d="M128.66,104.84a2.37,2.37,0,0,1,2.48,2.65,2.52,2.52,0,0,1-2.49,2.64,2.34,2.34,0,0,1-2.48-2.64,2.5,2.5,0,0,1,2.49-2.65m0,.42c-.89,0-1.41,1-1.41,2.29,0,1.57.62,2.11,1.37,2.11s1.46-.73,1.46-2.33c0-1.27-.57-2.07-1.42-2.07" transform="translate(-6 -42.04)"/><path class="cls-1" d="M134.1,104.84a2.37,2.37,0,0,1,2.47,2.65,2.53,2.53,0,0,1-2.5,2.64,2.36,2.36,0,0,1-2.48-2.64,2.51,2.51,0,0,1,2.51-2.65m0,.42c-.89,0-1.41,1-1.41,2.29,0,1.57.64,2.11,1.38,2.11s1.46-.73,1.46-2.33c0-1.27-.58-2.07-1.43-2.07" transform="translate(-6 -42.04)"/><path class="cls-1" d="M137.33,107c0-.83,0-1.4-.05-2,.12,0,.3,0,.52,0l.95,0a1.57,1.57,0,0,1,1.14.3,1.22,1.22,0,0,1,.39,1,1.46,1.46,0,0,1-1.67,1.57h-.33c0,.74,0,1.48.05,2.23a2.58,2.58,0,0,0-.53-.06,2.18,2.18,0,0,0-.52.06c0-.66.05-1.23.05-2.05Zm1.24-1.63h-.28c0,.7,0,1.39,0,2.08.44,0,1-.13,1-1.08,0-.76-.32-1-.69-1" transform="translate(-6 -42.04)"/><path class="cls-1" d="M140.94,107c0-.83,0-1.4,0-2,.38,0,.76,0,1.14,0,.65,0,1.2,0,1.37,0a2.41,2.41,0,0,0,0,.31,2.77,2.77,0,0,0,0,.33c-.49,0-1.27-.08-1.47-.08,0,.54,0,1.06,0,1.6.57,0,1,0,1.49-.06a1.69,1.69,0,0,0,0,.32,3,3,0,0,0,0,.32,12.38,12.38,0,0,0-1.49-.06v.93c0,.32,0,.63,0,.93a9.47,9.47,0,0,0,1.5-.11,3,3,0,0,0,0,.34,2.63,2.63,0,0,0,0,.33c-.24,0-.54-.06-1.14-.06a6.61,6.61,0,0,0-1.37.06c0-.67,0-1.23,0-2.05Z" transform="translate(-6 -42.04)"/><path class="cls-1" d="M145.29,107.69h0v.3c0,.82,0,1.39,0,2.05a2.37,2.37,0,0,0-1.06,0c0-.66,0-1.23,0-2.05v-1c0-.83,0-1.4,0-2,.13,0,.32,0,.53,0s.52,0,.95,0c.67,0,.91.06,1.13.25a1.19,1.19,0,0,1,.43,1,1.29,1.29,0,0,1-1,1.36c.4.84.91,1.67,1.38,2.52a2.93,2.93,0,0,0-1.18,0Zm0-2.33c0,.68,0,1.34,0,2h.13c.57,0,.89-.35.89-1,0-.87-.3-1-1-1" transform="translate(-6 -42.04)"/><path class="cls-1" d="M151.92,110a4,4,0,0,0-.57-.06,3.31,3.31,0,0,0-.56.06c-.13-.52-.29-1-.45-1.52-.29,0-.56,0-.84,0l-.67,0a15.63,15.63,0,0,0-.45,1.52,1,1,0,0,0-.31-.06,1.21,1.21,0,0,0-.31.06c.31-.82,1.29-3.46,1.85-5.14a1.09,1.09,0,0,0,.25,0,.93.93,0,0,0,.24,0c.56,1.68,1.33,3.92,1.82,5.14m-1.72-2c-.2-.6-.38-1.19-.59-1.76-.23.57-.42,1.16-.61,1.76Z" transform="translate(-6 -42.04)"/><path class="cls-1" d="M153,106.15a5.11,5.11,0,0,0,0-.65,9.71,9.71,0,0,0-1.2.09,1.75,1.75,0,0,0,0-.33,1.87,1.87,0,0,0,0-.32c.59,0,.89,0,1.71,0s1.1,0,1.64,0c0,.11,0,.22,0,.32s0,.22,0,.33a8.24,8.24,0,0,0-1.14-.09,5.11,5.11,0,0,0,0,.65V108c0,.82,0,1.38,0,2.05a2.4,2.4,0,0,0-.52-.06,2.45,2.45,0,0,0-.54.06c0-.67.05-1.23.05-2.05Z" transform="translate(-6 -42.04)"/><path class="cls-1" d="M155.88,107c0-.83,0-1.4,0-2,.15,0,.31,0,.53,0s.39,0,.54,0c0,.65-.05,1.22-.05,2v1c0,.82,0,1.38.05,2.05a2.61,2.61,0,0,0-.54-.06,2.5,2.5,0,0,0-.53.06c0-.67,0-1.23,0-2.05Z" transform="translate(-6 -42.04)"/><path class="cls-1" d="M161.14,104.94a1.27,1.27,0,0,0,.28,0,1.43,1.43,0,0,0,.29,0c-.44,1.15-1.29,3.4-1.79,5.1a.71.71,0,0,0-.57,0c-.41-1.28-1.34-4-1.76-5.1l.57,0a5.49,5.49,0,0,0,.58,0c.31,1.1.77,2.46,1.17,3.7.43-1.24.89-2.56,1.23-3.7" transform="translate(-6 -42.04)"/><path class="cls-1" d="M162.31,107c0-.83,0-1.4-.06-2l1.18,0c.63,0,1.19,0,1.36,0a1.37,1.37,0,0,0,0,.31,1.57,1.57,0,0,0,0,.33c-.51,0-1.29-.08-1.48-.08,0,.54,0,1.06,0,1.6l1.49-.06a2,2,0,0,0-.05.32c0,.09,0,.16.05.32a12.54,12.54,0,0,0-1.49-.06v.93c0,.32,0,.63,0,.93a9.6,9.6,0,0,0,1.49-.11,1.67,1.67,0,0,0,0,.34,1.52,1.52,0,0,0,0,.33c-.24,0-.54-.06-1.15-.06a7.2,7.2,0,0,0-1.39.06c.06-.67.06-1.23.06-2.05Z" transform="translate(-6 -42.04)"/><path class="cls-1" d="M171,109.18a2,2,0,0,0-.15.62,2.57,2.57,0,0,1-1.33.33,2.31,2.31,0,0,1-2.4-2.47,2.48,2.48,0,0,1,2.58-2.82,2.53,2.53,0,0,1,1.33.37,2.84,2.84,0,0,0-.14.74h-.09a1.34,1.34,0,0,0-1.13-.65c-.69,0-1.49.69-1.49,2.25s.8,2.11,1.56,2.11a1.61,1.61,0,0,0,1.16-.54Z" transform="translate(-6 -42.04)"/><path class="cls-1" d="M174,104.84a2.37,2.37,0,0,1,2.46,2.65,2.52,2.52,0,0,1-2.49,2.64,2.35,2.35,0,0,1-2.48-2.64,2.51,2.51,0,0,1,2.51-2.65m0,.42c-.89,0-1.41,1-1.41,2.29,0,1.57.64,2.11,1.37,2.11s1.46-.73,1.46-2.33c0-1.27-.57-2.07-1.42-2.07" transform="translate(-6 -42.04)"/><path class="cls-1" d="M177.74,106.68c-.13,1.11-.18,2.23-.26,3.36a1.07,1.07,0,0,0-.29-.06,1.13,1.13,0,0,0-.32.06c.28-1.7.49-3.41.67-5.1a1.27,1.27,0,0,0,.28,0,1.13,1.13,0,0,0,.25,0c.48,1.18,1,2.49,1.5,3.53.52-1.11,1.07-2.35,1.53-3.53a1.33,1.33,0,0,0,.28,0,1,1,0,0,0,.26,0c.18,1.69.41,4.06.58,5.1a2.46,2.46,0,0,0-1.08,0c0-1-.16-2.29-.26-3.43h0c-.48,1.14-1,2.27-1.43,3.43l-.12,0-.14,0c-.45-1.13-.93-2.25-1.41-3.36Z" transform="translate(-6 -42.04)"/><path class="cls-1" d="M183,107c0-.83,0-1.4-.06-2,.15,0,.32,0,.55,0s.62,0,.94,0a1.59,1.59,0,0,1,1.14.3,1.23,1.23,0,0,1,.4,1,1.46,1.46,0,0,1-1.67,1.57h-.34c0,.74,0,1.48.05,2.23a2.4,2.4,0,0,0-.52-.06,2.63,2.63,0,0,0-.55.06c0-.66.06-1.23.06-2.05Zm1.26-1.63h-.28c0,.7,0,1.39,0,2.08.44,0,1-.13,1-1.08,0-.76-.3-1-.67-1" transform="translate(-6 -42.04)"/><path class="cls-1" d="M189.9,110a4.1,4.1,0,0,0-.57-.06,3.55,3.55,0,0,0-.56.06c-.14-.52-.28-1-.45-1.52-.28,0-.56,0-.84,0s-.45,0-.67,0c-.17.5-.32,1-.45,1.52a1.15,1.15,0,0,0-.29-.06,1.28,1.28,0,0,0-.34.06c.32-.82,1.3-3.46,1.86-5.14a1.17,1.17,0,0,0,.26,0,1,1,0,0,0,.23,0c.55,1.68,1.32,3.92,1.82,5.14m-1.73-2c-.19-.6-.38-1.19-.58-1.76-.22.57-.42,1.16-.61,1.76Z" transform="translate(-6 -42.04)"/><path class="cls-1" d="M190.6,104.94a1.29,1.29,0,0,0,.29,0l.29,0,2.83,3.52c0-1.19,0-3.19-.06-3.52a1.6,1.6,0,0,0,.3,0,1.53,1.53,0,0,0,.3,0c-.1,2.13-.1,3.13-.1,5.1a.88.88,0,0,0-.27-.06.66.66,0,0,0-.25.06c-.9-1.21-1.84-2.41-2.85-3.6,0,.56,0,1.18,0,1.72,0,1.19,0,1.6.05,1.88a1.37,1.37,0,0,0-.32-.06,1.14,1.14,0,0,0-.3.06c0-.23.13-2.12.13-3.63,0-.67,0-1.11,0-1.47" transform="translate(-6 -42.04)"/><path class="cls-1" d="M197.37,107.15a19.2,19.2,0,0,0,1-2.21,1.43,1.43,0,0,0,.29,0,1.66,1.66,0,0,0,.32,0c-.29.56-1,1.9-1.37,2.82,0,.24,0,.48,0,.73,0,.49,0,1,.06,1.55a2.51,2.51,0,0,0-1.09,0c0-.49.07-1,.07-1.43,0-.23,0-.47,0-.69-.45-1-1.19-2.56-1.41-3l.59,0a5.35,5.35,0,0,0,.58,0c.3.73.8,1.87,1,2.21Z" transform="translate(-6 -42.04)"/><path class="cls-1" d="M58.88,108.43c-.19.56-.38,1-.52,1.52h-.69l2.1-5.08a1.27,1.27,0,0,0,.28,0,1.37,1.37,0,0,0,.28,0l2,5.09-.62,0-.64,0a15.23,15.23,0,0,0-.52-1.53Zm1.55-.44-.66-1.72-.7,1.72Z" transform="translate(-6 -42.04)"/><path class="cls-1" d="M62.74,105H64.3a3,3,0,0,1,1.19.14,1.09,1.09,0,0,1,.63,1.06A1.3,1.3,0,0,1,65,107.46c.42.71.86,1.38,1.3,2.06l.28.45c-.21,0-.44,0-.66,0l-.67,0-.86-1.53c-.11-.2-.32-.54-.48-.82h0V110c-.19,0-.37,0-.56,0l-.54,0Zm1.1,2.36c.77.08,1.15-.29,1.15-1a3.15,3.15,0,0,0,0-.37c-.13-.61-.68-.55-1.12-.55Z" transform="translate(-6 -42.04)"/><path class="cls-1" d="M68,108.45c-.2.55-.37,1-.51,1.51l-.35,0-.36,0,2.1-5.07h.55L71.47,110c-.22,0-.42,0-.64,0l-.62,0c-.17-.53-.33-1-.52-1.52Zm1.54-.46-.66-1.7-.67,1.7Z" transform="translate(-6 -42.04)"/><path class="cls-1" d="M71.73,105h1.89c.74,0,1.46.26,1.46,1.11a1.23,1.23,0,0,1-1.21,1.16v.07c.55.06,1.32.3,1.32,1.21s-.9,1.44-1.76,1.44h-1.7Zm1.11,2.15a1.13,1.13,0,0,0,.83-.18,1,1,0,0,0,.32-.76.73.73,0,0,0-.78-.82,1.23,1.23,0,0,0-.37,0Zm0,2.41h.36a.91.91,0,0,0,.86-1c0-.8-.44-1.09-1.22-1Z" transform="translate(-6 -42.04)"/><path class="cls-1" d="M75.62,105c.17,0,.36,0,.55,0s.37,0,.54,0v5c-.17,0-.36,0-.54,0s-.38,0-.55,0Z" transform="translate(-6 -42.04)"/><path class="cls-1" d="M78.35,108.45c-.19.55-.36,1-.51,1.51l-.34,0-.35,0,2.1-5.07h.54L81.85,110l-.64,0c-.21,0-.42,0-.62,0-.18-.53-.33-1-.52-1.52ZM79.9,108l-.65-1.7-.71,1.7Z" transform="translate(-6 -42.04)"/></svg>