<svg id="AICC_-_ARA" data-name="AICC - ARA" xmlns="http://www.w3.org/2000/svg" xmlns:xlink="http://www.w3.org/1999/xlink" viewBox="0 0 192.77 80.13"><defs><style>.cls-1{fill:#005385;}.cls-2{fill:#7d7d7d;}.cls-3{fill:#3a6895;}.cls-4{fill:url(#linear-gradient);}.cls-5{fill:#c7c8c9;}.cls-6{fill:url(#linear-gradient-2);}</style><linearGradient id="linear-gradient" x1="175.2" y1="73.5" x2="198.26" y2="73.5" gradientUnits="userSpaceOnUse"><stop offset="0" stop-color="#cececf"/><stop offset="0" stop-color="#cececf"/><stop offset="0.68" stop-color="#949494"/><stop offset="1" stop-color="#7e7e7d"/></linearGradient><linearGradient id="linear-gradient-2" x1="175.2" y1="73.5" x2="197.11" y2="73.5" xlink:href="#linear-gradient"/></defs><path class="cls-1" d="M15,48.93a3.33,3.33,0,1,0-3.31-3.3A3.37,3.37,0,0,0,15,48.93" transform="translate(-6 -36.92)"/><path class="cls-1" d="M22.08,48.93a3.33,3.33,0,1,0-3.3-3.3,3.37,3.37,0,0,0,3.3,3.3" transform="translate(-6 -36.92)"/><path class="cls-1" d="M61.47,88.12a3.33,3.33,0,1,0,3.34,3.35,3.38,3.38,0,0,0-3.34-3.35" transform="translate(-6 -36.92)"/><path class="cls-1" d="M42.41,88.06a3.33,3.33,0,1,0,3.34,3.35,3.37,3.37,0,0,0-3.34-3.35" transform="translate(-6 -36.92)"/><path class="cls-1" d="M49.46,88.06a3.33,3.33,0,1,0,3.36,3.35,3.37,3.37,0,0,0-3.36-3.35" transform="translate(-6 -36.92)"/><path class="cls-1" d="M51.41,82.36H66.86a5.14,5.14,0,0,0,4.56-3.18,11,11,0,0,0,.67-1.62h0l.11-.36a20.32,20.32,0,0,0,1-6.4,20,20,0,0,0-1-6.32c-.42-.95-.94-2-1.56-3.13-.4-.73-.82-1.4-1.23-2a4.86,4.86,0,0,1-.87-2.47.59.59,0,0,0-.37-.43.52.52,0,0,0-.44,0l0,0c-4.75,3.55-4.59,5.37-1.52,9.75a20.29,20.29,0,0,1,1.87,7.6v.05s0,.07,0,.1l0,.25H54a4.49,4.49,0,0,1-2.79-1,3.17,3.17,0,0,1-1.31-2.56,36.91,36.91,0,0,1,.36-4.17,36.79,36.79,0,0,0,.35-4.16v0c0-.07.06-.14.09-.23a.43.43,0,0,0-.08-.42.36.36,0,0,0-.3-.15h0c-4.48.54-5,1.81-4.68,5.88h0a.66.66,0,0,0,0,.13c-.09,3.56-.32,5.72-.72,6.6l-.05.13h-8.6c-3.85,0-5.23-.61-6.56-1.8-.14-.12-.43-.37-1.91-8.37l-.09-.48-.37-1.93-.41-2.24-.34-1.85-.16-.89c-.07-.37-.13-.74-.19-1.08a16.9,16.9,0,0,1-.39-5,.51.51,0,0,0-.13-.47.45.45,0,0,0-.32-.14h-.08a12.4,12.4,0,0,0-3.38,1.17,3.51,3.51,0,0,0-1.35,1.29c-.8,1.39-.43,3.52.23,6.59l0,.15-.13.08c-1.07.67-1.85,1.14-2.4,1.43-5.06,2.83-8,4.58-8.62,5.2a11.42,11.42,0,0,0-3.14,5.75A5.78,5.78,0,0,0,7.9,76.36a8.2,8.2,0,0,0,4.34,3,38.85,38.85,0,0,0,6.38,1.19c.94,0,1.86-.93,2.72-2.78,1.07-2.22,1.86-3.44,2.42-3.72l.24-.12.07.25c.38,1.26,1.53,5.12,1.66,5.37v0h0a4.3,4.3,0,0,0,4.14,2.8H41.35a2.55,2.55,0,0,0,2.06-1.43,11.45,11.45,0,0,0,.77-1.38l.36-.68c.19-.32.36-.65.53-1s.27-.52.39-.72l.25-.42.15.45c1.06,3.47,2.87,5.16,5.55,5.16M23.14,70.59a.34.34,0,0,1-.21.1,29.11,29.11,0,0,1-8.32-1,.28.28,0,0,1-.18-.2.37.37,0,0,1,.08-.33c.41-.45,1.72-1.57,3.11-2.74,1.56-1.34,3.18-2.71,3.68-3.27a.28.28,0,0,1,.2-.1.29.29,0,0,1,.28.21c.9,4,1.39,6.39,1.45,7.08a.4.4,0,0,1-.09.26" transform="translate(-6 -36.92)"/><path class="cls-1" d="M147.26,72.93c-.14-1.2-.39-2.76-.61-4.26-.14-.86-.27-1.67-.37-2.4s-.74-6.86-.85-7.81c-.44-3.94-.74-7.18-.89-9.62-.18-3-.15-4.76.11-5.49a.57.57,0,0,0-.1-.56.49.49,0,0,0-.39-.2h0l-.47.06c-4.14.57-5.54,1.74-5.79,4.38a27,27,0,0,0,.27,5.08c.13,1.2.38,2.76.61,4.26.14.86.5,4.4.61,5.25.07.57.15,1.11.15,1.16l.15.92c.1,1,.2,1.92.31,2.87.44,3.94.74,7.18.88,9.63a30.09,30.09,0,0,1,0,4.74,5.21,5.21,0,0,0-.07,1c0,.32.13.53.46.51.17,0,.33,0,.49-.06l.28,0c3.95-.59,5.27-1.78,5.5-4.42a27.69,27.69,0,0,0-.27-5" transform="translate(-6 -36.92)"/><path class="cls-1" d="M135.31,64.35l-.24-2.23c-.06-.47-.09-.75-.1-.95l0-.18,0-.13-.24-2.27c-.45-3.94-.75-7.18-.89-9.63-.18-3-.15-4.75.11-5.49a.63.63,0,0,0-.1-.56.52.52,0,0,0-.39-.2h0c-5.92.71-6.67,2.39-6.18,7.77v.2c.05.49.1,1,.17,1.55.13,1.2.37,2.75.61,4.26.13.86.26,1.67.36,2.4s.26,1.87.37,2.72c.08.57.15,1.11.16,1.17.53,3.33,1,7.32,1.35,10.53v.11l-.08.08a4.62,4.62,0,0,1-2.8.73h-9.08l.06-.26a10.31,10.31,0,0,1,1.52-2.73,5.58,5.58,0,0,0,1.25-3,5.38,5.38,0,0,0-.87-2.55,9.61,9.61,0,0,0-8.8-4.94,12.34,12.34,0,0,0-7,1.92,5.56,5.56,0,0,0-1.75,2c-1.1,2.31-1,3.93-.76,4.68a1.5,1.5,0,0,0,1,.77,8.4,8.4,0,0,1,3,1.06,7.13,7.13,0,0,1,2.7,2.7l.17.32H98.37a7.78,7.78,0,0,1-4.38-2l-.33-.33,0,0,0-.06h0a56.14,56.14,0,0,1-3.82-5.55L89.63,66v0c-1.51-2.3-1.3-2.57-1.43-3.27a.55.55,0,0,0-.34-.41.47.47,0,0,0-.4,0l0,0c-4.42,3.3-4.34,4.88-1.46,9l.85,1.22a13,13,0,0,1,1.55,3.82,21.46,21.46,0,0,1,.31,3v0l0,0,0,.09,0,.07c-3,6-8.74,9.76-15,9.76l-.56,0h0a16.19,16.19,0,0,1-6.77-1.84c-.84-.43-.78.91-.22,1.54a14.81,14.81,0,0,0,11.39,5.38,14.24,14.24,0,0,0,2.12-.16,14.62,14.62,0,0,0,3.64-1,16.11,16.11,0,0,0,2.69-1.42,18,18,0,0,0,7.44-10.44c.11-.37.46,0,.46,0a5.63,5.63,0,0,0,3.33.9h3.13l2.16,0,3.78,0h.32a4.76,4.76,0,0,0,3.42-1.64,8.57,8.57,0,0,0,1.47-2.51l.16-.42.22.39v0h0a8.65,8.65,0,0,0,1.29,2.3A4.87,4.87,0,0,0,117,82.46h7.4l.22,0h4.8a6.53,6.53,0,0,0,5.32-2.89,12.87,12.87,0,0,0,.68-1.63,13,13,0,0,0,.6-3c.23-2-.47-8.81-.63-10.27Z" transform="translate(-6 -36.92)"/><path class="cls-2" d="M161.05,112.73c-.26,0-.47,0-.71,0s-.45,0-.68,0c-.16-.61-.36-1.24-.56-1.85-.34,0-.68,0-1,0l-.85,0c-.21.61-.39,1.23-.55,1.85-.12,0-.24,0-.37,0l-.4,0c.39-1,1.6-4.27,2.29-6.35a1.64,1.64,0,0,0,.32.05,1.71,1.71,0,0,0,.3-.05c.69,2.08,1.63,4.85,2.24,6.35m-2.14-2.4c-.23-.73-.45-1.45-.72-2.18-.27.73-.53,1.45-.75,2.18Z" transform="translate(-6 -36.92)"/><path class="cls-2" d="M168.13,109c0-1,0-1.72-.06-2.53a4,4,0,0,0,.66,0,3.86,3.86,0,0,0,.66,0c0,.81-.06,1.49-.06,2.53v1.24c0,1,0,1.73.06,2.53-.17,0-.39,0-.66,0s-.48,0-.66,0c.05-.8.06-1.51.06-2.53Z" transform="translate(-6 -36.92)"/><path class="cls-2" d="M182.17,111.55a2.89,2.89,0,0,0-.19.81,3.36,3.36,0,0,1-1.65.37,2.85,2.85,0,0,1-3-3c0-2.52,1.51-3.5,3.21-3.5a3.16,3.16,0,0,1,1.64.46,3.56,3.56,0,0,0-.17.91h-.12a1.64,1.64,0,0,0-1.4-.8c-.86,0-1.83.85-1.83,2.8s1,2.62,1.91,2.62a2.08,2.08,0,0,0,1.47-.69Z" transform="translate(-6 -36.92)"/><path class="cls-2" d="M194.81,111.55a3.79,3.79,0,0,0-.18.81,3.32,3.32,0,0,1-1.64.37,2.84,2.84,0,0,1-3-3c0-2.52,1.51-3.5,3.2-3.5a3.14,3.14,0,0,1,1.65.46,3.58,3.58,0,0,0-.18.91h-.12a1.62,1.62,0,0,0-1.39-.8c-.86,0-1.84.85-1.84,2.8s1,2.62,1.92,2.62a2.08,2.08,0,0,0,1.46-.69Z" transform="translate(-6 -36.92)"/><path class="cls-2" d="M198.77,114.63H151.72V104.38h47.05Zm-46.66-.4h46.26v-9.45H152.11Z" transform="translate(-6 -36.92)"/><path class="cls-2" d="M51,107.21a5.26,5.26,0,0,0,1.31.67c.06,0,.23-.16.5-.46a7.35,7.35,0,0,0,.48-.62l-1.36-.72-.86.68a3.2,3.2,0,0,1-1.19-.68c-.54.6-.87,1-.95,1.08a6.07,6.07,0,0,0,1.33.69c.38-.35.63-.56.74-.64m7.09,8.44a8.89,8.89,0,0,1-1.15-.71,6.44,6.44,0,0,1-.49.57,2.1,2.1,0,0,0-.4.58,5.46,5.46,0,0,0,1.28.73,4.39,4.39,0,0,1,.66-.71,5.1,5.1,0,0,0,1.23.71s.21-.16.46-.48.3-.41.46-.61l-1.32-.83Zm4.84-.22a2.28,2.28,0,0,0-.69-.53,3.19,3.19,0,0,0-.64.53c-.37.36-.56.57-.56.63s.18.25.55.53.58.45.67.45c.84-.47,1.26-.79,1.26-1s-.19-.28-.59-.64M58.63,113c.18.68.57,1,1.13,1h4.58c.33,0,.49-.8.49-2.43A4.19,4.19,0,0,0,64.5,110a3.29,3.29,0,0,0-.91-1.27l-1,1.66a3.09,3.09,0,0,1,.63.85,2,2,0,0,1,.38,1,0,0,0,0,1,0,0H60.33a.66.66,0,0,1-.74-.74,4,4,0,0,1,0-.6,4.8,4.8,0,0,0,.07-.58v-.85c-.24.24-.49.49-.72.74a1.45,1.45,0,0,0-.48.81v.62a1.19,1.19,0,0,1-.13.6h-3c-.42,0-.67-.14-.75-.37a17.41,17.41,0,0,1-.5-2.27c-.2-1.24-.35-2-.44-2.41l-.09-.06-1,1.66a2.79,2.79,0,0,0,.17.48c-.59.34-1.18.66-1.76,1a2.55,2.55,0,0,0-.9.92,9.08,9.08,0,0,0-.64,1.94l2.9.51c.15,0,.34-.14.56-.53a7.09,7.09,0,0,1,.47-.76c.13.35.23.69.33,1a.88.88,0,0,0,.79.61H58c.31-.55.51-.89.61-1m-7-1.64a2.32,2.32,0,0,1,.61-.41,5.53,5.53,0,0,0,.72-.78l.29,1.41Zm28-3.85c-.52-.32-.81-.54-.86-.68a1.53,1.53,0,0,1-.09-.53l-.1-.08a8.26,8.26,0,0,0-1.14,1.88,2.61,2.61,0,0,0,.5.5,9.86,9.86,0,0,1,.35,1.7,16.37,16.37,0,0,1,.21,1.8.47.47,0,0,1-.05.16H76.28c.12-.2.22-.38.35-.57a1.42,1.42,0,0,0,.2-.58,1.45,1.45,0,0,0-.72-1.15,2.42,2.42,0,0,0-1.33-.44,2.15,2.15,0,0,0-1.66.56,7.86,7.86,0,0,0-.83,1.54l.58-.08a1.48,1.48,0,0,1,1.25.72H71.81a1.86,1.86,0,0,1-1.55-.7c-.33-.48-.64-1-1-1.44a6.48,6.48,0,0,0-.52.8,2.78,2.78,0,0,0-.39.74,4.57,4.57,0,0,0,.46.63,1.84,1.84,0,0,1,.47.87c0,.38-.45.86-1.35,1.46a4.14,4.14,0,0,1-2,.89,2.16,2.16,0,0,1-1-.32c-.38-.21-.57-.32-.53-.32s-.08,0-.08,0v.21a5.4,5.4,0,0,0,1.57,1,4.18,4.18,0,0,0,1.74.57,2.06,2.06,0,0,0,1.62-1c.32-.58.66-1.17,1-1.75l.09-.09a1.51,1.51,0,0,0,.61.19H74.3c.23-.36.41-.62.52-.8.2.34.37.62.46.8h3.63c.16-.08.24-.13.25-.16a3.07,3.07,0,0,0,.29-1,4.88,4.88,0,0,0,.16-1l-.2-2.17,1.25-1.63a9.28,9.28,0,0,1-1-.56m3.55-.64A8.34,8.34,0,0,0,82,109l.71,5.17a3.94,3.94,0,0,0,.94-2.72,34.7,34.7,0,0,0-.46-4.55" transform="translate(-6 -36.92)"/><path class="cls-2" d="M89.65,109.28a2.36,2.36,0,0,0,.55-.52,3.23,3.23,0,0,0,.53-.65l-1.37-.78a4,4,0,0,0-1,1.08c0,.1.45.4,1.34.87m4.47,6.19a3.85,3.85,0,0,1-1.09-.69,13.15,13.15,0,0,0-.91,1.1,2.72,2.72,0,0,0,1.24.69s.13-.09.32-.29.22-.24.32-.37l1.24.73a4.15,4.15,0,0,0,.91-1.09l-1.25-.78c-.3.27-.57.49-.78.7m7.16-5.37c0-.17-.08-.35-.11-.53a.41.41,0,0,0-.43-.26,2.77,2.77,0,0,0-1.5.62,3.21,3.21,0,0,0-1.13,1.23,4.31,4.31,0,0,1-.53,1H96.07c-.08,0-.14-.07-.21-.24a14.42,14.42,0,0,1-.37-1.62c-.11-.54-.18-1.09-.26-1.64-.29.39-.56.81-.83,1.21a1.57,1.57,0,0,1-1.27.6.82.82,0,0,1-.7-.43c-.13-.26-.28-.5-.41-.75L91.18,111c.18.41.38.82.57,1.23a3.64,3.64,0,0,1,.37,1.23c0,.29-.38.54-1.14.76a6.53,6.53,0,0,1-1.55.23c-1.36,0-2-.56-2-1.64a9.14,9.14,0,0,1,.69-2.28l-.06-.07A3,3,0,0,0,87,112a5.84,5.84,0,0,0-.47,2c0,1.47.83,2.2,2.48,2.2a4.13,4.13,0,0,0,2.9-1,3.4,3.4,0,0,0,1-2.79v-.13l.06,0a1.75,1.75,0,0,0,1-.46,2.29,2.29,0,0,0,.67-.93c0,.11.11.58.25,1.39a10.86,10.86,0,0,0,.34,1.35.54.54,0,0,0,.53.36h1.6c.12,0,.27-.18.45-.52a1.43,1.43,0,0,1,.38-.59,11.86,11.86,0,0,1,2.6,1.11c.19-.31.38-.61.58-.91a2.24,2.24,0,0,0,.4-1,3,3,0,0,0-.22-1q-.14-.48-.33-1m-2.18,1.06a1.29,1.29,0,0,1,.72-.28l.09,0a2.86,2.86,0,0,1,.32.75Zm3.78-4.54a3.63,3.63,0,0,1,1.72-.63,3.19,3.19,0,0,0,.34-.48c-1,0-1.56-.12-1.68-.35a2,2,0,0,1,.42-.21l.45.26a2.17,2.17,0,0,1,.3-.41.24.24,0,0,0-.17-.23.61.61,0,0,0-.31-.09,1.06,1.06,0,0,0-.77.38,1.15,1.15,0,0,0-.36.8c0,.06.1.13.28.21l.41.12-.37.29c-.16.13-.26.25-.26.34m5,1.13,1.37.68a2.92,2.92,0,0,0,1-1.11l-1.37-.71-.45.37a2.05,2.05,0,0,1-.41.29,3.26,3.26,0,0,1-1.2-.66l-1,1a3.33,3.33,0,0,0,1.34.76c.08,0,.33-.22.74-.64m5.11-.19a2.61,2.61,0,0,1-.85-.66,2.23,2.23,0,0,1-.09-.54l-.09-.06a7.36,7.36,0,0,0-1.12,1.85,3.12,3.12,0,0,0,.49.48,9.86,9.86,0,0,1,.34,1.67,13.67,13.67,0,0,1,.21,1.77.22.22,0,0,1-.06.14h-2c-.06,0-.15-.08-.24-.25a.74.74,0,0,1-.16-.36,6.32,6.32,0,0,1,.07-.67,3.75,3.75,0,0,0,.09-.67v-.72c-.23.22-.46.46-.68.7s-.47.62-.47.78a2.87,2.87,0,0,1-.14,1.19h-2.9c-.3,0-.48-.08-.5-.25a18.07,18.07,0,0,1-.34-2.76c-.07-1-.13-1.91-.2-2.88a9.19,9.19,0,0,0-.6.71,2.69,2.69,0,0,0-.48.73l.55,6.2h4.12a10.15,10.15,0,0,1,.58-1c.17.68.51,1,1,1h2.68c.16-.08.24-.13.25-.17a2.78,2.78,0,0,0,.29-.94,3.25,3.25,0,0,0,.13-1l-.18-2.14,1.24-1.59a9,9,0,0,1-1-.55m2.31,1.43.72,5.09a4,4,0,0,0,.91-2.68,32.26,32.26,0,0,0-.46-4.48,8.93,8.93,0,0,0-1.17,2.07m7.63-1.75a4.43,4.43,0,0,0,1.31.66c.06,0,.22-.15.48-.46a4.46,4.46,0,0,0,.46-.59l-1.33-.71-.84.66a3.09,3.09,0,0,1-1.18-.66c-.53.58-.83.93-.93,1a5.11,5.11,0,0,0,1.3.68c.39-.35.62-.56.73-.63m8.29,3.2L129.34,109c1.5-.46,2.62-.8,3.37-1q.27-1,.45-1.74l-5,1.46-.26,1a4.25,4.25,0,0,0-.16,1c0,.1.18.34.57.73s.61.61.72.61a.29.29,0,0,0,.26-.2l1.78,1.35h-3.91c-.41,0-.66-.12-.74-.36a17.47,17.47,0,0,1-.5-2.22c-.18-1.21-.34-2-.43-2.37l-.08-.05-1,1.63a4.38,4.38,0,0,0,.16.47l-1.73,1a2.44,2.44,0,0,0-.88.9,10.35,10.35,0,0,0-.63,1.91l2.87.5c.13,0,.3-.14.53-.52a3.3,3.3,0,0,1,.47-.74c.11.35.21.69.32,1a.84.84,0,0,0,.78.61h5.69a12.2,12.2,0,0,0,.52-1.87c0-.3-.46-.86-1.39-1.65m-7.68.91a2.21,2.21,0,0,1,.6-.41,5.24,5.24,0,0,0,.7-.77l.29,1.39Zm20.17-3.93a2.11,2.11,0,0,0,.5.33,1.38,1.38,0,0,0,.49-.31,2.88,2.88,0,0,0,.47-.46,3.87,3.87,0,0,0-1-.84,1.54,1.54,0,0,0-.49.39c-.27.27-.42.42-.42.48s.15.18.42.41m.53,1.23a13.31,13.31,0,0,0,1.31.69c.09,0,.26-.15.52-.47a2.76,2.76,0,0,0,.45-.6l-1.36-.75-.43.41a1.29,1.29,0,0,1-.41.29,3.72,3.72,0,0,1-1.16-.66c-.08,0-.25.16-.52.46a3.2,3.2,0,0,0-.48.58,2.91,2.91,0,0,0,1.34.71l.74-.66m2.23,2a1.82,1.82,0,0,0-.49.88,1.09,1.09,0,0,0,0,.27c0,.12,0,.23,0,.29a.09.09,0,0,1-.05.08h-1.12s-.05,0-.05-.06a3.55,3.55,0,0,1,.24-1,5,5,0,0,0,.22-.89v-.11c-.38.12-.79.59-1.21,1.39a2.8,2.8,0,0,0-.13.65h-1.66a7.26,7.26,0,0,0,.47-1.77l0-.41a2.31,2.31,0,0,0-.7.63,1.5,1.5,0,0,0-.45.74,1.61,1.61,0,0,1-.22.81H139.8a1.81,1.81,0,0,1-1.52-.67c-.32-.48-.64-1-.95-1.43-.08.11-.25.37-.52.8a4.22,4.22,0,0,0-.38.72,5,5,0,0,0,.46.63,1.69,1.69,0,0,1,.45.86c0,.36-.43.84-1.3,1.42a4.17,4.17,0,0,1-2,.88,2.21,2.21,0,0,1-1-.31,4,4,0,0,1-.51-.32s-.08,0-.08,0V115a5.48,5.48,0,0,0,1.54,1,4.19,4.19,0,0,0,1.7.56,2,2,0,0,0,1.59-1l1-1.72.08-.1a1.46,1.46,0,0,0,.62.2h2c.09,0,.19-.07.31-.2a1.39,1.39,0,0,1,.25-.25,1.13,1.13,0,0,1,.15.45h2.07c.11-.13.19-.2.24-.26a.94.94,0,0,1,.18.26h2.4c.13-.36.26-.69.39-1a3,3,0,0,0,.21-1.08V110a3.63,3.63,0,0,0-.71.74" transform="translate(-6 -36.92)"/><path class="cls-2" d="M8,107.24a4.58,4.58,0,0,0,1.29.66c.06,0,.22-.15.48-.46a3.72,3.72,0,0,0,.46-.59l-1.32-.71-.83.66a3.08,3.08,0,0,1-1.17-.66c-.53.58-.84.92-.94,1a5.69,5.69,0,0,0,1.31.68,7,7,0,0,1,.72-.63M15,115.49a7.51,7.51,0,0,1-1.12-.69c-.15.2-.31.38-.48.57a2.21,2.21,0,0,0-.4.55,4.73,4.73,0,0,0,1.27.72,3.07,3.07,0,0,1,.64-.68,6,6,0,0,0,1.18.68c.07,0,.23-.15.47-.48l.46-.59-1.29-.8ZM20,107.34a11.23,11.23,0,0,1-1.41-.76l-1.21,1.26a15.22,15.22,0,0,1,1.56.74A9.59,9.59,0,0,0,20,107.34m-4.52,5.57c.18.67.54,1,1.1,1h3.95a13.61,13.61,0,0,0,.35-2.32,3.23,3.23,0,0,0-.35-1.46,10.44,10.44,0,0,0-.83-1.26l-.91,1.53a7.88,7.88,0,0,1,1,1.77H17.16a.64.64,0,0,1-.72-.72c0-.13,0-.32,0-.57a3,3,0,0,0,.06-.57v-.84l-.69.72a1.48,1.48,0,0,0-.48.81v.59a1,1,0,0,1-.13.58h-3c-.41,0-.65-.12-.74-.36a15.23,15.23,0,0,1-.48-2.21c-.21-1.21-.35-2-.45-2.36l-.08-.05-.93,1.62a1.87,1.87,0,0,0,.16.47l-1.73,1a2.66,2.66,0,0,0-.88.89,8.51,8.51,0,0,0-.61,1.91l2.83.5c.14,0,.31-.14.55-.52a3.79,3.79,0,0,1,.45-.74c.11.33.21.67.32,1a.86.86,0,0,0,.78.6h3.44c.3-.54.48-.87.59-1m-6.89-1.58a2.94,2.94,0,0,1,.61-.41,5.5,5.5,0,0,0,.71-.77l.27,1.39Zm16-1.91a2.41,2.41,0,0,0-1.28,1.22,3.54,3.54,0,0,0-.55,1.7c0,.91.36,1.36,1.06,1.36a1.17,1.17,0,0,0,.89-.29,4.16,4.16,0,0,0,.46-.85.63.63,0,0,1,0,.19,1.32,1.32,0,0,1-.08.43A4.19,4.19,0,0,1,24,114.65a4.83,4.83,0,0,1-1.68,1,7.73,7.73,0,0,1-1.08.1,4.78,4.78,0,0,0-1,.12V116a5.56,5.56,0,0,0,3.21.61c.81,0,1.47-.55,2-1.68a6.26,6.26,0,0,0,.67-2.76,3.86,3.86,0,0,0-.33-1.58,1.82,1.82,0,0,0-1.05-1.13m.05,2.52a2,2,0,0,1-.47.15,1.32,1.32,0,0,1-.71-.3,1,1,0,0,1,.25-.41.53.53,0,0,1,.4-.19.48.48,0,0,1,.39.23.87.87,0,0,1,.14.48Zm12.54-4.19,1.36.66a2.7,2.7,0,0,0,1-1.09l-1.36-.71a5.37,5.37,0,0,0-.44.37,1.78,1.78,0,0,1-.41.29,3.18,3.18,0,0,1-1.2-.66l-1,1a3.34,3.34,0,0,0,1.34.75,3.41,3.41,0,0,0,.73-.63m5.07-.19a2.56,2.56,0,0,1-.83-.66,2.14,2.14,0,0,1-.09-.54l-.11,0a8.22,8.22,0,0,0-1.1,1.83,2.82,2.82,0,0,0,.49.49,10.57,10.57,0,0,1,.34,1.65,14.18,14.18,0,0,1,.21,1.76.23.23,0,0,1,0,.15h-2c-.07,0-.17-.08-.26-.25a.84.84,0,0,1-.15-.36,5.54,5.54,0,0,1,.06-.67,3.09,3.09,0,0,0,.1-.66v-.73c-.24.23-.46.47-.67.71s-.49.6-.49.77a3.2,3.2,0,0,1-.12,1.19h-3.2c.12-.18.24-.37.33-.54a1.08,1.08,0,0,0,.21-.56,1.35,1.35,0,0,0-.69-1.13,2.29,2.29,0,0,0-1.31-.44,2.08,2.08,0,0,0-1.6.55,6.85,6.85,0,0,0-.83,1.51l.57-.08a1.44,1.44,0,0,1,1.22.69H29.65c-.3,0-.47-.08-.51-.25a19.07,19.07,0,0,1-.34-2.75c-.07-1-.14-1.9-.19-2.86a7.66,7.66,0,0,0-.61.7,2.44,2.44,0,0,0-.45.73l.54,6.17h4.48c.22-.35.4-.62.5-.8.21.35.36.61.46.8h3.81a9.37,9.37,0,0,1,.58-1c.15.67.49,1,1,1H41.6a.82.82,0,0,0,.26-.17,3.7,3.7,0,0,0,.28-.93,3.81,3.81,0,0,0,.14-1l-.18-2.12,1.22-1.59c-.28-.13-.61-.32-1-.55m3.48-.63a7.93,7.93,0,0,0-1.16,2l.7,5.06a3.9,3.9,0,0,0,.92-2.66,36.92,36.92,0,0,0-.46-4.45" transform="translate(-6 -36.92)"/><path class="cls-3" d="M175.2,102.74c-31.75-18.44-21.67-53.49-21.11-58.47,12.76,6.19,21.11,5.44,21.11,5.44Z" transform="translate(-6 -36.92)"/><path class="cls-4" d="M175.2,102.74C207,84.3,196.87,49.25,196.31,44.27c-12.76,6.19-21.11,5.44-21.11,5.44Z" transform="translate(-6 -36.92)"/><path class="cls-5" d="M175.2,102.74C207,84.3,196.87,49.25,196.31,44.27c-12.76,6.19-21.11,5.44-21.11,5.44Z" transform="translate(-6 -36.92)"/><path class="cls-6" d="M175.2,102.74c27.05-19.94,21.67-53.49,21.11-58.47-12.76,6.19-21.11,5.44-21.11,5.44Z" transform="translate(-6 -36.92)"/><path class="cls-2" d="M29.3,46.1V50a6.31,6.31,0,0,0,1.76,4.52,5.45,5.45,0,0,0,4.12,1.81,5.26,5.26,0,0,0,2.92-.85,5.76,5.76,0,0,0,2.07-2.22H75a3.92,3.92,0,0,0,3.35,1.65,4.06,4.06,0,0,0,4.15-4.28,4.12,4.12,0,0,0-4.15-4.33,4.06,4.06,0,0,0-4.19,4.26,4.38,4.38,0,0,0,0,.5l0,.09H63.89A3.36,3.36,0,0,0,64.36,49V45.9a7.76,7.76,0,0,1,.16-1.67,3.47,3.47,0,0,0-.93-.15c-.76,0-1.33.38-1.33,1s0,1.24,0,1.85v2.16a3.4,3.4,0,0,1-.22,1.41,1.3,1.3,0,0,1-1.26.63H40.9A6.4,6.4,0,0,0,41,50V45.18a4.45,4.45,0,0,1,.11-1,3.35,3.35,0,0,0-.93-.15c-.75,0-1.32.38-1.32,1s0,1.42,0,2.11v2.55a5.28,5.28,0,0,1-.9,3.11,3.47,3.47,0,0,1-5.69,0,5.29,5.29,0,0,1-.92-3.11v-4a6.93,6.93,0,0,1,.16-1.58,3.47,3.47,0,0,0-.93-.15c-.76,0-1.33.38-1.33,1,0,.33,0,.65,0,1Zm48.94,2.09a2.22,2.22,0,0,1,2.08,2.46,2.08,2.08,0,0,1-2,2.35,2.22,2.22,0,0,1-2.11-2.44,2.13,2.13,0,0,1,2-2.37" transform="translate(-6 -36.92)"/><path class="cls-2" d="M86,39.06h-1.5a.73.73,0,0,1-.34-.68.66.66,0,0,1,.63-.7.47.47,0,0,1,.52.4l.67-.35a1.25,1.25,0,0,0-1.17-.81,1.44,1.44,0,0,0-1.44,1.5,3.63,3.63,0,0,0,.16.64h-.73v.86H86Z" transform="translate(-6 -36.92)"/><path class="cls-2" d="M120.6,53.28h2.06V46c0-1.25,0-2.43.08-3.4a8.49,8.49,0,0,1,.18-1.87,3.75,3.75,0,0,0-1-.15c-.79,0-1.39.4-1.39,1.09s0,1.26,0,1.88Z" transform="translate(-6 -36.92)"/><path class="cls-2" d="M85.5,49.08V42.85c0-.16,0-.31,0-.46a8.1,8.1,0,0,1,.17-1.83,4,4,0,0,0-1-.15c-.78,0-1.37.39-1.37,1.07,0,1.5.07,2.92.07,4.37h0v4.06a3.62,3.62,0,0,0,.73,2.4,2.78,2.78,0,0,0,2.3,1h29.1c2.07,0,3.11-1.11,3.11-3.35V45.76c0-1.15,0-2.23.09-3.13a8.38,8.38,0,0,1,.17-1.87,3.69,3.69,0,0,0-1-.15c-.79,0-1.39.4-1.39,1.09l0,1.07v6.46a4.09,4.09,0,0,1-.15,1.33,1.32,1.32,0,0,1-1.32.61h-7.54a3.53,3.53,0,0,0,.44-2.15V47.09c0-.41,0-.81,0-1.17a8.1,8.1,0,0,1,.17-1.83,3.57,3.57,0,0,0-1-.16c-.78,0-1.37.4-1.37,1.08s0,1.2,0,1.79v2.33a3.24,3.24,0,0,1-.22,1.41,1.28,1.28,0,0,1-1.25.63H87.68a3,3,0,0,1-1.59-.31,2.11,2.11,0,0,1-.59-1.78" transform="translate(-6 -36.92)"/><path class="cls-2" d="M107.42,43.41a1.25,1.25,0,1,0-1.25-1.24,1.24,1.24,0,0,0,1.25,1.24" transform="translate(-6 -36.92)"/><path class="cls-2" d="M103.83,43.41a1.25,1.25,0,1,0-1.24-1.24,1.25,1.25,0,0,0,1.24,1.24" transform="translate(-6 -36.92)"/><path class="cls-2" d="M62,56.35a1.25,1.25,0,1,0,1.25-1.24A1.25,1.25,0,0,0,62,56.35" transform="translate(-6 -36.92)"/><path class="cls-2" d="M35.11,43.41a1.25,1.25,0,1,0-1.25-1.24,1.25,1.25,0,0,0,1.25,1.24" transform="translate(-6 -36.92)"/><path class="cls-2" d="M58.45,56.35a1.24,1.24,0,1,0,1.24-1.24,1.24,1.24,0,0,0-1.24,1.24" transform="translate(-6 -36.92)"/></svg>