<svg id="ALLIANZ" xmlns="http://www.w3.org/2000/svg" xmlns:xlink="http://www.w3.org/1999/xlink" viewBox="0 0 193 49.96"><defs><style>.cls-1{fill:none;}.cls-2,.cls-3{fill:#114c92;}.cls-2{fill-rule:evenodd;}.cls-4{clip-path:url(#clip-path);}</style><clipPath id="clip-path" transform="translate(-6 -52.85)"><rect class="cls-1" x="6" y="52.85" width="193" height="49.96"/></clipPath></defs><g id="layer1"><g id="g39870"><path id="path37627" class="cls-2" d="M23.46,79.8H16.39l3.76-12.22ZM13.07,92.16l2.22-7.45h9.06l2.21,7.45h7.52l-8-28.28c-.44-1.85-1.33-2.45-3.32-2.45h-11V64h.88c1.33,0,2,.42,2,1.44A5.3,5.3,0,0,1,14,68L6,92.16" transform="translate(-6 -52.85)"/><path id="path37629" class="cls-3" d="M43.58,92.16V63.68c0-1.48-.88-2.25-2.43-2.25H34.3V64h.44c1.33,0,2,.55,2,1.75V92.16" transform="translate(-6 -52.85)"/><path id="path37631" class="cls-3" d="M56,92.16V63.68c0-1.48-.88-2.25-2.43-2.25H46.68V64h.44c1.33,0,2,.55,2,1.75V92.16" transform="translate(-6 -52.85)"/><path id="path37633" class="cls-2" d="M68.56,64.15c0-2-1.54-3.23-4-3.23-2.65,0-4,1.19-4,3.23s1.32,3.29,4,3.29c2.44,0,4-1.21,4-3.29m-.22,28V71.42a2.08,2.08,0,0,0-2.21-2.27H59.28v2.49h.44c1.33,0,1.77.56,1.77,1.82v18.7" transform="translate(-6 -52.85)"/><path id="path37635" class="cls-2" d="M84.7,81v4.6a6.3,6.3,0,0,1-4.2,2.08c-1.32,0-2-.64-2-2.36,0-1.91.44-2.64,2-3.23A17.8,17.8,0,0,1,84.7,81M75,75.49l.66-.27A19.77,19.77,0,0,1,79.84,74a18.94,18.94,0,0,1,2-.18c2.21,0,2.87.73,2.87,2.77v.57c-3.09.51-4,.69-5.75,1.06a17.57,17.57,0,0,0-2.65.89c-2.87,1.15-4.2,3.36-4.2,6.83,0,4.35,1.77,6.43,5.75,6.43a8,8,0,0,0,4.2-1.06,8.72,8.72,0,0,0,2.87-2V90c0,1.43.67,2.12,2,2.12h6.64V89.79h-.23c-1.32,0-2-.59-2-1.79V76.71c0-5.88-2-7.87-7.74-7.87a23.42,23.42,0,0,0-5.53.64,16.44,16.44,0,0,0-4.64,1.77" transform="translate(-6 -52.85)"/><path id="path37637" class="cls-2" d="M103.94,92.16V76.55c1.54-1.44,2.65-2,4.2-2s2,.66,2,3V92.16H117V76.46c0-3.22-.44-4.62-1.33-5.83a5.47,5.47,0,0,0-4.42-1.75c-2.65,0-4.64,1-7.74,3.65V71.29c0-1.44-.66-2.14-2-2.14H94.87v2.49h.22c1.33,0,2,.56,2,1.82v18.7" transform="translate(-6 -52.85)"/><g class="cls-4"><g id="g37643"><path id="path37645" class="cls-3" d="M138.2,87.76H128l9.73-13.89V69.14H123.17c-1.77,0-2.43.71-2.43,2.41v4.18h2.43v-.46c0-1.26.66-1.77,2-1.77h5.31l-10,13.88v4.78H138.2" transform="translate(-6 -52.85)"/><path id="path37647" class="cls-2" d="M177.33,90.9V64.85c0-2.1-.88-2.78-2.87-2.78h-6v2.87h.66c1.11,0,1.55.42,1.55,1.71V90.9Zm3.54,0h6.41V71.24c0-2-.88-2.78-2.87-2.78h-3.54Zm-13.7,0V68.46h-3.54c-2,0-2.88.79-2.88,2.78V90.9ZM194.8,77.81C194.8,90,186,98.88,174,98.88S153.24,90,153.24,77.81,162.08,56.74,174,56.74s20.78,8.89,20.78,21.07m4.2,0c0-14.26-10.61-25-25-25-14.15,0-25,10.7-25,25s10.83,25,25,25c14.37,0,25-10.7,25-25" transform="translate(-6 -52.85)"/></g></g></g></g></svg>