<svg id="AMANA" xmlns="http://www.w3.org/2000/svg" viewBox="0 0 193 43.96"><defs><style>.cls-1{fill:#6b87ba;}.cls-2{fill:#004987;}.cls-3{fill:#002d5d;}.cls-4{fill:#021d49;}.cls-5{fill:#fff;}.cls-6{fill:#54565a;}</style></defs><path class="cls-1" d="M115.9,68.39a9.42,9.42,0,0,0-5.54-8.59,9.51,9.51,0,0,1,.83,3.88,9.39,9.39,0,0,1-1.26,4.71,9.39,9.39,0,0,1,1.26,4.71,9.51,9.51,0,0,1-.83,3.88,9.42,9.42,0,0,0,5.54-8.59" transform="translate(-6 -54.26)"/><path class="cls-1" d="M93.61,68.39a9.41,9.41,0,0,1-.42-8.59,9.42,9.42,0,0,0,0,17.18,9.41,9.41,0,0,1,.42-8.59" transform="translate(-6 -54.26)"/><path class="cls-1" d="M101.77,76.55a9.44,9.44,0,0,1-8.58.43,9.42,9.42,0,0,0,17.17,0,9.46,9.46,0,0,1-8.59-.43" transform="translate(-6 -54.26)"/><path class="cls-1" d="M101.77,60.23a9.46,9.46,0,0,1,8.59-.43,9.42,9.42,0,0,0-17.17,0,9.44,9.44,0,0,1,8.58.43" transform="translate(-6 -54.26)"/><path class="cls-2" d="M109.93,68.39a9.47,9.47,0,0,1-4.28,3.88,9.47,9.47,0,0,1-3.88,4.28,9.46,9.46,0,0,0,8.59.43,9.51,9.51,0,0,0,.83-3.88,9.39,9.39,0,0,0-1.26-4.71" transform="translate(-6 -54.26)"/><path class="cls-2" d="M101.77,76.55a9.45,9.45,0,0,1-3.87-4.28,9.55,9.55,0,0,1-4.29-3.88A9.41,9.41,0,0,0,93.19,77a9.44,9.44,0,0,0,8.58-.43" transform="translate(-6 -54.26)"/><path class="cls-2" d="M101.77,60.23a9.53,9.53,0,0,1,3.88,4.28,9.47,9.47,0,0,1,4.28,3.88,9.39,9.39,0,0,0,1.26-4.71,9.51,9.51,0,0,0-.83-3.88,9.46,9.46,0,0,0-8.59.43" transform="translate(-6 -54.26)"/><path class="cls-2" d="M93.61,68.39a9.55,9.55,0,0,1,4.29-3.88,9.45,9.45,0,0,1,3.87-4.28,9.44,9.44,0,0,0-8.58-.43,9.41,9.41,0,0,0,.42,8.59" transform="translate(-6 -54.26)"/><path class="cls-3" d="M97.9,72.27a9.4,9.4,0,0,0,3.87,4.28,9.47,9.47,0,0,0,3.88-4.28,9.46,9.46,0,0,1-7.75,0" transform="translate(-6 -54.26)"/><path class="cls-3" d="M105.65,64.51a9.53,9.53,0,0,0-3.88-4.28,9.45,9.45,0,0,0-3.87,4.28,9.46,9.46,0,0,1,7.75,0" transform="translate(-6 -54.26)"/><path class="cls-3" d="M105.65,64.51a9.48,9.48,0,0,1,0,7.76,9.47,9.47,0,0,0,4.28-3.88,9.47,9.47,0,0,0-4.28-3.88" transform="translate(-6 -54.26)"/><path class="cls-3" d="M97.9,64.51a9.55,9.55,0,0,0-4.29,3.88,9.55,9.55,0,0,0,4.29,3.88,9.38,9.38,0,0,1,0-7.76" transform="translate(-6 -54.26)"/><path class="cls-4" d="M105.65,64.51a9.46,9.46,0,0,0-7.75,0,9.38,9.38,0,0,0,0,7.76,9.46,9.46,0,0,0,7.75,0,9.48,9.48,0,0,0,0-7.76" transform="translate(-6 -54.26)"/><path class="cls-5" d="M109.64,73.1a7.87,7.87,0,0,0-7.87-7.86,1,1,0,0,0-1,1V78.94a5.92,5.92,0,0,1-1.27-11.32,1,1,0,0,0,.53-.53,1,1,0,0,0-1.27-1.27,7.87,7.87,0,0,0,2,15.09v1.56a9.43,9.43,0,0,0,1.94,0V80.91a7.86,7.86,0,0,0,6.9-7.81m-6.9-5.84a5.92,5.92,0,0,1,0,11.68Z" transform="translate(-6 -54.26)"/><path class="cls-6" d="M19.39,95.86a7.62,7.62,0,0,1-5.58,2.34,7.52,7.52,0,0,1-5.52-2.28,7.81,7.81,0,0,1,0-11,7.49,7.49,0,0,1,5.52-2.29,7.53,7.53,0,0,1,5.53,2.29,7.53,7.53,0,0,1,2.28,5.52v6.7a1.1,1.1,0,0,1-.32.79,1.08,1.08,0,0,1-.79.32,1.11,1.11,0,0,1-1.12-1.11Zm-5.58-11a5.58,5.58,0,1,0,0,11.16,5.58,5.58,0,0,0,0-11.16" transform="translate(-6 -54.26)"/><path class="cls-6" d="M26.09,97.09a1.12,1.12,0,1,1-2.23,0V83.7a1.12,1.12,0,0,1,2.23,0V84A5.83,5.83,0,0,1,30,82.58a5.9,5.9,0,0,1,4.34,1.8,6.4,6.4,0,0,1,.68.8,7.47,7.47,0,0,1,.69-.8,6.13,6.13,0,0,1,10.47,4.34v8.37a1.12,1.12,0,0,1-2.23,0V88.72a3.91,3.91,0,0,0-7.81,0v8.37A1.11,1.11,0,0,1,35,98.2a1.06,1.06,0,0,1-.78-.32,1.07,1.07,0,0,1-.33-.79V88.72A3.76,3.76,0,0,0,32.76,86,3.81,3.81,0,0,0,30,84.81a3.91,3.91,0,0,0-3.9,3.91Z" transform="translate(-6 -54.26)"/><path class="cls-6" d="M61.8,95.86a7.81,7.81,0,0,1-13.39-5.47,7.81,7.81,0,0,1,13.33-5.52A7.51,7.51,0,0,1,64,90.39v6.7a1.11,1.11,0,0,1-1.12,1.11,1,1,0,0,1-.78-.32,1.07,1.07,0,0,1-.33-.79Zm-5.58-11a5.58,5.58,0,1,0,4,1.64,5.38,5.38,0,0,0-4-1.64" transform="translate(-6 -54.26)"/><path class="cls-6" d="M66.26,83.7a1.13,1.13,0,0,1,1.12-1.12,1.09,1.09,0,0,1,.79.33,1.1,1.1,0,0,1,.32.79v.9a7.26,7.26,0,0,1,12.28,5.24v7.25a1.11,1.11,0,0,1-1.12,1.11,1,1,0,0,1-.78-.32,1.07,1.07,0,0,1-.33-.79V89.84a5,5,0,0,0-10.05,0v7.25a1.1,1.1,0,0,1-.32.79,1.08,1.08,0,0,1-.79.32,1.11,1.11,0,0,1-1.12-1.11Z" transform="translate(-6 -54.26)"/><path class="cls-6" d="M96.39,95.86a7.62,7.62,0,0,1-5.58,2.34,7.81,7.81,0,1,1,7.82-7.81v6.7a1.12,1.12,0,0,1-2.24,0Zm-5.58-11a5.58,5.58,0,1,0,4,1.64,5.35,5.35,0,0,0-4-1.64" transform="translate(-6 -54.26)"/><path class="cls-6" d="M199,77.13c0,.46-.24.68-.71.68h-3.46l-.5,0a.61.61,0,0,1-.48-.66c0-.43.31-.65.91-.68h.07l-.2-.39a2.08,2.08,0,0,1-.12-.68,2.17,2.17,0,0,1,2.19-2.24l.09,0a2.1,2.1,0,0,1,2.07,1.55c0,.5-.2.75-.61.75a.75.75,0,0,1-.48-.16,3.3,3.3,0,0,1-.22-.32c-.08-.13-.14-.23-.18-.28a.56.56,0,0,0-.23-.15,1,1,0,0,0-.42-.07.81.81,0,0,0-.7.3,1.13,1.13,0,0,0-.23.7,1,1,0,0,0,.18.6.77.77,0,0,0,.22.22.94.94,0,0,0,.2.12l.19,0,.12,0h1.59a.62.62,0,0,1,.71.7" transform="translate(-6 -54.26)"/><path class="cls-6" d="M122,94.35a5.35,5.35,0,0,1-1.63-3.85v-.11a7.82,7.82,0,1,0-1.13,4.06,8.07,8.07,0,0,0,1.18,1.48A7.51,7.51,0,0,0,126,98.22V96a5.37,5.37,0,0,1-4-1.63M112.56,96a5.59,5.59,0,1,1,5.58-5.59A5.58,5.58,0,0,1,112.56,96" transform="translate(-6 -54.26)"/><path class="cls-6" d="M172,96v2.24a7.53,7.53,0,0,0,5.53-2.29,8.52,8.52,0,0,0,1.18-1.48,7.83,7.83,0,1,0-1.13-4.06v.11A5.57,5.57,0,0,1,172,96m7.82-5.59A5.59,5.59,0,1,1,185.39,96a5.58,5.58,0,0,1-5.59-5.59" transform="translate(-6 -54.26)"/><path class="cls-6" d="M153.37,84.76a1.09,1.09,0,0,0-.79-.33,1.13,1.13,0,0,0-1.12,1.12v6.52A3.91,3.91,0,0,1,147.55,96h-22v2.24h22a6.16,6.16,0,0,0,6.15-6.15V85.55a1.07,1.07,0,0,0-.33-.79" transform="translate(-6 -54.26)"/><path class="cls-6" d="M197.22,78.55a1.12,1.12,0,0,0-.79-.32,1.1,1.1,0,0,0-.79.32,1.09,1.09,0,0,0-.33.79V97.1a1.13,1.13,0,0,0,1.12,1.12,1.09,1.09,0,0,0,.79-.33,1.06,1.06,0,0,0,.32-.79V79.34a1.08,1.08,0,0,0-.32-.79" transform="translate(-6 -54.26)"/><path class="cls-6" d="M172.38,96H162.32a3.89,3.89,0,0,1-3.91-3.91V79.34a1.09,1.09,0,0,0-.33-.79,1.14,1.14,0,0,0-1.58,0,1.09,1.09,0,0,0-.33.79V92.07a6.15,6.15,0,0,0,6.15,6.15h10.06Z" transform="translate(-6 -54.26)"/><path class="cls-6" d="M153.7,81.88a1.55,1.55,0,1,1-1.55-1.55,1.55,1.55,0,0,1,1.55,1.55" transform="translate(-6 -54.26)"/><path class="cls-6" d="M116.71,80.33a1.55,1.55,0,1,1-1.55-1.54,1.55,1.55,0,0,1,1.55,1.54" transform="translate(-6 -54.26)"/><path class="cls-6" d="M113.14,80.33a1.55,1.55,0,1,1-1.54-1.54,1.55,1.55,0,0,1,1.54,1.54" transform="translate(-6 -54.26)"/></svg>