<svg id="AXA" xmlns="http://www.w3.org/2000/svg" viewBox="0 0 143 143"><defs><style>.cls-1{fill:#2a2f80;}.cls-2{fill:#ee282d;}.cls-3{fill:#fff;}</style></defs><g id="layer1"><g id="g76"><rect id="base-2" class="cls-1" width="143" height="143"/><polygon id="switch" class="cls-2" points="80.4 70.62 88.61 70.62 143 0 134.97 0 80.4 70.62"/><path id="axa-2" data-name="axa" class="cls-3" d="M139.51,108.14c2.49,7,7.63,25.12,9.67,26.56H135.69a22.51,22.51,0,0,0-.63-4.76c-.58-2.07-5.46-17.76-5.46-17.76H108.18L104.82,117s4,12.66,4.29,13.28c.44,1.12,2.37,4.47,2.37,4.47H98.56s-.34-1.93-.46-2.74c-.1-.65-1.23-4.21-1.23-4.21a37.6,37.6,0,0,0-3.72,4.7c-.81,1.48-1.17,2.25-1.17,2.25H81.87s-.33-1.93-.46-2.74c-.1-.65-1.33-4.5-1.33-4.5a51.42,51.42,0,0,0-3.64,4.93c-.8,1.48-1.14,2.31-1.14,2.31h-10s2.82-2.69,3.81-3.84c1.67-2,7.87-10.07,7.87-10.07l-2.49-8.61H53.24s-12.12,15.92-12.6,16.41a49.32,49.32,0,0,0-4.09,6.11H30.24v-4l.25-.24c.19-.14,9.19-11.31,17.45-22.31,7.42-9.6,14.39-18.94,15-19.83a62.09,62.09,0,0,0,3.61-6.79h11a49.32,49.32,0,0,0,.66,5.31c.29.91,7,22.88,7.14,23.12l3.7-4.74L82.71,85.73a35,35,0,0,0-2-4.21H93.58A11.44,11.44,0,0,0,94,85c.53,1.6,3.28,11.53,3.28,11.53s8.75-11,9.26-11.76a6.9,6.9,0,0,0,1.08-3.26h10.7a33.22,33.22,0,0,0-5.39,5.77L100.48,103.1s1,3.36,1.47,5c.13.48.22.8.22.84l.68-.84c2.91-3.7,16.17-21.08,17-22.57a32.53,32.53,0,0,0,2.16-4h10.43a28.2,28.2,0,0,0,.56,4ZM123.63,91.68C122.1,95,113.08,106,113.08,106h14.28s-2.77-8.53-3.25-10.45a15.07,15.07,0,0,1-.28-3.73C123.83,91.6,123.8,91.32,123.63,91.68Zm-54.87,0C67.22,95,58.21,106,58.21,106H72.49s-2.77-8.53-3.25-10.45A15.07,15.07,0,0,1,69,91.78C69,91.6,68.92,91.32,68.76,91.68ZM90.26,125l3.93-5.4c-.36-.39-2.58-7.1-2.58-7.1l-3.8,4.93Z" transform="translate(-30.24 -6)"/></g></g></svg>