<svg id="GGI" xmlns="http://www.w3.org/2000/svg" xmlns:xlink="http://www.w3.org/1999/xlink" viewBox="0 0 193.05 68.61"><defs><style>.cls-1,.cls-2{fill-rule:evenodd;}.cls-1{fill:url(#radial-gradient);}.cls-2{fill:url(#radial-gradient-2);}.cls-3{fill:#2e5dab;}.cls-4{fill:#fff;}.cls-5{fill:#2c3a8f;}.cls-6,.cls-7{fill:#56b7e7;}.cls-7{isolation:isolate;font-size:8.62px;font-family:MicrosoftPhagsPa, Microsoft PhagsPa;}</style><radialGradient id="radial-gradient" cx="32.22" cy="-0.13" r="13.67" gradientTransform="matrix(1, 0, 0, -1.04, 0, 72.5)" gradientUnits="userSpaceOnUse"><stop offset="0" stop-color="#e9f6f5"/><stop offset="0.11" stop-color="#e3f3f5"/><stop offset="0.32" stop-color="#afe1ee"/><stop offset="0.67" stop-color="#5ecaea"/><stop offset="1" stop-color="#5ecaea"/></radialGradient><radialGradient id="radial-gradient-2" cx="29.91" cy="-2.44" r="6.86" gradientTransform="matrix(1, 0, 0, -1.04, 0, 72.5)" gradientUnits="userSpaceOnUse"><stop offset="0.02" stop-color="#79d2f7"/><stop offset="0.24" stop-color="#4191ce"/><stop offset="0.36" stop-color="#1c76bc"/><stop offset="0.52" stop-color="#2e5dab"/><stop offset="0.71" stop-color="#1f3364"/></radialGradient></defs><path class="cls-1" d="M29.48,70A6.48,6.48,0,1,1,23,76.45,6.47,6.47,0,0,1,29.48,70Z" transform="translate(-5.95 -42.93)"/><path class="cls-2" d="M29.48,72.91a3.55,3.55,0,1,1-3.56,3.54,3.54,3.54,0,0,1,3.56-3.54Z" transform="translate(-5.95 -42.93)"/><path class="cls-3" d="M6.58,70C10.18,53.09,28.1,42.93,28.1,42.93L28,65.41s-9.62-.1-17.69,10.6A44.71,44.71,0,0,1,6.58,70Z" transform="translate(-5.95 -42.93)"/><path class="cls-3" d="M10.34,76a43.51,43.51,0,0,1-3.76-6A28.27,28.27,0,0,0,6,75.89C6,97.45,27.88,110,27.88,110L28,88c-8-1.06-14-7.18-17.62-12" transform="translate(-5.95 -42.93)"/><path class="cls-3" d="M6.58,70" transform="translate(-5.95 -42.93)"/><path class="cls-4" d="M6.75,69.26c0,.11-.14.62-.17.74a44.71,44.71,0,0,0,3.76,6l.41-.53A54.15,54.15,0,0,1,6.75,69.26Z" transform="translate(-5.95 -42.93)"/><path class="cls-3" d="M52.44,82.92C48.84,99.83,30.92,110,30.92,110L31,87.51s9.62.1,17.69-10.6A43.56,43.56,0,0,1,52.44,82.92Z" transform="translate(-5.95 -42.93)"/><path class="cls-3" d="M48.68,76.91a42.58,42.58,0,0,1,3.76,6,28.37,28.37,0,0,0,.63-5.9c0-21.56-21.93-34.09-21.93-34.09l-.07,22c8,1.06,14,7.19,17.61,12" transform="translate(-5.95 -42.93)"/><path class="cls-3" d="M52.44,82.92" transform="translate(-5.95 -42.93)"/><path class="cls-4" d="M52.27,83.66c0-.12.15-.63.17-.74a42.81,42.81,0,0,0-3.76-6l-.41.53A52.66,52.66,0,0,1,52.27,83.66Z" transform="translate(-5.95 -42.93)"/><path class="cls-5" d="M74.21,56.44a5.51,5.51,0,0,0,.05.77,1,1,0,0,0,.22.49.93.93,0,0,0,.46.26,3.31,3.31,0,0,0,.79.08h.79a1.05,1.05,0,0,1,.62.14.5.5,0,0,1,.21.46v.79a.77.77,0,0,1-.07.36.49.49,0,0,1-.18.2.67.67,0,0,1-.26.09l-.32,0H75.2A5.38,5.38,0,0,1,73.9,60a3.14,3.14,0,0,1-.88-.38,1.55,1.55,0,0,1-.54-.54,2.38,2.38,0,0,1-.28-.66,6.69,6.69,0,0,1-1.61.74,5.85,5.85,0,0,1-1.55.21,5.17,5.17,0,0,1-1.39-.19,3.88,3.88,0,0,1-1.26-.61,3.12,3.12,0,0,1-1.29-2.64,3.2,3.2,0,0,1,.36-1.53,4.08,4.08,0,0,1,.93-1.22,6.26,6.26,0,0,1,1.32-.93,13.79,13.79,0,0,1,1.52-.7A15.53,15.53,0,0,1,70.77,51l1.37-.39V49.39H74.2v7Zm-2-4a17.3,17.3,0,0,0-2.09.51,9.35,9.35,0,0,0-1.6.69,3.5,3.5,0,0,0-1,.89,1.77,1.77,0,0,0-.38,1.1,1.7,1.7,0,0,0,.21.85,1.73,1.73,0,0,0,.56.55,2.56,2.56,0,0,0,.76.29,3.54,3.54,0,0,0,.86.09,5.37,5.37,0,0,0,1.49-.2,4.64,4.64,0,0,0,1.23-.58V52.42Zm-3.67-5.83a1.1,1.1,0,0,1,.1-.47,1.16,1.16,0,0,1,.26-.39,1,1,0,0,1,.38-.26,1.1,1.1,0,0,1,.47-.1,1.26,1.26,0,0,1,.86.36,1.36,1.36,0,0,1,.27.39,1.28,1.28,0,0,1,.1.47,1.12,1.12,0,0,1-.1.48,1.05,1.05,0,0,1-.27.38,1.21,1.21,0,0,1-.39.26,1.24,1.24,0,0,1-.47.1,1.18,1.18,0,0,1-.86-.35A1.15,1.15,0,0,1,68.49,46.59Zm3.25,0a1.1,1.1,0,0,1,.1-.47,1.33,1.33,0,0,1,.26-.39,1.22,1.22,0,0,1,.38-.26,1.1,1.1,0,0,1,.47-.1,1.12,1.12,0,0,1,.48.1,1.16,1.16,0,0,1,.39.26,1.33,1.33,0,0,1,.26.39,1.1,1.1,0,0,1,.1.47,1.12,1.12,0,0,1-.1.48,1,1,0,0,1-.26.38,1.33,1.33,0,0,1-.39.26,1.29,1.29,0,0,1-.48.1,1.2,1.2,0,0,1-1.21-1.22Z" transform="translate(-5.95 -42.93)"/><path class="cls-5" d="M80,58.52a3.39,3.39,0,0,1-.51.75,2.44,2.44,0,0,1-.58.49,2.47,2.47,0,0,1-.69.26,4.28,4.28,0,0,1-.84.08h-.89A1,1,0,0,1,75.9,60a.5.5,0,0,1-.21-.46v-.79a.85.85,0,0,1,.06-.35.59.59,0,0,1,.18-.2.79.79,0,0,1,.27-.1l.32,0h.54a2.55,2.55,0,0,0,1.27-.32,1.67,1.67,0,0,0,.74-1,15.5,15.5,0,0,1,.74-2.11,9.9,9.9,0,0,1,.86-1.51,5.68,5.68,0,0,1,.92-1,4.94,4.94,0,0,1,.93-.61,3.62,3.62,0,0,1,.88-.29,4.29,4.29,0,0,1,.76-.07,4.42,4.42,0,0,1,1.4.21,4.27,4.27,0,0,1,1.12.59,4.33,4.33,0,0,1,.85.86,5.73,5.73,0,0,1,.61,1,5.66,5.66,0,0,1,.35,1.08,4.85,4.85,0,0,1,.11,1,3.94,3.94,0,0,1-.11.94,4.89,4.89,0,0,1-.35,1,4.29,4.29,0,0,1-.59.91,4,4,0,0,1-.85.77,4.27,4.27,0,0,1-1.12.52,4.76,4.76,0,0,1-1.41.19A6.08,6.08,0,0,1,82.79,60a5.94,5.94,0,0,1-1.17-.39,4.87,4.87,0,0,1-.92-.55A3.89,3.89,0,0,1,80,58.52Zm6.73-2.38a3.64,3.64,0,0,0-.15-1,3.54,3.54,0,0,0-.49-1,2.72,2.72,0,0,0-.82-.8,2.28,2.28,0,0,0-2.41,0,3.45,3.45,0,0,0-1,.93,5.93,5.93,0,0,0-.71,1.32,6.93,6.93,0,0,0-.41,1.53,1.31,1.31,0,0,0,.44.34,8.15,8.15,0,0,0,.77.32,8.6,8.6,0,0,0,.94.24,5.26,5.26,0,0,0,1,.09,7.29,7.29,0,0,0,1.19-.09,2.81,2.81,0,0,0,.9-.32,1.48,1.48,0,0,0,.58-.61A2.22,2.22,0,0,0,86.76,56.14Z" transform="translate(-5.95 -42.93)"/><path class="cls-5" d="M91.92,43.69h2V56a9.35,9.35,0,0,0,0,1,2.15,2.15,0,0,0,.18.64.72.72,0,0,0,.36.33,1.49,1.49,0,0,0,.57.1h.77a1.08,1.08,0,0,1,.62.14.52.52,0,0,1,.2.46v.79a.93.93,0,0,1-.06.36.49.49,0,0,1-.18.2.78.78,0,0,1-.27.09l-.32,0H94.81a3.08,3.08,0,0,1-1.3-.25,2.61,2.61,0,0,1-.91-.7,3.05,3.05,0,0,1-.53-1,4.94,4.94,0,0,1-.17-1.31V43.69Z" transform="translate(-5.95 -42.93)"/><path class="cls-5" d="M100.8,57.49a5.76,5.76,0,0,1-1-.9c-.32-.36-.61-.72-.89-1.08s-.52-.7-.74-1a7.42,7.42,0,0,0-.54-.7c0-.16.08-.34.14-.55s.13-.4.2-.59a3.08,3.08,0,0,1,.23-.51.74.74,0,0,1,.24-.29c.24-.13.52-.27.85-.41a10.57,10.57,0,0,1,1.13-.39,11.94,11.94,0,0,1,1.36-.3,9.68,9.68,0,0,1,1.56-.12,6.59,6.59,0,0,1,1.24.12,4.76,4.76,0,0,1,1.14.36,2.47,2.47,0,0,1,.84.61,1.26,1.26,0,0,1,.32.88,4.69,4.69,0,0,1-.08.84,5.09,5.09,0,0,1-.35,1.1,8.2,8.2,0,0,1-.78,1.35,12,12,0,0,1-1.36,1.61,2.73,2.73,0,0,0,.65.22,6.72,6.72,0,0,0,.85.17l1,.11c.36,0,.73,0,1.11,0h.94a1.05,1.05,0,0,1,.62.14.5.5,0,0,1,.21.46v.79a.77.77,0,0,1-.07.36.55.55,0,0,1-.17.2.78.78,0,0,1-.27.09l-.32,0h-1.55a9.07,9.07,0,0,1-1.71-.15,13.25,13.25,0,0,1-1.44-.35,9.6,9.6,0,0,1-1.11-.43c-.31-.15-.55-.28-.73-.39-.31.17-.65.34-1,.5a10.79,10.79,0,0,1-1.18.43,12.23,12.23,0,0,1-1.32.29,9.93,9.93,0,0,1-1.46.11H95.91a1,1,0,0,1-.62-.14.5.5,0,0,1-.21-.46v-.79a.93.93,0,0,1,.06-.36.58.58,0,0,1,.18-.2.78.78,0,0,1,.27-.09,1.67,1.67,0,0,1,.32,0h1.61c.42,0,.81,0,1.18,0s.69-.08,1-.13a5.75,5.75,0,0,0,.71-.17A1.38,1.38,0,0,0,100.8,57.49Zm4.11-3.77a.81.81,0,0,0-.16-.48,1.56,1.56,0,0,0-.46-.41,3.26,3.26,0,0,0-.75-.29,4.37,4.37,0,0,0-1-.11,6.83,6.83,0,0,0-1.41.17,8.32,8.32,0,0,0-1.66.56,7.74,7.74,0,0,0,.48.76,10,10,0,0,0,.76,1,12.14,12.14,0,0,0,.93,1,5.31,5.31,0,0,0,1,.77,5.08,5.08,0,0,0,1-.74,6.63,6.63,0,0,0,.73-.82,4.1,4.1,0,0,0,.46-.77A1.5,1.5,0,0,0,104.91,53.72Z" transform="translate(-5.95 -42.93)"/><path class="cls-5" d="M108.9,60.1a1,1,0,0,1-.61-.14.5.5,0,0,1-.21-.46v-.79a.85.85,0,0,1,.06-.35.5.5,0,0,1,.18-.2.79.79,0,0,1,.27-.1l.32,0H112V43.68h2V60.09H108.9Z" transform="translate(-5.95 -42.93)"/><path class="cls-5" d="M118,43.69H120V60.11H118Z" transform="translate(-5.95 -42.93)"/><path class="cls-5" d="M137.66,56.44a5.51,5.51,0,0,0,.05.77,1,1,0,0,0,.22.49,1,1,0,0,0,.46.26,3.31,3.31,0,0,0,.79.08h.8a1,1,0,0,1,.61.14.5.5,0,0,1,.21.46v.79a.93.93,0,0,1-.06.36.49.49,0,0,1-.18.2.78.78,0,0,1-.27.09l-.32,0h-1.31a5.33,5.33,0,0,1-1.3-.14,3.22,3.22,0,0,1-.89-.38,1.74,1.74,0,0,1-.54-.54,2.38,2.38,0,0,1-.28-.66,6.46,6.46,0,0,1-1.6.74,5.87,5.87,0,0,1-1.56.21,5,5,0,0,1-1.38-.19,3.83,3.83,0,0,1-1.27-.61,3.41,3.41,0,0,1-.93-4.17,4.44,4.44,0,0,1,.93-1.22,6.08,6.08,0,0,1,1.33-.93,12.28,12.28,0,0,1,1.52-.7,14.55,14.55,0,0,1,1.53-.52l1.38-.39V49.39h2.05v7Zm-2.06-4a17.12,17.12,0,0,0-2.08.51,9.84,9.84,0,0,0-1.61.69,3.76,3.76,0,0,0-1,.89,1.82,1.82,0,0,0-.37,1.1,1.54,1.54,0,0,0,.76,1.4,2.62,2.62,0,0,0,.77.29,3.51,3.51,0,0,0,.85.09,5.44,5.44,0,0,0,1.5-.2,4.64,4.64,0,0,0,1.23-.58V52.42Zm-3.67-5.83a1.1,1.1,0,0,1,.1-.47,1.56,1.56,0,0,1,.26-.39,1.22,1.22,0,0,1,.38-.26,1.12,1.12,0,0,1,.48-.1,1.1,1.1,0,0,1,.47.1,1.16,1.16,0,0,1,.39.26,1.36,1.36,0,0,1,.27.39,1.28,1.28,0,0,1,.1.47,1.12,1.12,0,0,1-.1.48,1.19,1.19,0,0,1-.27.38,1.33,1.33,0,0,1-.39.26,1.28,1.28,0,0,1-.47.1,1.16,1.16,0,0,1-.86-.35A1.19,1.19,0,0,1,131.93,46.59Zm3.26,0a1.1,1.1,0,0,1,.1-.47,1.56,1.56,0,0,1,.26-.39,1.22,1.22,0,0,1,.38-.26,1.12,1.12,0,0,1,.48-.1,1.1,1.1,0,0,1,.47.1,1.16,1.16,0,0,1,.39.26,1.36,1.36,0,0,1,.27.39,1.18,1.18,0,0,1,0,1,1.19,1.19,0,0,1-.27.38,1.33,1.33,0,0,1-.39.26,1.28,1.28,0,0,1-.47.1,1.21,1.21,0,0,1-1.22-1.22Z" transform="translate(-5.95 -42.93)"/><path class="cls-5" d="M145.12,57.34a3.93,3.93,0,0,0,1.21.53,7.39,7.39,0,0,0,1.68.18h.09a1.17,1.17,0,0,1,.62.13.55.55,0,0,1,.2.47v.79a.88.88,0,0,1-.06.35.44.44,0,0,1-.18.2.74.74,0,0,1-.26.1l-.33,0H148a5.41,5.41,0,0,1-2-.31,5,5,0,0,1-1.34-.78,2.54,2.54,0,0,1-.76.77,2.16,2.16,0,0,1-1.21.32H140a1,1,0,0,1-.61-.14.5.5,0,0,1-.21-.46v-.79a.93.93,0,0,1,.06-.36.49.49,0,0,1,.18-.2.78.78,0,0,1,.27-.09,1.62,1.62,0,0,1,.32,0h2.31a.65.65,0,0,0,.57-.33,1.77,1.77,0,0,0,.21-1V51.28h2.05v6.06Zm-4,6.19a1,1,0,0,1,.1-.48,1.22,1.22,0,0,1,.64-.65,1.07,1.07,0,0,1,.47-.1,1.1,1.1,0,0,1,.47.1,1.16,1.16,0,0,1,.39.26,1.36,1.36,0,0,1,.27.39,1.29,1.29,0,0,1,.1.48,1.1,1.1,0,0,1-.1.47,1.15,1.15,0,0,1-.27.38,1.16,1.16,0,0,1-.39.26,1.28,1.28,0,0,1-.47.1,1.12,1.12,0,0,1-.86-.35A1.14,1.14,0,0,1,141.13,63.53Zm3.25,0a1.29,1.29,0,0,1,.1-.48,1.16,1.16,0,0,1,.26-.39,1.42,1.42,0,0,1,.38-.26,1.1,1.1,0,0,1,.47-.1,1.12,1.12,0,0,1,.48.1,1,1,0,0,1,.38.26,1.19,1.19,0,0,1,.27.39,1.18,1.18,0,0,1,0,1,1,1,0,0,1-.27.38,1,1,0,0,1-.38.26,1.29,1.29,0,0,1-.48.1,1.2,1.2,0,0,1-1.21-1.21Z" transform="translate(-5.95 -42.93)"/><path class="cls-5" d="M150.25,51.14c.46-.13.91-.25,1.37-.35a7.37,7.37,0,0,1,1.56-.15,4.13,4.13,0,0,1,1.55.27,3.36,3.36,0,0,1,1.17.77,4,4,0,0,1,.79,1.17,6.21,6.21,0,0,1,.43,1.48c.08.49.15,1,.23,1.41a7.55,7.55,0,0,0,.29,1.18,2.44,2.44,0,0,0,.45.82.89.89,0,0,0,.69.3h1.06a1.08,1.08,0,0,1,.62.14.52.52,0,0,1,.21.46v.79a.92.92,0,0,1-.07.36.49.49,0,0,1-.18.2.73.73,0,0,1-.26.09l-.33,0H148.11a1,1,0,0,1-.61-.14.5.5,0,0,1-.21-.46v-.79a.85.85,0,0,1,.06-.35.5.5,0,0,1,.18-.2.79.79,0,0,1,.27-.1l.32,0h8.12a1.7,1.7,0,0,1-.39-.65,6.11,6.11,0,0,1-.26-1.14c-.07-.45-.14-.9-.24-1.33a3.61,3.61,0,0,0-.46-1.2,2.47,2.47,0,0,0-.85-.85,2.74,2.74,0,0,0-1.44-.32,4.1,4.1,0,0,0-.57,0l-.66.1-.63.14a2.4,2.4,0,0,0-.5.18V51.14Zm1.9,12.39a1.12,1.12,0,0,1,.1-.48,1.16,1.16,0,0,1,.26-.39,1.42,1.42,0,0,1,.38-.26,1.1,1.1,0,0,1,.47-.1,1.12,1.12,0,0,1,.48.1,1,1,0,0,1,.38.26,1.19,1.19,0,0,1,.27.39,1.12,1.12,0,0,1,.1.48,1.1,1.1,0,0,1-.1.47,1,1,0,0,1-.27.38,1,1,0,0,1-.38.26,1.29,1.29,0,0,1-.48.1,1.2,1.2,0,0,1-1.21-1.21Z" transform="translate(-5.95 -42.93)"/><path class="cls-5" d="M165,57.34a3.93,3.93,0,0,0,1.21.53,7.39,7.39,0,0,0,1.68.18H168a1.17,1.17,0,0,1,.62.13.56.56,0,0,1,.21.47v.79a.87.87,0,0,1-.07.35.44.44,0,0,1-.18.2.74.74,0,0,1-.26.1l-.33,0h-.11a5.41,5.41,0,0,1-2-.31,5,5,0,0,1-1.34-.78,2.54,2.54,0,0,1-.76.77,2.16,2.16,0,0,1-1.21.32h-2.73a1,1,0,0,1-.61-.14.5.5,0,0,1-.21-.46v-.79a.93.93,0,0,1,.06-.36.58.58,0,0,1,.18-.2.78.78,0,0,1,.27-.09,1.67,1.67,0,0,1,.32,0h2.31a.65.65,0,0,0,.57-.33,1.77,1.77,0,0,0,.21-1V51.28h2v6.06Zm-4,6.19a1.12,1.12,0,0,1,.1-.48,1.22,1.22,0,0,1,.64-.65,1.1,1.1,0,0,1,.47-.1,1.26,1.26,0,0,1,.86.36,1.36,1.36,0,0,1,.27.39,1.29,1.29,0,0,1,.1.48,1.1,1.1,0,0,1-.1.47,1.15,1.15,0,0,1-.27.38,1.07,1.07,0,0,1-.39.26,1.24,1.24,0,0,1-.47.1A1.2,1.2,0,0,1,161,63.53Zm3.25,0a1.29,1.29,0,0,1,.1-.48,1.16,1.16,0,0,1,.26-.39,1.42,1.42,0,0,1,.38-.26,1.1,1.1,0,0,1,.47-.1,1.12,1.12,0,0,1,.48.1,1.16,1.16,0,0,1,.39.26,1.33,1.33,0,0,1,.26.39,1.12,1.12,0,0,1,.1.48,1.1,1.1,0,0,1-.1.47,1.12,1.12,0,0,1-.26.38,1.16,1.16,0,0,1-.39.26,1.29,1.29,0,0,1-.48.1,1.2,1.2,0,0,1-1.21-1.21Z" transform="translate(-5.95 -42.93)"/><path class="cls-5" d="M173.14,57.31a3.79,3.79,0,0,0,1.24.54,6.4,6.4,0,0,0,1.68.18h.1a1.1,1.1,0,0,1,.61.14.51.51,0,0,1,.21.47v.79a.91.91,0,0,1-.06.35.58.58,0,0,1-.18.2.78.78,0,0,1-.27.09,1.67,1.67,0,0,1-.32,0H176a5.71,5.71,0,0,1-2-.3,4.67,4.67,0,0,1-1.35-.79,2.26,2.26,0,0,1-.76.78,2.19,2.19,0,0,1-1.22.31H168a1.11,1.11,0,0,1-.61-.13.53.53,0,0,1-.21-.47V58.7a.88.88,0,0,1,.06-.35.5.5,0,0,1,.18-.2.79.79,0,0,1,.27-.1l.32,0h2.31a.64.64,0,0,0,.57-.32,1.81,1.81,0,0,0,.21-1V43.67h2V57.31Z" transform="translate(-5.95 -42.93)"/><path class="cls-5" d="M178.3,51.14c.46-.13.91-.25,1.37-.35a7.37,7.37,0,0,1,1.56-.15,4.13,4.13,0,0,1,1.55.27,3.36,3.36,0,0,1,1.17.77,4,4,0,0,1,.79,1.17,6.21,6.21,0,0,1,.43,1.48c.08.49.15,1,.23,1.41a7.55,7.55,0,0,0,.29,1.18,2.44,2.44,0,0,0,.45.82.89.89,0,0,0,.69.3h1.06a1.08,1.08,0,0,1,.62.14.52.52,0,0,1,.21.46v.79a.92.92,0,0,1-.07.36.49.49,0,0,1-.18.2.73.73,0,0,1-.26.09l-.33,0H176.17a1.08,1.08,0,0,1-.62-.14.52.52,0,0,1-.21-.46v-.79a.83.83,0,0,1,.07-.35.44.44,0,0,1,.18-.2.74.74,0,0,1,.26-.1l.33,0h8.12a1.85,1.85,0,0,1-.4-.65,6.21,6.21,0,0,1-.25-1.14c-.07-.45-.14-.9-.24-1.33a3.61,3.61,0,0,0-.46-1.2,2.56,2.56,0,0,0-.85-.85,2.74,2.74,0,0,0-1.44-.32,4.24,4.24,0,0,0-.58,0l-.65.1-.63.14a2.21,2.21,0,0,0-.5.18V51.14Zm1.39-4a1.28,1.28,0,0,1,.1-.47,1.16,1.16,0,0,1,.26-.39,1.46,1.46,0,0,1,.38-.27,1.28,1.28,0,0,1,.47-.1,1.12,1.12,0,0,1,.48.1,1.05,1.05,0,0,1,.38.27,1.19,1.19,0,0,1,.27.39,1.1,1.1,0,0,1,.1.47,1.07,1.07,0,0,1-.1.47,1,1,0,0,1-.27.39,1.14,1.14,0,0,1-.38.25,1.12,1.12,0,0,1-.48.1A1.14,1.14,0,0,1,180,48,1.12,1.12,0,0,1,179.69,47.16Z" transform="translate(-5.95 -42.93)"/><path class="cls-5" d="M187.89,60.1a1.08,1.08,0,0,1-.62-.14.52.52,0,0,1-.21-.46v-.79a.83.83,0,0,1,.07-.35.44.44,0,0,1,.18-.2.74.74,0,0,1,.26-.1l.33,0H191V43.68h2.05V60.09h-5.17Z" transform="translate(-5.95 -42.93)"/><path class="cls-5" d="M196.94,43.69H199V60.11h-2.05Z" transform="translate(-5.95 -42.93)"/><path class="cls-5" d="M143.56,90.14a1.8,1.8,0,0,1,.45-1.33,1.92,1.92,0,0,1,1.38-.44h1.19v1.82a1.76,1.76,0,0,0,0,.43.92.92,0,0,0,.08.25.25.25,0,0,0,.15.1.66.66,0,0,0,.21,0h.42a.48.48,0,0,1,.24,0,.22.22,0,0,1,.08.18v.31a.52.52,0,0,1,0,.14l-.07.08a.19.19,0,0,1-.1,0h-.69a1.23,1.23,0,0,1-.42-.07.91.91,0,0,1-.37-.21,1.05,1.05,0,0,1-.25-.4,1.51,1.51,0,0,1-.1-.6V89.13h-.16a2.86,2.86,0,0,0-.53,0,1,1,0,0,0-.39.16.68.68,0,0,0-.25.34,1.46,1.46,0,0,0-.09.56v1.31a1.81,1.81,0,0,1-.19.81,2.13,2.13,0,0,1-.53.71,2.6,2.6,0,0,1-.85.49,3.41,3.41,0,0,1-1.14.19,4.21,4.21,0,0,1-1.07-.12,3.1,3.1,0,0,1-.78-.32,2.25,2.25,0,0,1-.55-.45,2.73,2.73,0,0,1-.34-.52,2.08,2.08,0,0,1-.18-.51,1.8,1.8,0,0,1-.05-.44,3.63,3.63,0,0,1,.14-.95A2.4,2.4,0,0,1,139,90a2,2,0,0,1,.21-.32l.66.36a1.1,1.1,0,0,0-.15.26c0,.11-.09.21-.13.32a3.4,3.4,0,0,0-.07.34,1.87,1.87,0,0,0,0,.34,2.12,2.12,0,0,0,0,.33,1.25,1.25,0,0,0,.13.35,1.15,1.15,0,0,0,.24.35,1.47,1.47,0,0,0,.39.29,2.53,2.53,0,0,0,.59.21,3.74,3.74,0,0,0,.79.07,2.9,2.9,0,0,0,.81-.1,2.24,2.24,0,0,0,.6-.3,1.33,1.33,0,0,0,.38-.41.91.91,0,0,0,.13-.48v-1.5Zm-3,4.69a.63.63,0,0,1,0-.19.46.46,0,0,1,.25-.25.62.62,0,0,1,.38,0,.46.46,0,0,1,.25.25.62.62,0,0,1,0,.38.65.65,0,0,1-.1.15l-.15.1a.63.63,0,0,1-.19,0,.45.45,0,0,1-.47-.47Zm1.26,0a.5.5,0,0,1,.14-.34.4.4,0,0,1,.15-.1.52.52,0,0,1,.18,0,.58.58,0,0,1,.19,0,.4.4,0,0,1,.15.1.65.65,0,0,1,.1.15.47.47,0,0,1,0,.38.65.65,0,0,1-.1.15.56.56,0,0,1-.15.1.58.58,0,0,1-.19,0,.44.44,0,0,1-.33-.13A.44.44,0,0,1,141.83,94.83Z" transform="translate(-5.95 -42.93)"/><path class="cls-5" d="M147.47,91.81a.46.46,0,0,1-.23,0,.22.22,0,0,1-.08-.18v-.31a.52.52,0,0,1,0-.14.18.18,0,0,1,.07-.08l.1,0h1.58V88.37h.8v3.44Zm1.43-5a.63.63,0,0,1,0-.19.46.46,0,0,1,.25-.25.62.62,0,0,1,.38,0,.46.46,0,0,1,.25.25.62.62,0,0,1,0,.38.65.65,0,0,1-.1.15l-.15.1a.63.63,0,0,1-.19,0,.47.47,0,0,1-.34-.13A.51.51,0,0,1,148.9,86.78Z" transform="translate(-5.95 -42.93)"/><path class="cls-5" d="M154,91.64a.79.79,0,0,1-.23.09l-.24.06-.23,0h-.2a2,2,0,0,1-.85-.16,1.45,1.45,0,0,1-.57-.41,1.64,1.64,0,0,1-.32-.56,1.86,1.86,0,0,1-.1-.61,2,2,0,0,1,.13-.73,1.93,1.93,0,0,1,.38-.59,2.07,2.07,0,0,1,.6-.39,1.94,1.94,0,0,1,.78-.15,2.46,2.46,0,0,1,.37,0,1.23,1.23,0,0,1,.37.12,1.56,1.56,0,0,1,.35.24,1.36,1.36,0,0,1,.29.37,1.64,1.64,0,0,1,.19.54,3.13,3.13,0,0,1,.08.73V91a3.13,3.13,0,0,1-.22,1.22,2.09,2.09,0,0,1-.6.8,2.59,2.59,0,0,1-.92.47,6.67,6.67,0,0,1-1.18.23l-.09-.77a3.75,3.75,0,0,0,.88-.15,2.59,2.59,0,0,0,.65-.27,1.71,1.71,0,0,0,.45-.39A1.42,1.42,0,0,0,154,91.64Zm-.78-.62a.9.9,0,0,0,.23,0,.91.91,0,0,0,.23,0l.19,0,.14,0V90.5a2.83,2.83,0,0,0-.09-.78,1.31,1.31,0,0,0-.23-.46.71.71,0,0,0-.32-.23,1.16,1.16,0,0,0-.36,0,.92.92,0,0,0-.38.07.85.85,0,0,0-.31.21,1.15,1.15,0,0,0-.21.33,1.3,1.3,0,0,0,0,.81,1,1,0,0,0,.21.32,1.1,1.1,0,0,0,.37.22A1.46,1.46,0,0,0,153.18,91Z" transform="translate(-5.95 -42.93)"/><path class="cls-5" d="M156.13,85.43h.79V90.2a2.06,2.06,0,0,0,0,.39.53.53,0,0,0,.07.25.33.33,0,0,0,.13.13.5.5,0,0,0,.23,0h.29a.48.48,0,0,1,.24,0,.21.21,0,0,1,.08.18v.31a.39.39,0,0,1,0,.13.16.16,0,0,1-.08.08s-.06,0-.1,0h-.53a1.29,1.29,0,0,1-.51-.1,1,1,0,0,1-.35-.28,1.22,1.22,0,0,1-.21-.41,2,2,0,0,1-.06-.51V85.43Z" transform="translate(-5.95 -42.93)"/><path class="cls-5" d="M159.58,90.79a1.75,1.75,0,0,1-.38-.35c-.12-.13-.24-.28-.34-.41l-.29-.4-.21-.27c0-.07,0-.13,0-.21a1.55,1.55,0,0,1,.08-.23,1.72,1.72,0,0,1,.09-.19c0-.06.06-.1.09-.11l.33-.16a2.26,2.26,0,0,1,.44-.15c.16,0,.34-.09.53-.12a5.6,5.6,0,0,1,.6,0,2.52,2.52,0,0,1,.48,0,2,2,0,0,1,.45.14.8.8,0,0,1,.32.24.47.47,0,0,1,.13.34,2,2,0,0,1,0,.32,2.57,2.57,0,0,1-.14.42,3.79,3.79,0,0,1-.3.53,4.52,4.52,0,0,1-.53.62.73.73,0,0,0,.25.09,2.79,2.79,0,0,0,.33.06l.39,0h.79a.48.48,0,0,1,.24,0,.21.21,0,0,1,.08.18v.31a.39.39,0,0,1,0,.13.19.19,0,0,1-.07.08.21.21,0,0,1-.1,0h-.72a3.55,3.55,0,0,1-.67-.06,5.07,5.07,0,0,1-.56-.14,2.57,2.57,0,0,1-.43-.17l-.29-.15a3.54,3.54,0,0,1-.39.19,3.61,3.61,0,0,1-.46.17,4.36,4.36,0,0,1-.52.11,3.45,3.45,0,0,1-.57,0h-.57a.48.48,0,0,1-.24,0,.22.22,0,0,1-.08-.18v-.31a.52.52,0,0,1,0-.14.27.27,0,0,1,.07-.08.35.35,0,0,1,.11,0h.74l.46,0,.38,0,.28-.07A.43.43,0,0,0,159.58,90.79Zm1.6-1.46a.34.34,0,0,0-.07-.19.57.57,0,0,0-.18-.16,1.1,1.1,0,0,0-.29-.11,1.61,1.61,0,0,0-.39,0,2.88,2.88,0,0,0-.55.06,3.25,3.25,0,0,0-.64.22,1.8,1.8,0,0,0,.18.3c.09.12.18.24.3.38a4.27,4.27,0,0,0,.36.38,3,3,0,0,0,.37.3,1.83,1.83,0,0,0,.37-.29,2.15,2.15,0,0,0,.29-.32,1.65,1.65,0,0,0,.18-.29A.75.75,0,0,0,161.18,89.33Z" transform="translate(-5.95 -42.93)"/><path class="cls-5" d="M164.73,90.73a1.68,1.68,0,0,0,.47.21,3.11,3.11,0,0,0,.66.07h0a.48.48,0,0,1,.24,0,.21.21,0,0,1,.08.18v.31a.39.39,0,0,1,0,.13.19.19,0,0,1-.07.08.21.21,0,0,1-.1,0h-.17a2.09,2.09,0,0,1-.77-.13,1.48,1.48,0,0,1-.52-.3.79.79,0,0,1-.3.3.83.83,0,0,1-.46.13h-1.07a.46.46,0,0,1-.23,0,.22.22,0,0,1-.08-.18v-.31a.52.52,0,0,1,0-.14.18.18,0,0,1,.07-.08l.1,0h1a.24.24,0,0,0,.22-.12.67.67,0,0,0,.08-.38V88.38h.8v2.35Zm-1.53-4a.65.65,0,0,1,0-.19.44.44,0,0,1,.1-.15.4.4,0,0,1,.15-.1.58.58,0,0,1,.19,0,.57.57,0,0,1,.18,0,.4.4,0,0,1,.15.1.44.44,0,0,1,.1.15.47.47,0,0,1,0,.38.44.44,0,0,1-.1.15.56.56,0,0,1-.15.1.57.57,0,0,1-.18,0,.45.45,0,0,1-.34-.13A.44.44,0,0,1,163.2,86.78Zm1.27,0a.63.63,0,0,1,0-.19.65.65,0,0,1,.1-.15.4.4,0,0,1,.15-.1.58.58,0,0,1,.19,0,.63.63,0,0,1,.19,0,.46.46,0,0,1,.25.25.62.62,0,0,1,0,.38.65.65,0,0,1-.1.15l-.15.1a.63.63,0,0,1-.19,0,.45.45,0,0,1-.34-.13A.51.51,0,0,1,164.47,86.78Z" transform="translate(-5.95 -42.93)"/><path class="cls-5" d="M165.89,91.81a.46.46,0,0,1-.23,0,.22.22,0,0,1-.08-.18v-.31a.52.52,0,0,1,0-.14.18.18,0,0,1,.07-.08l.1,0h1.33V85.43h.8v6.38Z" transform="translate(-5.95 -42.93)"/><path class="cls-5" d="M169.41,85.43h.8v6.38h-.8Z" transform="translate(-5.95 -42.93)"/><path class="cls-5" d="M177.92,91a1.89,1.89,0,0,0,0-.31,3.1,3.1,0,0,0-.06-.39c0-.13-.06-.27-.1-.41s-.09-.26-.14-.38l.78-.22c0,.09.06.19.1.29l.09.35c0,.12.06.24.08.37s0,.25.05.37a1.47,1.47,0,0,0,.5.25,2.73,2.73,0,0,0,.69.08h0a.48.48,0,0,1,.24,0,.21.21,0,0,1,.08.18v.31a.23.23,0,0,1,0,.13.11.11,0,0,1-.07.08.18.18,0,0,1-.1,0h-.16a2,2,0,0,1-.7-.1,1.56,1.56,0,0,1-.5-.25,3,3,0,0,1-.26.91,2.39,2.39,0,0,1-.54.71,2,2,0,0,1-.8.46,3.23,3.23,0,0,1-1.06.17,2.8,2.8,0,0,1-1.09-.19,2.27,2.27,0,0,1-.77-.52,2.23,2.23,0,0,1-.46-.75,2.64,2.64,0,0,1-.15-.89,2.28,2.28,0,0,1,0-.45,2.36,2.36,0,0,1,.1-.46,2.6,2.6,0,0,1,.15-.42,2,2,0,0,1,.18-.36l.68.38a1.58,1.58,0,0,0-.13.26,2.11,2.11,0,0,0-.1.3c0,.11-.05.21-.07.32s0,.22,0,.32a2.08,2.08,0,0,0,.11.66,1.51,1.51,0,0,0,.32.53,2,2,0,0,0,.53.36,2.07,2.07,0,0,0,.73.13,2.36,2.36,0,0,0,.78-.13,1.67,1.67,0,0,0,.58-.38,1.62,1.62,0,0,0,.36-.61A2.44,2.44,0,0,0,177.92,91Zm-1.79-3.34a.65.65,0,0,1,0-.19.65.65,0,0,1,.1-.15.4.4,0,0,1,.15-.1.58.58,0,0,1,.19,0,.63.63,0,0,1,.19,0,.46.46,0,0,1,.25.25.62.62,0,0,1,0,.38.65.65,0,0,1-.1.15l-.15.1a.63.63,0,0,1-.19,0,.45.45,0,0,1-.34-.13A.52.52,0,0,1,176.13,87.67Z" transform="translate(-5.95 -42.93)"/><path class="cls-5" d="M181.92,90.73a1.62,1.62,0,0,0,.48.21,3,3,0,0,0,.65.07h0a.46.46,0,0,1,.23,0,.21.21,0,0,1,.08.18v.31a.24.24,0,0,1,0,.13.14.14,0,0,1-.07.08.21.21,0,0,1-.1,0H183a2.13,2.13,0,0,1-.77-.13,1.48,1.48,0,0,1-.52-.3.83.83,0,0,1-.29.3.87.87,0,0,1-.47.13h-1.06a.48.48,0,0,1-.24,0,.22.22,0,0,1-.08-.18v-.31a.52.52,0,0,1,0-.14.27.27,0,0,1,.07-.08l.1,0h1a.26.26,0,0,0,.23-.12.77.77,0,0,0,.08-.38V88.38h.79v2.35Zm-1.56,2.41a.58.58,0,0,1,0-.19.56.56,0,0,1,.1-.15.31.31,0,0,1,.15-.1.58.58,0,0,1,.19,0,.65.65,0,0,1,.19,0,.44.44,0,0,1,.15.1.4.4,0,0,1,.1.15.58.58,0,0,1,0,.19.57.57,0,0,1,0,.18.4.4,0,0,1-.1.15.65.65,0,0,1-.15.1.65.65,0,0,1-.19,0,.42.42,0,0,1-.34-.14A.44.44,0,0,1,180.36,93.14Zm1.27,0a.58.58,0,0,1,0-.19.56.56,0,0,1,.1-.15.39.39,0,0,1,.16-.1.53.53,0,0,1,.18,0,.58.58,0,0,1,.19,0,.31.31,0,0,1,.15.1.4.4,0,0,1,.1.15.45.45,0,0,1,0,.37.56.56,0,0,1-.1.15.4.4,0,0,1-.15.1.58.58,0,0,1-.19,0,.45.45,0,0,1-.34-.14A.47.47,0,0,1,181.63,93.14Z" transform="translate(-5.95 -42.93)"/><path class="cls-5" d="M184.45,91.2a1.64,1.64,0,0,1-.2.29.83.83,0,0,1-.23.19.79.79,0,0,1-.27.1,1.61,1.61,0,0,1-.33,0h-.34a.48.48,0,0,1-.24,0,.22.22,0,0,1-.08-.18v-.31a.52.52,0,0,1,0-.14.2.2,0,0,1,.08-.08.29.29,0,0,1,.1,0h.33a.92.92,0,0,0,.49-.13.71.71,0,0,0,.29-.4,5.15,5.15,0,0,1,.29-.82,4,4,0,0,1,.33-.59,2.31,2.31,0,0,1,.36-.39,1.93,1.93,0,0,1,.36-.23,1.26,1.26,0,0,1,.34-.12l.3,0a1.66,1.66,0,0,1,1,.32,1.33,1.33,0,0,1,.33.34,2.55,2.55,0,0,1,.24.39,2.25,2.25,0,0,1,.13.42,1.9,1.9,0,0,1,.05.4,1.72,1.72,0,0,1-.05.37,2.14,2.14,0,0,1-.13.38,2.64,2.64,0,0,1-.23.35,1.53,1.53,0,0,1-.33.29,2,2,0,0,1-.44.21,1.93,1.93,0,0,1-.55.07,3.1,3.1,0,0,1-.54,0,4.72,4.72,0,0,1-.45-.16,1.77,1.77,0,0,1-.36-.2Zm2.61-.93a1.72,1.72,0,0,0-.05-.37,1.47,1.47,0,0,0-.19-.4,1.18,1.18,0,0,0-.32-.31.81.81,0,0,0-.47-.13.85.85,0,0,0-.47.13,1.45,1.45,0,0,0-.38.36,2.09,2.09,0,0,0-.28.51,2.64,2.64,0,0,0-.15.6.43.43,0,0,0,.17.13l.3.12.37.09a2.33,2.33,0,0,0,.37,0,3.15,3.15,0,0,0,.46,0,.91.91,0,0,0,.35-.12.56.56,0,0,0,.22-.24A.74.74,0,0,0,187.06,90.27Z" transform="translate(-5.95 -42.93)"/><path class="cls-5" d="M190.05,83.73l-.11,0h-.15a.63.63,0,0,0-.32.07.25.25,0,0,0-.12.25.35.35,0,0,0,0,.17.44.44,0,0,0,.12.15.64.64,0,0,0,.2.11.87.87,0,0,0,.3,0h.13v.38h-1.38V84.5h.5a.2.2,0,0,1-.08-.08.31.31,0,0,1-.1-.12.77.77,0,0,1-.07-.16,1.33,1.33,0,0,1,0-.21.54.54,0,0,1,.05-.22.39.39,0,0,1,.14-.2.62.62,0,0,1,.24-.13,1,1,0,0,1,.35,0h.17l.19,0Zm-1,1.7h.8V90.2a3.84,3.84,0,0,0,0,.39,1,1,0,0,0,.07.25.35.35,0,0,0,.14.13.48.48,0,0,0,.22,0h.3a.46.46,0,0,1,.23,0,.21.21,0,0,1,.08.18v.31a.24.24,0,0,1,0,.13.11.11,0,0,1-.07.08.21.21,0,0,1-.1,0h-.54a1.24,1.24,0,0,1-.5-.1.89.89,0,0,1-.35-.28.94.94,0,0,1-.21-.41,1.66,1.66,0,0,1-.07-.51V85.43Z" transform="translate(-5.95 -42.93)"/><path class="cls-5" d="M192.64,90.73a1.46,1.46,0,0,0,.47.21,3,3,0,0,0,.65.07h0a.48.48,0,0,1,.24,0,.21.21,0,0,1,.08.18v.31a.39.39,0,0,1,0,.13.16.16,0,0,1-.08.08.18.18,0,0,1-.1,0h-.16a2.09,2.09,0,0,1-.77-.13,1.62,1.62,0,0,1-.53-.3.86.86,0,0,1-.76.43h-1.06a.48.48,0,0,1-.24,0,.22.22,0,0,1-.08-.18v-.31a.29.29,0,0,1,0-.14.13.13,0,0,1,.07-.08.29.29,0,0,1,.1,0h1a.25.25,0,0,0,.22-.12.67.67,0,0,0,.08-.38V88.38h.8v2.35Zm-1.53-4a.63.63,0,0,1,0-.19,1.3,1.3,0,0,1,.1-.15.54.54,0,0,1,.16-.1.52.52,0,0,1,.18,0,.58.58,0,0,1,.19,0,.4.4,0,0,1,.15.1.65.65,0,0,1,.1.15.47.47,0,0,1,0,.38.65.65,0,0,1-.1.15.56.56,0,0,1-.15.1.58.58,0,0,1-.19,0,.48.48,0,0,1-.34-.13A.47.47,0,0,1,191.11,86.78Zm1.26,0a.65.65,0,0,1,0-.19.65.65,0,0,1,.1-.15.4.4,0,0,1,.15-.1.58.58,0,0,1,.19,0,.57.57,0,0,1,.18,0,.4.4,0,0,1,.15.1.49.49,0,0,1,0,.68.56.56,0,0,1-.15.1.57.57,0,0,1-.18,0,.45.45,0,0,1-.34-.13A.44.44,0,0,1,192.37,86.78Z" transform="translate(-5.95 -42.93)"/><path class="cls-5" d="M195.8,90.72a1.47,1.47,0,0,0,.49.22A2.52,2.52,0,0,0,197,91h0a.48.48,0,0,1,.24,0,.21.21,0,0,1,.08.18v.31a.39.39,0,0,1,0,.13.16.16,0,0,1-.08.08s-.06,0-.1,0h-.16a2.19,2.19,0,0,1-.78-.13,1.48,1.48,0,0,1-.52-.3.86.86,0,0,1-.3.3.84.84,0,0,1-.47.12h-1.06a.39.39,0,0,1-.24,0,.21.21,0,0,1-.08-.18v-.31a.52.52,0,0,1,0-.14.19.19,0,0,1,.08-.07.23.23,0,0,1,.1,0h1a.25.25,0,0,0,.22-.12.67.67,0,0,0,.08-.38V85.42h.79v5.3Z" transform="translate(-5.95 -42.93)"/><path class="cls-5" d="M197,91.81a.46.46,0,0,1-.23,0,.22.22,0,0,1-.08-.18v-.31a.52.52,0,0,1,0-.14.18.18,0,0,1,.07-.08l.1,0h1.33V85.43h.8v6.38Z" transform="translate(-5.95 -42.93)"/><path class="cls-5" d="M67.07,87.78a1.25,1.25,0,0,0-.52.31,1.29,1.29,0,0,0-.35.52,1.9,1.9,0,0,0-.13.75,1.82,1.82,0,0,0,.13.74,1.53,1.53,0,0,0,.35.54,1.44,1.44,0,0,0,.52.31,1.79,1.79,0,0,0,.62.1,2.09,2.09,0,0,0,.67-.1,2.69,2.69,0,0,0,.57-.26l.33.76a2.66,2.66,0,0,1-.73.3,3.6,3.6,0,0,1-.88.11,2.91,2.91,0,0,1-1-.19,2.27,2.27,0,0,1-.79-.52,2.59,2.59,0,0,1-.5-.79,3,3,0,0,1-.18-1,2.72,2.72,0,0,1,.18-1,2.59,2.59,0,0,1,.5-.79,2.16,2.16,0,0,1,.79-.53,2.87,2.87,0,0,1,1-.18,3.17,3.17,0,0,1,.88.11,2.86,2.86,0,0,1,.73.3l-.33.76a2.44,2.44,0,0,0-.57-.26,2,2,0,0,0-.67-.1A1.79,1.79,0,0,0,67.07,87.78Z" transform="translate(-5.95 -42.93)"/><path class="cls-5" d="M70.61,91.72a1.87,1.87,0,0,1-.57-.37,1.67,1.67,0,0,1-.39-.56,1.87,1.87,0,0,1-.14-.71,1.74,1.74,0,0,1,.14-.69,1.61,1.61,0,0,1,.39-.57,1.73,1.73,0,0,1,.57-.38,1.92,1.92,0,0,1,.72-.14,1.89,1.89,0,0,1,.72.14,1.59,1.59,0,0,1,.57.38,1.61,1.61,0,0,1,.39.57,1.74,1.74,0,0,1,.15.69,1.92,1.92,0,0,1-.15.71,1.67,1.67,0,0,1-.39.56,1.7,1.7,0,0,1-.57.37,1.89,1.89,0,0,1-.72.14A1.92,1.92,0,0,1,70.61,91.72ZM71.73,91a1,1,0,0,0,.29-.2,1.08,1.08,0,0,0,.19-.31,1.17,1.17,0,0,0,0-.74.81.81,0,0,0-.19-.3.86.86,0,0,0-.29-.21,1,1,0,0,0-.4-.08.93.93,0,0,0-.39.08.81.81,0,0,0-.3.21.91.91,0,0,0-.19.3,1.17,1.17,0,0,0,0,.74,1,1,0,0,0,.19.31.93.93,0,0,0,.3.2.94.94,0,0,0,.39.07A1,1,0,0,0,71.73,91Z" transform="translate(-5.95 -42.93)"/><path class="cls-5" d="M74.68,91.72a1.77,1.77,0,0,1-1-.93,1.87,1.87,0,0,1-.14-.71,1.74,1.74,0,0,1,.14-.69,1.92,1.92,0,0,1,.39-.57,1.84,1.84,0,0,1,.57-.38,1.92,1.92,0,0,1,.72-.14,1.89,1.89,0,0,1,.72.14,1.72,1.72,0,0,1,1,1,1.58,1.58,0,0,1,.15.69,1.74,1.74,0,0,1-.15.71,1.79,1.79,0,0,1-.38.56,1.85,1.85,0,0,1-.58.37,1.89,1.89,0,0,1-.72.14A1.92,1.92,0,0,1,74.68,91.72ZM75.8,91a1,1,0,0,0,.29-.2.89.89,0,0,0,.19-.31,1.17,1.17,0,0,0,0-.74.7.7,0,0,0-.19-.3.86.86,0,0,0-.29-.21,1,1,0,0,0-.4-.08.93.93,0,0,0-.39.08.81.81,0,0,0-.3.21.75.75,0,0,0-.18.3,1,1,0,0,0,0,.74.79.79,0,0,0,.18.31.93.93,0,0,0,.3.2.94.94,0,0,0,.39.07A1,1,0,0,0,75.8,91Z" transform="translate(-5.95 -42.93)"/><path class="cls-5" d="M77.84,93.1V88.49a4.54,4.54,0,0,1,.66-.14,5.32,5.32,0,0,1,.69,0,2.16,2.16,0,0,1,.83.14,1.83,1.83,0,0,1,.62.37,1.71,1.71,0,0,1,.39.56,2,2,0,0,1,.13.7,1.91,1.91,0,0,1-.14.71,1.79,1.79,0,0,1-.38.56,1.84,1.84,0,0,1-.6.37,2.16,2.16,0,0,1-.78.14H79l-.32,0V93.1ZM79,91l.25,0A1.22,1.22,0,0,0,80,90.8a1.05,1.05,0,0,0,0-1.45,1.22,1.22,0,0,0-.79-.23l-.26,0-.27,0V91A1.11,1.11,0,0,0,79,91Z" transform="translate(-5.95 -42.93)"/><path class="cls-5" d="M83.82,91,84.1,91l.24-.09a.51.51,0,0,0,.18-.12l.37.74a3.21,3.21,0,0,1-.62.26,3,3,0,0,1-.85.11,1.84,1.84,0,0,1-.74-.14,1.69,1.69,0,0,1-.58-.37,1.8,1.8,0,0,1-.52-1.27,1.89,1.89,0,0,1,.14-.72,2.27,2.27,0,0,1,.38-.57,1.68,1.68,0,0,1,.57-.36,2,2,0,0,1,1.41,0,1.72,1.72,0,0,1,.56.41,1.9,1.9,0,0,1,.36.64,2.37,2.37,0,0,1,.1.86H82.45a.77.77,0,0,0,.35.51,1.22,1.22,0,0,0,.66.17h.09A.6.6,0,0,0,83.82,91Zm-1-1.8a.82.82,0,0,0-.31.45h1.75a.7.7,0,0,0-.3-.47,1.07,1.07,0,0,0-.58-.16A1,1,0,0,0,82.79,89.22Z" transform="translate(-5.95 -42.93)"/><path class="cls-5" d="M87.17,89.17H87l-.19,0-.19,0a.29.29,0,0,0-.12,0v2.56h-.84V88.52l.33-.06c.13,0,.24,0,.36,0l.33,0,.3,0h.63v.8Z" transform="translate(-5.95 -42.93)"/><path class="cls-5" d="M89.05,91.8a1.73,1.73,0,0,1-.51-.19,1.3,1.3,0,0,1-.35-.35,1.05,1.05,0,0,1-.13-.52,1,1,0,0,1,.12-.5,1.22,1.22,0,0,1,.32-.36,1.64,1.64,0,0,1,.5-.21,2.47,2.47,0,0,1,.63-.08h.3l.35,0v0a.38.38,0,0,0-.21-.39,1.48,1.48,0,0,0-.56-.1l-.29,0-.32.07-.31.09a1.69,1.69,0,0,0-.27.11l.11-.85a2.44,2.44,0,0,1,.52-.17,2.84,2.84,0,0,1,.66-.08,2.23,2.23,0,0,1,.6.08,1.09,1.09,0,0,1,.47.23A1,1,0,0,1,91,89a1.44,1.44,0,0,1,.12.61v2a3.9,3.9,0,0,1-.71.2,4.87,4.87,0,0,1-.75.07A2.47,2.47,0,0,1,89.05,91.8Zm1-1.52a1.51,1.51,0,0,0-.3,0,1.42,1.42,0,0,0-.3,0,.61.61,0,0,0-.24.07.42.42,0,0,0-.18.14.32.32,0,0,0-.06.2.32.32,0,0,0,.21.32,1.31,1.31,0,0,0,.52.09,1.77,1.77,0,0,0,.32,0,1.32,1.32,0,0,0,.3-.07v-.68Z" transform="translate(-5.95 -42.93)"/><path class="cls-5" d="M92.24,88.42V87.2h.83v1.22h1.28v.78H93.07v1.22a1.17,1.17,0,0,0,0,.29.4.4,0,0,0,.1.18.38.38,0,0,0,.18.09,1.2,1.2,0,0,0,.28,0h.71v.78h-.8a2.52,2.52,0,0,1-.6-.06,1,1,0,0,1-.42-.17.76.76,0,0,1-.24-.34,1.41,1.41,0,0,1-.08-.5V89.2H91.6v-.78Z" transform="translate(-5.95 -42.93)"/><path class="cls-5" d="M95.14,87.79a.4.4,0,0,1-.14-.34.41.41,0,0,1,.14-.32A.54.54,0,0,1,95.5,87a.5.5,0,0,1,.34.12.42.42,0,0,1,.14.32.42.42,0,0,1-.14.33.51.51,0,0,1-.35.12A.58.58,0,0,1,95.14,87.79Zm.77.63v3.37h-.84V88.42Z" transform="translate(-5.95 -42.93)"/><path class="cls-5" d="M96.38,88.42h.88L98.11,91,99,88.42h.88l-1.16,3.37H97.54Z" transform="translate(-5.95 -42.93)"/><path class="cls-5" d="M102.22,91l.28-.07.24-.09a.51.51,0,0,0,.18-.12l.37.74a3.21,3.21,0,0,1-.62.26,3,3,0,0,1-.85.11,1.84,1.84,0,0,1-.74-.14,1.69,1.69,0,0,1-.58-.37,1.8,1.8,0,0,1-.39-.57,1.78,1.78,0,0,1-.13-.7,1.89,1.89,0,0,1,.14-.72,1.84,1.84,0,0,1,.38-.57,1.68,1.68,0,0,1,.57-.36,1.75,1.75,0,0,1,.7-.13,1.87,1.87,0,0,1,.71.13,1.72,1.72,0,0,1,.56.41,2.09,2.09,0,0,1,.36.64,2.37,2.37,0,0,1,.1.86h-2.65a.74.74,0,0,0,.35.51,1.22,1.22,0,0,0,.66.17h.08A.65.65,0,0,0,102.22,91Zm-1-1.8a.94.94,0,0,0-.31.45h1.76a.78.78,0,0,0-.3-.47,1.07,1.07,0,0,0-.58-.16A1,1,0,0,0,101.18,89.22Z" transform="translate(-5.95 -42.93)"/><path class="cls-5" d="M105.94,86.94h.87v4.85h-.87Z" transform="translate(-5.95 -42.93)"/><path class="cls-5" d="M108.23,88.41l.41,0,.38,0h.31a2.93,2.93,0,0,1,.61.06,1.2,1.2,0,0,1,.49.21,1,1,0,0,1,.33.43,1.65,1.65,0,0,1,.13.68v2.1h-.84V89.93a.66.66,0,0,0-.75-.81l-.3,0a2,2,0,0,0-.33,0v2.59h-.84V88.47Z" transform="translate(-5.95 -42.93)"/><path class="cls-5" d="M113.46,91c.12,0,.18-.11.18-.2a.2.2,0,0,0-.11-.2,1.6,1.6,0,0,0-.44-.14l-.27,0a2,2,0,0,1-.89-.36.8.8,0,0,1-.33-.69.9.9,0,0,1,.38-.75,1.65,1.65,0,0,1,1-.28,3.33,3.33,0,0,1,.78.08,2.26,2.26,0,0,1,.65.23l-.3.77a1.57,1.57,0,0,0-.26-.1,1.32,1.32,0,0,0-.3-.09l-.31-.06H113c-.35,0-.52.07-.52.22a.22.22,0,0,0,.12.19,1.37,1.37,0,0,0,.44.13l.27,0a2.15,2.15,0,0,1,1,.4.93.93,0,0,1,.29.72.86.86,0,0,1-.38.74,1.42,1.42,0,0,1-.48.21,2.62,2.62,0,0,1-.67.08l-.41,0a2.79,2.79,0,0,1-.4-.07l-.37-.11a2.37,2.37,0,0,1-.32-.14l.32-.81a2.44,2.44,0,0,0,.54.24,2.52,2.52,0,0,0,.67.09A1.93,1.93,0,0,0,113.46,91Z" transform="translate(-5.95 -42.93)"/><path class="cls-5" d="M118.11,88.42v3.19c-.12,0-.24.07-.34.11l-.34.08-.35,0h-.41a2.22,2.22,0,0,1-.59-.07,1.08,1.08,0,0,1-.48-.23,1.14,1.14,0,0,1-.33-.42,1.58,1.58,0,0,1-.11-.65V88.43H116v1.82a.9.9,0,0,0,.16.63.63.63,0,0,0,.51.17H117l.33-.07V88.45h.83Z" transform="translate(-5.95 -42.93)"/><path class="cls-5" d="M120.49,89.17h-.14l-.19,0-.19,0a.29.29,0,0,0-.12,0v2.56H119V88.52l.34-.06c.12,0,.23,0,.35,0l.33,0,.3,0H121v.8Z" transform="translate(-5.95 -42.93)"/><path class="cls-5" d="M122.38,91.8a1.63,1.63,0,0,1-.51-.19,1.17,1.17,0,0,1-.35-.35,1,1,0,0,1-.13-.52,1,1,0,0,1,.12-.5,1.1,1.1,0,0,1,.32-.36,1.64,1.64,0,0,1,.5-.21,2.47,2.47,0,0,1,.63-.08h.3l.35,0v0a.38.38,0,0,0-.21-.39,1.48,1.48,0,0,0-.56-.1l-.29,0-.32.07a1.58,1.58,0,0,0-.31.09,1.69,1.69,0,0,0-.27.11l.11-.85a2.26,2.26,0,0,1,.52-.17,2.78,2.78,0,0,1,.66-.08,2.23,2.23,0,0,1,.6.08,1.15,1.15,0,0,1,.47.23,1,1,0,0,1,.32.41,1.45,1.45,0,0,1,.11.61v2a3.58,3.58,0,0,1-.7.2,4.87,4.87,0,0,1-.75.07A2.43,2.43,0,0,1,122.38,91.8Zm1-1.52a2.26,2.26,0,0,0-.6,0,.61.61,0,0,0-.24.07.39.39,0,0,0-.17.14.27.27,0,0,0-.07.2.32.32,0,0,0,.21.32,1.35,1.35,0,0,0,.52.09,1.77,1.77,0,0,0,.32,0,1.32,1.32,0,0,0,.3-.07v-.68Z" transform="translate(-5.95 -42.93)"/><path class="cls-5" d="M125.7,88.41l.41,0,.38,0h.32a2.91,2.91,0,0,1,.6.06,1.24,1.24,0,0,1,.5.21,1.12,1.12,0,0,1,.33.43,1.84,1.84,0,0,1,.12.68v2.1h-.84V89.93a.66.66,0,0,0-.75-.81l-.29,0a2,2,0,0,0-.34,0v2.59h-.83V88.47Z" transform="translate(-5.95 -42.93)"/><path class="cls-5" d="M129.05,89.38a1.52,1.52,0,0,1,.37-.56,1.65,1.65,0,0,1,.58-.37,1.83,1.83,0,0,1,.71-.14,2.48,2.48,0,0,1,.63.07,3.93,3.93,0,0,1,.54.2l-.34.76a1.11,1.11,0,0,0-.37-.15,1.44,1.44,0,0,0-.43-.06,1,1,0,0,0-.39.07.65.65,0,0,0-.3.19.79.79,0,0,0-.2.31,1.12,1.12,0,0,0-.07.38,1,1,0,0,0,.07.4.83.83,0,0,0,.2.3.67.67,0,0,0,.3.19,1,1,0,0,0,.39.07,1.88,1.88,0,0,0,.43-.05,1.73,1.73,0,0,0,.37-.16l.34.76a3,3,0,0,1-.54.2,2.48,2.48,0,0,1-.63.07,1.83,1.83,0,0,1-.71-.13,1.92,1.92,0,0,1-.58-.37,1.52,1.52,0,0,1-.37-.56,1.78,1.78,0,0,1-.14-.7A1.65,1.65,0,0,1,129.05,89.38Z" transform="translate(-5.95 -42.93)"/><path class="cls-5" d="M134.42,91l.28-.07.24-.09a.51.51,0,0,0,.18-.12l.37.74a3.21,3.21,0,0,1-.62.26,3,3,0,0,1-.85.11,1.84,1.84,0,0,1-.74-.14,1.69,1.69,0,0,1-.58-.37,1.8,1.8,0,0,1-.39-.57,1.78,1.78,0,0,1-.13-.7,1.89,1.89,0,0,1,.14-.72,2,2,0,0,1,.38-.57,1.68,1.68,0,0,1,.57-.36,1.78,1.78,0,0,1,.7-.13,1.87,1.87,0,0,1,.71.13,1.72,1.72,0,0,1,.56.41,1.9,1.9,0,0,1,.36.64,2.37,2.37,0,0,1,.1.86h-2.65a.74.74,0,0,0,.35.51,1.22,1.22,0,0,0,.66.17h.09A.6.6,0,0,0,134.42,91Zm-1-1.8a.86.86,0,0,0-.3.45h1.75a.78.78,0,0,0-.3-.47,1.06,1.06,0,0,0-1.15,0Z" transform="translate(-5.95 -42.93)"/><path class="cls-5" d="M68.47,79.29a5.14,5.14,0,0,1-3-3.05,6.39,6.39,0,0,1-.41-2.3,6.18,6.18,0,0,1,.41-2.3,5.72,5.72,0,0,1,1.15-1.84,5.32,5.32,0,0,1,1.83-1.21,6.37,6.37,0,0,1,2.4-.44,9.39,9.39,0,0,1,2.29.27,6.26,6.26,0,0,1,1.8.7l-.76,1.75a5.94,5.94,0,0,0-1.44-.6A6.9,6.9,0,0,0,71,70a4.35,4.35,0,0,0-1.44.24,3.18,3.18,0,0,0-1.2.72,3.28,3.28,0,0,0-.82,1.21,4.52,4.52,0,0,0-.3,1.72,4.57,4.57,0,0,0,.3,1.73,3.5,3.5,0,0,0,.82,1.22,3.18,3.18,0,0,0,1.2.72,4.27,4.27,0,0,0,1.44.24,6,6,0,0,0,1.19-.12,5.45,5.45,0,0,0,1.1-.36v-2h-2.5V73.47h4.49V78.7a4.73,4.73,0,0,1-.93.44,9.15,9.15,0,0,1-1.12.31,11.46,11.46,0,0,1-1.17.21c-.41,0-.79.07-1.15.07A6.39,6.39,0,0,1,68.47,79.29Z" transform="translate(-5.95 -42.93)"/><path class="cls-5" d="M81.82,79.38a3.93,3.93,0,0,1-1.48-1A3.82,3.82,0,0,1,79.5,77a6.15,6.15,0,0,1-.26-1.79V68.36h2v6.35a6.05,6.05,0,0,0,.14,1.36,2.44,2.44,0,0,0,.47,1,2.19,2.19,0,0,0,.87.6,4.49,4.49,0,0,0,2.65,0,2.09,2.09,0,0,0,.87-.6,2.46,2.46,0,0,0,.48-1,5.6,5.6,0,0,0,.15-1.36V68.36h2v6.81A5.83,5.83,0,0,1,88.58,77a3.67,3.67,0,0,1-.83,1.45,4,4,0,0,1-1.49,1,7.22,7.22,0,0,1-4.44,0Z" transform="translate(-5.95 -42.93)"/><path class="cls-5" d="M100,77.71v1.85H92.85V68.36h2V77.7H100Z" transform="translate(-5.95 -42.93)"/><path class="cls-5" d="M103,68.36h7.13v1.85H105v2.67h4.65v1.87H105v4.81h-2Z" transform="translate(-5.95 -42.93)"/><path class="cls-5" d="M121.51,79.29a5.19,5.19,0,0,1-3-3.05,6.66,6.66,0,0,1,0-4.6,5.58,5.58,0,0,1,1.16-1.84,5.32,5.32,0,0,1,1.83-1.21,6.3,6.3,0,0,1,2.4-.44,9.39,9.39,0,0,1,2.29.27,6.31,6.31,0,0,1,1.79.7l-.76,1.75a5.62,5.62,0,0,0-1.44-.6A6.84,6.84,0,0,0,124,70a4.35,4.35,0,0,0-1.44.24,3.35,3.35,0,0,0-1.2.72,3.41,3.41,0,0,0-.82,1.21,4.52,4.52,0,0,0-.3,1.72,4.57,4.57,0,0,0,.3,1.73,3.64,3.64,0,0,0,.82,1.22,3.35,3.35,0,0,0,1.2.72,4.27,4.27,0,0,0,1.44.24,6,6,0,0,0,1.19-.12,5.15,5.15,0,0,0,1.11-.36v-2h-2.5V73.47h4.49V78.7a4.47,4.47,0,0,1-.93.44,9.15,9.15,0,0,1-1.12.31,11.46,11.46,0,0,1-1.17.21c-.41,0-.79.07-1.14.07A6.3,6.3,0,0,1,121.51,79.29Z" transform="translate(-5.95 -42.93)"/><path class="cls-5" d="M139.56,68.36v1.85H134.4v2.67h4.68v1.87H134.4v3h5.19v1.86h-7.18V68.36Z" transform="translate(-5.95 -42.93)"/><path class="cls-5" d="M145.2,79.56h-2V68.36h3.07l4.09,9.34V68.36h1.94v11.2h-3.05l-4.09-9.34v9.34Z" transform="translate(-5.95 -42.93)"/><path class="cls-5" d="M163.64,68.36v1.85h-5.16v2.67h4.68v1.87h-4.68v3h5.19v1.86h-7.18V68.36Z" transform="translate(-5.95 -42.93)"/><path class="cls-5" d="M169.31,75.14v4.42h-2V68.36h4.19a5.46,5.46,0,0,1,1.87.28,3.77,3.77,0,0,1,1.27.76,2.88,2.88,0,0,1,.72,1.09,3.55,3.55,0,0,1,.23,1.25,3.89,3.89,0,0,1-.12,1,2.89,2.89,0,0,1-.39.88,3.33,3.33,0,0,1-.71.75,3.57,3.57,0,0,1-1,.54l2.93,4.69H174l-2.73-4.41h-2Zm0-1.72h1.76a6,6,0,0,0,1-.08,2,2,0,0,0,.77-.26,1.31,1.31,0,0,0,.49-.5,1.71,1.71,0,0,0,.17-.79,1.3,1.3,0,0,0-.6-1.21,3.5,3.5,0,0,0-1.84-.37H169.3v3.21Z" transform="translate(-5.95 -42.93)"/><path class="cls-5" d="M186.87,79.56l-1-2.63h-4.64l-.94,2.63h-2.09l4.15-11.19h2.41L189,79.56Zm-1.61-4.5-1.66-4.65-1.66,4.65Z" transform="translate(-5.95 -42.93)"/><path class="cls-5" d="M199,77.71v1.85h-7.15V68.36h2V77.7H199Z" transform="translate(-5.95 -42.93)"/><path class="cls-6" d="M140.82,102.89h.69v4.46a1.07,1.07,0,0,0,.43.24,2.12,2.12,0,0,0,.62.08h0a.39.39,0,0,1,.21,0,.17.17,0,0,1,.07.16v.26a.27.27,0,0,1,0,.11l-.06.07-.09,0h-.14a1.63,1.63,0,0,1-.63-.1,1.27,1.27,0,0,1-.43-.24,2.43,2.43,0,0,1-.23.79,1.68,1.68,0,0,1-.46.62,2,2,0,0,1-.69.4,2.55,2.55,0,0,1-.91.15,2.38,2.38,0,0,1-.93-.17,1.82,1.82,0,0,1-.66-.44,1.84,1.84,0,0,1-.39-.64,2.21,2.21,0,0,1-.13-.76,2.77,2.77,0,0,1,.12-.79,2.06,2.06,0,0,1,.12-.35,1.31,1.31,0,0,1,.17-.31l.58.32a1.13,1.13,0,0,0-.11.22c0,.08-.05.17-.08.26a1.37,1.37,0,0,0,0,.28,1.32,1.32,0,0,0,0,.28,1.41,1.41,0,0,0,.09.55,1.27,1.27,0,0,0,.28.46,1.19,1.19,0,0,0,.45.3,1.71,1.71,0,0,0,.62.11,1.78,1.78,0,0,0,.67-.11,1.27,1.27,0,0,0,.49-.32,1.29,1.29,0,0,0,.31-.52,2.08,2.08,0,0,0,.11-.69v-4.76Z" transform="translate(-5.95 -42.93)"/><path class="cls-6" d="M144.3,107.43a2.1,2.1,0,0,0,.4.18,3,3,0,0,0,.56,0h0a.38.38,0,0,1,.21,0s.07.07.07.15v.26a.37.37,0,0,1,0,.12.17.17,0,0,1-.06.06s-.06,0-.09,0h-.14a2,2,0,0,1-.66-.1,1.46,1.46,0,0,1-.44-.26,1,1,0,0,1-.25.26.72.72,0,0,1-.4.11h-.91a.41.41,0,0,1-.21,0,.18.18,0,0,1-.06-.16v-.25a.37.37,0,0,1,0-.12.12.12,0,0,1,.06-.06.13.13,0,0,1,.08,0h.88a.23.23,0,0,0,.19-.11.56.56,0,0,0,.08-.32v-1.82h.68v2Zm-.75,2.06a.76.76,0,0,1,0-.16.38.38,0,0,1,.09-.13.43.43,0,0,1,.13-.09.41.41,0,0,1,.16,0l.15,0a.43.43,0,0,1,.13.09.38.38,0,0,1,.09.13.41.41,0,0,1,0,.16.8.8,0,0,1,0,.15.25.25,0,0,1-.09.13.3.3,0,0,1-.13.09l-.15,0a.38.38,0,0,1-.29-.12A.38.38,0,0,1,143.55,109.49Z" transform="translate(-5.95 -42.93)"/><path class="cls-6" d="M149.24,108.35q-.45,0-.81,0a6.52,6.52,0,0,1-.68-.1l-.46.07a4.41,4.41,0,0,1-.52,0l-.54,0h-.93a.39.39,0,0,1-.21,0,.18.18,0,0,1-.06-.16v-.26a.18.18,0,0,1,0-.11.18.18,0,0,1,0-.07l.09,0h1.16v0a.7.7,0,0,1-.18-.2c0-.08-.08-.16-.12-.24A.88.88,0,0,1,146,107a1.8,1.8,0,0,1,0-.22,1.3,1.3,0,0,1,.11-.56,1.58,1.58,0,0,1,.33-.48,1.39,1.39,0,0,1,.51-.32,1.92,1.92,0,0,1,.69-.12,1.5,1.5,0,0,1,.58.1,1.43,1.43,0,0,1,.42.29,1.23,1.23,0,0,1,.26.42,1.55,1.55,0,0,1,.09.53,1.73,1.73,0,0,1,0,.32c0,.1,0,.2-.07.29l-.09.25-.08.19h1a.41.41,0,0,1,.21,0,.18.18,0,0,1,.06.16v.25a.37.37,0,0,1,0,.12.17.17,0,0,1-.06.06.13.13,0,0,1-.08,0h-.53Zm-2.75-4.3a.41.41,0,0,1,0-.16.38.38,0,0,1,.09-.13.36.36,0,0,1,.12-.08.47.47,0,0,1,.16,0,.42.42,0,0,1,.16,0,.57.57,0,0,1,.13.08.6.6,0,0,1,.09.13.41.41,0,0,1,0,.16.78.78,0,0,1,0,.16.6.6,0,0,1-.09.13.57.57,0,0,1-.13.08.29.29,0,0,1-.16,0,.36.36,0,0,1-.28-.11A.38.38,0,0,1,146.49,104.05Zm.11,2.63a1,1,0,0,0,.08.4,1,1,0,0,0,.24.31,1.1,1.1,0,0,0,.35.2,1.55,1.55,0,0,0,.43.07h.24a1.12,1.12,0,0,0,.1-.16.85.85,0,0,0,.09-.22,1.6,1.6,0,0,0,.08-.26,1.27,1.27,0,0,0,0-.28,1.06,1.06,0,0,0-.07-.37.71.71,0,0,0-.18-.27.82.82,0,0,0-.25-.16.73.73,0,0,0-.3-.06,1.12,1.12,0,0,0-.31.05.81.81,0,0,0-.47.4A1.1,1.1,0,0,0,146.6,106.68Zm1-2.63a.76.76,0,0,1,0-.16.6.6,0,0,1,.09-.13.57.57,0,0,1,.13-.08.32.32,0,0,1,.31,0,.32.32,0,0,1,.13.08.38.38,0,0,1,.09.13.41.41,0,0,1,0,.16.76.76,0,0,1,0,.16.38.38,0,0,1-.09.13.32.32,0,0,1-.13.08.27.27,0,0,1-.15,0,.38.38,0,0,1-.29-.11A.38.38,0,0,1,147.57,104.05Z" transform="translate(-5.95 -42.93)"/><path class="cls-6" d="M151.36,107.43a1.85,1.85,0,0,0,.4.18,3,3,0,0,0,.55,0h0a.38.38,0,0,1,.21,0,.16.16,0,0,1,.07.15v.26a.21.21,0,0,1,0,.12.1.1,0,0,1-.05.06s-.06,0-.09,0h-.14a2,2,0,0,1-.66-.1,1.46,1.46,0,0,1-.44-.26,1,1,0,0,1-.25.26.72.72,0,0,1-.4.11h-.91a.41.41,0,0,1-.21,0,.18.18,0,0,1-.06-.16v-.25a.22.22,0,0,1,0-.12.09.09,0,0,1,.06-.06.13.13,0,0,1,.08,0h.88a.23.23,0,0,0,.19-.11.56.56,0,0,0,.07-.32v-1.82h.69v2Zm-1.3-3.38a.41.41,0,0,1,0-.16.33.33,0,0,1,.21-.21.34.34,0,0,1,.32,0,.57.57,0,0,1,.13.08l.09.13a.41.41,0,0,1,0,.16.78.78,0,0,1,0,.16l-.09.13a.57.57,0,0,1-.13.08.29.29,0,0,1-.16,0,.39.39,0,0,1-.29-.11A.42.42,0,0,1,150.06,104.05Zm1.08,0a.41.41,0,0,1,0-.16.33.33,0,0,1,.21-.21.34.34,0,0,1,.32,0,.33.33,0,0,1,.21.21.44.44,0,0,1,0,.32.33.33,0,0,1-.21.21.29.29,0,0,1-.16,0,.38.38,0,0,1-.29-.11A.42.42,0,0,1,151.14,104.05Z" transform="translate(-5.95 -42.93)"/><path class="cls-6" d="M154.41,107.45a1.3,1.3,0,0,0,.44.17,2.67,2.67,0,0,0,.5,0h.27a.22.22,0,0,0,.19-.1.6.6,0,0,0,.07-.33v-1.41h.69v1.58a1.27,1.27,0,0,0,.44.2,2.38,2.38,0,0,0,.55.06h.27a.22.22,0,0,0,.19-.1.59.59,0,0,0,.08-.33v-1.82h.68v2a1.38,1.38,0,0,0,.42.21,2.13,2.13,0,0,0,.6.08h0a.33.33,0,0,1,.2,0,.17.17,0,0,1,.08.16v.26a.18.18,0,0,1,0,.11.1.1,0,0,1-.05.06.16.16,0,0,1-.09,0h-.14a1.55,1.55,0,0,1-1.15-.4.87.87,0,0,1-.26.28.69.69,0,0,1-.42.11h-.41a2.41,2.41,0,0,1-.6-.08,1.28,1.28,0,0,1-.53-.3.84.84,0,0,1-.26.27.73.73,0,0,1-.41.11h-.41l-.29,0-.28-.05-.28-.11a1.11,1.11,0,0,1-.24-.16.75.75,0,0,1-.25.25.79.79,0,0,1-.4.1h-1.25a.37.37,0,0,1-.2,0,.16.16,0,0,1-.07-.15v-.26a.37.37,0,0,1,0-.12.17.17,0,0,1,.06-.06.32.32,0,0,1,.09,0h1.22a.21.21,0,0,0,.19-.11.66.66,0,0,0,.07-.32v-1.08h.69v1.32Z" transform="translate(-5.95 -42.93)"/><path class="cls-6" d="M161,107.82a.94.94,0,0,1-.18.25.58.58,0,0,1-.19.16.79.79,0,0,1-.23.09,2.4,2.4,0,0,1-.28,0h-.29a.38.38,0,0,1-.21,0,.17.17,0,0,1-.07-.16v-.25a.37.37,0,0,1,0-.12l.06-.06a.16.16,0,0,1,.09,0H160a.81.81,0,0,0,.41-.11.53.53,0,0,0,.25-.34,5.23,5.23,0,0,1,.25-.71,3.3,3.3,0,0,1,.28-.5,2,2,0,0,1,.31-.33,1.35,1.35,0,0,1,.31-.2.88.88,0,0,1,.29-.09l.26,0a1.34,1.34,0,0,1,.46.08,1.62,1.62,0,0,1,.37.19,2,2,0,0,1,.29.29,1.68,1.68,0,0,1,.2.34,1.42,1.42,0,0,1,.11.35,1.5,1.5,0,0,1,0,.35,1.17,1.17,0,0,1-.08.44,1.38,1.38,0,0,0,.42.21,2.4,2.4,0,0,0,.58.06h0a.41.41,0,0,1,.21,0,.18.18,0,0,1,.06.16v.26a.27.27,0,0,1,0,.11s0,.05-.06.07l-.08,0h-.15a2.61,2.61,0,0,1-.42,0,1.52,1.52,0,0,1-.34-.1,1,1,0,0,1-.26-.16,1.37,1.37,0,0,1-.22-.19,1.48,1.48,0,0,1-.47.38,1.4,1.4,0,0,1-.68.15,2.31,2.31,0,0,1-.46,0,3.56,3.56,0,0,1-.39-.13,3.14,3.14,0,0,1-.31-.18C161.13,108,161.05,107.89,161,107.82Zm2.23-.79a1,1,0,0,0,0-.32,1.44,1.44,0,0,0-.16-.33.87.87,0,0,0-.27-.27.77.77,0,0,0-.81,0,1.18,1.18,0,0,0-.32.31,2.28,2.28,0,0,0-.24.44,2.72,2.72,0,0,0-.13.51.32.32,0,0,0,.15.1,1.27,1.27,0,0,0,.26.11l.31.08a1.63,1.63,0,0,0,.31,0c.15,0,.27,0,.4,0a1,1,0,0,0,.3-.11.46.46,0,0,0,.19-.2A.75.75,0,0,0,163.23,107Z" transform="translate(-5.95 -42.93)"/><path class="cls-6" d="M164.8,108.35a.38.38,0,0,1-.21,0,.17.17,0,0,1-.07-.16v-.25a.37.37,0,0,1,0-.12l.06-.06a.16.16,0,0,1,.09,0h1.14V102.9h.68v5.45Z" transform="translate(-5.95 -42.93)"/><path class="cls-6" d="M167.8,102.89h.69v5.46h-.69Z" transform="translate(-5.95 -42.93)"/><path class="cls-6" d="M175.5,106.92a1.5,1.5,0,0,1,.38-1.13,1.62,1.62,0,0,1,1.18-.38h1V107a1.66,1.66,0,0,0,0,.36.47.47,0,0,0,.07.21.22.22,0,0,0,.13.09.48.48,0,0,0,.18,0h.37a.41.41,0,0,1,.21,0,.18.18,0,0,1,.06.16v.26a.18.18,0,0,1,0,.11.12.12,0,0,1-.06.06.11.11,0,0,1-.08,0h-.59a1.09,1.09,0,0,1-.36-.06.75.75,0,0,1-.31-.18,1.05,1.05,0,0,1-.22-.34,1.35,1.35,0,0,1-.09-.52v-1.18h-.13a3,3,0,0,0-.45,0,.79.79,0,0,0-.34.14.64.64,0,0,0-.21.29,1.28,1.28,0,0,0-.07.48v1.12a1.7,1.7,0,0,1-.16.69,2,2,0,0,1-.46.6,2.21,2.21,0,0,1-.72.42,2.72,2.72,0,0,1-1,.16,3.62,3.62,0,0,1-.91-.1,2.41,2.41,0,0,1-.67-.27,2,2,0,0,1-.46-.39,1.72,1.72,0,0,1-.3-.44,2,2,0,0,1-.15-.43,1.89,1.89,0,0,1,0-.38,2.73,2.73,0,0,1,0-.41,2.23,2.23,0,0,1,.09-.39,3.65,3.65,0,0,1,.14-.35,2.27,2.27,0,0,1,.18-.28l.56.31a2.53,2.53,0,0,0-.13.22l-.1.27a2.17,2.17,0,0,0-.08.57.92.92,0,0,0,0,.28,1.24,1.24,0,0,0,.1.31,1.42,1.42,0,0,0,.21.29,1.3,1.3,0,0,0,.34.25,2,2,0,0,0,.49.17,2.82,2.82,0,0,0,.69.07,2.45,2.45,0,0,0,.69-.09,2,2,0,0,0,.51-.25,1.2,1.2,0,0,0,.33-.35.87.87,0,0,0,.11-.41v-1.26Z" transform="translate(-5.95 -42.93)"/><path class="cls-6" d="M180.56,107.42a1.19,1.19,0,0,0,.41.18,2.29,2.29,0,0,0,.56.06h0a.37.37,0,0,1,.2,0c.05,0,.07.07.07.15v.26a.37.37,0,0,1,0,.12.17.17,0,0,1-.06.06l-.09,0h-.14a2,2,0,0,1-.66-.1,1.77,1.77,0,0,1-.45-.26.88.88,0,0,1-.25.26.76.76,0,0,1-.41.11h-.91a.41.41,0,0,1-.21,0,.18.18,0,0,1-.06-.16v-.25a.37.37,0,0,1,0-.12.17.17,0,0,1,.06-.06l.08,0h.88a.23.23,0,0,0,.19-.11.56.56,0,0,0,.08-.32V102.9h.68Z" transform="translate(-5.95 -42.93)"/><path class="cls-6" d="M184.55,106.05l-.17,0-.2,0-.21,0h-.18a.88.88,0,0,0-.27,0,.64.64,0,0,0-.25.12.67.67,0,0,0-.18.25.86.86,0,0,0-.08.38.92.92,0,0,0,.08.38.75.75,0,0,0,.2.29.72.72,0,0,0,.31.2,1.35,1.35,0,0,0,.41.07h.92v.68h-3.37a.37.37,0,0,1-.2,0,.17.17,0,0,1-.07-.16v-.26a.31.31,0,0,1,0-.11l.06-.07.09,0h1.12a1.58,1.58,0,0,1-.15-.43,2.09,2.09,0,0,1-.05-.42,1.74,1.74,0,0,1,.1-.61,1.51,1.51,0,0,1,.31-.5,1.45,1.45,0,0,1,.48-.34,1.39,1.39,0,0,1,.61-.12h.18l.21,0,.2,0,.15,0Z" transform="translate(-5.95 -42.93)"/><path class="cls-6" d="M191.21,107.66c0-.07,0-.16,0-.26s0-.22-.05-.33,0-.24-.09-.36l-.12-.32.67-.18.08.25c0,.09,0,.19.08.29s0,.21.07.32,0,.21,0,.31a1,1,0,0,0,.42.21,2.53,2.53,0,0,0,.6.07h0a.34.34,0,0,1,.2,0,.16.16,0,0,1,.07.15v.26a.37.37,0,0,1,0,.12.17.17,0,0,1-.06.06l-.08,0h-.15a2,2,0,0,1-.59-.08,1.17,1.17,0,0,1-.43-.22,2.21,2.21,0,0,1-.23.78,1.91,1.91,0,0,1-1.15,1,2.5,2.5,0,0,1-.9.14,2.68,2.68,0,0,1-.94-.16,1.93,1.93,0,0,1-.66-.45,1.73,1.73,0,0,1-.38-.64,2.13,2.13,0,0,1-.13-.76,2.56,2.56,0,0,1,0-.39c0-.13.05-.26.08-.39a3,3,0,0,1,.13-.36,1.31,1.31,0,0,1,.17-.31l.58.32a.82.82,0,0,0-.11.23,1.45,1.45,0,0,0-.09.25c0,.1,0,.19,0,.28s0,.19,0,.28a1.5,1.5,0,0,0,.1.56,1.27,1.27,0,0,0,.73.75,1.71,1.71,0,0,0,.62.12,1.69,1.69,0,0,0,.66-.12,1.3,1.3,0,0,0,.5-.32,1.29,1.29,0,0,0,.31-.52A2.15,2.15,0,0,0,191.21,107.66Zm-1.52-2.85a.41.41,0,0,1,0-.16.6.6,0,0,1,.09-.13.57.57,0,0,1,.13-.08.34.34,0,0,1,.32,0,.33.33,0,0,1,.21.21.44.44,0,0,1,0,.32.57.57,0,0,1-.08.13.6.6,0,0,1-.13.09.41.41,0,0,1-.16,0,.38.38,0,0,1-.29-.11A.42.42,0,0,1,189.69,104.81Z" transform="translate(-5.95 -42.93)"/><path class="cls-6" d="M194.63,107.43a1.85,1.85,0,0,0,.4.18,3,3,0,0,0,.55,0h0a.41.41,0,0,1,.21,0s.06.07.06.15v.26a.22.22,0,0,1,0,.12.09.09,0,0,1-.06.06s-.05,0-.08,0h-.15a2,2,0,0,1-.65-.1,1.46,1.46,0,0,1-.44-.26.92.92,0,0,1-.26.26.68.68,0,0,1-.4.11h-.9a.38.38,0,0,1-.21,0,.19.19,0,0,1-.07-.16v-.25a.21.21,0,0,1,0-.12.1.1,0,0,1,.05-.06.16.16,0,0,1,.09,0h.88a.24.24,0,0,0,.19-.11.66.66,0,0,0,.07-.32v-1.82h.68v2Zm-1.32,2.06a.41.41,0,0,1,0-.16.44.44,0,0,1,.22-.22.41.41,0,0,1,.16,0,.45.45,0,0,1,.16,0,.48.48,0,0,1,.21.22.41.41,0,0,1,0,.16.4.4,0,0,1,0,.15.25.25,0,0,1-.09.13.27.27,0,0,1-.12.09.45.45,0,0,1-.16,0,.38.38,0,0,1-.29-.12A.37.37,0,0,1,193.31,109.49Zm1.07,0a.76.76,0,0,1,0-.16.38.38,0,0,1,.09-.13.43.43,0,0,1,.13-.09.4.4,0,0,1,.15,0,.41.41,0,0,1,.16,0,.43.43,0,0,1,.13.09.38.38,0,0,1,.09.13.41.41,0,0,1,0,.16.8.8,0,0,1,0,.15.25.25,0,0,1-.09.13.3.3,0,0,1-.13.09.41.41,0,0,1-.16,0,.41.41,0,0,1-.4-.4Z" transform="translate(-5.95 -42.93)"/><path class="cls-6" d="M198.61,106.05l-.17,0-.2,0-.21,0h-.18a.78.78,0,0,0-.26,0,.62.62,0,0,0-.26.12.67.67,0,0,0-.18.25.86.86,0,0,0-.07.38.92.92,0,0,0,.07.38.75.75,0,0,0,.2.29.72.72,0,0,0,.31.2,1.35,1.35,0,0,0,.41.07H199v.68h-3.37a.37.37,0,0,1-.2,0,.17.17,0,0,1-.07-.16v-.26a.31.31,0,0,1,0-.11l.06-.07.09,0h1.12a2,2,0,0,1-.15-.43,2.09,2.09,0,0,1-.05-.42,1.74,1.74,0,0,1,.1-.61,1.69,1.69,0,0,1,.31-.5,1.45,1.45,0,0,1,.48-.34,1.39,1.39,0,0,1,.61-.12h.18l.21,0,.2,0,.15,0Z" transform="translate(-5.95 -42.93)"/><path class="cls-6" d="M68.52,103.65v.47H65.76v2h2.5v.49h-2.5v2.18h2.79v.48H65.27v-5.58Z" transform="translate(-5.95 -42.93)"/><path class="cls-6" d="M71.48,109.26a4.93,4.93,0,0,1-.55,0,3.06,3.06,0,0,1-.63-.06,1,1,0,0,1-.47-.25,1.05,1.05,0,0,1-.29-.48,2.33,2.33,0,0,1-.1-.76v-2.21h.47v2a3,3,0,0,0,.06.66,1,1,0,0,0,.19.39.69.69,0,0,0,.32.19,2.12,2.12,0,0,0,.47,0l.48,0a3.1,3.1,0,0,0,.51-.11v-3.17h.48v3.81A1.26,1.26,0,0,1,72,110.4a1.83,1.83,0,0,1-1.15.34l-.32,0-.32,0-.32-.08-.33-.13-.08-.59.41.21.3.1.32.06.3,0a1.4,1.4,0,0,0,.84-.23.9.9,0,0,0,.31-.77v-.09Z" transform="translate(-5.95 -42.93)"/><path class="cls-6" d="M75.88,108.73a2.53,2.53,0,0,0,.61-.27l.23.43a2.64,2.64,0,0,1-.7.3,3.05,3.05,0,0,1-.85.1,1.83,1.83,0,0,1-.75-.15,2,2,0,0,1-.6-.4,1.73,1.73,0,0,1-.39-.6,2.05,2.05,0,0,1,0-1.54,1.66,1.66,0,0,1,.4-.6,1.94,1.94,0,0,1,.6-.41,2,2,0,0,1,.73-.14,1.68,1.68,0,0,1,.72.14,1.49,1.49,0,0,1,.56.39,1.83,1.83,0,0,1,.37.62,2.58,2.58,0,0,1,.14.9H73.78a1.56,1.56,0,0,0,.11.48,1.31,1.31,0,0,0,.28.45,1.5,1.5,0,0,0,.43.3,1.38,1.38,0,0,0,.55.1A2.47,2.47,0,0,0,75.88,108.73ZM74.63,106a1.38,1.38,0,0,0-.4.26,1.36,1.36,0,0,0-.27.39,1.82,1.82,0,0,0-.14.38h2.6a1.24,1.24,0,0,0-.12-.41,1.19,1.19,0,0,0-.27-.38.88.88,0,0,0-.38-.24,1.21,1.21,0,0,0-.48-.09A1.74,1.74,0,0,0,74.63,106Z" transform="translate(-5.95 -42.93)"/><path class="cls-6" d="M87.17,105.49a5.89,5.89,0,0,1,.69,0,3,3,0,0,1,.63.07,1.27,1.27,0,0,1,.51.24,1.19,1.19,0,0,1,.32.48,2.37,2.37,0,0,1,.11.77v2.21H89v-2a2,2,0,0,0-.08-.66,1,1,0,0,0-.21-.39.79.79,0,0,0-.35-.19,2.09,2.09,0,0,0-.48-.06,5.38,5.38,0,0,0-1,.11v3.2h-.48v-3.6Z" transform="translate(-5.95 -42.93)"/><path class="cls-6" d="M97.8,105.48l.55,0a2.62,2.62,0,0,1,.64.07,1.11,1.11,0,0,1,.5.24,1.19,1.19,0,0,1,.32.48,2.35,2.35,0,0,1,.11.76v2.22h-.47v-2a2.25,2.25,0,0,0-.08-.65,1,1,0,0,0-.22-.39.72.72,0,0,0-.34-.19,1.75,1.75,0,0,0-.48-.06,5.39,5.39,0,0,0-1,.11v3.2h-.48v-5.58h.48v1.9C97.44,105.52,97.61,105.49,97.8,105.48Z" transform="translate(-5.95 -42.93)"/><path class="cls-6" d="M103.31,108.73a2.65,2.65,0,0,0,.6-.27l.23.43a2.58,2.58,0,0,1-.69.3,3.08,3.08,0,0,1-.86.1,1.87,1.87,0,0,1-1.34-.55,1.91,1.91,0,0,1-.4-.6,2.19,2.19,0,0,1,0-1.54,1.6,1.6,0,0,1,.41-.6,1.89,1.89,0,0,1,.59-.41,2,2,0,0,1,.73-.14,1.73,1.73,0,0,1,.73.14,1.67,1.67,0,0,1,.56.39,1.83,1.83,0,0,1,.37.62,3.15,3.15,0,0,1,.14.9h-3.17a1.53,1.53,0,0,0,.1.48,1.48,1.48,0,0,0,.28.45,1.84,1.84,0,0,0,.43.3,1.47,1.47,0,0,0,.56.1A2.57,2.57,0,0,0,103.31,108.73ZM102.06,106a1.26,1.26,0,0,0-.4.26,1.62,1.62,0,0,0-.28.39,1.71,1.71,0,0,0-.13.38h2.6a2,2,0,0,0-.12-.41,1.36,1.36,0,0,0-.27-.38,1,1,0,0,0-.38-.24,1.26,1.26,0,0,0-.49-.09A1.73,1.73,0,0,0,102.06,106Z" transform="translate(-5.95 -42.93)"/><path class="cls-6" d="M108.28,103.65h3.19v.47h-2.7v2h2.42v.49h-2.42v2.66h-.5v-5.58Z" transform="translate(-5.95 -42.93)"/><path class="cls-6" d="M115,105.52v3.54c-.3.08-.56.14-.8.18a4.23,4.23,0,0,1-.7.06,3,3,0,0,1-.62-.06,1.1,1.1,0,0,1-.48-.25,1.26,1.26,0,0,1-.29-.48,2.64,2.64,0,0,1-.1-.76v-2.21h.47v2a2.89,2.89,0,0,0,.07.66,1,1,0,0,0,.19.39.59.59,0,0,0,.32.18,1.63,1.63,0,0,0,.47.06,2.82,2.82,0,0,0,.48,0,3.28,3.28,0,0,0,.51-.1v-3.17H115Z" transform="translate(-5.95 -42.93)"/><path class="cls-6" d="M116.5,105.52v-1.34H117v1.34h1.52V106H117v1.81a2.09,2.09,0,0,0,0,.48.7.7,0,0,0,.13.3.68.68,0,0,0,.26.16,1.4,1.4,0,0,0,.4,0h.75v.46h-.7a2.28,2.28,0,0,1-.54-.07,1,1,0,0,1-.43-.21,1.05,1.05,0,0,1-.29-.39,1.61,1.61,0,0,1-.1-.59v-2h-.79v-.46Z" transform="translate(-5.95 -42.93)"/><path class="cls-6" d="M122.43,105.52v3.54c-.3.08-.56.14-.8.18a4.23,4.23,0,0,1-.7.06,2.9,2.9,0,0,1-.62-.06,1.1,1.1,0,0,1-.48-.25,1.05,1.05,0,0,1-.29-.48,2.33,2.33,0,0,1-.1-.76v-2.21h.47v2a2.42,2.42,0,0,0,.07.66.94.94,0,0,0,.18.39.66.66,0,0,0,.33.18,1.56,1.56,0,0,0,.46.06,2.74,2.74,0,0,0,.48,0,2.88,2.88,0,0,0,.51-.1v-3.17h.49Z" transform="translate(-5.95 -42.93)"/><path class="cls-6" d="M125,106a3.75,3.75,0,0,0-.45,0,1.75,1.75,0,0,0-.33.07v3.14h-.47v-3.52l.58-.13a3.05,3.05,0,0,1,.6-.06h.68V106Z" transform="translate(-5.95 -42.93)"/><path class="cls-6" d="M128.44,108.73a2.71,2.71,0,0,0,.61-.27l.23.43a2.64,2.64,0,0,1-.7.3,3.05,3.05,0,0,1-.85.1,1.83,1.83,0,0,1-.75-.15,2,2,0,0,1-.6-.4,1.73,1.73,0,0,1-.39-.6,2.05,2.05,0,0,1,0-1.54,1.66,1.66,0,0,1,.4-.6,1.94,1.94,0,0,1,.6-.41,2,2,0,0,1,.73-.14,1.68,1.68,0,0,1,.72.14,1.49,1.49,0,0,1,.56.39,1.83,1.83,0,0,1,.37.62,2.58,2.58,0,0,1,.14.9h-3.17a1.56,1.56,0,0,0,.11.48,1.31,1.31,0,0,0,.28.45,1.5,1.5,0,0,0,.43.3,1.38,1.38,0,0,0,.55.1A2.47,2.47,0,0,0,128.44,108.73ZM127.19,106a1.38,1.38,0,0,0-.4.26,1.36,1.36,0,0,0-.27.39,1.82,1.82,0,0,0-.14.38H129a1.54,1.54,0,0,0-.12-.41,1.19,1.19,0,0,0-.27-.38.88.88,0,0,0-.38-.24,1.21,1.21,0,0,0-.48-.09A1.74,1.74,0,0,0,127.19,106Z" transform="translate(-5.95 -42.93)"/><text class="cls-7" transform="translate(73.67 66.58)">O</text><text class="cls-7" transform="translate(83.72 66.58)"><tspan xml:space="preserve"> T</tspan></text></svg>