<svg id="MALATH" xmlns="http://www.w3.org/2000/svg" xmlns:xlink="http://www.w3.org/1999/xlink" viewBox="0 0 184.6 143"><defs><style>.cls-1{fill:none;}.cls-2{clip-path:url(#clip-path);}.cls-3{fill:#153e35;}.cls-4{fill:#847770;}</style><clipPath id="clip-path" transform="translate(-9.24 -6)"><rect class="cls-1" x="9.24" y="6" width="184.6" height="143"/></clipPath></defs><g class="cls-2"><path class="cls-3" d="M188.11,44.15a10.79,10.79,0,0,0,4.36-4.2,12.71,12.71,0,0,0,1.37-6.11,13.61,13.61,0,0,0-1.25-6,12.44,12.44,0,0,0-3.47-4.35A15,15,0,0,0,184,20.86a22.65,22.65,0,0,0-6.4-.89,24.89,24.89,0,0,0-6.48.8A14,14,0,0,0,166,23.25a11.3,11.3,0,0,0-3.39,4.32,14.77,14.77,0,0,0-1.23,6.27,11.47,11.47,0,0,0,.73,4.26,13.6,13.6,0,0,0,1.73,3.11,9.92,9.92,0,0,0,2,2,7,7,0,0,0,1.56.91l.35.15H109.69c0-1.4,0-2.82,0-4.29V6.21H101V8c.63.09,1.32.21,2.11.37A2.8,2.8,0,0,1,105,9.65V40h0v7.47a21.42,21.42,0,0,1-.43,4.18,12.44,12.44,0,0,1-1.49,3.86,8.21,8.21,0,0,1-2.78,2.84A8,8,0,0,1,96,59.39c-2.58,0-4.45-.91-5.49-2.77a14.89,14.89,0,0,1-1.58-7.38v-14H80.1v2a4.83,4.83,0,0,0,1,.06,9,9,0,0,1,1.7.18,2.21,2.21,0,0,1,1.37,1V50.29a18.44,18.44,0,0,0,.65,5,11.9,11.9,0,0,0,2,4,9.64,9.64,0,0,0,3.44,2.62,11.93,11.93,0,0,0,5.06,1,12.81,12.81,0,0,0,4-.55A8.47,8.47,0,0,0,102,60.83a7.59,7.59,0,0,0,1.73-2c.41-.76.81-1.51,1.13-2.27H105v5.89h8.57V60.79a5.91,5.91,0,0,0-1,0,9.2,9.2,0,0,1-1,0,2.87,2.87,0,0,1-1-.23,1.82,1.82,0,0,1-.87-.73c-.05-1.58,0-3.07,0-4.42V49.33h80.76a2.85,2.85,0,0,1,1.22,1.9c.15.8.25,1.52.35,2.18h1.52V44.3H187.9Zm-1.9-2A13.44,13.44,0,0,1,182,43.78a19.51,19.51,0,0,1-8.82,0A12.3,12.3,0,0,1,169,42.2a9.88,9.88,0,0,1-3.14-3,8.34,8.34,0,0,1-1.25-4.66,9,9,0,0,1,1.18-4.79,9.39,9.39,0,0,1,3.06-3,12.81,12.81,0,0,1,4.19-1.54,23.49,23.49,0,0,1,9,0,12.86,12.86,0,0,1,4.2,1.54,9.3,9.3,0,0,1,3.06,3,8.58,8.58,0,0,1,1.22,4.79,8.11,8.11,0,0,1-1.24,4.59,9.54,9.54,0,0,1-3.13,3" transform="translate(-9.24 -6)"/><path class="cls-3" d="M88.88,6.21V29.46h-4.7V9.65a2.76,2.76,0,0,0-1.85-1.28c-.78-.16-1.48-.28-2.08-.37V6.21Z" transform="translate(-9.24 -6)"/><path class="cls-3" d="M65,21.64q5.18,0,7.83,2.57c1.76,1.72,2.65,4.77,2.65,8.9a15.6,15.6,0,0,1-.55,4.4,12.69,12.69,0,0,1-1.46,3.25,10,10,0,0,1-2,2.24,7.69,7.69,0,0,1-2.12,1.27h5.8v9.27H73.4c-.07-.66-.18-1.42-.33-2.24a3,3,0,0,0-1.19-2H9.56v-5H60.34a18.18,18.18,0,0,0,4-.47,11.43,11.43,0,0,0,3.86-1.62,9.36,9.36,0,0,0,2.86-3,9,9,0,0,0,1.15-4.73c0-2.82-.87-4.84-2.59-6a12,12,0,0,0-7-1.82H9.56V17.41h1.55c.08.66.19,1.41.33,2.24a3,3,0,0,0,1.2,2Z" transform="translate(-9.24 -6)"/><path class="cls-3" d="M15.51,9.23a3.11,3.11,0,0,1-3,3.2,3.1,3.1,0,0,1-3-3.2,3.12,3.12,0,0,1,3-3.23,3.12,3.12,0,0,1,3,3.23" transform="translate(-9.24 -6)"/><path class="cls-4" d="M9.24,137.36a1,1,0,0,1,.36-.81,1.18,1.18,0,0,1,.85-.33,1.13,1.13,0,0,1,.86.33,1.07,1.07,0,0,1,.33.81,1.09,1.09,0,0,1-.33.8,1.17,1.17,0,0,1-.86.33,1.15,1.15,0,0,1-.85-.34,1.06,1.06,0,0,1-.36-.79m.27,3.4h1.91v7.93H9.51Z" transform="translate(-9.24 -6)"/><path class="cls-4" d="M26.84,148.69v-7.93h1.8v1.32a3.46,3.46,0,0,1,1.34-1.2,4.78,4.78,0,0,1,3.48-.1,2.41,2.41,0,0,1,1,.83,2.5,2.5,0,0,1,.32.78,8.18,8.18,0,0,1,.09,1.5v4.8H33v-4.07a3.56,3.56,0,0,0-.42-2.06,1.66,1.66,0,0,0-1.41-.5,2.78,2.78,0,0,0-1.19.22,1.8,1.8,0,0,0-.83.66,1.83,1.83,0,0,0-.29.73,10.6,10.6,0,0,0-.09,1.41v3.61Z" transform="translate(-9.24 -6)"/><path class="cls-4" d="M50.07,147.24l1.6-.82a1.56,1.56,0,0,0,.64.91,2.37,2.37,0,0,0,1.24.31,1.72,1.72,0,0,0,1-.27,1,1,0,0,0,.35-.77c0-.43-.41-.8-1.28-1.1-.29-.11-.52-.19-.67-.26a5.56,5.56,0,0,1-1.88-1.07,1.89,1.89,0,0,1-.53-1.32,2.08,2.08,0,0,1,.87-1.71,4.44,4.44,0,0,1,4-.33,2.31,2.31,0,0,1,1,1l-1.36.88a1.26,1.26,0,0,0-.52-.6,1.57,1.57,0,0,0-.86-.2,1.43,1.43,0,0,0-.88.24.71.71,0,0,0-.33.65c0,.41.51.79,1.49,1.12.31.1.53.19.71.26a4.23,4.23,0,0,1,1.63,1,1.92,1.92,0,0,1,.51,1.35,2.21,2.21,0,0,1-.9,1.88,4.3,4.3,0,0,1-2.51.66,4.39,4.39,0,0,1-2-.42,3.21,3.21,0,0,1-1.29-1.34" transform="translate(-9.24 -6)"/><path class="cls-4" d="M73.88,140.76v4.47a2.29,2.29,0,0,0,.51,1.66,2.33,2.33,0,0,0,1.63.49,2.41,2.41,0,0,0,1.65-.49,2.34,2.34,0,0,0,.5-1.66v-4.47h1.9v3.92a4.74,4.74,0,0,1-1,3.29A4,4,0,0,1,76,149,4.11,4.11,0,0,1,73,148a4.86,4.86,0,0,1-1-3.32v-3.92Z" transform="translate(-9.24 -6)"/><path class="cls-4" d="M97.15,142a2.7,2.7,0,0,1,.82-1.16,2.06,2.06,0,0,1,1.25-.38,2.9,2.9,0,0,1,.79.1,5.54,5.54,0,0,1,.78.27l-.69,1.53a1.75,1.75,0,0,0-.52-.24,2.23,2.23,0,0,0-.65-.08,1.42,1.42,0,0,0-1.36.72,5,5,0,0,0-.42,2.41v3.48H95.27v-7.93h1.88Z" transform="translate(-9.24 -6)"/><path class="cls-4" d="M124.44,148.69h-1.9v-1a3.62,3.62,0,0,1-1.19,1,3.51,3.51,0,0,1-1.56.32,3.42,3.42,0,0,1-2.78-1.16,4.47,4.47,0,0,1-1-3.13,4.39,4.39,0,0,1,1-3,3.47,3.47,0,0,1,2.71-1.17,3.72,3.72,0,0,1,1.76.41,2.36,2.36,0,0,1,1.05,1.19v-1.34h1.9Zm-1.86-4a2.81,2.81,0,0,0-.59-1.9,2.11,2.11,0,0,0-1.69-.68,2.24,2.24,0,0,0-1.71.69,2.91,2.91,0,0,0-.61,1.94,3,3,0,0,0,.58,2,2.23,2.23,0,0,0,1.71.67,2.15,2.15,0,0,0,1.67-.74,2.78,2.78,0,0,0,.64-1.93" transform="translate(-9.24 -6)"/><path class="cls-4" d="M139.63,148.69v-7.93h1.81v1.32a3.43,3.43,0,0,1,1.33-1.2,4.33,4.33,0,0,1,1.89-.38,4.19,4.19,0,0,1,1.59.28,2.44,2.44,0,0,1,1,.83,2.27,2.27,0,0,1,.3.78,6.5,6.5,0,0,1,.1,1.5v4.8h-1.92v-4.07a3.6,3.6,0,0,0-.4-2.06,1.74,1.74,0,0,0-1.44-.5,2.72,2.72,0,0,0-1.17.22,1.66,1.66,0,0,0-.83.66,1.83,1.83,0,0,0-.31.73,12.46,12.46,0,0,0-.05,1.41v3.61Z" transform="translate(-9.24 -6)"/><path class="cls-4" d="M169.72,143a2.8,2.8,0,0,0-1-.7,3.53,3.53,0,0,0-1.3-.24,2.53,2.53,0,0,0-1.86.71,3,3,0,0,0,0,3.82,2.7,2.7,0,0,0,2,.7,3.1,3.1,0,0,0,1.25-.25,2.85,2.85,0,0,0,.94-.74v2.1a4.29,4.29,0,0,1-1.12.41,5.4,5.4,0,0,1-1.28.15,4.43,4.43,0,0,1-3.21-1.18,4,4,0,0,1-1.22-3.06,3.91,3.91,0,0,1,1.28-3.08,4.73,4.73,0,0,1,3.35-1.18,5.83,5.83,0,0,1,1.21.13,3.59,3.59,0,0,1,1,.37Z" transform="translate(-9.24 -6)"/><path class="cls-4" d="M193.57,145h-6.65a2.51,2.51,0,0,0,.69,1.71,2.26,2.26,0,0,0,1.66.62,2.78,2.78,0,0,0,1.53-.38,3,3,0,0,0,1.06-1.16l1.6.84a4.79,4.79,0,0,1-1.72,1.79,4.87,4.87,0,0,1-2.44.58,4.36,4.36,0,0,1-3.19-1.16,4.53,4.53,0,0,1,0-6.13,4.23,4.23,0,0,1,3.14-1.21,4.28,4.28,0,0,1,3.13,1.1,4,4,0,0,1,1.14,3.05Zm-2-1.23a2.09,2.09,0,0,0-.69-1.29,2.58,2.58,0,0,0-1.56-.42,2.43,2.43,0,0,0-1.51.41,2.55,2.55,0,0,0-.79,1.3Z" transform="translate(-9.24 -6)"/><path class="cls-4" d="M87.68,72.19c-2.67,0-4.53,1.38-4.53,3.29a1.78,1.78,0,0,0,0,.39l0,.06H53.51a2,2,0,0,0,.5-1.65V71.09H51.79v3.29a1.7,1.7,0,0,1-.25,1.06,1.57,1.57,0,0,1-1.37.49H22.07a3.37,3.37,0,0,0,.11-.88v-4H19.92v3.78a3.33,3.33,0,0,1-1,2.39,4.22,4.22,0,0,1-3.07,1.14,4.19,4.19,0,0,1-3.07-1.14,3.36,3.36,0,0,1-1-2.39V71.09H9.55v4a4.22,4.22,0,0,0,1.89,3.47,7.13,7.13,0,0,0,4.44,1.4,7.65,7.65,0,0,0,3.17-.65,5.78,5.78,0,0,0,2.24-1.71H84a5,5,0,0,0,3.64,1.25c2.65,0,4.47-1.39,4.47-3.27s-1.82-3.35-4.47-3.35m0,5.15a2.05,2.05,0,0,1-2.28-1.87,1.94,1.94,0,0,1,2.16-1.83,2,2,0,0,1,2.25,1.9,1.89,1.89,0,0,1-2.13,1.8" transform="translate(-9.24 -6)"/><path class="cls-4" d="M97,67H95.38a.52.52,0,0,1-.35-.53.61.61,0,0,1,.67-.54c.31,0,.5.09.56.31l.72-.28a1.4,1.4,0,0,0-1.25-.62c-.86,0-1.56.48-1.56,1.14a1.8,1.8,0,0,0,.17.52h-.79v.64H97Z" transform="translate(-9.24 -6)"/><path class="cls-4" d="M191.31,68.36v6.08a2,2,0,0,1-.17,1c-.2.31-.67.46-1.41.46H160.9c.35-.27.49-.81.49-1.65V68.36h-2.22v6a1.87,1.87,0,0,1-.23,1.06,1.55,1.55,0,0,1-1.34.49h-29a2.08,2.08,0,0,0,.48-1.65V71.09h-2.22v3.29a1.77,1.77,0,0,1-.25,1.06,1.53,1.53,0,0,1-1.34.49H98.8a4.2,4.2,0,0,1-1.73-.25,1.37,1.37,0,0,1-.64-1.36v-6h-2.2V75A2.23,2.23,0,0,0,95,76.8a3.58,3.58,0,0,0,2.47.76h92.71c2.22,0,3.34-.86,3.34-2.58V68.36Z" transform="translate(-9.24 -6)"/><path class="cls-4" d="M15.89,70.07a1.15,1.15,0,0,0,.85-.34,1,1,0,0,0,.35-.8,1.07,1.07,0,0,0-.35-.82,1.18,1.18,0,0,0-.85-.3,1.32,1.32,0,0,0-.87.32,1.11,1.11,0,0,0,0,1.6,1.24,1.24,0,0,0,.87.34" transform="translate(-9.24 -6)"/><path class="cls-4" d="M49.05,78.72a1.17,1.17,0,0,0-.86.32,1.1,1.1,0,0,0,0,1.61,1.22,1.22,0,0,0,.86.33,1.19,1.19,0,0,0,.84-.33,1.12,1.12,0,0,0,.33-.81,1.08,1.08,0,0,0-.33-.82,1.17,1.17,0,0,0-.84-.3" transform="translate(-9.24 -6)"/><path class="cls-4" d="M52.84,78.72A1.16,1.16,0,0,0,52,79a1.06,1.06,0,0,0,0,1.61,1.21,1.21,0,0,0,.85.33,1.08,1.08,0,0,0,.83-.33,1,1,0,0,0,.36-.81,1,1,0,0,0-.36-.82,1.09,1.09,0,0,0-.83-.3" transform="translate(-9.24 -6)"/><path class="cls-4" d="M124.19,70.07a1.14,1.14,0,0,0,.86-.34,1.16,1.16,0,0,0,0-1.62,1.19,1.19,0,0,0-.86-.3,1.2,1.2,0,0,0-.84.32,1.09,1.09,0,0,0-.36.8,1.1,1.1,0,0,0,.36.8,1.14,1.14,0,0,0,.84.34" transform="translate(-9.24 -6)"/><path class="cls-4" d="M128,70.07a1.15,1.15,0,0,0,.84-.34,1.08,1.08,0,0,0,.33-.8,1.12,1.12,0,0,0-.33-.82,1.19,1.19,0,0,0-.84-.3,1.24,1.24,0,0,0-.86.32,1.08,1.08,0,0,0-.35.8,1.09,1.09,0,0,0,.35.8,1.17,1.17,0,0,0,.86.34" transform="translate(-9.24 -6)"/><path class="cls-3" d="M104.1,131.73a8.67,8.67,0,0,1-1.74.16,6.68,6.68,0,0,0-1.08.07v1.85H114.5V132a6.34,6.34,0,0,0-1-.07,8.73,8.73,0,0,1-1.76-.16,2.42,2.42,0,0,1-1.44-.88V83.1h-9V85a6.42,6.42,0,0,0,1.08.08,10.37,10.37,0,0,1,1.74.14,2.28,2.28,0,0,1,1.43.91v44.77a2.32,2.32,0,0,1-1.43.88" transform="translate(-9.24 -6)"/><path class="cls-3" d="M161.45,100.75V98h-5.79V83.1h-9V85a5.15,5.15,0,0,0,1.05.08,10.28,10.28,0,0,1,1.76.14,2.34,2.34,0,0,1,1.43.91V98h-5.19v2.75h5.19v29.11s.42,6.23,10.08,4v-1.65s-5.21,2.08-5.38-2.39v-29Z" transform="translate(-9.24 -6)"/><path class="cls-3" d="M64.79,133.81l0-1.85a7.6,7.6,0,0,0-1-.07,10.28,10.28,0,0,1-1.76-.14,2.31,2.31,0,0,1-1.43-.9v-21a15.59,15.59,0,0,0-.66-4.67,10.27,10.27,0,0,0-2.08-3.72A9.78,9.78,0,0,0,54.26,99a13,13,0,0,0-5.07-.9,14.09,14.09,0,0,0-4.15.52,9.55,9.55,0,0,0-2.77,1.37,6.82,6.82,0,0,0-1.77,1.88,22.91,22.91,0,0,0-1.2,2.11l-.51,1.37s0-.1,0-.15a10.42,10.42,0,0,0-2.08-3.72A10,10,0,0,0,33.13,99a12.94,12.94,0,0,0-5.07-.9,13.81,13.81,0,0,0-4.13.52,9.62,9.62,0,0,0-2.78,1.37,7,7,0,0,0-1.78,1.88c-.34.55-.65,1.11-.92,1.61V98.05H9.54v1.86a7.32,7.32,0,0,0,1,.06,8.54,8.54,0,0,1,1.76.17,2.25,2.25,0,0,1,1.42.88v32.8h4.73V110.93a13.1,13.1,0,0,1,1.42-5.63c.07-.1.15-.23.22-.35A8.47,8.47,0,0,1,23,102.28a9.25,9.25,0,0,1,4.46-1q4,0,5.64,2.6a12.91,12.91,0,0,1,1.63,6.92v23h9L43.61,132a7.17,7.17,0,0,0-1-.07,10.16,10.16,0,0,1-1.75-.14,2.33,2.33,0,0,1-1.44-.9V113h0c-.18-5,1.5-7.82,2.78-9.24a9.48,9.48,0,0,1,1.88-1.45,9.21,9.21,0,0,1,4.45-1q4,0,5.66,2.6a13.1,13.1,0,0,1,1.61,6.92v23Z" transform="translate(-9.24 -6)"/><path class="cls-3" d="M192.32,131.89a10,10,0,0,1-1.74-.14,2.35,2.35,0,0,1-1.46-.9v-21a15.09,15.09,0,0,0-.66-4.68A9.56,9.56,0,0,0,182.87,99a13.12,13.12,0,0,0-5.09-.9,14.06,14.06,0,0,0-4.14.52,10.23,10.23,0,0,0-2.77,1.37,7.34,7.34,0,0,0-1.78,1.88c-.28.45-.53.9-.77,1.34V83.1h-9V85a5.52,5.52,0,0,0,1.07.08,10.44,10.44,0,0,1,1.76.14,2.38,2.38,0,0,1,1.42.91v47.73h4.72V111.22a13.77,13.77,0,0,1,1.84-6.64,7.77,7.77,0,0,1,1.07-1.27,13.66,13.66,0,0,1,1.47-1,9.19,9.19,0,0,1,4.46-1c2.69,0,4.54.87,5.63,2.6a12.93,12.93,0,0,1,1.63,6.93v23h9.11V132a10.62,10.62,0,0,0-1.21-.07" transform="translate(-9.24 -6)"/><path class="cls-3" d="M97.61,131.89a8.51,8.51,0,0,1-1.75-.16,2.35,2.35,0,0,1-1.42-.82V109c.16-11.13-10.56-10.85-10.56-10.85a20.65,20.65,0,0,0-14.47,5.27l1.91,2.35a16.19,16.19,0,0,1,7-4c6.89-1.93,9.8,1.51,11,3.94a9.09,9.09,0,0,1,.7,2.94V110a.88.88,0,0,0,0,.23v2.67c-.08-.15-.15-.29-.23-.42s-.23-.34-.38-.54c0,0,0-.06,0-.07a4.14,4.14,0,0,0-.35-.43,8.27,8.27,0,0,0-1.88-1.64,12.76,12.76,0,0,0-2.89-1.4,11.84,11.84,0,0,0-4-.59,15.8,15.8,0,0,0-5.86,1,11,11,0,0,0-4,2.77,10.62,10.62,0,0,0-2.28,4.15,16.78,16.78,0,0,0-.76,5.25,15.66,15.66,0,0,0,.84,5.2,12.21,12.21,0,0,0,2.48,4.18,11.5,11.5,0,0,0,4,2.8,14.61,14.61,0,0,0,5.58,1A13.36,13.36,0,0,0,86,133a9.48,9.48,0,0,0,3.9-3.53l.13-.21v4.52h8.67V132a6.39,6.39,0,0,0-1.06-.07m-8.08-7.33A9.9,9.9,0,0,1,88,128a8.2,8.2,0,0,1-2.82,2.53,8.47,8.47,0,0,1-4.3,1,9.33,9.33,0,0,1-4.46-1,8.24,8.24,0,0,1-2.8-2.51,9.53,9.53,0,0,1-1.46-3.41,18.07,18.07,0,0,1-.4-3.67,18.36,18.36,0,0,1,.4-3.7,9.54,9.54,0,0,1,1.46-3.38,7.51,7.51,0,0,1,2.8-2.48,9.33,9.33,0,0,1,4.46-1,8.6,8.6,0,0,1,4.34,1A8.44,8.44,0,0,1,88.06,114a11,11,0,0,1,1.51,3.41A16.31,16.31,0,0,1,90,121a14.36,14.36,0,0,1-.47,3.6" transform="translate(-9.24 -6)"/><path class="cls-3" d="M147.26,131.89a8.16,8.16,0,0,1-1.74-.16,2.24,2.24,0,0,1-1.43-.82V109c.15-11.13-10.55-10.85-10.55-10.85a20.66,20.66,0,0,0-14.48,5.27l1.91,2.35a16.17,16.17,0,0,1,7-4c6.91-1.93,9.81,1.51,11,3.94a8.4,8.4,0,0,1,.69,2.94V110a.88.88,0,0,1,0,.23v2.67a4.13,4.13,0,0,0-.22-.42,4.57,4.57,0,0,0-.36-.54s0-.06-.05-.07a4.14,4.14,0,0,0-.35-.43,8.57,8.57,0,0,0-1.86-1.64,13.37,13.37,0,0,0-2.91-1.4,11.9,11.9,0,0,0-4-.59,15.6,15.6,0,0,0-5.85,1,10.7,10.7,0,0,0-4,2.77,11.09,11.09,0,0,0-2.32,4.15A18.05,18.05,0,0,0,117,121a15.92,15.92,0,0,0,.83,5.2,11.9,11.9,0,0,0,2.48,4.18,11.59,11.59,0,0,0,4.06,2.8,14.57,14.57,0,0,0,5.58,1,13.31,13.31,0,0,0,5.71-1.12,9.54,9.54,0,0,0,3.9-3.53l.11-.21v4.52h8.68V132a6.25,6.25,0,0,0-1.05-.07m-8.08-7.33a9.72,9.72,0,0,1-1.54,3.4,8,8,0,0,1-2.84,2.53,8.34,8.34,0,0,1-4.28,1,9.35,9.35,0,0,1-4.46-1,8.6,8.6,0,0,1-2.82-2.51,9.86,9.86,0,0,1-1.44-3.41,16.76,16.76,0,0,1-.4-3.67,17,17,0,0,1,.4-3.7,9.88,9.88,0,0,1,1.44-3.38,7.81,7.81,0,0,1,2.82-2.48,9.36,9.36,0,0,1,4.46-1,8.72,8.72,0,0,1,4.35,1,8.43,8.43,0,0,1,2.82,2.53,9.76,9.76,0,0,1,1.52,3.41,16.27,16.27,0,0,1,.42,3.57,14.79,14.79,0,0,1-.45,3.6" transform="translate(-9.24 -6)"/></g></svg>