<svg id="MEDGULF" xmlns="http://www.w3.org/2000/svg" viewBox="0 0 193 38.57"><defs><style>.cls-1{fill:#005d83;}</style></defs><path class="cls-1" d="M51.06,60.18,51.14,90a10,10,0,0,0-2.24-2.81,12.09,12.09,0,0,0-8.12-2.6,12.23,12.23,0,0,0-8.14,2.64,10.7,10.7,0,0,0-3.1,4.6,10.46,10.46,0,0,0-3-4.59,12.09,12.09,0,0,0-8.11-2.6,12.23,12.23,0,0,0-8.14,2.64,10.36,10.36,0,0,0-2.37,3l-.08-30ZM6,58.79,6.1,97H7.92c0-.57-.07-5.78,3.48-8.8a10.52,10.52,0,0,1,7-2.24,10.3,10.3,0,0,1,7,2.2c2.95,2.53,3.32,7.39,3.36,8.79h1.59c.06-1.41.5-6.27,3.47-8.8a10.51,10.51,0,0,1,7-2.24,10.3,10.3,0,0,1,7,2.2c3.64,3.12,3.36,8.73,3.36,8.79H53l-.11-38.22Z" transform="translate(-6 -58.5)"/><path class="cls-1" d="M40.71,87.39a8.63,8.63,0,0,0-5.83,1.93C31.67,92.1,32,96.9,32,96.94h1.55c0-.18-.21-4.45,2.46-6.75a7,7,0,0,1,4.7-1.53,7.16,7.16,0,0,1,4.75,1.51c2.78,2.34,2.63,6.69,2.63,6.73h1.56c0-.49.06-5-3.07-7.61a8.74,8.74,0,0,0-5.87-1.9" transform="translate(-6 -58.5)"/><path class="cls-1" d="M40.63,90.05a5.63,5.63,0,0,0-3.87,1.31c-2.15,1.9-1.93,5.21-1.89,5.57h1.51s-.28-3.16,1.5-4.73a4,4,0,0,1,2.76-.92,4.06,4.06,0,0,1,2.77.91C45.09,93.65,45,96.57,45,96.91h1.52c0-.37.21-3.68-2-5.57a5.7,5.7,0,0,0-3.88-1.29" transform="translate(-6 -58.5)"/><path class="cls-1" d="M18.26,87.44a8.82,8.82,0,0,0-5.86,1.93c-3.22,2.74-3,7.43-3,7.63h1.56c0-.44,0-4.51,2.6-6.74a7.08,7.08,0,0,1,4.73-1.54A7,7,0,0,1,23,90.22c2.69,2.29,2.51,6.56,2.51,6.74H27c0-.19.28-4.86-2.92-7.61a8.75,8.75,0,0,0-5.84-1.9" transform="translate(-6 -58.5)"/><path class="cls-1" d="M18.35,90.1a5.69,5.69,0,0,0-3.87,1.32c-2.24,2-1.94,5.43-1.93,5.57h1.51c0-.12-.21-3.19,1.53-4.73a4,4,0,0,1,2.76-.91,3.93,3.93,0,0,1,2.76.9c1.68,1.46,1.56,4.39,1.53,4.72h1.52c0-.14.29-3.61-1.93-5.56a5.67,5.67,0,0,0-3.88-1.3" transform="translate(-6 -58.5)"/><path class="cls-1" d="M75.94,96.71a1.17,1.17,0,0,0,.86-1.1l0-12.28a2.53,2.53,0,0,1,.07-.56l-.3.56L68.66,97.07l-8-13.31-.24-.66v.66l0,11.89c0,.54.36.88.92,1.09H57.72a1.21,1.21,0,0,0,.85-1.1l0-14.4c0-.47-.53-.9-1.06-1.1h5.8l6.62,11.19,6.34-11.22H81.8a1.12,1.12,0,0,0-.86,1.1l0,14.4a1.17,1.17,0,0,0,.86,1.1Z" transform="translate(-6 -58.5)"/><path class="cls-1" d="M98.75,96.66l-14.17,0c.55-.25,1-.52,1-1.1l0-14.4c0-.57-.46-.91-1-1.1l13.25,0,.11,2.15a3.36,3.36,0,0,0-2.58-.88c-1,0-5.6,0-5.6,0l0,5.61h5a1.59,1.59,0,0,0,1.18-.68V88.8a1.49,1.49,0,0,0-1.18-.7h-5l0,7.18c.66.07,2.67.14,4.29.11,2.86-.08,4.18,0,5.39-1.56Z" transform="translate(-6 -58.5)"/><path class="cls-1" d="M109,96.63l-8.47,0a1.22,1.22,0,0,0,.86-1.1l0-14.4a1.16,1.16,0,0,0-.86-1.1l8.77,0c10.84,0,13,5.66,13,8,0,4.25-4.4,8.56-13.3,8.58m-.43-15.38c-.8,0-2.54,0-3,.06l0,14.06h2.64c7.45,0,9.51-3.73,9.5-7.29,0-2.93-2.32-6.83-9.14-6.82" transform="translate(-6 -58.5)"/><path class="cls-1" d="M145.9,90.39V94a1.28,1.28,0,0,0,.53,1,31.67,31.67,0,0,1-10.08,1.81c-6.56,0-12.37-3.27-12.39-8.47,0-4.27,4.3-8.63,12.74-8.65A24.81,24.81,0,0,1,144.46,81l.24,3.88C143,81.51,138.82,81,137.27,81c-5.6,0-8.82,3.07-8.81,7,0,3.34,2.26,7.46,9.08,7.44a10.22,10.22,0,0,0,4.19-.81V90.4a1.2,1.2,0,0,0-.87-1.12h5.9a1.22,1.22,0,0,0-.85,1.12" transform="translate(-6 -58.5)"/><path class="cls-1" d="M166.08,81,166,91c0,4.16-3.32,5.78-7.8,5.79-3.86,0-8.77-1.25-8.78-5.57l0-10.16c0-.56-.53-.9-1.05-1.09l6.32,0c-.53.2-1,.54-1,1.1l0,10.23c0,1.71.8,4.12,5.09,4.11,3.92,0,5.33-1.91,5.32-4.33L164,81a1.18,1.18,0,0,0-.89-1.1h3.83a1.17,1.17,0,0,0-.86,1.1" transform="translate(-6 -58.5)"/><path class="cls-1" d="M183.16,96.45l-13.87,0a1.21,1.21,0,0,0,.92-1.11l0-14.4a1.15,1.15,0,0,0-.93-1.09l6,0a1.12,1.12,0,0,0-.85,1.1l0,14.11c.66,0,2.18.15,3.66.12,3.66-.08,4.81-.14,5.83-1.56Z" transform="translate(-6 -58.5)"/><path class="cls-1" d="M196.14,81.14c-1,0-6.36-.08-6.36-.08v5.61h5.14a1.55,1.55,0,0,0,1.22-.69v2.59a1.47,1.47,0,0,0-1.22-.7H189.8l0,7.47c0,.58.33.85,1,1.09l-6.13,0c.62-.25,1-.52,1-1.1l0-14.4c0-.57-.4-.91-1-1.1l14,0,.17,2.36c-.4-.58-1.09-1-2.64-1" transform="translate(-6 -58.5)"/><path class="cls-1" d="M83.44,73.39a6.18,6.18,0,0,1,2.5-4.69,8,8,0,0,1,4.78-1.38l0,6.05Zm49.44-.12-9.23,0a3.62,3.62,0,0,1-3-3.4,2.77,2.77,0,0,1,2.26-2.52,61.52,61.52,0,0,1,6.27-.19h3.63l.65-2.6c-1.14.88-.51.72-4.2.79h-4.21a29.21,29.21,0,0,0-3.84.23c-1.39.24-4.32,1.36-4.59,3.84a4.29,4.29,0,0,0,2.07,3.85l-10.76,0h0l0-13.81c0-.54.36-.79,1-1h-6.18c.63.23,1,.48,1,1l0,13.81-9.26,0,0-6.94c0-.55.36-.8,1-1,0,0-2.23,0-3,0-4.67,0-6.37.64-8,1.65a8.54,8.54,0,0,0-3.78,6.35s-14.4.07-14.89,0A6,6,0,0,1,63.26,73a1.66,1.66,0,0,1-.89-1.28l0-5.14c0-.55.36-.8,1-1l-6.18,0c.63.22,1,.47,1,1,0,0,0,4.3,0,4.4A4,4,0,0,0,60,74.16a6.23,6.23,0,0,0,2.87,1c.76.1,2.68.11,2.68.11l65.3-.15h0l7.18,0,.73-3.22c-1,1.32-2.19,1.32-5.88,1.39" transform="translate(-6 -58.5)"/><path class="cls-1" d="M91.13,63c0,.79-.86,1.43-1.92,1.43s-1.93-.63-1.93-1.42.86-1.42,1.92-1.42,1.93.63,1.93,1.41" transform="translate(-6 -58.5)"/><path class="cls-1" d="M129.65,62.88c0,.78-.86,1.42-1.93,1.43s-1.92-.64-1.93-1.42.86-1.42,1.93-1.43,1.92.64,1.93,1.42" transform="translate(-6 -58.5)"/><path class="cls-1" d="M175.18,75c1.06,0,1.92.64,1.93,1.42s-.86,1.42-1.92,1.43-1.93-.64-1.94-1.42.86-1.43,1.93-1.43" transform="translate(-6 -58.5)"/><path class="cls-1" d="M170.49,75c1.07,0,1.93.64,1.93,1.42s-.85,1.42-1.92,1.43-1.93-.63-1.93-1.42.86-1.42,1.92-1.43" transform="translate(-6 -58.5)"/><path class="cls-1" d="M194.43,73.13h-7.66V69.63c0-3.07,2.64-3.51,3.81-3.51s3.84.41,3.85,3.43Zm3.68,1v-4c0-3.77-3.91-5.47-7.53-5.46s-7.5,1.73-7.49,5.56v2.94l-8.4,0,0-7c0-.55.37-.79,1-1h-6.18c.64.23,1,.47,1,1l0,7-7.45,0a31.1,31.1,0,0,0-2.61-4.41c-2.22-3.26-6.21-3.47-7.59-3.46h-1.73c-3.69,0-3.19.07-4.21-.78l.67,2.45h4.55a4.53,4.53,0,0,1,4.16,1.84,17.33,17.33,0,0,1,2.56,4.38l-13.44,0c-2.08-.09-3-.35-3.77-1.37l.74,3.22h.06l10.33,0,15.56,0a3.53,3.53,0,0,1,4.39,0H173a3.52,3.52,0,0,1,2.2-.76,3.4,3.4,0,0,1,2.19.75l18.1,0H199c-.47-.21-.8-.46-.89-.83" transform="translate(-6 -58.5)"/></svg>