<svg id="ART" xmlns="http://www.w3.org/2000/svg" viewBox="0 0 193 41.93"><defs><style>.cls-1{fill:#000f9f;}.cls-2{fill:#2bace2;}.cls-3{fill:#00a7e1;}</style></defs><path class="cls-1" d="M182.31,64.33h-1.55a1.62,1.62,0,0,1-1.27-.73l-2.27-4c-.24-.4-.05-.73.42-.73h8.89a4.84,4.84,0,0,1,3.79,2.2l8.16,14.13a4.89,4.89,0,0,1,0,4.38l-8.16,14.12a4.83,4.83,0,0,1-3.79,2.19H169.25a4.18,4.18,0,0,1-2.83-2.19l-.89-1.54-2.28-3.94c-.23-.41-.62-1.06-.84-1.46l-.72-1.24c-.23-.4-.05-.73.42-.73h4.55a1.62,1.62,0,0,1,1.27.73l.72,1.24.84,1.46,0,.09a4.18,4.18,0,0,0,2.83,2.19h11a4.83,4.83,0,0,0,3.79-2.19l5-8.72a4.89,4.89,0,0,0,0-4.38l-5-8.73a4.86,4.86,0,0,0-3.79-2.19h-1.1Z" transform="translate(-6 -56.25)"/><path class="cls-2" d="M177.07,62.76l2.28,3.95.84,1.46.72,1.24c.23.4,0,.73-.42.73h-4.56a1.62,1.62,0,0,1-1.26-.73L174,68.17l-.84-1.46-.05-.07c-.7-1.2-2.09-2.31-2.95-2.31h-11a4.89,4.89,0,0,0-3.8,2.19l-5,8.72a4.83,4.83,0,0,0,0,4.38l5,8.73a4.89,4.89,0,0,0,3.8,2.19l1.22,0h1.44a1.62,1.62,0,0,1,1.26.73l2.29,3.94c.23.4.05.73-.42.73h-3.12l-4.55,0L156,96a4.88,4.88,0,0,1-3.8-2.2L144,79.62a4.83,4.83,0,0,1,0-4.38l8.15-14.12a4.86,4.86,0,0,1,3.8-2.19h17.28a4.18,4.18,0,0,1,2.83,2.19Z" transform="translate(-6 -56.25)"/><polygon class="cls-3" points="79.16 25.76 79.16 38.34 81 38.34 81 33.42 84.45 38.49 86.25 37.82 83.06 33.5 85.51 30.44 83.86 29.61 81 33.39 81 25.76 79.16 25.76"/><path class="cls-1" d="M113.86,64.84h2.23V62.9h-2.23Zm3.86,0H120V62.9h-2.23Zm0,4.86c0,1.73-.81,2.09-1.49,2.09h-6.08a3.82,3.82,0,0,0,0-2.57s-.89-3.07-1.58-5.42h0c-.78-2.69-.81-4.28,1.8-5l2.82-.82L114,59l1.57-.46-.75-1.06L114,56.25l-3.71,1.08c-5.2,1.52-4.58,4.23-3.67,7.36l.81,2.78.71,2.43a2.26,2.26,0,0,1-.06,1.89h-4.56c-.68,0-1.49-.36-1.49-2.09V58.23H99.77V69.64a3.9,3.9,0,0,0,.77,2.45,2.82,2.82,0,0,0,2.4,1.12h13.84a2.82,2.82,0,0,0,2.4-1.12,3.9,3.9,0,0,0,.77-2.45V66.28h-2.22Zm-58.87,0c0,1.73-.81,2.09-1.49,2.09h-.78V64.42H54.37v8.87A5.22,5.22,0,0,1,54,75.93a1.79,1.79,0,0,1-1,.84v.7c2.53-.06,3.61-1.34,3.61-4.26h1.32a2.82,2.82,0,0,0,2.4-1.12,3.9,3.9,0,0,0,.77-2.45V58.23H58.86Zm4.36,3.51h2.21v-15H63.22ZM40.63,63.76a8.55,8.55,0,0,0-3.76.82v3.77h2.22V65.52a3.57,3.57,0,0,1,1.64-.34c2.28,0,4.69,2.13,4.69,6a3.66,3.66,0,0,1-.07.56H35.12v-.52c0-4.42-3-7.51-7.26-7.51a8.51,8.51,0,0,0-3.75.82v3.77h2.21V65.52A3.59,3.59,0,0,1,28,65.18c2.27,0,4.68,2.13,4.68,6v.56H21.9V62.9h-2c-5.42,0-5.58,2.77-5.58,6v2.9c0,1.6-.57,1.91-1.44,1.91H11.16c-1.12,0-2.94-.18-2.94-4.17,0-3.38,1.49-4.87,4.44-4.84V63.41c-2.27,0-3.71.43-5,1.71A5.91,5.91,0,0,0,6,69.61c0,4.14,1.84,5.54,4.33,5.54h3.12c2,0,3.09-1.26,3.09-3.54v-3c0-2.8.41-4.33,3.14-4.33v8.9H47.62a12,12,0,0,0,.26-2.11c-.08-4.31-3-7.34-7.25-7.34M8.41,78.18h2.23V76.24H8.41Zm3.86,0h2.22V76.24H12.27ZM40.71,76.8h2.22V74.86H40.71ZM50,73.21h2.23v-15H50Zm43.9-13.7H91.7v1.94h2.21Zm.19,4.8v4.34h-.92a2.24,2.24,0,0,1-2.53-2.22c0-1.39.8-2.12,2.42-2.12Zm-5.62,2c0,2.19,1.52,3.61,4.11,3.61h1.57v.2c0,1.09-.5,1.65-1.46,1.65H83.19V58.23H81v13.6c0,1.6-.56,1.91-1.43,1.91H77.81c-1.11,0-2.93-.18-2.93-4.17,0-3.38,1.48-4.87,4.44-4.84V63.41c-2.28,0-3.71.43-5,1.71a5.91,5.91,0,0,0-1.64,4.49c0,4.14,1.84,5.54,4.34,5.54h3.12a2.73,2.73,0,0,0,2.85-2H93.22a2.79,2.79,0,0,0,2.36-1.09,3.86,3.86,0,0,0,.75-2.4V62.9H92.88c-3,0-4.4,1.13-4.4,3.43" transform="translate(-6 -56.25)"/><polygon class="cls-3" points="65.97 38.34 63.92 38.34 63.92 27.41 59.72 27.41 59.72 25.76 70.09 25.76 70.09 27.41 65.97 27.41 65.97 38.34"/><path class="cls-3" d="M105.43,94.59H103.5V87.35h-1.29v-1.6h1.29v-.18a3.62,3.62,0,0,1,.88-2.74,3.2,3.2,0,0,1,2.27-.82c.35,0,1.48.14,1.48.14v1.56s-1-.1-1.22-.1a1.93,1.93,0,0,0-1.08.29c-.19.12-.4.47-.4,1.41v.44H108v1.6h-2.59v7.24Z" transform="translate(-6 -56.25)"/><rect class="cls-3" x="12.5" y="25.75" width="1.86" height="12.58"/><path class="cls-3" d="M11.56,84.74l1.74,5.31H9.66Zm-.67-2.12-4.61,12H8l1.2-3.35H13.7l1.08,3.35h2.16l-4.26-12Z" transform="translate(-6 -56.25)"/><rect class="cls-3" x="52.41" y="29.88" width="1.86" height="8.46"/><rect class="cls-3" x="52.41" y="26.83" width="1.86" height="1.63"/><rect class="cls-3" x="38.77" y="26.83" width="1.86" height="1.63"/><path class="cls-3" d="M48.69,82V94.59h1.87V89.52a2.09,2.09,0,0,1,2.07-2.36c1.17,0,1.86.78,1.86,2.2v5.23h1.87V89.1c0-2.11-1-3.18-2.83-3.18a3.6,3.6,0,0,0-2.73,1.2l-.26.3V82Z" transform="translate(-6 -56.25)"/><path class="cls-3" d="M116.81,94.59V86.17H115v5.07a2.09,2.09,0,0,1-2.08,2.36c-1.17,0-1.86-.78-1.86-2.2V86.17h-1.86v5.49c0,2.11.95,3.18,2.82,3.18a3.55,3.55,0,0,0,2.73-1.2l.26-.29v1.24Z" transform="translate(-6 -56.25)"/><path class="cls-3" d="M28.36,83.81h1.53a1.91,1.91,0,0,1,2,2.08,2.31,2.31,0,0,1-2.28,2.46H28.36Zm-1.87-1.19v12h1.87V89.53h1.55l2.44,5.26,2.14-.41-2.73-5.2.13-.08a3.76,3.76,0,0,0,1.88-3.43c0-1.91-1.33-3-3.57-3Z" transform="translate(-6 -56.25)"/><path class="cls-3" d="M44.77,86.13v8.53a6.78,6.78,0,0,1-.31,2.22,1.36,1.36,0,0,1-.86.71v.59c2.13-.05,3-1.13,3-3.59V86.13Z" transform="translate(-6 -56.25)"/><path class="cls-3" d="M40,93a1.62,1.62,0,0,1-1.18.6,1.32,1.32,0,0,1-1.15-1.46,2.18,2.18,0,0,1,1.73-2.17l1.23-.42.2-.07v.21A4.41,4.41,0,0,1,40,93m-.55-7a4.36,4.36,0,0,0-3,1.08l.54.83A3.19,3.19,0,0,1,39.19,87a1.6,1.6,0,0,1,1.56,1.48l0,.14-2,.62c-2,.61-3,1.58-3,3A2.3,2.3,0,0,0,38,94.8a3.59,3.59,0,0,0,2.78-1.67v1.46h1.91V89c0-2.06-1.1-3.11-3.26-3.11" transform="translate(-6 -56.25)"/><path class="cls-3" d="M80.06,93a1.59,1.59,0,0,1-1.18.6,1.31,1.31,0,0,1-1.14-1.46,2.18,2.18,0,0,1,1.73-2.17l1.23-.42.2-.07v.21A4.4,4.4,0,0,1,80.06,93m-.55-7a4.4,4.4,0,0,0-3,1.08l.55.83A3.17,3.17,0,0,1,79.24,87a1.6,1.6,0,0,1,1.56,1.48v.14l-2,.62c-2,.61-3,1.58-3,3a2.3,2.3,0,0,0,2.23,2.5,3.56,3.56,0,0,0,2.77-1.67v1.46h1.91V89c0-2.06-1.09-3.11-3.26-3.11" transform="translate(-6 -56.25)"/><path class="cls-3" d="M97.86,93a1.59,1.59,0,0,1-1.18.6,1.32,1.32,0,0,1-1.15-1.46,2.18,2.18,0,0,1,1.74-2.17l1.22-.42.2-.07v.21A4.41,4.41,0,0,1,97.86,93m-.55-7a4.38,4.38,0,0,0-3,1.08l.54.83A3.19,3.19,0,0,1,97,87a1.6,1.6,0,0,1,1.56,1.48l0,.14-2,.62c-2,.61-3,1.58-3,3a2.29,2.29,0,0,0,2.23,2.5,3.58,3.58,0,0,0,2.77-1.67v1.46h1.91V89c0-2.06-1.1-3.11-3.26-3.11" transform="translate(-6 -56.25)"/><rect class="cls-3" x="112.36" y="25.75" width="1.87" height="12.58"/></svg>