<svg id="SAGR" xmlns="http://www.w3.org/2000/svg" viewBox="0 0 192.98 48.03"><defs><style>.cls-1{fill:#525556;}.cls-1,.cls-2,.cls-3{fill-rule:evenodd;}.cls-2{fill:#054e43;}.cls-3{fill:#01493e;}</style></defs><g id="wings"><g id="Group_1" data-name="Group 1"><path id="Path_1" data-name="Path 1" class="cls-1" d="M77.73,59.51c.4.31,1.37.84,1.72,1.17-1.13.75-4.07.17-5-.52A11.9,11.9,0,0,1,71.66,57a4.36,4.36,0,0,1,4.49,1.06A9.89,9.89,0,0,0,77.73,59.51ZM46.66,58.34l0,.13c-.1.19-1.57,1.78-2,2.41C43,63.18,41.27,67.8,40.3,70.5c-1.64,4.55-3.23,9.19-5.15,13.51a63.59,63.59,0,0,1-3.09,6.18,23.45,23.45,0,0,1-9.54,9c-1.08.6-5.44,2.48-6.82,2.46a60.21,60.21,0,0,0,7,.06A17.56,17.56,0,0,0,33.9,97.08a11.13,11.13,0,0,0,1-.85c.28-.32.58-.63.89-.92,2.12-1.88,4.92-6.5,6.27-9.66l4-10.14c.21-.83,1.75-4.81,2.16-5.9,1.54-4.08,2.74-7.31,5.78-10.14.71-.67,3.91-2.76,5.4-2.43,0-.31-.09,0,.16-.18a11.46,11.46,0,0,1,2.61-.21c2.47,0,6,0,7.74,1.64.59.54,1,1,1.71,1.52,1.26,1.06,4.22,3.43,5.68,3.76l-.32.13c1.07,0,2,.08,3,.09s2-.09,2.93-.14a10.8,10.8,0,0,1,7.47,1.85,11.65,11.65,0,0,1,3.1,3.16,8.37,8.37,0,0,1,1.12,2.21l.67,1.73a14.55,14.55,0,0,0-2.46-8.21,6.37,6.37,0,0,0-2-1.58c-4.25-2.67-5.91,1-11.9-4.15-3-2.59-3.39-3.89-8.14-4.47a115.06,115.06,0,0,0-14.06-.35c-.35.2-3.28.37-5.77,1.47a11.48,11.48,0,0,0-2.29,1.35Z" transform="translate(-6 -53.77)"/></g><g id="Group_2" data-name="Group 2"><path id="Path_2" data-name="Path 2" class="cls-2" d="M46.66,58.34l2-1.69a11.6,11.6,0,0,1,2.28-1.35c2.5-1.09,5.42-1.27,5.77-1.47A49,49,0,0,0,45,54.5a15.92,15.92,0,0,0-10.84,7.6,36.4,36.4,0,0,0-1.94,4.21C29.09,74.06,25.53,86.07,21,92.18a23.37,23.37,0,0,1-6.37,5.93A26,26,0,0,1,6,101.66a50.32,50.32,0,0,0,10.19-.32C23.58,99.58,29,93,32.2,85.89c1.95-4.27,4.11-10.64,5.85-15.21q1.39-3.75,3.15-7.34a11.53,11.53,0,0,1,5.46-5" transform="translate(-6 -53.77)"/></g><g id="Group_7" data-name="Group 7"><path id="Path_7" data-name="Path 7" class="cls-2" d="M64.85,57.36c3.79-.87,4.33,1.42,7,3.13a6.54,6.54,0,0,1,.89.59c-1.22.74-4,.19-5-.46a11.34,11.34,0,0,1-2.6-2.75C65,57.66,65,57.52,64.85,57.36ZM59.36,57a6.3,6.3,0,0,1,2.13.87l1.61,1.42c.52.48,1.07,1,1.64,1.38,2.11,1.66,3.41,2.7,6.26,3a40.75,40.75,0,0,0,6,0l.31-.13c-1.46-.34-4.42-2.71-5.68-3.77-.66-.55-1.12-1-1.71-1.51-1.77-1.62-5.26-1.63-7.73-1.65a11.5,11.5,0,0,0-2.62.22c-.25.12-.17-.13-.16.17" transform="translate(-6 -53.77)"/></g></g><g id="Group_3" data-name="Group 3"><path id="Path_3" data-name="Path 3" class="cls-3" d="M161.15,75.36c1.31-.28,1.85.74,1.84,2.06s.06,2.6-1.26,2.79-1.89-.78-1.89-2.09S159.77,75.66,161.15,75.36Zm12.64,4.84c.45-.34.77-.84,1.24-1.21,1.18-.94,3.63-2.81,5.08-1.37.66.65,1,2.56-1.41,2.62a40.24,40.24,0,0,1-4.91,0ZM185,73.28c0,6.32.62,7-2.82,7,.32-1,.73-1.43.35-2.67a3.53,3.53,0,0,0-1.41-1.92c-3-2-7,1.26-8.79,3.42-.87,1.06-1.06,1.38-1.93,1s-.73-1.27-.86-2.48l-1.8.75c-.34.79,0,1.2-.85,1.7a4.54,4.54,0,0,1-2.25.25,9.88,9.88,0,0,0,.25-4.19,4.25,4.25,0,0,0-2.08-2.5c-.93,0-1.38-.4-2.53,0a4.62,4.62,0,0,0-1.68,1.18,4.22,4.22,0,0,0-.63,2.66,9.26,9.26,0,0,0,.32,2.82H155c.08-1,0-2.85,0-4s.12-1.07-.2-1.21h-1.72c0,2.25.07,4.59-.07,6.81-.16,2.39-2,2.61-4.21,2.23v1.82c3.46.43,5.48-.48,6-3.69.82-.08,9.28,0,11,0a3.8,3.8,0,0,0,2.72-1c.33.12.59.47,1.17.75.92.45,4.44.25,5.59.25H183c2.52,0,3.81-1.42,3.8-3.93,0-1.1.16-7.28-.08-7.75h-1.82Z" transform="translate(-6 -53.77)"/></g><g id="Group_4" data-name="Group 4"><path id="Path_4" data-name="Path 4" class="cls-3" d="M117.77,75.35c1.49-.29,1.8,1,1.79,2.17,0,1.38,0,2.62-1.37,2.71s-1.79-.88-1.78-2.2S116.36,75.63,117.77,75.35Zm-2.9-.22c-.85,2.94.3,4.88-1.75,5.08-1,.1-1.49-.83-1.5-1.88s0-2.21,0-3.32H109.7a22.31,22.31,0,0,1-.11,4c.07,1.39-1.71,1.21-2.89,1.21h-4.26V75l-1.92,0v5c0,1.7.15,3.09-1.13,3.78A2.69,2.69,0,0,1,95.9,83c-.6-1-.23-3.36-.33-4.7l-1.87,0a20.18,20.18,0,0,0,.17,4.85c1.23,3.58,6.76,3.86,8.3,0,.51-1.28-.65-.89,4.93-.89,2.92,0,2.09-.31,3.67-1.06a3.11,3.11,0,0,0,2.28,1c1.32,0,1.68-.67,2.42-1a3.69,3.69,0,0,0,4.47.43c1.47-1,1.57-2.23,1.56-4.47a3.51,3.51,0,0,0-3.26-3.74,3.47,3.47,0,0,0-1.74.33,4.67,4.67,0,0,0-.91.61c-.27.24-.4.61-.72.82" transform="translate(-6 -53.77)"/></g><g id="Group_5" data-name="Group 5"><path id="Path_5" data-name="Path 5" class="cls-3" d="M143.08,70.83v-.34l-1.89,0c0,1,.05,7.71,0,8.37-.2,1.89-2.47,1.79-2.62-.09-.08-1.08,0-6.93,0-8.27h-1.89c0,1.32.14,8.07-.1,8.78a1.53,1.53,0,0,1-1.21,1c-1.85,0-1.34-3.47-1.33-5.24h-1.92c0,1.49.36,4.35-.64,5a4.92,4.92,0,0,1-2.56.26,22.28,22.28,0,0,1-2.71,0c-1.71-.25-1.28-2.51-1.28-4.21V70.44H123c.14,1.67,0,3.93,0,5.67,0,2-.3,3.45.84,4.86,1,1.23,2.44,1.22,4.45,1.22,2.41,0,3.16.23,4.74-1,.26.09,0,0,.26.14l.24.17a3,3,0,0,0,4-.31c.94.45,1.63,1.41,3.23.81A3.46,3.46,0,0,0,143,79.61c.31-1.13.11-7.13.11-8.78" transform="translate(-6 -53.77)"/></g><g id="Group_6" data-name="Group 6"><path id="Path_6" data-name="Path 6" class="cls-1" d="M76.08,75.46a27,27,0,0,0-1.82,2.69,12.86,12.86,0,0,0-1.19,3.24C71.34,89,75,95.42,82.54,98c4.71,1.57,11.48,1,16.8,1,14.82,0,32.32-.07,49.82-.14s35-.14,49.82-.14L92.29,98.52c-3.57,0-5.49.28-8.57-1a15.56,15.56,0,0,1-5.42-4.17,13.24,13.24,0,0,1-3-6.55A13.79,13.79,0,0,1,81,73.55a18.6,18.6,0,0,1,6.66-2.84A19.91,19.91,0,0,0,81,72.23a15,15,0,0,0-2.68,1.44Z" transform="translate(-6 -53.77)"/></g><g id="Group_8" data-name="Group 8"><path id="Path_8" data-name="Path 8" class="cls-1" d="M173.71,88.31a1.11,1.11,0,0,1,.07.16l.1.22c.2.54.08,5.23.08,6.18,0,.72-.11.21-.25.81h1.47c-.13-.49-.05,0-.16-.36a34,34,0,0,1-.07-4.51L177.89,95c.17.36,0,.38-.06.67h1.7c-.14-.49-.05,0-.17-.36a43.16,43.16,0,0,1,0-6.63c.12-.33,0,.14.17-.37h-1.48c.14.57.24.09.24.81,0,.95.07,3.08,0,3.9l-1.58-2.28c-1.21-1.7-1.32-1.59-1.11-2.42Z" transform="translate(-6 -53.77)"/></g><g id="Group_9" data-name="Group 9"><path id="Path_9" data-name="Path 9" class="cls-1" d="M139.43,88.31l.06.16,0,.07.06.15c.2.54.08,5.22.08,6.18,0,.72-.11.21-.24.81h1.47c-.13-.49-.06,0-.17-.36a35.73,35.73,0,0,1-.07-4.51c.32.27,2.81,3.9,2.94,4.18s0,.38,0,.67l1.7,0c-.15-.5-.06,0-.18-.36-.19-.55-.08-5.25-.08-6.2,0-.54.15-.38.26-.8h-1.48c.14.56.24.08.24.8,0,.95.07,3.08,0,3.9l-1.58-2.28c-1.21-1.7-1.32-1.59-1.11-2.42Z" transform="translate(-6 -53.77)"/></g><g id="Group_10" data-name="Group 10"><path id="Path_10" data-name="Path 10" class="cls-1" d="M127.46,89.62c.84,0,2.38-.22,2.77.37a1.2,1.2,0,0,1,0,1.15c-.37.57-1.82.39-2.75.39Zm-1.32-1.31.16.37c.19.56.08,5.22.08,6.18,0,.54-.14.41-.25.81h1.58c-.14-.51,0,0-.17-.37a13.13,13.13,0,0,1-.08-2.66h1.44a11.38,11.38,0,0,0,.7,1.5c.67,1.4.44.88.25,1.53h1.9c-.13-.45-.29-.41-.51-.75a17.26,17.26,0,0,1-1.13-2.28c.27-.26.47-.27.79-.6A2.54,2.54,0,0,0,131,89c-.83-1-3-.64-4.83-.64" transform="translate(-6 -53.77)"/></g><g id="Group_11" data-name="Group 11"><path id="Path_11" data-name="Path 11" class="cls-1" d="M162.05,89.62c.84,0,2.37-.22,2.77.37a1.23,1.23,0,0,1,0,1.15c-.38.57-1.81.39-2.75.39Zm-1.33-1.31.16.37a47.32,47.32,0,0,1,0,6.63c-.12.33,0-.13-.17.36h1.58c-.14-.51-.05,0-.18-.37a13.9,13.9,0,0,1-.08-2.66h1.44a11.44,11.44,0,0,0,.71,1.5c.1.22.26.53.36.76.18.46,0,.4-.11.77h1.89c-.12-.44-.28-.41-.51-.74a6.17,6.17,0,0,1-.38-.72,11.75,11.75,0,0,1-.75-1.56c.28-.27.48-.27.79-.61a2.51,2.51,0,0,0,.06-3.08c-.52-.61-1.08-.66-2.07-.65h-2.75" transform="translate(-6 -53.77)"/></g><g id="Group_12" data-name="Group 12"><path id="Path_12" data-name="Path 12" class="cls-1" d="M151.06,90.49a6.81,6.81,0,0,0,.58-1.64c-.48.19-.74-.22-1.27-.45-3.41-1.5-4.67,2.85-2.68,3.89,1,.5,2,0,2.85.76.2,1-.59,1.36-1.48,1.31a1.93,1.93,0,0,1-1.86-1l-.49,1.68c.33.07-.05-.23.54.07,1.79.89,3.86.75,4.42-1.19a2.14,2.14,0,0,0-1-2.64c-1-.52-2.25-.12-2.82-.88,0-.87.77-1.12,1.66-1a2,2,0,0,1,1.52,1" transform="translate(-6 -53.77)"/></g><g id="Group_13" data-name="Group 13"><path id="Path_13" data-name="Path 13" class="cls-1" d="M110.82,90.49a6.44,6.44,0,0,0,.59-1.64c-.49.19-.75-.22-1.27-.45-1.49-.65-3.11-.18-3.51,1.35a2.13,2.13,0,0,0,.83,2.54c1,.5,2,0,2.85.76.19,1-.59,1.35-1.49,1.31a1.92,1.92,0,0,1-1.85-1l-.5,1.67c.34.08,0-.22.55.07a3.64,3.64,0,0,0,2.28.52,2.36,2.36,0,0,0,1.15-4.35c-1-.52-2.24-.12-2.81-.88,0-.88.81-1.12,1.65-1a2.32,2.32,0,0,1,.94.37c.49.32.28.37.59.67" transform="translate(-6 -53.77)"/></g><g id="Group_14" data-name="Group 14"><path id="Path_14" data-name="Path 14" class="cls-3" d="M188.81,70.73c0,3.35.21,7.53-.12,10.75l1.29.7a5.37,5.37,0,0,0,.73-2.85V70.46H189l-.17,0Z" transform="translate(-6 -53.77)"/></g><g id="Group_15" data-name="Group 15"><path id="Path_15" data-name="Path 15" class="cls-1" d="M187.94,88.31l.06.15.11.22c.2.55.08,5.22.08,6.18,0,.53-.14.36-.25.8h4.81l.24.27V94.08c-.38.18,0,.27-.58.27h-3.14V92.44h2c.49,0,.11.11.47.26V91c-.43.18.07.27-.47.27h-2V89.61h3c.45,0,.37.12.63.31V88l-.11.11c-.25.19.09,0-.12.09a34.07,34.07,0,0,1-4.77.1" transform="translate(-6 -53.77)"/></g><g id="Group_16" data-name="Group 16"><path id="Path_16" data-name="Path 16" class="cls-1" d="M123.8,90.45a8.68,8.68,0,0,0,.54-1.82c-.65.05-1.14-.39-1.94-.5-4.15-.56-4.65,6.36-1.43,7.49a4.1,4.1,0,0,0,3.77-1.06l-.13-.27a2.43,2.43,0,0,1-.1-1c0-1.37,0-.84.26-1.31l-2.42,0c-.22,0-.12,0-.27-.13l-.18,1.46.06,0A1.9,1.9,0,0,1,123.6,93v.92c-1.86,1.4-3.83,0-3.62-2.38.15-1.65,1.39-2.73,2.91-2,.5.25.53.3.72.6l0,.07,0,.08Z" transform="translate(-6 -53.77)"/></g><g id="Group_17" data-name="Group 17"><path id="Path_17" data-name="Path 17" class="cls-1" d="M153.26,88.31c1,1.89-1.3,7.36,2.65,7.36,3.4,0,2.69-2.64,2.72-6.36,0-.86.12-.45.25-1h-1.56c.14.46.07,0,.2.4a33.83,33.83,0,0,1,.06,3.63c0,1.2-.19,1.94-1.37,2s-1.64-.52-1.64-1.71a31.27,31.27,0,0,1,.08-4c.11-.32,0,.13.16-.35Z" transform="translate(-6 -53.77)"/></g><g id="Group_18" data-name="Group 18"><path id="Path_18" data-name="Path 18" class="cls-1" d="M186.52,88.81c-.11-.06-.54-.13-.87-.28a4.76,4.76,0,0,0-1-.35c-4.12-.93-5,5.87-1.83,7.28a2.82,2.82,0,0,0,2.19,0c1.13-.43.48-.56,1.62-.78a4.59,4.59,0,0,0-.61-1.42l-.13-.13c0,.5,0,.46-.31.68a2.52,2.52,0,0,1-2.18.48A2.34,2.34,0,0,1,182,91.94c0-1.91,1.36-3,2.93-2.3.91.41.64.52.92.86Z" transform="translate(-6 -53.77)"/></g><g id="Group_19" data-name="Group 19"><path id="Path_19" data-name="Path 19" class="cls-1" d="M169.7,90.25l.8,2.49h-1.68Zm3.14,5.41c-.08-.3-.29-.41-.45-.84s-.21-.63-.33-1l-1.3-3.74c-.61-1.84-.4-1-.17-1.78h-1.72c.19.55.36.33.14,1l-1.88,5.59c-.15.38-.33.49-.4.76h1.58c-.11-.51-.35-.27-.12-1,.34-1.16,0-.89,2.65-.89.08.37.22.64.32,1,.2.72,0,.35-.17.92Z" transform="translate(-6 -53.77)"/></g><g id="Group_20" data-name="Group 20"><path id="Path_20" data-name="Path 20" class="cls-1" d="M93.17,90.25,94,92.74H92.28Zm3.13,5.41c-.07-.3-.28-.41-.45-.84L94.22,90.1c-.61-1.84-.39-1-.16-1.78H92.34c.28.83.43.09-.17,1.9-.21.62-.41,1.24-.63,1.89s-.41,1.28-.62,1.9c-.11.3-.19.59-.31.9s-.33.46-.42.76h1.59c-.11-.51-.35-.27-.12-1,.34-1.16,0-.89,2.65-.9.07.37.21.65.31,1,.21.72,0,.35-.16.92Z" transform="translate(-6 -53.77)"/></g><g id="Group_21" data-name="Group 21"><path id="Path_21" data-name="Path 21" class="cls-1" d="M115.15,90.25l.79,2.49h-1.68Zm3.14,5.41c-.09-.31-.29-.4-.45-.84l-1-2.85c-.24-.65-.43-1.2-.65-1.87-.61-1.84-.4-1-.17-1.78h-1.72c.28.82.43.09-.17,1.9-.39,1.15-1.17,3.72-1.56,4.69-.17.42-.33.46-.41.76h1.58c-.11-.49-.34-.32-.13-1,.36-1.15,0-.89,2.66-.89.08.37.21.64.31,1,.21.71,0,.35-.16.92Z" transform="translate(-6 -53.77)"/></g><g id="Group_22" data-name="Group 22"><path id="Path_22" data-name="Path 22" class="cls-1" d="M97.29,88.31a1,1,0,0,0,.07.15l0,.07.07.15c.2.54.08,5.24.08,6.18,0,.54-.14.39-.26.81h4c.43,0,.55,0,.85.16l.11.09s0,0,.06,0V94.06l-.17.14c-.5.35-2.76.16-3.49.16V89.12c0-.72.11-.26.24-.81Z" transform="translate(-6 -53.77)"/></g><g id="Group_23" data-name="Group 23"><path id="Path_23" data-name="Path 23" class="cls-1" d="M136.1,88.31l.17.37c.19.53.08,5.24.08,6.18,0,.72-.11.22-.25.81h1.61c-.14-.59-.25-.09-.25-.81V89.12c0-.7.11-.24.25-.81Z" transform="translate(-6 -53.77)"/></g><g id="Group_24" data-name="Group 24"><path id="Path_24" data-name="Path 24" class="cls-3" d="M108,85c.44.37.9,1.07,1.43,1.3l1.15-1.16a11.07,11.07,0,0,1,1.23,1.14L113.21,85a9.64,9.64,0,0,0-1.37-1.34l-1.18,1.15-1.21-1.18A5.05,5.05,0,0,0,108,85" transform="translate(-6 -53.77)"/></g><g id="Group_25" data-name="Group 25"><path id="Path_25" data-name="Path 25" class="cls-3" d="M160.72,71.61l.73-.82L162.64,72c.41-.25.92-1,1.33-1.15.14-.38-.2-.54-.51-.84a2.67,2.67,0,0,0-.82-.71,5.75,5.75,0,0,1-1.18,1.13l-1.22-1.11a10.53,10.53,0,0,0-1.36,1.31l1.36,1.35Z" transform="translate(-6 -53.77)"/></g><g id="Group_26" data-name="Group 26"><path id="Path_26" data-name="Path 26" class="cls-3" d="M131.84,73.68l1.21-1.18,1.27,1.17,1.31-1.29A5.09,5.09,0,0,0,134.19,71,3.85,3.85,0,0,1,133,72.11c-.54-.29-.73-.87-1.31-1.12l-1.3,1.32Z" transform="translate(-6 -53.77)"/></g><g id="Group_27" data-name="Group 27"><path id="Path_27" data-name="Path 27" class="cls-3" d="M122.29,69.47a28.08,28.08,0,0,0,2.9-.22l.2-.85c-1,0-1.82.08-1.57-1a1.28,1.28,0,0,1,1-.1l.26-.86a1.61,1.61,0,0,0-1.26-.24c-.46.24-.74.28-1,.77s-.09,1,.05,1.47l-.7.22Z" transform="translate(-6 -53.77)"/></g><g id="Group_28" data-name="Group 28"><path id="Path_28" data-name="Path 28" class="cls-3" d="M96.21,74a5.93,5.93,0,0,0,1.43,1.44l1.27-1.32-1.37-1.42Z" transform="translate(-6 -53.77)"/></g></svg>