<svg id="SOLIDARITY" xmlns="http://www.w3.org/2000/svg" viewBox="0 0 193 46.79"><defs><style>.cls-1{fill:#209fda;}</style></defs><path class="cls-1" d="M38.07,59.26H14.38A8.38,8.38,0,0,0,6,67.63V91.31a8.38,8.38,0,0,0,8.38,8.38H38.07a8.38,8.38,0,0,0,8.37-8.38V67.63a8.37,8.37,0,0,0-8.37-8.37m-1.4,8.45A6,6,0,0,1,39.25,70a4.06,4.06,0,0,1,.69,2.68c-1-.39-2.44-.35-5.07.78A43,43,0,0,0,31,67.33c2.91-.62,4.39-.21,5.64.38m-7.16-1.54a51.25,51.25,0,0,1,6.34,10.45c-1.5.79-3.33,1.64-5,2.47l-2.18,1.07c-2.22-4.74-4.36-9.1-5.82-11.91-1-1.83-2.07-2.74-3.38-2.92a3.39,3.39,0,0,0-1.3.08c6-4,10.2-.68,11.35.76M14.18,69.26a6,6,0,0,1,2.31-2.59A4.13,4.13,0,0,1,19.17,66c-.39,1-.34,2.44.79,5.06a44.9,44.9,0,0,0-6.18,3.85c-.61-2.9-.2-4.39.4-5.63m-1.56,7.15a52.37,52.37,0,0,1,10.46-6.33c.78,1.49,1.63,3.33,2.46,5l1.06,2.18c-4.73,2.23-9.08,4.34-11.89,5.8-1.83,1-2.73,2.06-2.93,3.4a3.83,3.83,0,0,0,.09,1.3c-4-6-.68-10.21.75-11.36m3.09,15.35a6.24,6.24,0,0,1-2.59-2.32,4.19,4.19,0,0,1-.69-2.68c1.06.39,2.45.34,5.07-.79a42.94,42.94,0,0,0,3.85,6.17c-2.91.62-4.39.21-5.64-.38m7.16,1.54a51.07,51.07,0,0,1-6.33-10.46c1.48-.78,3.32-1.63,5-2.47l2.18-1.06c2.22,4.74,4.34,9.09,5.8,11.91,1,1.83,2.07,2.73,3.39,2.92a4,4,0,0,0,1.32-.08c-6,3.94-10.22.68-11.37-.76m15.35-3.09A6.25,6.25,0,0,1,35.9,92.8a4.17,4.17,0,0,1-2.69.69c.4-1,.35-2.44-.79-5.07a42.36,42.36,0,0,0,6.17-3.84c.64,2.9.22,4.4-.37,5.63m1.54-7.16A51.45,51.45,0,0,1,29.3,89.38c-.78-1.47-1.64-3.31-2.46-5L25.77,82.2c4.74-2.23,9.09-4.34,11.91-5.8,1.82-1,2.72-2.08,2.92-3.39a3.85,3.85,0,0,0-.09-1.31c4,6,.68,10.2-.75,11.35" transform="translate(-6 -53.66)"/><path class="cls-1" d="M60.25,89.33l-2-1.26A3.91,3.91,0,0,1,56.11,85c0-1.16.53-2.79,3-2.79A3.29,3.29,0,0,1,62.51,85c.12.15.52.07.62-.08a10.7,10.7,0,0,0-.45-3,3.51,3.51,0,0,1-.88-.16,9.93,9.93,0,0,0-2.33-.32c-3.26,0-5.11,1.93-5.11,4.31a5.36,5.36,0,0,0,2.7,4.32l2.39,1.55a3.76,3.76,0,0,1,2,3.51A2.84,2.84,0,0,1,58.37,98c-2.91,0-3.94-2.45-4.31-3.73-.11-.15-.48-.1-.61.07a11.5,11.5,0,0,0,.68,3.51,7.81,7.81,0,0,0,3.92.93c3.25,0,5.34-1.88,5.34-4.64,0-2.38-1.56-3.83-3.14-4.81" transform="translate(-6 -53.66)"/><path class="cls-1" d="M74.77,81.43a8.66,8.66,0,0,0-8.93,8.85c0,4.52,3.36,8.5,8.93,8.5A8.56,8.56,0,0,0,83.47,90a8.25,8.25,0,0,0-8.7-8.6M75.1,98c-4.95,0-6.75-4.81-6.75-8.52,0-5.49,3.39-7.28,6-7.28,4.79,0,6.61,4.47,6.61,8.61C81,95.75,78.11,98,75.1,98" transform="translate(-6 -53.66)"/><path class="cls-1" d="M97.88,94.79a5.45,5.45,0,0,1-1.66,2.49c-.4.23-.93.33-3.06.33-2,0-2.46-.3-2.74-.58-.45-.48-.52-1.13-.52-2.71V85.59c0-2.63,0-3,1.53-3.16l.6-.05c.15-.1.1-.55,0-.63-1.25.06-2.11.08-3.09.08s-1.85,0-3.26-.08c-.15.08-.2.53,0,.63l.63.05c1.58.13,1.63.53,1.63,3.16v9c0,2.64,0,3-1.51,3.14l-.75.07a.49.49,0,0,0,0,.63c1.41,0,2.21-.08,3.26-.08H91.2c2.58,0,5,0,6.25.08a21.1,21.1,0,0,0,1-3.52c0-.17-.48-.27-.62-.15" transform="translate(-6 -53.66)"/><path class="cls-1" d="M105.3,82.43l.62-.05c.16-.1.11-.55,0-.63-1.26.06-2.11.08-3.11.08s-1.91,0-3.16-.08c-.15.08-.21.53,0,.63l.62.05c1.48.12,1.53.55,1.53,3.21v8.93c0,2.66,0,3-1.53,3.18l-.62.08a.48.48,0,0,0,0,.63c1.25,0,2.1-.08,3.16-.08s1.85,0,3.11.08c.15-.08.2-.53,0-.63l-.62-.08c-1.48-.17-1.53-.52-1.53-3.18V85.64c0-2.66,0-3.09,1.53-3.21" transform="translate(-6 -53.66)"/><path class="cls-1" d="M120.3,82.5a16,16,0,0,0-5.52-.74c-2.13,0-4.17.07-6.29.2-.26.09-.23.49,0,.62l.56.07c1,.16,1.17.68,1.17,2.44v9.53c0,2.64,0,2.93-1.51,3.14l-.58.07a.51.51,0,0,0,.06.63c1.18,0,2.08-.08,3.13-.08.88,0,2.48.21,4.09.21A12.1,12.1,0,0,0,121,97.38a8.23,8.23,0,0,0,4.39-7.48,7.53,7.53,0,0,0-5.09-7.4m-4.47,15.3c-1.58,0-2.53-.25-3.08-1a4.66,4.66,0,0,1-.5-2.74V84.79c0-1.13,0-1.76.25-1.91a5.61,5.61,0,0,1,2.48-.35c6.57,0,7.91,4.67,7.91,7.43,0,4.66-2.19,7.84-7.06,7.84" transform="translate(-6 -53.66)"/><path class="cls-1" d="M141.87,97.75c-1.08-.12-1.4-.5-2.13-2.66L136.3,85c-.38-1.11-.78-2.26-1.1-3.36a.36.36,0,0,0-.38-.23,2.85,2.85,0,0,1-1.3.95,3.68,3.68,0,0,1-.43,1.78l-2.56,6.77c-1.05,2.81-1.75,4.44-2.2,5.6a1.64,1.64,0,0,1-1.51,1.22l-.83.08a.5.5,0,0,0,.05.63c.68,0,1.58-.08,2.41-.08,1.18,0,2,0,2.61.08a.4.4,0,0,0,.05-.63l-.83-.08c-.6,0-.73-.2-.73-.5a9.69,9.69,0,0,1,.56-2.08l.87-2.63c.18-.53.33-.6,1-.6h3.78c.75,0,.85.07,1,.62L137.86,96a5.22,5.22,0,0,1,.32,1.33c0,.25-.35.41-.88.45l-.73.08a.43.43,0,0,0,.06.63c.72,0,1.68-.08,2.88-.08s2,0,3,.08a.48.48,0,0,0,0-.63Zm-6.47-6.82h-3.09c-.7,0-.72,0-.52-.6L133.36,86a13.08,13.08,0,0,1,.61-1.48H134a14.92,14.92,0,0,1,.57,1.57l1.36,4.1c.23.67.18.77-.55.77" transform="translate(-6 -53.66)"/><path class="cls-1" d="M165.14,82.43l.64-.05c.14-.1.09-.55-.06-.63-1.25.06-2.11.08-3.11.08s-1.91,0-3.16-.08c-.15.08-.2.53,0,.63l.63.05c1.48.12,1.53.55,1.53,3.21v8.93c0,2.66-.05,3-1.53,3.18l-.63.08a.49.49,0,0,0,0,.63c1.25,0,2.11-.08,3.16-.08s1.86,0,3.11.08c.15-.08.2-.53.06-.63l-.64-.08c-1.47-.17-1.53-.52-1.53-3.18V85.64c0-2.66.06-3.09,1.53-3.21" transform="translate(-6 -53.66)"/><path class="cls-1" d="M182.68,81.12c-.37.66-.6.71-2,.71H170.57c-1.16,0-2,0-2.14-.78a.66.66,0,0,0-.48,0,25.67,25.67,0,0,1-.95,3.74.48.48,0,0,0,.65.17,4.7,4.7,0,0,1,1.13-1.73c.63-.58,2-.63,3.09-.63h1.38c.75,0,.75,0,.75.81V94.62c0,2.64-.13,3-1.56,3.14l-.9.07a.44.44,0,0,0,0,.63c1.61,0,2.49-.08,3.49-.08s1.85,0,3.29.08a.51.51,0,0,0,.05-.63l-.81-.07c-1.45-.13-1.51-.5-1.51-3.14V83.46c0-.83,0-.86.73-.86h1.79a5,5,0,0,1,2.9.63,3.15,3.15,0,0,1,.63,1.84c.13.15.55.15.65,0a15.77,15.77,0,0,1,.38-3.82c0-.1-.33-.12-.45-.08" transform="translate(-6 -53.66)"/><path class="cls-1" d="M198.83,81.75c-.85.06-1.55.08-2.33.08s-1.51,0-2.41-.08a.42.42,0,0,0-.05.63l.46.05c.59.07,1.05.25,1.05.4a22.27,22.27,0,0,1-1.64,3.31c-.75,1.46-1.57,2.91-2.35,4.24-1-1.73-1.91-3.71-2.83-5.57a12,12,0,0,1-.78-1.93c0-.2.17-.32,1.05-.45l.32-.05c.16-.15.16-.55-.07-.63-.62.06-1.53.08-2.68.08s-2.11,0-2.91-.08a.46.46,0,0,0,0,.63l.7.12c.75.13,1.13.26,2,1.91l3,5.77a5,5,0,0,1,.8,3.11v1.28c0,2.69-.05,3-1.51,3.18l-.77.08a.49.49,0,0,0,0,.63c1.33,0,2.23-.08,3.29-.08s1.86,0,3.41.08a.49.49,0,0,0,0-.63l-.95-.08c-1.36-.1-1.51-.49-1.51-3.18v-1.3c0-1.94.08-2.16,1.18-4.07l1.58-2.73c1.25-2.16,2-3.74,3.31-4l.7-.12a.42.42,0,0,0,0-.63" transform="translate(-6 -53.66)"/><path class="cls-1" d="M161.66,100a.44.44,0,0,1-.29.08,1.37,1.37,0,0,1-.28,0H161l-.23,0-.19,0a5.71,5.71,0,0,1-1.57-.7c-1.65-1-4.66-4.13-6.69-8.51-.1-.22-.24-.45-.12-.6A4.66,4.66,0,0,0,155.36,86a3.74,3.74,0,0,0-2.08-3.52,8.94,8.94,0,0,0-4.18-.75c-2.46,0-4.19.08-5.6.21-.2.09-.2.49,0,.62l.81.1c1,.13,1.1.55,1.1,2.94v9c0,2.63,0,3-1.5,3.14l-.63.07a.49.49,0,0,0,.05.63c1.18,0,2.08-.08,3.14-.08s1.85,0,3,.08a.5.5,0,0,0,.05-.63l-.53-.07c-1.45-.21-1.5-.51-1.5-3.14V91.46c0-.53.05-.55,1.17-.55a1.8,1.8,0,0,1,1.79.8c.77,1.13,1.9,2.8,2.55,3.73a12.25,12.25,0,0,0,5.65,4.65h0l.14,0,.14,0h0a3.67,3.67,0,0,0,.4.1,4.5,4.5,0,0,0,2.36,0c.48-.15.22-.45,0-.25M151.83,89.5a4.17,4.17,0,0,1-2.59.66c-1.28,0-1.65,0-1.72-.13a1.88,1.88,0,0,1-.08-.83V83.33c0-.7.08-.8,1.63-.8a3.69,3.69,0,0,1,4,3.86,3.61,3.61,0,0,1-1.25,3.11" transform="translate(-6 -53.66)"/><path class="cls-1" d="M157.88,54.19l.5,0c.12-.08.08-.43,0-.49l-1.66.05v2.2c0-1.38.2-1.64,1.2-1.72" transform="translate(-6 -53.66)"/><path class="cls-1" d="M182.23,62l-.49,0a.39.39,0,0,1,0-.5c.64,0,1.15.05,1.65.05v2.21c0-1.38-.21-1.64-1.21-1.72" transform="translate(-6 -53.66)"/><path class="cls-1" d="M146.48,61.33l.5,0a.41.41,0,0,0,0-.5c-.65,0-1.16.05-1.66.05V63c0-1.37.21-1.63,1.2-1.71" transform="translate(-6 -53.66)"/><path class="cls-1" d="M109.17,61.28l.49,0a.41.41,0,0,0,0-.5L108,60.8V63c0-1.38.2-1.64,1.2-1.72" transform="translate(-6 -53.66)"/><path class="cls-1" d="M116,61.28l.49,0c.12-.08.08-.44,0-.5l-1.65.06V63c0-1.38.2-1.64,1.2-1.72" transform="translate(-6 -53.66)"/><path class="cls-1" d="M51.88,65.75l-.5,0a.42.42,0,0,1,0-.5c.65,0,1.16,0,1.66.05v2.21c0-1.38-.21-1.64-1.2-1.72" transform="translate(-6 -53.66)"/><rect class="cls-1" x="51.42" y="23.59" width="1.85" height="1.96"/><rect class="cls-1" x="54.49" y="23.59" width="1.85" height="1.96"/><rect class="cls-1" x="100.24" y="3.16" width="1.85" height="1.95"/><path class="cls-1" d="M108.06,66.68s0-1.93-.07-5.88h-1.74c0,3.81.08,5.75.08,5.85a1.58,1.58,0,0,1-1.7,1.69H71.11a1.74,1.74,0,0,1-1.57-1.58,12.35,12.35,0,0,0-.83-3.71,4,4,0,0,0-3.95-2.5Q60,60.55,60,66.86h4.66l0,1.43a5.36,5.36,0,0,1-1.44,3.78,4.6,4.6,0,0,1-3.51,1.57,4.7,4.7,0,0,1-3.51-1.55,5.27,5.27,0,0,1-1.45-3.75c0-1.53,0-2.56,0-3.09H53c.05,1.43.09,2.43.1,3.06a7,7,0,0,0,2,5,6.31,6.31,0,0,0,9.36,0,7,7,0,0,0,2-5l-.08-3.09H61.8a3.1,3.1,0,0,1,.83-2.17,2.7,2.7,0,0,1,2.1-.88,2.6,2.6,0,0,1,2.5,1.6A9.75,9.75,0,0,1,67.88,67a3.27,3.27,0,0,0,1,2.12,2.79,2.79,0,0,0,1.93.83h33.84c2.21,0,3.41-1.25,3.41-3.26" transform="translate(-6 -53.66)"/><rect class="cls-1" x="97.15" y="3.16" width="1.85" height="1.95"/><rect class="cls-1" x="139.25" y="18.06" width="1.85" height="1.93"/><rect class="cls-1" x="136.16" y="18.06" width="1.88" height="1.93"/><path class="cls-1" d="M156.69,53.72H155c0,1.18,0,3.32,0,6.48,0,2.7.05,4.86.05,6.43a1.58,1.58,0,0,1-1.7,1.71H147.5a1.89,1.89,0,0,1-1.37-.68,3,3,0,0,1-.78-2.1c0-1.58,0-3.16,0-4.76h-1.73c.07,4.26.07,6.18,0,5.78a1.55,1.55,0,0,1-.77,1.38,2.4,2.4,0,0,1-1.3.38H126.91a10.74,10.74,0,0,0-1.85-5.69,4,4,0,0,0-3.27-1.85v1.55c.82,0,1.57.55,2.27,1.68a8.17,8.17,0,0,1,1.23,4.31h-6.84l-.53,1.6H142a3.45,3.45,0,0,0,3.12-2,3.45,3.45,0,0,0,.63,1.08,2.39,2.39,0,0,0,1.9,1h5.71c2.21,0,3.41-1.25,3.41-3.26,0-1.6,0-3.75,0-6.46,0-3.2-.05-5.35-.05-6.5" transform="translate(-6 -53.66)"/><path class="cls-1" d="M197.93,60.8h-1.72c0,3.66.07,5.71.07,6.18a1.64,1.64,0,0,1-1.78,1.7,3.24,3.24,0,0,1-2.15-.67,2.68,2.68,0,0,1-.9-2.1c0-2,0-3.43,0-4.39H189.7c.05,3.11.07,4.94.07,5.46a1.57,1.57,0,0,1-1.7,1.7c-1.93,0-2.9-.92-2.95-2.77V61.52h-1.73c0,1.16,0,2.13,0,2.91v3.91h-15.2V64.7c0-2.62-1.31-4-3.91-4a3.94,3.94,0,0,0-2.68,1,5.29,5.29,0,0,0-.52,6.88,3.44,3.44,0,0,0,2.8,1.31h2.25a5.65,5.65,0,0,1-1.9,2.8A5.16,5.16,0,0,1,161,73.82c.33.73.57,1.22.73,1.55a6.83,6.83,0,0,0,6.23-5.43h17.16V68.81a2.78,2.78,0,0,0,1.08,1,4.33,4.33,0,0,0,2,.38,2.92,2.92,0,0,0,3.12-2,3.63,3.63,0,0,0,1.38,1.6,4,4,0,0,0,2,.43A3.18,3.18,0,0,0,198,67q0-.26,0-6.18m-31.45,7.54h-2.13c-1.48,0-2.41-1.33-2.41-3a3.86,3.86,0,0,1,.83-2.55,2.09,2.09,0,0,1,1.7-.85c1.28,0,2,.75,2,2.22Z" transform="translate(-6 -53.66)"/><path class="cls-1" d="M114.87,60.84h-1.73l0,7.06a6.36,6.36,0,0,1-.88,3.35c-.58,1.28-3,3.12-3.63,3.51l-.44.25a5,5,0,0,1-1.13.45l-.19,0-.24,0h-.05l-.29,0a.4.4,0,0,1-.28-.09c-.19-.19-.46.11,0,.26a4.5,4.5,0,0,0,2.36,0,3.67,3.67,0,0,0,.4-.1h0l.14,0,.14,0h0a6.51,6.51,0,0,0,1.2-.52,9.12,9.12,0,0,0,3.46-2.86,8.34,8.34,0,0,0,1.18-4.52V67.1Z" transform="translate(-6 -53.66)"/></svg>