<svg id="TAWUNIYA" xmlns="http://www.w3.org/2000/svg" viewBox="0 0 193 71.85"><defs><style>.cls-1{fill:#689ab4;}.cls-2{fill:#343f49;}</style></defs><path class="cls-1" d="M14.19,55.65a1.44,1.44,0,0,0,0,1.77c.12.16,3.37,4.35,10.35,4.35,3.48,0,6.37-1.61,9.14-3.16s5.41-3,8.59-3,5.69,1.55,8.4,3.15,5.69,3.45,9.32,3.45c7.28,0,10.33-4.7,10.46-4.89a1.46,1.46,0,0,0-.1-1.68,36.12,36.12,0,0,0-56.13,0" transform="translate(-6 -42.27)"/><path class="cls-1" d="M8.4,65.4A36.13,36.13,0,0,0,36.48,114a1.46,1.46,0,0,0,1.55-.87c.09-.19,2-5.11-1.45-11.16-1.74-3-4.57-4.7-7.3-6.31s-5.28-3.15-6.89-6S20.88,84,20.94,80.87s.13-6.65-1.7-9.77C15.6,64.76,10,64.47,9.78,64.47a1.41,1.41,0,0,0-1.38.93" transform="translate(-6 -42.27)"/><path class="cls-1" d="M74.57,64.57c-.23,0-5.47.77-9,6.82-1.73,3-1.76,6.3-1.83,9.48s-.1,6.18-1.7,8.95-4.19,4.15-7,5.69-5.83,3.22-7.63,6.37a13.66,13.66,0,0,0-2,6.89,10.35,10.35,0,0,0,1,4.6,1.42,1.42,0,0,0,1.48.74A36.15,36.15,0,0,0,76,65.5a1.28,1.28,0,0,0-1.45-.93" transform="translate(-6 -42.27)"/><path class="cls-2" d="M174.65,51.28A1.36,1.36,0,1,1,176,52.5a1.29,1.29,0,0,1-1.35-1.22M113.2,68.59a1.23,1.23,0,1,0,1.36,1.22,1.3,1.3,0,0,0-1.36-1.22m-17.78-9.3a2.21,2.21,0,0,1-.49,1.25c-.93.87-2.73,1.07-4.21.94s-2.86-.94-2.86-2.29.41-2.89,3-3H94a2.32,2.32,0,0,0,1.42-.32ZM125,55a1,1,0,0,0-.32.83v6.5c0,1.29-.87,2-2.28,2h0l-7.59,0c-1.39,0-2.29-.74-2.29-2h0V52.63h-2.48v9.78a2,2,0,0,1-2.28,1.93l-7.59,0c-1.84,0-2.22-.71-2.29-1.93V52.66H95.48v1.13c-.23.38-.93.45-1.64.45H91c-4,0-5.54,2.22-5.5,4.89s2.31,4.34,5.21,4.57c3.37.22,4.76-.87,4.76-.87v0s-.13,3.8,3.38,3.8h9a4.51,4.51,0,0,0,3.51-1.13,4.66,4.66,0,0,0,3.31,1.13h7.82c3,0,4.63-1.61,4.63-4.28V54.72h-1.28c0-.1-.45-.1-.81.23m.9-4.89a1.32,1.32,0,0,0-1.35,1.22,1.36,1.36,0,0,0,2.71,0,1.28,1.28,0,0,0-1.36-1.22m9.33,14.22c-1.86,0-3.15-1.52-3.15-3.7a4.36,4.36,0,0,1,1.09-3.09,3.13,3.13,0,0,1,2.38-1c1.68,0,2.8.8,2.84,2.6,0,0,.06,4.6.06,5.22Zm.36-9.66a5.78,5.78,0,0,0-3.73,1.32,5.9,5.9,0,0,0-2.16,4.8,5.81,5.81,0,0,0,1.45,4.11,4.85,4.85,0,0,0,3.92,1.71H138a5.44,5.44,0,0,1-2.42,2.7,13.22,13.22,0,0,1-4.47,1.51l1,2.16a11.16,11.16,0,0,0,6.5-3.09c1.77-1.77,2.31-3.54,2.31-6.34V59.8c0-3.44-1.7-5.18-5.3-5.18m60.76,11.94H199V48.19h-2.61Zm-35.16-3.89s-3.08-2.48-3.73-3.09c-1-.93-1-3.22,3.6-3.22a5.76,5.76,0,0,1,4.48,1.9ZM191.6,48.51a1.21,1.21,0,0,0-.35.84V62.41c0,1.22-.94,1.93-2.29,1.93h-7.49a2.05,2.05,0,0,1-2.32-2.06h0V54.66h-1.29A1.15,1.15,0,0,0,177,55a1.18,1.18,0,0,0-.36.84v6.49c0,1.26-1.19,2-2.54,2H163.9A1.27,1.27,0,0,1,163,64l5.47-5.63s-1.74-3.77-7.62-3.77c-6.24,0-7.14,4.15-5.54,5.73s4.09,3.54,4.12,3.57c-.54.55-2.06.39-4.66.39H148c-2.18,0-2.09-2.35-2.09-2.35V48.19h-1.28a1.27,1.27,0,0,0-.87.29,1.18,1.18,0,0,0-.36.84V63s.1,3.63,3.7,3.63h11.07a4.7,4.7,0,0,0,3.15-1.06,4.2,4.2,0,0,0,3.06,1.06h9.65c2.32,0,2.93-.29,3.79-1.09h0a5,5,0,0,0,3.41,1.12h7.79c3,0,4.63-1.64,4.63-4.31V48.26h-1.28a.92.92,0,0,0-.81.25m-11.84,4a1.23,1.23,0,1,0,0-2.44,1.32,1.32,0,0,0-1.35,1.22,1.34,1.34,0,0,0,1.35,1.22M109.44,68.59a1.23,1.23,0,1,0,1.35,1.22,1.29,1.29,0,0,0-1.35-1.22M94.1,50.54a1.23,1.23,0,1,0-1.35-1.22,1.32,1.32,0,0,0,1.35,1.22m-3.8,0A1.23,1.23,0,1,0,89,49.32a1.32,1.32,0,0,0,1.35,1.22M109.54,103a1.52,1.52,0,0,1-.48,1.06c-1,.84-2.22.9-3.87.9-1.44,0-3-.83-3-2.19s1.55-2.25,3-2.25h3a4.08,4.08,0,0,0,1.36-.25V103Zm.19,3.86H112V96.77c0-2.71-2.83-4.12-5.6-4.12-3.15,0-5.21,1.19-6,3.44l-.07.13,2.25.71,0-.1c.61-1.7,2.35-2.06,3.73-2.06,1.57,0,3.25.61,3.25,2v1.38a2.56,2.56,0,0,1-1.58.42h-2.77c-2.83,0-5.46,1.48-5.46,4.28s2.79,4.27,5.46,4.27a9.36,9.36,0,0,0,4.57-1.09,7.87,7.87,0,0,0,0,.87m86.7-3.86a1.49,1.49,0,0,1-.49,1.06c-1,.84-2.22.9-3.86.9-1.44,0-3-.83-3-2.19s1.54-2.25,3-2.25h3a4,4,0,0,0,1.35-.25V103Zm.19,3.86h2.22V96.77c0-2.71-2.83-4.12-5.6-4.12-3.15,0-5.21,1.19-6,3.44l-.07.13,2.25.71,0-.1c.61-1.7,2.34-2.06,3.7-2.06,1.57,0,3.24.61,3.24,2v1.38a2.52,2.52,0,0,1-1.57.42h-2.77c-2.83,0-5.47,1.48-5.47,4.28s2.8,4.27,5.47,4.27a9.39,9.39,0,0,0,4.57-1.09v.87M102.3,88.47H85.48v2.18h7.17V106.9h2.57V90.65h7.18V88.47Zm81.9,4.66a1.67,1.67,0,0,0-.64.81s-3.54,8.26-4.18,9.81c-.23-.52-4.57-10.84-4.57-10.84H172.2s5.83,13.76,5.86,13.86-1.16,2.64-1.16,2.64a2.31,2.31,0,0,1-2.57,1.61l-.78,0,0,2.15h1.1a4.65,4.65,0,0,0,4.6-2.93l7.46-17.27H185.2a1.52,1.52,0,0,0-1,.19m-15.95.07a1.17,1.17,0,0,0-.36.83v12.84h2.48v-14h-1.29a1.18,1.18,0,0,0-.83.29m-.45-3.61a1.36,1.36,0,1,0,1.35-1.22,1.28,1.28,0,0,0-1.35,1.22M155.15,94.1V92.91h-2.44v14h2.44V98.28A3.61,3.61,0,0,1,159,94.8c3.45,0,4.12,1.61,4.12,4v8.11h2.41V98.66c0-4-2.22-6-6.56-6a5.92,5.92,0,0,0-3.83,1.42m-6.72-.87a1.29,1.29,0,0,0-.35.83v8c0,1.93-2,3-3.86,3-3.45,0-4.15-1.64-4.15-4.12v-8h-2.45v8c0,4.31,2,6.21,6.6,6.21a6.77,6.77,0,0,0,3.86-1.16v.94h2.44v-14h-1.29a1.07,1.07,0,0,0-.8.32m-12.35-.32h-1.16a2.92,2.92,0,0,0-1.06.25,1.61,1.61,0,0,0-.58.84s-2.86,7.66-3.44,9.2l-4.35-10.33h-2.28s-4.09,9.78-4.31,10.33c-.19-.55-3.8-10.33-3.8-10.33h-2.57l5.15,14H120s4.15-9.94,4.38-10.46l4.37,10.46h2.32l5.21-14h-.19Z" transform="translate(-6 -42.27)"/></svg>