<svg id="TUIC" xmlns="http://www.w3.org/2000/svg" viewBox="0 0 193 83"><defs><style>.cls-1{fill:#fafbfc;}.cls-2{fill:#fff;}.cls-3{fill:#3d5d93;}.cls-4{fill:#4ea0d8;}.cls-5{fill:#68696c;}.cls-6{fill:#85b1de;}.cls-7{fill:#83afdd;}.cls-8{fill:#4b9dd6;}.cls-9{fill:#9f9f9f;}.cls-10{fill:#727377;}.cls-11{fill:#6c6d71;}.cls-12{fill:#75767a;}.cls-13{fill:#7c7e82;}.cls-14{fill:#f1f0f0;}.cls-15{fill:#a7a6a6;}.cls-16{fill:#d4d4d4;}.cls-17{fill:#b5b5b5;}.cls-18{fill:#e1e2e1;}.cls-19{fill:#c4c4c4;}.cls-20{fill:#88b2df;}.cls-21{fill:#3e6399;}.cls-22{fill:#8db6e1;}.cls-23{fill:#51a1d9;}.cls-24{fill:#416da3;}.cls-25{fill:#509bd1;}.cls-26{fill:#4b93c9;}.cls-27{fill:#498bc2;}.cls-28{fill:#4882b8;}.cls-29{fill:#467ab2;}</style></defs><path class="cls-1" d="M70.6,116.37c-.3.22-.59.44-.9.65l-1,.65H66.71q-.81-1.56-1.62,0h-1l-.41-.59-.57.59H60.88c-.87-1-1.73-1-2.6,0H49.53c-.19-.21-.44-.62-.56-.58s-.49.37-.73.58h-1.3a8.13,8.13,0,0,0-1.25-.63A11.77,11.77,0,0,0,44,116.7l-.64-1a8.17,8.17,0,0,1,1.52-.3q3.39,0,6.78,0l13.08.11,3.52.2,1.36-.32.62,0Z" transform="translate(-6 -34.67)"/><path class="cls-2" d="M44,116.7a11.77,11.77,0,0,1,1.67.34,8.13,8.13,0,0,1,1.25.63H35c.41-.22.82-.6,1.25-.62,1.56-.07,3.13,0,4.69,0a10.12,10.12,0,0,0,1.51-.31Z" transform="translate(-6 -34.67)"/><path class="cls-2" d="M9.34,117.67c.46-1.38,1.64-1,2.57-1,1.49,0,3,.17,4.45.33.27,0,.51.41.76.62Z" transform="translate(-6 -34.67)"/><path class="cls-2" d="M58.28,117.67c.87-1,1.73-1,2.6,0Z" transform="translate(-6 -34.67)"/><path class="cls-2" d="M65.09,117.67q.81-1.56,1.62,0Z" transform="translate(-6 -34.67)"/><path class="cls-2" d="M48.24,117.67c.24-.21.46-.5.73-.58s.37.37.56.58Z" transform="translate(-6 -34.67)"/><path class="cls-2" d="M63.14,117.67l.57-.59.41.59Z" transform="translate(-6 -34.67)"/><path class="cls-3" d="M57.29,34.68a6.71,6.71,0,0,1,1.29.81c6.36,6.31,12.73,12.62,19,19a4.63,4.63,0,0,1,1.25,2.94c.1,8.85.08,17.71,0,26.56a3.15,3.15,0,0,1-.8,2q-9.85,9.95-19.82,19.8a4.52,4.52,0,0,1-.94.54V106l0-8.44v-.62c0-1.7.07-3.4,0-5.09,0-.47-.43-.92-.67-1.37l-3.23-.14q-.16-6-.32-12.1a22.79,22.79,0,0,1,2.74-.07c1.23.1,1.56-.38,1.53-1.57-.07-3,0-6,0-9,0-3.86,0-3.86-3.94-4,.11-1.42.32-2.85.3-4.28,0-2.47-.19-4.94-.3-7.4l.26-.43.71,0h2.9ZM71.43,85.41V55.84H63.66V85.41Z" transform="translate(-6 -34.67)"/><path class="cls-4" d="M6.13,83.64q0-12.48,0-25A13.33,13.33,0,0,0,8,57.05c.49-.6.62-1.52,1.16-2,1.68-1.66,3.45-3.25,5.25-4.79a11.32,11.32,0,0,1,2.69-1.67A65.65,65.65,0,0,1,24,45.78c.71-.23,1.7.4,2.56.63A7.65,7.65,0,0,1,26,47.69c-1.11,1.73-2.26,3.44-3.4,5.16-1.74.72-3.76,1.09-5.17,2.23a20.08,20.08,0,0,0-6.84,9.35c-1.18,3.58-2.1,7.08-1,10.81a23.21,23.21,0,0,0,7.72,12C19,88.48,20.61,90,23,89.13l.3,0a3.57,3.57,0,0,0,.38,1c1.81,2.38,3.65,4.74,5.48,7.1l.41,2.73c-.52-.47-1-.72-1.19-1.11-1.07-1.88-2.71-2.39-4.79-2.67a15.2,15.2,0,0,1-5.88-2,34,34,0,0,1-10.2-9.69C7.21,84.1,6.59,83.92,6.13,83.64Z" transform="translate(-6 -34.67)"/><path class="cls-5" d="M119,47.23c0,4,0,7.68,0,11.4,0,5.55,1,6.47,6.52,6.47h30.77c.57,0,1.14,0,1.87-.09-.34-2.82-.79-5.4-2.4-7.61-1.48-2-3.34-2.55-5.89-1.48-1.86.79-3.58,1.91-5.48,2.95l-1.59-1.73c2.69-2.45,5.67-4.35,9.39-4.46,3.34-.09,6.05,2.28,7.41,6.24.56,1.62.79,3.35,1.27,5,.13.45.63,1.09,1,1.12,1.94.15,3.88.14,5.82.15a2,2,0,0,0,2.25-2c.12-2.31.16-4.62.21-6.94,0-.58-.09-1.17-.16-2l2.61-.48c.54,4.06,1,8-.62,11.83-.77,1.8-2.54,2.26-4.34,2.29-2.64,0-5.28,0-7.93,0h-35a20.75,20.75,0,0,1-2.09-.12c-3.57-.4-5.93-2.38-6.16-6a131.19,131.19,0,0,1,0-13.74C116.57,46.3,118.16,47.52,119,47.23Z" transform="translate(-6 -34.67)"/><path class="cls-6" d="M57.31,106v.33l-10.37,0a40.18,40.18,0,0,1-5.15-1.66c-2.89-1.38-5.66-3-8.47-4.51.21-1.17.56-2.2,2-2.3s2.59-.21,3.88-.36a1.79,1.79,0,0,0,.71-.31c1.07-.66,2.14-1.31,3.2-2,.54-.34,1-.76,1.58-1.09,1.35-.81,2.74-1.56,4.07-2.42a6.11,6.11,0,0,0,1.09-1.26l3.57-.13,3.23.14c.11,1.44.2,2.87.33,4.31.07.72.22,1.43.34,2.15v.62A8.38,8.38,0,0,0,57,99.38C57.07,101.59,57.2,103.79,57.31,106Z" transform="translate(-6 -34.67)"/><path class="cls-7" d="M57.29,34.68V51.4h-2.9c-.67-.47-1.45-1.43-2-1.31-1.6.36-2.47-.55-3.58-1.32a44.15,44.15,0,0,0-6.33-4c-3.07-1.42-6.32-2.43-9.5-3.61a27.62,27.62,0,0,1,4-2.6c2.89-1.22,5.89-2.17,8.83-3.25.29-.11.51-.42.76-.63Z" transform="translate(-6 -34.67)"/><path class="cls-8" d="M46.61,34.7c-.25.21-.47.52-.76.63-2.94,1.08-5.94,2-8.83,3.25a27.62,27.62,0,0,0-4,2.6l-6.44,5.23c-.86-.23-1.85-.86-2.56-.63a65.65,65.65,0,0,0-6.87,2.76,11.32,11.32,0,0,0-2.69,1.67c-1.8,1.54-3.57,3.13-5.25,4.79-.54.53-.67,1.45-1.16,2a13.33,13.33,0,0,1-1.88,1.63,6.56,6.56,0,0,1,2.27-6.57c3.83-3.47,7.32-7.31,11-11l1.91-1.9c1.28-1.23,2.51-2.51,3.85-3.66a3.29,3.29,0,0,1,1.94-.86C33.58,34.65,40.1,34.69,46.61,34.7Z" transform="translate(-6 -34.67)"/><path class="cls-8" d="M33.32,100.2c2.81,1.51,5.58,3.13,8.47,4.51a40.18,40.18,0,0,0,5.15,1.66c-6.42,0-12.84,0-19.25,0a3.36,3.36,0,0,1-2-1C19.7,99.46,13.8,93.54,7.88,87.64c-.38-.38-.8-.71-1.21-1.06l-.6-.66.06-2.28c.46.28,1.08.46,1.36.87a34,34,0,0,0,10.2,9.69,15.2,15.2,0,0,0,5.88,2c2.08.28,3.72.79,4.79,2.67.22.39.67.64,1.19,1.11-.17-1.09-.29-1.91-.41-2.73Z" transform="translate(-6 -34.67)"/><path class="cls-9" d="M64.76,115.54l-13.08-.11q-3.39,0-6.78,0a8.17,8.17,0,0,0-1.52.3h-1l-11.33-.41.47-1-2.81-.68,2.33-1.46h1c2.13.46,4.26.88,6.17-.67l6.47-.64,4.19.18,2.3-.18a14.34,14.34,0,0,0,2.14.31c2.42,0,4.83-.09,7.24-.14l6.79.26v.54l-.79.32c0,.09.11.25.14.24.23-.06.45-.14.68-.22l1-.31.7-.57,0-.07.58.09.36.31v.55c-.22.25-.58.48-.63.76a6.84,6.84,0,0,0,0,1.5l-1,.62c0,.11,0,.22,0,.33Z" transform="translate(-6 -34.67)"/><path class="cls-5" d="M177.67,65h5.89c-2.16-5-4.22-9.77-6.36-14.71l2.47-1.12,6.62,15.13.59.1a8.16,8.16,0,0,0,1.19-2.55c.27-4,.35-8.08.49-12.12,0-.58,0-1.17,0-1.9l2.72-.2c0,3.51,0,6.85,0,10.18,0,1-.11,1.93-.21,2.9-.47,4.79-2.28,6.6-7,7-1.5.12-3,.18-4.52.19C177.08,67.9,177,67.73,177.67,65Z" transform="translate(-6 -34.67)"/><path class="cls-10" d="M93.61,75.07v31.25a5.54,5.54,0,0,1,0,1.29c0,.24-.4.62-.55.59a1.09,1.09,0,0,1-.76-.56,3.87,3.87,0,0,1-.06-1.28V43.53a3.85,3.85,0,0,1,0-1.13c.09-.28.42-.49.64-.73.24.23.61.42.7.69a4.62,4.62,0,0,1,0,1.29Z" transform="translate(-6 -34.67)"/><path class="cls-11" d="M102.43,52.88c3.93-.45,8.91,2.62,10.47,6.49a13.12,13.12,0,0,1,.62,7.64,1.45,1.45,0,0,1-1,.92c-4.53.06-9.06,0-13.71,0V65.3h11.8c1.12-4-1.21-7.89-5.29-9.22-.36-.12-.73-.21-1.1-.3C102.07,55.26,102.07,55.26,102.43,52.88Z" transform="translate(-6 -34.67)"/><path class="cls-10" d="M187.32,94.5c0-4.72,0-9.24,0-13.76,0-.32.55-.75.93-.92a3.22,3.22,0,0,1,1.28,0c2.56,0,5.36-.13,6.65,2.6a11.16,11.16,0,0,1-.17,10c-.74,1.48-2.3,2-3.82,2.09S189.12,94.5,187.32,94.5ZM190.06,93c2.6.12,3.73-.58,4-2.89A25.68,25.68,0,0,0,194,84c-.27-2.08-1.66-2.83-4-2.49Z" transform="translate(-6 -34.67)"/><path class="cls-12" d="M169.49,94.37c-2.63.35-2.63.35-2.63-1.93,0-1.35,0-2.7,0-4,0-.93-.36-1.24-1.24-1.2s-1.83,0-3,0v5.18c0,2.33,0,2.33-2.53,2,0-.48-.08-1-.08-1.51,0-3.94,0-7.88,0-11.81,0-1,.31-1.32,1.3-1.32s1.39.26,1.34,1.29c-.06,1.44,0,2.89,0,4.23.24.16.33.25.42.26,3.84.33,3.84.33,3.84-3.53,0-.59-.18-1.36.12-1.72a2.31,2.31,0,0,1,1.68-.44,1.18,1.18,0,0,1,.78.89C169.5,85.25,169.49,89.78,169.49,94.37Z" transform="translate(-6 -34.67)"/><path class="cls-12" d="M99.06,94.38c1.06-3.62,2.08-7.12,3.11-10.62a22.82,22.82,0,0,1,1-3.07,1.7,1.7,0,0,1,1.26-.84,1.61,1.61,0,0,1,1.29.81c1.41,4.51,2.73,9,4.07,13.58-2.1.63-2.36.56-2.78-1.28-.24-1.06-.74-1.44-1.78-1.32a9.51,9.51,0,0,1-1.77,0c-.91-.09-1.33.26-1.56,1.18C101.42,94.67,101.36,94.66,99.06,94.38Zm5.53-10.53-.39,0L102.73,90h3.37C105.57,87.88,105.08,85.86,104.59,83.85Z" transform="translate(-6 -34.67)"/><path class="cls-12" d="M183.75,94.34c-1.79.55-2.76.14-2.92-1.59-.08-.85-.58-1.19-1.43-1.11a10.48,10.48,0,0,1-1.94,0c-1-.09-1.55.2-1.64,1.25-.14,1.73-1.19,1.94-2.8,1.44.59-2,1.17-4,1.76-6,.74-2.53,1.45-5.07,2.28-7.58a1.72,1.72,0,0,1,1.19-.94,1.63,1.63,0,0,1,1.34.71C181,85.1,182.36,89.69,183.75,94.34Zm-3.68-4.29-1.57-6.27h-.33c-.5,2-1,4.1-1.52,6.27Z" transform="translate(-6 -34.67)"/><path class="cls-12" d="M131.27,94.54c0-4.74,0-9.21,0-13.68a1.45,1.45,0,0,1,1-1,46.93,46.93,0,0,1,5.17,0c.37,0,.7.54,1.05.84-.35.23-.68.64-1,.67-1.06.09-2.14,0-3.5,0,0,1.46,0,2.78.05,4.09,0,.27.59.66.95.72.69.12,1.42-.06,2.09.08.4.07.73.51,1.09.79-.32.25-.62.66-1,.73-1,.2-2.89.08-3,.41a23.73,23.73,0,0,0-.14,4.83c1.24,0,2.41,0,3.57,0,.33,0,.63.48.95.74-.27.25-.54.7-.82.71C135.66,94.57,133.57,94.54,131.27,94.54Z" transform="translate(-6 -34.67)"/><path class="cls-12" d="M146.4,81.37v13h-2.68V90c0-2.32-.07-4.65,0-7,.05-1.29-.34-1.74-1.64-1.67-.46,0-1-.47-1.43-.73.47-.27.93-.76,1.42-.78,2.1-.09,4.21-.07,6.31,0,.4,0,.78.46,1.17.7a4.48,4.48,0,0,1-1.23.82A8.75,8.75,0,0,1,146.4,81.37Z" transform="translate(-6 -34.67)"/><path class="cls-13" d="M113.26,94.56V80c2.56-.47,2.62-.42,2.62,1.92,0,3.13.06,6.27,0,9.39,0,1.26.32,1.81,1.63,1.65a6.72,6.72,0,0,1,2.1,0c.34.07.59.55.88.84-.27.25-.53.72-.81.73C117.57,94.59,115.47,94.56,113.26,94.56Z" transform="translate(-6 -34.67)"/><path class="cls-5" d="M196.25,47.8c2.75-.37,2.75-.37,2.75,2.12V66.51c-2.38.8-2.76.55-2.76-1.71q0-7.59,0-15.18Z" transform="translate(-6 -34.67)"/><path class="cls-1" d="M67.33,111.28,60.54,111c-.14-.39-.28-.78-.58-1.58l4,.54-.12.19a8.48,8.48,0,0,1,2.39-.57c5.89.37,11.77.76,17.64,1.32a8.08,8.08,0,0,1,3.52,1.44c1.11.73,1,1.75-.27,2.17a48.92,48.92,0,0,1-7,1.8,55.76,55.76,0,0,1-6.71.61,4.38,4.38,0,0,1-1.58-.57c0-.3,0-.6,0-.91l1.93,0,1,.31c.93.35,1.87.85,2.6-.32h1l1.62,0h.64a12.32,12.32,0,0,0,2.82-.49,9.18,9.18,0,0,0,2-1.61c-.64-.5-1.22-1.31-1.93-1.45q-4.17-.82-8.39-1.27a50.09,50.09,0,0,0-5.2,0l-1,.67,0,.07-.7-.09Z" transform="translate(-6 -34.67)"/><path class="cls-12" d="M155.37,94.33c-2.53.5-2.6.45-2.61-1.92,0-3.72,0-7.45,0-11.18,0-1,.13-1.48,1.3-1.49s1.44.45,1.43,1.53c-.06,3.94,0,7.89,0,11.83C155.45,93.52,155.39,93.94,155.37,94.33Z" transform="translate(-6 -34.67)"/><path class="cls-5" d="M173.61,46.67c-.7,1,1.11,2.8-1.2,3.08s-2.56.12-2.53-1.78C169.91,46.33,170,46.28,173.61,46.67Z" transform="translate(-6 -34.67)"/><path class="cls-5" d="M163.37,49.55V46.63h3.21C167.36,49.68,166.74,50.26,163.37,49.55Z" transform="translate(-6 -34.67)"/><path class="cls-13" d="M125.56,88.7a10.45,10.45,0,0,1,1.77,0c.28,0,.51.39.76.61-.23.24-.45.67-.69.69a35.32,35.32,0,0,1-3.71,0c-.26,0-.49-.4-.74-.61.28-.25.53-.64.84-.7A9.49,9.49,0,0,1,125.56,88.7Z" transform="translate(-6 -34.67)"/><path class="cls-1" d="M51.16,110.85l-2.3.18-1.39-1.15C49.57,109.1,51,109.45,51.16,110.85Z" transform="translate(-6 -34.67)"/><path class="cls-14" d="M71.91,115.46v.91H70.6c-.11-.3-.22-.6-.34-.9l.64-.09Z" transform="translate(-6 -34.67)"/><path class="cls-1" d="M21.28,39.22l-1.91,1.9A1.88,1.88,0,0,1,21.28,39.22Z" transform="translate(-6 -34.67)"/><path class="cls-1" d="M6.07,85.92l.6.66Z" transform="translate(-6 -34.67)"/><path class="cls-1" d="M55.28,109.7l.27.12c0,.09-.06.23-.13.25s-.17-.06-.26-.1Z" transform="translate(-6 -34.67)"/><path class="cls-1" d="M56.9,109.7l.27.12c0,.09-.06.23-.12.25s-.18-.06-.27-.1Z" transform="translate(-6 -34.67)"/><path class="cls-15" d="M31.06,112.16l-2.33,1.46,2.81.68-.47,1-3.89,0c-.23-1.55-1.12-1-2-.61l-1.62,0c-.69-1.19-.73-2.13.9-2.52.28-.07.49-.4.73-.6l1.29-.06,1,.3Z" transform="translate(-6 -34.67)"/><path class="cls-14" d="M20,115.73a21.18,21.18,0,0,1-3.62.28,60.12,60.12,0,0,1-6.66-1,10,10,0,0,1-2.36-1.22c1-2,5.71-3.36,8.1-2.61v.66l-2.59.33a3.59,3.59,0,0,0-1.27,0,10.52,10.52,0,0,0-1.6,1c.42.42.76,1.06,1.25,1.21a28.07,28.07,0,0,0,3.57.65Z" transform="translate(-6 -34.67)"/><path class="cls-16" d="M12.91,112.17l2.59-.33,2.27-.33H19.7l.67,0c-.47.21-.93.45-1.42.62-1.21.44-2.79-.16-4,1.59,1.19.27,2.13.46,3.06.69,1.21.3,2.41.63,3.62.95l-.66.36H20l-5.18-.66-2.56-1.43Z" transform="translate(-6 -34.67)"/><path class="cls-15" d="M38.2,111.49c-1.91,1.55-4,1.13-6.17.67v-.92Z" transform="translate(-6 -34.67)"/><path class="cls-17" d="M25.23,111.6c-.24.2-.45.53-.73.6-1.63.39-1.59,1.33-.9,2.52.22.22.43.45.64.67l-.29,0-.67,0-.63-.07c-.64-.64-1.29-1.27-1.88-1.85l.9-1.63h.64l1.29-.34,1.3-.32a2.85,2.85,0,0,0,.29,0Z" transform="translate(-6 -34.67)"/><path class="cls-17" d="M32,111.24v.92h-1l-3.57-.32v-.65Z" transform="translate(-6 -34.67)"/><path class="cls-14" d="M24.9,111.19l-1.3.32-1.29,0v-.36c.74-.73,1.5-1.38,2.59-.58Z" transform="translate(-6 -34.67)"/><path class="cls-14" d="M22.65,115.34l.63.07v.64c-.83.42-1.65.76-2.28-.31l.66-.36Z" transform="translate(-6 -34.67)"/><path class="cls-14" d="M19.7,111.5H17.77v-.35c.49-1.09,1.22-.66,1.94-.3Z" transform="translate(-6 -34.67)"/><path class="cls-17" d="M25.22,114.75c.84-.39,1.73-.94,2,.61l-2,0Z" transform="translate(-6 -34.67)"/><path class="cls-14" d="M42.4,115.73h1l.64,1H42.4Z" transform="translate(-6 -34.67)"/><path class="cls-18" d="M17.77,111.16v.35l-2.27.33v-.66Z" transform="translate(-6 -34.67)"/><path class="cls-18" d="M19.7,111.5v-.64l1.63.31v.35h-1Z" transform="translate(-6 -34.67)"/><path class="cls-19" d="M25.22,114.75v.66l-1,0c-.21-.22-.42-.45-.64-.67Z" transform="translate(-6 -34.67)"/><path class="cls-16" d="M25.23,111.6c0-.13,0-.25,0-.38l.36-.37,1,.28c0,.14,0,.27,0,.41Z" transform="translate(-6 -34.67)"/><path class="cls-16" d="M21.34,111.52v-.35l1,0v.73h-.64Z" transform="translate(-6 -34.67)"/><path class="cls-19" d="M26.52,111.54c0-.14,0-.27,0-.41l1,.06v.65Z" transform="translate(-6 -34.67)"/><path class="cls-18" d="M23.28,116.05v-.64l.67,0Z" transform="translate(-6 -34.67)"/><path class="cls-18" d="M25.55,110.85l-.36.37a2.85,2.85,0,0,1-.29,0v-.65Z" transform="translate(-6 -34.67)"/><path class="cls-17" d="M70.9,115.38l-.64.09-.62,0L68.31,115l1-.62,1.87-.88-1.24-1.38v-.55c0-.11,0-.23,0-.34v-.06l.93.07c.18.29.34.79.55.82,1.93.27,2,1.26,1.09,2.64Z" transform="translate(-6 -34.67)"/><path class="cls-14" d="M64.76,115.54l3.57-.17,0,.37Z" transform="translate(-6 -34.67)"/><path class="cls-16" d="M68.28,115.74l0-.37c0-.11,0-.22,0-.33l1.33.38Z" transform="translate(-6 -34.67)"/><path class="cls-20" d="M26.55,46.41,33,41.18c3.18,1.18,6.43,2.19,9.5,3.61a44.15,44.15,0,0,1,6.33,4c1.11.77,2,1.68,3.58,1.32.54-.12,1.32.84,2,1.31l-.71.05-7.38,0-2.6.1-2.92,0H29.46c-3.86,0-3.86,0-3.92,3.9-.2-.14-.59-.32-.57-.43.29-2-1-1.95-2.34-1.84v-.32c1.14-1.72,2.29-3.43,3.4-5.16A7.65,7.65,0,0,0,26.55,46.41Z" transform="translate(-6 -34.67)"/><path class="cls-20" d="M53.42,63.55c3.93.14,3.94.14,3.94,4,0,3,0,6,0,9,0,1.19-.3,1.67-1.53,1.57a22.79,22.79,0,0,0-2.74.07H49.22l-1.63-.13c.1-1.13.22-2.25.32-3.37.29-3,1.2-6.1-1.14-9.19.82-.36,1.6-.66,2.33-1a7.45,7.45,0,0,0,1.07-.8Z" transform="translate(-6 -34.67)"/><path class="cls-21" d="M49.22,78.23h3.89q.15,6,.32,12.1l-3.57.13-.32-.12Z" transform="translate(-6 -34.67)"/><path class="cls-21" d="M53.42,63.55l-3.25.15-.32-.14c0-1.34,0-2.68,0-4-.08-2.56-.21-5.11-.32-7.67h3.89c.11,2.46.27,4.93.3,7.4C53.74,60.7,53.53,62.13,53.42,63.55Z" transform="translate(-6 -34.67)"/><path class="cls-7" d="M53.42,51.87H49.53l-3.23-.4,7.38,0Z" transform="translate(-6 -34.67)"/><path class="cls-20" d="M57.31,106c-.11-2.21-.24-4.41-.3-6.62a8.38,8.38,0,0,1,.32-1.82C57.32,100.38,57.32,103.19,57.31,106Z" transform="translate(-6 -34.67)"/><path class="cls-20" d="M57.33,96.94c-.12-.72-.27-1.43-.34-2.15-.13-1.44-.22-2.87-.33-4.31.24.45.65.9.67,1.37C57.4,93.54,57.34,95.24,57.33,96.94Z" transform="translate(-6 -34.67)"/><path class="cls-22" d="M49.85,63.56l.32.14a7.45,7.45,0,0,1-1.07.8c-.73.38-1.51.68-2.33,1,2.34,3.09,1.43,6.17,1.14,9.19-.1,1.12-.22,2.24-.32,3.37l-1.93.11H34.31l-3.57,0c-1.33,0-2.67,0-4,0-.92,0-1.21.34-1.2,1.22,0,2.3,0,4.59,0,6.89l-1.23,2.86-1,.06-.3,0c-.83-1.86-1.79-3.68-2.47-5.59a36,36,0,0,1-2.17-16.63,37.13,37.13,0,0,1,4.29-13.74C24,53.06,25.26,53,25,55c0,.11.37.29.57.43,0,2.24.05,4.49,0,6.73,0,1,.26,1.47,1.35,1.41,1.27-.08,2.56,0,3.84,0H49.85Z" transform="translate(-6 -34.67)"/><path class="cls-23" d="M22.63,53.17a37.13,37.13,0,0,0-4.29,13.74,36,36,0,0,0,2.17,16.63c.68,1.91,1.64,3.73,2.47,5.59-2.37.85-4-.65-5.63-1.91a23.21,23.21,0,0,1-7.72-12c-1.12-3.73-.2-7.23,1-10.81a20.08,20.08,0,0,1,6.84-9.35c1.41-1.14,3.43-1.51,5.17-2.23C22.62,53,22.63,53.06,22.63,53.17Z" transform="translate(-6 -34.67)"/><path class="cls-20" d="M23.28,89.15l1-.06c.48-1.1.85-2,1.23-2.86.06,4.26.06,4.26,4.41,4.21l.79,0h9.4l5.48-.19,3.92.17.32.12a6.11,6.11,0,0,1-1.09,1.26c-1.33.86-2.72,1.61-4.07,2.42-.55.33-1,.75-1.58,1.09-1.06.68-2.13,1.33-3.2,2a1.79,1.79,0,0,1-.71.31c-1.29.15-2.58.27-3.88.36s-1.8,1.13-2,2.3l-4.18-3c-1.83-2.36-3.67-4.72-5.48-7.1A3.57,3.57,0,0,1,23.28,89.15Z" transform="translate(-6 -34.67)"/><path class="cls-15" d="M69.93,112.16l1.24,1.38-1.87.88a6.84,6.84,0,0,1,0-1.5C69.35,112.64,69.71,112.41,69.93,112.16Z" transform="translate(-6 -34.67)"/><path class="cls-17" d="M67.33,111.28l1-.09v.66l-1,.31,0-.34Z" transform="translate(-6 -34.67)"/><path class="cls-15" d="M67.33,111.82l0,.34c-.23.08-.45.16-.68.22,0,0-.09-.15-.14-.24Z" transform="translate(-6 -34.67)"/><path class="cls-18" d="M69,111.21l1-.67v.73l-.4,0Z" transform="translate(-6 -34.67)"/><path class="cls-19" d="M68.33,111.85v-.66l.7.09Z" transform="translate(-6 -34.67)"/><path class="cls-19" d="M69.57,111.3l.4,0c0,.11,0,.23,0,.34Z" transform="translate(-6 -34.67)"/><path class="cls-14" d="M70,111.21v-.67a50.09,50.09,0,0,1,5.2,0q4.21.45,8.39,1.27c.71.14,1.29,1,1.93,1.45a9.18,9.18,0,0,1-2,1.61,12.32,12.32,0,0,1-2.82.49c.49-.32,1-.61,1.47-1s.88-.64,1-1.06c.07-.23-.44-.87-.8-1-1.19-.36-2.42-.58-3.64-.85l-1.31,0h-.6l-4.58-.33-1.31,0Z" transform="translate(-6 -34.67)"/><path class="cls-18" d="M78.69,111.52c1.22.27,2.45.49,3.64.85.36.11.87.75.8,1-.14.42-.63.76-1,1.06s-1,.66-1.47,1H80l-1-.63a5.34,5.34,0,0,0,.68-.33c.53-.35,1-.72,1.55-1.08-.5-.39-1-.8-1.49-1.17C79.43,111.93,79.05,111.74,78.69,111.52Z" transform="translate(-6 -34.67)"/><path class="cls-14" d="M77.41,115.41c-.73,1.17-1.67.67-2.6.32v-.64l.31,0h2Z" transform="translate(-6 -34.67)"/><path class="cls-16" d="M70.9,115.38l1.63-.64,1.31.32v.36l-1.93,0Z" transform="translate(-6 -34.67)"/><path class="cls-14" d="M79,114.76l1,.63-1.62,0c0-.22,0-.43,0-.64Z" transform="translate(-6 -34.67)"/><path class="cls-18" d="M78.39,114.77v.64h-1l-.33-.33v-.34h1Z" transform="translate(-6 -34.67)"/><path class="cls-18" d="M73.84,115.42v-.36l1,0v.64Z" transform="translate(-6 -34.67)"/><path class="cls-18" d="M12.91,112.17l-.61,1.47,2.56,1.43a28.07,28.07,0,0,1-3.57-.65c-.49-.15-.83-.79-1.25-1.21a10.52,10.52,0,0,1,1.6-1A3.59,3.59,0,0,1,12.91,112.17Z" transform="translate(-6 -34.67)"/><path class="cls-19" d="M21.34,111.52l.33.33c-.28.51-.55,1-.9,1.64.59.58,1.24,1.21,1.88,1.85l-1,0c-1.21-.32-2.41-.65-3.62-.95-.93-.23-1.87-.42-3.06-.69,1.18-1.75,2.76-1.15,4-1.59.49-.17.95-.41,1.42-.62Z" transform="translate(-6 -34.67)"/><path class="cls-19" d="M22.31,111.85v-.37l1.29,0Z" transform="translate(-6 -34.67)"/><path class="cls-19" d="M74.82,115.09l-1,0-1.31-.32c.86-1.38.84-2.37-1.09-2.64-.21,0-.37-.53-.55-.82l1.31,0c.8.74,3.59,1.13,4.46.62.07,0,.08-.19.12-.29h.6l1.89,1.62L78,114.74h-1c-.73-.34-1.47-.79-2,.33Z" transform="translate(-6 -34.67)"/><path class="cls-24" d="M49.85,63.56H43.7v-12l2.6-.1,3.23.4c.11,2.56.24,5.11.32,7.67C49.89,60.88,49.85,62.22,49.85,63.56Z" transform="translate(-6 -34.67)"/><path class="cls-25" d="M30.73,63.55c-1.28,0-2.57,0-3.84,0-1.09.06-1.38-.39-1.35-1.41.05-2.24,0-4.49,0-6.73.06-3.9.06-3.91,3.92-3.9h1.27Z" transform="translate(-6 -34.67)"/><path class="cls-26" d="M30.73,63.55v-12H34.3c0,1.68,0,3.36,0,5,0,2.32,0,4.64,0,7Z" transform="translate(-6 -34.67)"/><path class="cls-27" d="M34.3,63.55c0-2.32,0-4.64,0-7,0-1.68,0-3.36,0-5h3.56q-.15,6-.32,12Z" transform="translate(-6 -34.67)"/><path class="cls-28" d="M37.54,63.55q.16-6,.32-12h2.92v12Z" transform="translate(-6 -34.67)"/><path class="cls-29" d="M40.78,63.55v-12l2.92,0v12Z" transform="translate(-6 -34.67)"/><path class="cls-24" d="M49.54,90.35l-3.92-.17a38.11,38.11,0,0,0,.32-4c0-2.66-.18-5.33-.28-8l1.93-.11,1.63.13Q49.39,84.29,49.54,90.35Z" transform="translate(-6 -34.67)"/><path class="cls-29" d="M45.66,78.21c.1,2.66.26,5.33.28,8a38.11,38.11,0,0,1-.32,4l-5.48.19V78.21Z" transform="translate(-6 -34.67)"/><path class="cls-25" d="M30.74,90.4l-.79,0c-4.35,0-4.35,0-4.41-4.21,0-2.3,0-4.59,0-6.89,0-.88.28-1.26,1.2-1.22,1.33.06,2.67,0,4,0a34.48,34.48,0,0,1,.3,3.49C31,84.58,30.85,87.49,30.74,90.4Z" transform="translate(-6 -34.67)"/><path class="cls-26" d="M30.74,90.4c.11-2.91.25-5.82.3-8.74a34.48,34.48,0,0,0-.3-3.49h3.57c.1,1.23.31,2.46.29,3.68,0,2.85-.19,5.69-.29,8.53Z" transform="translate(-6 -34.67)"/><path class="cls-27" d="M34.31,90.39c.1-2.84.25-5.68.29-8.53,0-1.22-.19-2.45-.29-3.68h3.24V90.38Z" transform="translate(-6 -34.67)"/><path class="cls-28" d="M37.55,90.38V78.19l2.59,0V90.37Z" transform="translate(-6 -34.67)"/><path class="cls-16" d="M78,114.74l1.23-1.55-1.89-1.62,1.31,0c.36.22.74.41,1.07.66.51.37,1,.78,1.49,1.17-.52.36-1,.73-1.55,1.08a5.34,5.34,0,0,1-.68.33h-.63Z" transform="translate(-6 -34.67)"/><path class="cls-16" d="M76.78,111.56c0,.1,0,.25-.12.29-.87.51-3.66.12-4.46-.62Z" transform="translate(-6 -34.67)"/><path class="cls-16" d="M75.13,115.07c.48-1.12,1.22-.67,2-.33v.34Z" transform="translate(-6 -34.67)"/></svg>