<svg id="Layer_1" data-name="Layer 1" xmlns="http://www.w3.org/2000/svg" viewBox="0 0 20.28 23.07"><defs><style>.cls-1{fill:#fff;}</style></defs><path class="cls-1" d="M17.12,11.84V9.69a7,7,0,0,0-5-6.69V2.06A2.09,2.09,0,0,0,10.25,0,2,2,0,0,0,8.11,2V3a7,7,0,0,0-5,6.69v2.15a10.6,10.6,0,0,1-3,7.38.68.68,0,0,0,0,.89.72.72,0,0,0,.55.26H6.83a3.38,3.38,0,0,0,6.62,0h6.14a.72.72,0,0,0,.55-.26.68.68,0,0,0-.05-.89A10.61,10.61,0,0,1,17.12,11.84ZM9.46,2a.68.68,0,0,1,.76-.67.68.68,0,0,1,.59.69v.69c-.22,0-.44,0-.67,0s-.45,0-.68,0Zm.68,19.69a2,2,0,0,1-1.91-1.35h3.82a2,2,0,0,1-1.91,1.35Zm-8-2.7a12,12,0,0,0,2.38-7.18V9.75a5.63,5.63,0,1,1,11.26-.06v2.15A12,12,0,0,0,18.14,19Z"/><path class="cls-1" d="M18.93,9.69a.67.67,0,0,0,.67.67.68.68,0,0,0,.68-.67,10.08,10.08,0,0,0-3-7.17.68.68,0,1,0-1,1,8.75,8.75,0,0,1,2.58,6.22Z"/><path class="cls-1" d="M.68,10.36a.67.67,0,0,0,.67-.67A8.75,8.75,0,0,1,3.93,3.47a.68.68,0,1,0-1-1A10,10,0,0,0,0,9.69.67.67,0,0,0,.68,10.36Z"/></svg>