<svg id="Layer_1" data-name="Layer 1" xmlns="http://www.w3.org/2000/svg" viewBox="0 0 23.21 23.75"><defs><style>.cls-1{fill:#fff;fill-rule:evenodd;}</style></defs><path class="cls-1" d="M14.49,1.11a.64.64,0,0,0-.79.67,2.17,2.17,0,1,1-4.33,0,.64.64,0,0,0-.79-.67,10.42,10.42,0,0,0-2.43,1,.56.56,0,0,0-.06.9A2.16,2.16,0,0,1,3,6.09a.56.56,0,0,0-.9.06,10.42,10.42,0,0,0-1,2.43.64.64,0,0,0,.67.79,2.17,2.17,0,1,1,0,4.33.64.64,0,0,0-.67.79,10.53,10.53,0,0,0,1.17,2.68.56.56,0,0,0,.89.06,2.24,2.24,0,1,1,3.12,3.21.37.37,0,0,0,0,.6A10.61,10.61,0,0,0,8.58,22a.64.64,0,0,0,.79-.68.54.54,0,1,1,1.08,0A1.73,1.73,0,0,1,8.29,23,11.84,11.84,0,0,1,5.8,22a1.45,1.45,0,0,1-.25-2.33A1.16,1.16,0,1,0,3.94,18a1.64,1.64,0,0,1-2.58-.25,11.51,11.51,0,0,1-1.29-3,1.72,1.72,0,0,1,1.71-2.16,1.09,1.09,0,1,0,0-2.17A1.72,1.72,0,0,1,.07,8.29,11.26,11.26,0,0,1,1.19,5.62a1.65,1.65,0,0,1,2.6-.3A1.08,1.08,0,0,0,5.32,3.79a1.65,1.65,0,0,1,.3-2.6A11.26,11.26,0,0,1,8.29.07a1.72,1.72,0,0,1,2.16,1.71,1.09,1.09,0,1,0,2.17,0A1.72,1.72,0,0,1,14.78.07a11.43,11.43,0,0,1,2.67,1.12,1.64,1.64,0,0,1,.29,2.6,1.09,1.09,0,1,0,1.54,1.53,1.65,1.65,0,0,1,2.6.3A11.68,11.68,0,0,1,23,8.29a1.73,1.73,0,0,1-1.72,2.16,1.08,1.08,0,0,0-.87.44.54.54,0,1,1-.87-.64,2.17,2.17,0,0,1,1.74-.88A.64.64,0,0,0,22,8.58a10.42,10.42,0,0,0-1-2.43.56.56,0,0,0-.9-.06A2.16,2.16,0,1,1,17,3a.56.56,0,0,0-.07-.9,10.34,10.34,0,0,0-2.42-1Z"/><path class="cls-1" d="M7.94,10.09A1.62,1.62,0,0,0,8.61,7.9a.56.56,0,0,1,.23-.73.54.54,0,0,1,.73.23A2.69,2.69,0,0,1,8.44,11a.54.54,0,0,1-.73-.22A.53.53,0,0,1,7.94,10.09Z"/><path class="cls-1" d="M17.28,13a4.86,4.86,0,1,0,4.85,4.86A4.85,4.85,0,0,0,17.28,13Zm-5.94,4.86a5.94,5.94,0,1,1,5.94,5.93A5.94,5.94,0,0,1,11.34,17.82Z"/><path class="cls-1" d="M16.73,15.63v-.49a.54.54,0,0,1,.52-.55.54.54,0,0,1,.54.53v.53a.52.52,0,0,1-.54.53A.54.54,0,0,1,16.73,15.63Z"/><path class="cls-1" d="M16.73,20.48V17.86a.54.54,0,0,1,.52-.55.52.52,0,0,1,.54.53v2.65a.54.54,0,0,1-.54.54A.55.55,0,0,1,16.73,20.48Z"/></svg>