<?xml version="1.0" encoding="utf-8"?>
<!-- Generator: Adobe Illustrator 25.0.0, SVG Export Plug-In . SVG Version: 6.00 Build 0)  -->
<svg version="1.1" id="Layer_1" xmlns="http://www.w3.org/2000/svg" xmlns:xlink="http://www.w3.org/1999/xlink" x="0px" y="0px"
	 viewBox="0 0 24.35 19.4" style="enable-background:new 0 0 24.35 19.4;" xml:space="preserve">
<style type="text/css">
	.st0{fill:#FFFFFF;}
</style>
<g>
	<g>
		<path class="st0" d="M13.71,19.4h-3.05c-0.71,0-1.52-0.49-1.52-1.46v-1.7c0-0.81-0.51-1.54-1.32-2.1
			c-1.83-1.13-2.74-2.75-2.74-4.53c0.1-3.07,3.25-5.5,7.01-5.58c1.93,0,3.76,0.57,5.08,1.62s2.13,2.51,2.13,4.04
			c0,1.7-0.91,3.32-2.64,4.37c-0.91,0.57-1.42,1.46-1.42,2.27v1.86C15.23,18.84,14.52,19.4,13.71,19.4L13.71,19.4z M12.16,4.85
			c-3.24,0-5.97,2.18-6.07,4.77c0,1.54,0.81,2.99,2.33,3.88c1.11,0.73,1.72,1.7,1.72,2.75v1.7c0,0.16,0,0.65,0.51,0.65h3.04
			c0.28,0,0.51-0.18,0.51-0.4v-1.86c0-1.05,0.71-2.18,1.82-2.91c1.42-0.89,2.23-2.27,2.23-3.72c0-1.29-0.61-2.51-1.82-3.48
			C15.3,5.34,13.78,4.85,12.16,4.85L12.16,4.85z"/>
	</g>
	<g>
		<path class="st0" d="M13.74,16.97H9.6c-0.24,0-0.44-0.18-0.43-0.41c0.01-0.23,0.17-0.38,0.41-0.38l4.14,0
			c0.24,0,0.44,0.18,0.43,0.41C14.15,16.82,13.98,16.97,13.74,16.97z"/>
	</g>
	<g>
		<path class="st0" d="M11.66,1.98V0.41c0-0.23,0.23-0.42,0.52-0.41c0.29,0.01,0.48,0.16,0.48,0.4v1.59c0,0.23-0.19,0.39-0.48,0.4
			C11.89,2.39,11.66,2.2,11.66,1.98z"/>
	</g>
	<g>
		<path class="st0" d="M18.98,4.67c-0.1,0-0.3,0-0.41-0.08c-0.2-0.16-0.2-0.4,0-0.57L20,2.89c0.2-0.16,0.51-0.16,0.71,0
			c0.2,0.16,0.2,0.4,0,0.57l-1.42,1.13C19.29,4.59,19.09,4.67,18.98,4.67L18.98,4.67z"/>
	</g>
	<g>
		<path class="st0" d="M23.85,10.07h-1.98c-0.29,0-0.52-0.18-0.52-0.41c0.01-0.23,0.21-0.38,0.5-0.38h1.98
			c0.29,0,0.52,0.18,0.52,0.41C24.34,9.92,24.14,10.07,23.85,10.07z"/>
	</g>
	<g>
		<path class="st0" d="M20.41,16.65c-0.1,0-0.3,0-0.41-0.08l-1.42-1.13c-0.2-0.16-0.2-0.4,0-0.57c0.2-0.16,0.51-0.16,0.71,0
			L20.71,16c0.2,0.16,0.2,0.4,0,0.57C20.71,16.65,20.61,16.65,20.41,16.65L20.41,16.65z"/>
	</g>
	<g>
		<path class="st0" d="M3.94,16.65c-0.1,0-0.3,0-0.41-0.08c-0.2-0.16-0.2-0.4,0-0.57l1.42-1.13c0.2-0.16,0.51-0.16,0.71,0
			c0.2,0.16,0.2,0.4,0,0.57l-1.42,1.13C4.14,16.65,4.04,16.65,3.94,16.65z"/>
	</g>
	<g>
		<path class="st0" d="M2.5,10.07H0.52c-0.29,0-0.52-0.18-0.52-0.41c0.01-0.23,0.21-0.38,0.5-0.38h1.98c0.29,0,0.52,0.18,0.52,0.41
			C2.99,9.92,2.8,10.07,2.5,10.07z"/>
	</g>
	<g>
		<path class="st0" d="M5.36,4.67c-0.1,0-0.3,0-0.41-0.08L3.53,3.38c-0.2-0.16-0.2-0.4,0-0.57c0.2-0.16,0.51-0.16,0.71,0l1.42,1.13
			c0.2,0.16,0.2,0.4,0,0.57C5.57,4.59,5.46,4.67,5.36,4.67L5.36,4.67z"/>
	</g>
	<g>
		<path class="st0" d="M16.24,10.09c-0.3,0-0.51-0.16-0.51-0.4c0-1.54-1.63-2.83-3.56-2.83c-0.3,0-0.51-0.16-0.51-0.4
			s0.2-0.4,0.51-0.4c2.54,0,4.57,1.62,4.57,3.64C16.75,9.93,16.54,10.09,16.24,10.09z"/>
	</g>
</g>
</svg>
