<svg id="Layer_1" data-name="Layer 1" xmlns="http://www.w3.org/2000/svg" viewBox="0 0 28.24 18.81"><defs><style>.cls-1{fill:#fff;}</style></defs><path class="cls-1" d="M25.29,0H2.94A2.94,2.94,0,0,0,0,2.94V15.86a3,3,0,0,0,2.94,2.95H25.29a3,3,0,0,0,2.95-2.95V2.94A3,3,0,0,0,25.29,0ZM27,15.88a1.77,1.77,0,0,1-1.76,1.77H2.92a1.76,1.76,0,0,1-1.76-1.77v-13A1.76,1.76,0,0,1,2.92,1.16H25.26A1.76,1.76,0,0,1,27,2.92v13Z"/><path class="cls-1" d="M25.78,2.62A.58.58,0,0,0,25,2.47l-9.65,6.6a2.13,2.13,0,0,1-2.39,0L3.27,2.47a.57.57,0,0,0-.81.15.58.58,0,0,0,.15.82L12.26,10A3.27,3.27,0,0,0,16,10l9.65-6.6A.6.6,0,0,0,25.78,2.62Z"/><path class="cls-1" d="M10.45,9.63a.59.59,0,0,0-.83-.07L2.56,15.44a.59.59,0,0,0-.07.83.57.57,0,0,0,.45.21.56.56,0,0,0,.38-.14l7.06-5.88A.59.59,0,0,0,10.45,9.63Z"/><path class="cls-1" d="M25.67,15.44,18.61,9.56a.59.59,0,0,0-.83.07.6.6,0,0,0,.08.83l7.06,5.88a.54.54,0,0,0,.37.14.6.6,0,0,0,.46-.21A.59.59,0,0,0,25.67,15.44Z"/></svg>