<svg id="Layer_1" data-name="Layer 1" xmlns="http://www.w3.org/2000/svg" viewBox="0 0 26.55 26.25"><defs><style>.cls-1{fill:#fff;stroke:#fff;stroke-miterlimit:10;stroke-width:0.5px;}</style></defs><path class="cls-1" d="M26.08,3.4,23,.48a.64.64,0,0,0-.47-.23H10.23A.66.66,0,0,0,9.57.9v2l-4.34.74a.64.64,0,0,0-.52.74l.22,1.29c-1.41.47-2.86,1-4.26,1.46A.64.64,0,0,0,.29,8l2.78,7.72a.38.38,0,0,0,.36.25l.13,0a.38.38,0,0,0,.23-.49L1.05,7.81c1.31-.47,2.68-.94,4-1.38l1.31,7.63,1.51,8.78a.65.65,0,0,0,.64.53h.1l4.09-.7,3.19-.54-4.8,1.72L7.31,25.2,4.37,17a.38.38,0,0,0-.72.26l3,8.28a.64.64,0,0,0,.6.43.85.85,0,0,0,.22,0l3.9-1.4,8.85-3.18,1.7-.29h3.73a.66.66,0,0,0,.66-.65V3.83a.58.58,0,0,0-.22-.43Zm-1,.1H23.13c-.1,0-.31,0-.36,0s0-.05,0-.13v-2Zm.45,16.88H10.39V12.92a.45.45,0,0,0-.42-.38.41.41,0,0,0-.4.38v7.54a.65.65,0,0,0,.67.63H17.4l-4.81.85-4,.68L7.14,13.94,5.5,4.38l4.07-.7v7.47a.41.41,0,0,0,.4.38c.21,0,.42-.38.42-.38V1H22V3.32a.92.92,0,0,0,.25.67,1.16,1.16,0,0,0,.85.28h2.45Z"/><path class="cls-1" d="M12.58,6.55H23.45a.4.4,0,0,0,.4-.33.38.38,0,0,0-.38-.43H12.57a.38.38,0,0,0-.38.43A.39.39,0,0,0,12.58,6.55Z"/><path class="cls-1" d="M23.47,8.48H12.58a.39.39,0,0,0-.39.34.38.38,0,0,0,.38.43H23.45a.4.4,0,0,0,.4-.34A.38.38,0,0,0,23.47,8.48Z"/><path class="cls-1" d="M23.47,11.23H12.58a.39.39,0,0,0-.39.33.38.38,0,0,0,.38.43H23.45a.4.4,0,0,0,.4-.33A.38.38,0,0,0,23.47,11.23Z"/><path class="cls-1" d="M23.47,13.92H12.58a.39.39,0,0,0-.39.34.38.38,0,0,0,.38.43H23.45a.4.4,0,0,0,.4-.34A.38.38,0,0,0,23.47,13.92Z"/><path class="cls-1" d="M23.47,16.62H12.58a.39.39,0,0,0-.39.33.38.38,0,0,0,.38.43H23.45a.4.4,0,0,0,.4-.33A.38.38,0,0,0,23.47,16.62Z"/></svg>