<svg id="Layer_1" data-name="Layer 1" xmlns="http://www.w3.org/2000/svg" viewBox="0 0 23.97 23.97"><defs><style>.cls-1{fill:#fff;}</style></defs><path class="cls-1" d="M19.63,23.17h-.85V24H20a.4.4,0,0,0,.39-.33l3-17.58-.78-.13Z"/><path class="cls-1" d="M23.64,2l-4.79-.85-.14.79,4.4.78-.41,2.4.79.13L24,2.45A.4.4,0,0,0,23.64,2Z"/><path class="cls-1" d="M17.58,0H.4A.4.4,0,0,0,0,.4V16.78H.8V.8H17.18V23.17H.8V17.58H0v6a.4.4,0,0,0,.4.4H17.58a.4.4,0,0,0,.4-.4V.4A.4.4,0,0,0,17.58,0Z"/><path class="cls-1" d="M3.88,13.29l-.57.56,1.2,1.2a.44.44,0,0,0,.28.12h0A.47.47,0,0,0,5.1,15l2.39-2.8-.6-.52L4.77,14.18Z"/><path class="cls-1" d="M2,15a1.4,1.4,0,0,0,1.4,1.4h2A1.4,1.4,0,0,0,6.79,15v-.2H6V15a.6.6,0,0,1-.6.6h-2a.6.6,0,0,1-.6-.6V13a.59.59,0,0,1,.6-.59H5.19v-.8H3.4A1.39,1.39,0,0,0,2,13Z"/><path class="cls-1" d="M3.88,19.28l-.57.56L4.51,21a.39.39,0,0,0,.28.12h0A.47.47,0,0,0,5.1,21l2.39-2.8-.6-.52L4.77,20.17Z"/><path class="cls-1" d="M2,21a1.39,1.39,0,0,0,1.4,1.39h2A1.39,1.39,0,0,0,6.79,21v-.2H6V21a.61.61,0,0,1-.6.6h-2a.61.61,0,0,1-.6-.6V19a.6.6,0,0,1,.6-.6H5.19v-.8H3.4A1.4,1.4,0,0,0,2,19Z"/><path class="cls-1" d="M8.39,17.58h6v.8h-6Z"/><path class="cls-1" d="M8.39,19.58h2v.8h-2Z"/><path class="cls-1" d="M11.19,19.58h3.19v.8H11.19Z"/><path class="cls-1" d="M8.39,11.59h6v.8h-6Z"/><path class="cls-1" d="M8.39,13.58h2v.8h-2Z"/><path class="cls-1" d="M11.19,13.58h3.19v.8H11.19Z"/><path class="cls-1" d="M12.94,3.22,9.35,1.62a.38.38,0,0,0-.33,0L5.43,3.22a.38.38,0,0,0-.23.42l.3,1.9h0A6.52,6.52,0,0,0,8.08,9.66L9,10.3a.41.41,0,0,0,.47,0l.83-.6a6.54,6.54,0,0,0,2.61-4.13h0l.3-1.92a.4.4,0,0,0-.23-.42Zm-.86,2.21a5.77,5.77,0,0,1-2.3,3.62l-.59.43L8.55,9A5.68,5.68,0,0,1,6.29,5.42L6,3.82l3.15-1.4,3.15,1.4Z"/><path class="cls-1" d="M7.86,5.3l-.56.56,1.2,1.2a.39.39,0,0,0,.56,0l2.4-2.4-.57-.56L8.78,6.21Z"/><path class="cls-1" d="M2,1.6H4.39v.8H2Z"/><path class="cls-1" d="M2,3.2H3.6V4H2Z"/><path class="cls-1" d="M14,1.6h.8v.8H14Z"/><path class="cls-1" d="M15.58,1.6h.8v.8h-.8Z"/></svg>