<?xml version="1.0" encoding="utf-8"?>
<!-- Generator: Adobe Illustrator 25.0.0, SVG Export Plug-In . SVG Version: 6.00 Build 0)  -->
<svg version="1.1" id="Layer_1" xmlns="http://www.w3.org/2000/svg" xmlns:xlink="http://www.w3.org/1999/xlink" x="0px" y="0px"
	 viewBox="0 0 20.44 24.5" style="enable-background:new 0 0 20.44 24.5;" xml:space="preserve">
<style type="text/css">
	.st0{fill:#FFFFFF;}
</style>
<g>
	<path class="st0" d="M10.07,11.8c1.62,0,3.03-0.58,4.17-1.73c1.15-1.15,1.73-2.55,1.73-4.17c0-1.62-0.58-3.02-1.73-4.17
		C13.09,0.58,11.69,0,10.07,0C8.44,0,7.04,0.58,5.89,1.73S4.16,4.28,4.16,5.9c0,1.62,0.58,3.03,1.73,4.17
		C7.04,11.22,8.44,11.8,10.07,11.8z"/>
	<path class="st0" d="M20.39,18.84c-0.03-0.48-0.1-1-0.2-1.55c-0.1-0.55-0.23-1.08-0.38-1.56c-0.16-0.49-0.37-0.98-0.64-1.45
		c-0.28-0.49-0.6-0.91-0.96-1.26c-0.38-0.36-0.85-0.66-1.39-0.87c-0.54-0.21-1.13-0.32-1.77-0.32c-0.25,0-0.49,0.1-0.96,0.41
		c-0.29,0.19-0.62,0.4-1,0.64c-0.32,0.2-0.76,0.4-1.29,0.57c-0.52,0.17-1.06,0.26-1.58,0.26s-1.06-0.09-1.58-0.26
		c-0.54-0.17-0.97-0.36-1.29-0.57c-0.37-0.24-0.71-0.45-1-0.64c-0.47-0.3-0.71-0.41-0.96-0.41c-0.64,0-1.23,0.11-1.77,0.32
		c-0.54,0.21-1.01,0.51-1.39,0.87c-0.36,0.35-0.69,0.77-0.96,1.26C1,14.75,0.79,15.24,0.63,15.73c-0.15,0.48-0.28,1-0.38,1.56
		c-0.1,0.55-0.17,1.07-0.2,1.55C0.02,19.31,0,19.8,0,20.29c0,1.28,0.41,2.31,1.21,3.08C2,24.12,3.05,24.5,4.32,24.5h11.8
		c1.27,0,2.32-0.38,3.11-1.14c0.8-0.76,1.21-1.8,1.21-3.08C20.44,19.79,20.42,19.31,20.39,18.84z"/>
</g>
</svg>
